G04 Layer: BottomSilkLayer*
G04 EasyEDA v6.3.39, 2020-04-30T23:39:24+05:30*
G04 1361d28c2fbe473eb46aea13557a18e3,781d2bfaae87481f995808756cab4c07,10*
G04 Gerber Generator version 0.2*
G04 Scale: 100 percent, Rotated: No, Reflected: No *
G04 Dimensions in inches *
G04 leading zeros omitted , absolute positions ,2 integer and 4 decimal *
%FSLAX24Y24*%
%MOIN*%
G90*
G70D02*

%ADD10C,0.010000*%
%ADD48C,0.008000*%
%ADD53C,0.006000*%

%LPD*%
G54D10*
G01X27133Y12211D02*
G01X27133Y11582D01*
G01X26405Y11584D02*
G01X25913Y11584D01*
G01X26405Y12213D02*
G01X25913Y12213D01*
G01X26641Y11582D02*
G01X27133Y11582D01*
G01X26641Y12211D02*
G01X27133Y12211D01*
G01X25913Y12213D02*
G01X25913Y11584D01*
G54D48*
G01X28247Y13570D02*
G01X28247Y13141D01*
G01X28247Y13570D02*
G01X28063Y13570D01*
G01X28001Y13550D01*
G01X27981Y13529D01*
G01X27961Y13488D01*
G01X27961Y13448D01*
G01X27981Y13407D01*
G01X28001Y13386D01*
G01X28063Y13366D01*
G01X28247Y13366D01*
G01X28104Y13366D02*
G01X27961Y13141D01*
G01X27539Y13509D02*
G01X27580Y13550D01*
G01X27641Y13570D01*
G01X27723Y13570D01*
G01X27785Y13550D01*
G01X27826Y13509D01*
G01X27826Y13468D01*
G01X27805Y13427D01*
G01X27785Y13407D01*
G01X27744Y13386D01*
G01X27621Y13345D01*
G01X27580Y13325D01*
G01X27560Y13304D01*
G01X27539Y13263D01*
G01X27539Y13202D01*
G01X27580Y13161D01*
G01X27641Y13141D01*
G01X27723Y13141D01*
G01X27785Y13161D01*
G01X27826Y13202D01*
G01X27261Y13570D02*
G01X27261Y13141D01*
G01X27404Y13570D02*
G01X27118Y13570D01*
G01X28728Y22822D02*
G01X28728Y22494D01*
G01X28748Y22433D01*
G01X28769Y22413D01*
G01X28810Y22392D01*
G01X28851Y22392D01*
G01X28891Y22413D01*
G01X28912Y22433D01*
G01X28932Y22494D01*
G01X28932Y22535D01*
G01X28593Y22822D02*
G01X28593Y22392D01*
G01X28593Y22392D02*
G01X28347Y22392D01*
G01X27906Y22719D02*
G01X27926Y22760D01*
G01X27967Y22801D01*
G01X28008Y22822D01*
G01X28090Y22822D01*
G01X28131Y22801D01*
G01X28171Y22760D01*
G01X28192Y22719D01*
G01X28212Y22658D01*
G01X28212Y22556D01*
G01X28192Y22494D01*
G01X28171Y22454D01*
G01X28131Y22413D01*
G01X28090Y22392D01*
G01X28008Y22392D01*
G01X27967Y22413D01*
G01X27926Y22454D01*
G01X27906Y22494D01*
G01X27566Y22822D02*
G01X27566Y22494D01*
G01X27586Y22433D01*
G01X27607Y22413D01*
G01X27648Y22392D01*
G01X27689Y22392D01*
G01X27730Y22413D01*
G01X27750Y22433D01*
G01X27771Y22494D01*
G01X27771Y22535D01*
G01X27431Y22822D02*
G01X27431Y22392D01*
G01X27431Y22392D02*
G01X27186Y22392D01*
G01X26744Y22719D02*
G01X26764Y22760D01*
G01X26805Y22801D01*
G01X26846Y22822D01*
G01X26928Y22822D01*
G01X26969Y22801D01*
G01X27010Y22760D01*
G01X27030Y22719D01*
G01X27051Y22658D01*
G01X27051Y22556D01*
G01X27030Y22494D01*
G01X27010Y22454D01*
G01X26969Y22413D01*
G01X26928Y22392D01*
G01X26846Y22392D01*
G01X26805Y22413D01*
G01X26764Y22454D01*
G01X26744Y22494D01*
G01X26404Y22822D02*
G01X26404Y22494D01*
G01X26425Y22433D01*
G01X26445Y22413D01*
G01X26486Y22392D01*
G01X26527Y22392D01*
G01X26568Y22413D01*
G01X26588Y22433D01*
G01X26609Y22494D01*
G01X26609Y22535D01*
G01X26269Y22822D02*
G01X26269Y22392D01*
G01X26269Y22392D02*
G01X26024Y22392D01*
G01X25582Y22719D02*
G01X25602Y22760D01*
G01X25643Y22801D01*
G01X25684Y22822D01*
G01X25766Y22822D01*
G01X25807Y22801D01*
G01X25848Y22760D01*
G01X25868Y22719D01*
G01X25889Y22658D01*
G01X25889Y22556D01*
G01X25868Y22494D01*
G01X25848Y22454D01*
G01X25807Y22413D01*
G01X25766Y22392D01*
G01X25684Y22392D01*
G01X25643Y22413D01*
G01X25602Y22454D01*
G01X25582Y22494D01*
G01X25242Y22822D02*
G01X25242Y22494D01*
G01X25263Y22433D01*
G01X25283Y22413D01*
G01X25324Y22392D01*
G01X25365Y22392D01*
G01X25406Y22413D01*
G01X25426Y22433D01*
G01X25447Y22494D01*
G01X25447Y22535D01*
G01X25107Y22822D02*
G01X25107Y22392D01*
G01X25107Y22392D02*
G01X24862Y22392D01*
G01X24420Y22719D02*
G01X24441Y22760D01*
G01X24481Y22801D01*
G01X24522Y22822D01*
G01X24604Y22822D01*
G01X24645Y22801D01*
G01X24686Y22760D01*
G01X24706Y22719D01*
G01X24727Y22658D01*
G01X24727Y22556D01*
G01X24706Y22494D01*
G01X24686Y22454D01*
G01X24645Y22413D01*
G01X24604Y22392D01*
G01X24522Y22392D01*
G01X24481Y22413D01*
G01X24441Y22454D01*
G01X24420Y22494D01*

%LPD*%
G36*
G01X7228Y18861D02*
G01X7206Y18868D01*
G01X7180Y18864D01*
G01X7156Y18858D01*
G01X7133Y18851D01*
G01X7112Y18843D01*
G01X7091Y18834D01*
G01X7072Y18824D01*
G01X7054Y18813D01*
G01X7037Y18801D01*
G01X7007Y18775D01*
G01X6981Y18745D01*
G01X6970Y18728D01*
G01X6960Y18711D01*
G01X6951Y18694D01*
G01X6943Y18675D01*
G01X6936Y18656D01*
G01X6930Y18636D01*
G01X6925Y18616D01*
G01X6921Y18595D01*
G01X6918Y18573D01*
G01X6914Y18529D01*
G01X6914Y18484D01*
G01X6915Y18463D01*
G01X6917Y18442D01*
G01X6920Y18422D01*
G01X6924Y18401D01*
G01X6928Y18381D01*
G01X6934Y18361D01*
G01X6940Y18340D01*
G01X6947Y18320D01*
G01X6955Y18299D01*
G01X6964Y18278D01*
G01X6975Y18258D01*
G01X6986Y18236D01*
G01X6998Y18215D01*
G01X7026Y18171D01*
G01X7042Y18148D01*
G01X7059Y18125D01*
G01X7077Y18101D01*
G01X7096Y18076D01*
G01X7233Y17916D01*
G01X7219Y17902D01*
G01X7205Y17887D01*
G01X7191Y17873D01*
G01X7176Y17860D01*
G01X7161Y17846D01*
G01X7145Y17834D01*
G01X7129Y17821D01*
G01X7113Y17809D01*
G01X7095Y17798D01*
G01X7078Y17787D01*
G01X7059Y17776D01*
G01X7041Y17766D01*
G01X7021Y17756D01*
G01X7002Y17747D01*
G01X6981Y17738D01*
G01X6960Y17730D01*
G01X6916Y17714D01*
G01X6870Y17700D01*
G01X6845Y17694D01*
G01X6821Y17688D01*
G01X6795Y17682D01*
G01X6769Y17677D01*
G01X6742Y17672D01*
G01X6686Y17664D01*
G01X6657Y17660D01*
G01X6627Y17657D01*
G01X6597Y17655D01*
G01X6533Y17651D01*
G01X6500Y17649D01*
G01X6467Y17648D01*
G01X6432Y17648D01*
G01X6397Y17647D01*
G01X6359Y17647D01*
G01X6351Y17648D01*
G01X6259Y17648D01*
G01X6241Y17649D01*
G01X6172Y17649D01*
G01X6162Y17650D01*
G01X6107Y17650D01*
G01X6095Y17651D01*
G01X6047Y17651D01*
G01X6034Y17652D01*
G01X5995Y17652D01*
G01X5982Y17653D01*
G01X5940Y17653D01*
G01X5926Y17654D01*
G01X5881Y17654D01*
G01X5866Y17655D01*
G01X5818Y17655D01*
G01X5802Y17656D01*
G01X5768Y17656D01*
G01X5751Y17657D01*
G01X5716Y17657D01*
G01X5698Y17658D01*
G01X5661Y17658D01*
G01X5642Y17659D01*
G01X5603Y17659D01*
G01X5583Y17660D01*
G01X5542Y17660D01*
G01X5521Y17661D01*
G01X5478Y17661D01*
G01X5457Y17662D01*
G01X5434Y17662D01*
G01X5412Y17663D01*
G01X5366Y17663D01*
G01X5342Y17664D01*
G01X5294Y17664D01*
G01X5269Y17665D01*
G01X5244Y17665D01*
G01X5218Y17666D01*
G01X5166Y17666D01*
G01X5140Y17667D01*
G01X5113Y17667D01*
G01X5085Y17668D01*
G01X5058Y17668D01*
G01X5029Y17669D01*
G01X4972Y17669D01*
G01X4942Y17670D01*
G01X4913Y17670D01*
G01X4882Y17671D01*
G01X4852Y17671D01*
G01X4821Y17672D01*
G01X4789Y17672D01*
G01X4757Y17673D01*
G01X4725Y17673D01*
G01X4692Y17674D01*
G01X4625Y17674D01*
G01X4591Y17675D01*
G01X4556Y17675D01*
G01X4521Y17676D01*
G01X4485Y17676D01*
G01X4449Y17677D01*
G01X4413Y17677D01*
G01X4376Y17678D01*
G01X4338Y17678D01*
G01X4300Y17679D01*
G01X4262Y17679D01*
G01X4223Y17680D01*
G01X4183Y17680D01*
G01X4143Y17681D01*
G01X4103Y17681D01*
G01X4062Y17682D01*
G01X4020Y17682D01*
G01X3979Y17683D01*
G01X3936Y17683D01*
G01X3893Y17684D01*
G01X3849Y17684D01*
G01X3805Y17685D01*
G01X3761Y17685D01*
G01X3716Y17686D01*
G01X3670Y17687D01*
G01X3624Y17687D01*
G01X3577Y17688D01*
G01X3530Y17688D01*
G01X3482Y17689D01*
G01X3433Y17689D01*
G01X3384Y17690D01*
G01X3335Y17690D01*
G01X3285Y17691D01*
G01X3234Y17691D01*
G01X3183Y17692D01*
G01X3131Y17692D01*
G01X3025Y17694D01*
G01X2971Y17694D01*
G01X2917Y17695D01*
G01X2862Y17695D01*
G01X2807Y17696D01*
G01X2751Y17696D01*
G01X2690Y18312D01*
G01X2481Y18312D01*
G01X2481Y16563D01*
G01X2690Y16563D01*
G01X2751Y17124D01*
G01X2775Y17125D01*
G01X2800Y17125D01*
G01X2824Y17126D01*
G01X2849Y17126D01*
G01X2923Y17128D01*
G01X2972Y17128D01*
G01X3021Y17129D01*
G01X3046Y17129D01*
G01X3070Y17130D01*
G01X3120Y17130D01*
G01X3144Y17131D01*
G01X3194Y17131D01*
G01X3219Y17132D01*
G01X3293Y17132D01*
G01X3318Y17133D01*
G01X3442Y17133D01*
G01X3467Y17134D01*
G01X3642Y17134D01*
G01X3667Y17135D01*
G01X5345Y17135D01*
G01X5381Y17136D01*
G01X5520Y17136D01*
G01X5553Y17137D01*
G01X5585Y17137D01*
G01X5617Y17138D01*
G01X5648Y17138D01*
G01X5678Y17139D01*
G01X5708Y17139D01*
G01X5737Y17140D01*
G01X5766Y17140D01*
G01X5794Y17141D01*
G01X5875Y17144D01*
G01X5901Y17145D01*
G01X5976Y17148D01*
G01X6000Y17149D01*
G01X6023Y17151D01*
G01X6046Y17152D01*
G01X6069Y17154D01*
G01X6092Y17155D01*
G01X6114Y17157D01*
G01X6135Y17159D01*
G01X6157Y17160D01*
G01X6178Y17162D01*
G01X6198Y17164D01*
G01X6219Y17166D01*
G01X6259Y17170D01*
G01X6278Y17173D01*
G01X6317Y17178D01*
G01X6391Y17188D01*
G01X6445Y17197D01*
G01X6463Y17201D01*
G01X6481Y17204D01*
G01X6498Y17207D01*
G01X6516Y17211D01*
G01X6533Y17215D01*
G01X6551Y17218D01*
G01X6578Y17224D01*
G01X6604Y17230D01*
G01X6656Y17244D01*
G01X6681Y17251D01*
G01X6706Y17259D01*
G01X6730Y17267D01*
G01X6754Y17276D01*
G01X6778Y17286D01*
G01X6801Y17295D01*
G01X6824Y17305D01*
G01X6847Y17316D01*
G01X6891Y17338D01*
G01X6954Y17374D01*
G01X6974Y17387D01*
G01X6994Y17401D01*
G01X7013Y17414D01*
G01X7033Y17428D01*
G01X7051Y17442D01*
G01X7070Y17457D01*
G01X7087Y17472D01*
G01X7105Y17487D01*
G01X7139Y17519D01*
G01X7155Y17535D01*
G01X7171Y17552D01*
G01X7187Y17568D01*
G01X7202Y17585D01*
G01X7217Y17603D01*
G01X7231Y17620D01*
G01X7259Y17656D01*
G01X7272Y17675D01*
G01X7284Y17693D01*
G01X7297Y17712D01*
G01X7309Y17731D01*
G01X7320Y17751D01*
G01X7332Y17770D01*
G01X7342Y17790D01*
G01X7353Y17810D01*
G01X7363Y17830D01*
G01X7372Y17850D01*
G01X7382Y17871D01*
G01X7390Y17891D01*
G01X7399Y17912D01*
G01X7407Y17933D01*
G01X7421Y17975D01*
G01X7428Y17997D01*
G01X7435Y18018D01*
G01X7440Y18040D01*
G01X7446Y18062D01*
G01X7451Y18083D01*
G01X7456Y18105D01*
G01X7460Y18127D01*
G01X7464Y18150D01*
G01X7468Y18172D01*
G01X7471Y18194D01*
G01X7473Y18216D01*
G01X7476Y18239D01*
G01X7477Y18261D01*
G01X7479Y18284D01*
G01X7480Y18306D01*
G01X7481Y18329D01*
G01X7481Y18376D01*
G01X7480Y18401D01*
G01X7479Y18425D01*
G01X7477Y18449D01*
G01X7471Y18497D01*
G01X7468Y18520D01*
G01X7464Y18543D01*
G01X7459Y18566D01*
G01X7447Y18610D01*
G01X7440Y18631D01*
G01X7432Y18652D01*
G01X7424Y18672D01*
G01X7404Y18710D01*
G01X7393Y18728D01*
G01X7381Y18745D01*
G01X7368Y18762D01*
G01X7354Y18777D01*
G01X7339Y18792D01*
G01X7323Y18806D01*
G01X7306Y18819D01*
G01X7288Y18831D01*
G01X7269Y18842D01*
G01X7249Y18852D01*
G01X7228Y18861D01*
G37*

%LPD*%
G36*
G01X2690Y16090D02*
G01X2481Y16090D01*
G01X2481Y14337D01*
G01X2484Y14244D01*
G01X2486Y14213D01*
G01X2490Y14153D01*
G01X2496Y14095D01*
G01X2499Y14067D01*
G01X2503Y14038D01*
G01X2507Y14011D01*
G01X2512Y13983D01*
G01X2522Y13929D01*
G01X2534Y13877D01*
G01X2546Y13827D01*
G01X2553Y13802D01*
G01X2561Y13778D01*
G01X2568Y13754D01*
G01X2576Y13730D01*
G01X2584Y13707D01*
G01X2593Y13684D01*
G01X2601Y13662D01*
G01X2611Y13640D01*
G01X2620Y13618D01*
G01X2640Y13576D01*
G01X2650Y13556D01*
G01X2672Y13516D01*
G01X2694Y13478D01*
G01X2730Y13424D01*
G01X2756Y13390D01*
G01X2782Y13358D01*
G01X2796Y13342D01*
G01X2824Y13312D01*
G01X2838Y13298D01*
G01X2868Y13270D01*
G01X2883Y13257D01*
G01X2899Y13244D01*
G01X2914Y13232D01*
G01X2946Y13208D01*
G01X2963Y13197D01*
G01X2979Y13187D01*
G01X2996Y13176D01*
G01X3013Y13166D01*
G01X3030Y13157D01*
G01X3066Y13139D01*
G01X3083Y13131D01*
G01X3102Y13123D01*
G01X3138Y13109D01*
G01X3157Y13102D01*
G01X3195Y13090D01*
G01X3214Y13085D01*
G01X3234Y13080D01*
G01X3254Y13076D01*
G01X3273Y13072D01*
G01X3293Y13068D01*
G01X3314Y13065D01*
G01X3334Y13062D01*
G01X3355Y13060D01*
G01X3375Y13058D01*
G01X3396Y13056D01*
G01X3417Y13055D01*
G01X3438Y13055D01*
G01X3460Y13054D01*
G01X3479Y13055D01*
G01X3499Y13055D01*
G01X3518Y13056D01*
G01X3538Y13058D01*
G01X3557Y13059D01*
G01X3576Y13062D01*
G01X3596Y13064D01*
G01X3615Y13068D01*
G01X3634Y13071D01*
G01X3672Y13079D01*
G01X3691Y13084D01*
G01X3709Y13090D01*
G01X3728Y13095D01*
G01X3746Y13101D01*
G01X3765Y13108D01*
G01X3783Y13115D01*
G01X3837Y13139D01*
G01X3855Y13148D01*
G01X3872Y13157D01*
G01X3889Y13167D01*
G01X3907Y13177D01*
G01X3941Y13199D01*
G01X3957Y13211D01*
G01X3974Y13223D01*
G01X4006Y13249D01*
G01X4038Y13277D01*
G01X4054Y13292D01*
G01X4069Y13307D01*
G01X4099Y13339D01*
G01X4114Y13356D01*
G01X4128Y13373D01*
G01X4143Y13391D01*
G01X4156Y13409D01*
G01X4184Y13447D01*
G01X4210Y13487D01*
G01X4223Y13508D01*
G01X4259Y13574D01*
G01X4271Y13597D01*
G01X4293Y13645D01*
G01X4303Y13670D01*
G01X4314Y13695D01*
G01X4334Y13747D01*
G01X4343Y13774D01*
G01X4361Y13830D01*
G01X4377Y13888D01*
G01X4385Y13918D01*
G01X4406Y14011D01*
G01X4411Y13978D01*
G01X4416Y13944D01*
G01X4422Y13912D01*
G01X4428Y13879D01*
G01X4434Y13848D01*
G01X4441Y13817D01*
G01X4447Y13786D01*
G01X4455Y13756D01*
G01X4462Y13726D01*
G01X4470Y13697D01*
G01X4486Y13641D01*
G01X4504Y13587D01*
G01X4513Y13561D01*
G01X4523Y13535D01*
G01X4532Y13509D01*
G01X4542Y13485D01*
G01X4553Y13460D01*
G01X4563Y13437D01*
G01X4574Y13413D01*
G01X4585Y13391D01*
G01X4597Y13368D01*
G01X4608Y13347D01*
G01X4620Y13325D01*
G01X4632Y13305D01*
G01X4645Y13284D01*
G01X4658Y13265D01*
G01X4670Y13245D01*
G01X4684Y13227D01*
G01X4697Y13208D01*
G01X4711Y13191D01*
G01X4724Y13173D01*
G01X4738Y13156D01*
G01X4753Y13140D01*
G01X4767Y13124D01*
G01X4812Y13079D01*
G01X4827Y13066D01*
G01X4843Y13052D01*
G01X4875Y13026D01*
G01X4907Y13002D01*
G01X4941Y12980D01*
G01X4975Y12960D01*
G01X5009Y12942D01*
G01X5027Y12933D01*
G01X5063Y12917D01*
G01X5099Y12903D01*
G01X5137Y12891D01*
G01X5155Y12886D01*
G01X5174Y12880D01*
G01X5194Y12876D01*
G01X5232Y12868D01*
G01X5252Y12864D01*
G01X5271Y12861D01*
G01X5291Y12859D01*
G01X5311Y12856D01*
G01X5331Y12855D01*
G01X5351Y12853D01*
G01X5372Y12852D01*
G01X5392Y12852D01*
G01X5413Y12851D01*
G01X5430Y12852D01*
G01X5447Y12852D01*
G01X5464Y12853D01*
G01X5482Y12854D01*
G01X5499Y12855D01*
G01X5567Y12863D01*
G01X5601Y12869D01*
G01X5669Y12885D01*
G01X5685Y12890D01*
G01X5719Y12900D01*
G01X5735Y12906D01*
G01X5752Y12912D01*
G01X5768Y12918D01*
G01X5784Y12925D01*
G01X5801Y12932D01*
G01X5817Y12939D01*
G01X5849Y12954D01*
G01X5865Y12963D01*
G01X5880Y12971D01*
G01X5896Y12980D01*
G01X5912Y12990D01*
G01X5927Y12999D01*
G01X5942Y13009D01*
G01X5958Y13020D01*
G01X5973Y13030D01*
G01X5988Y13041D01*
G01X6003Y13053D01*
G01X6017Y13065D01*
G01X6032Y13077D01*
G01X6046Y13089D01*
G01X6061Y13102D01*
G01X6075Y13115D01*
G01X6089Y13129D01*
G01X6102Y13143D01*
G01X6116Y13157D01*
G01X6130Y13172D01*
G01X6156Y13202D01*
G01X6182Y13234D01*
G01X6194Y13250D01*
G01X6207Y13267D01*
G01X6219Y13284D01*
G01X6255Y13338D01*
G01X6277Y13376D01*
G01X6310Y13436D01*
G01X6330Y13478D01*
G01X6350Y13522D01*
G01X6359Y13544D01*
G01X6377Y13590D01*
G01X6395Y13638D01*
G01X6403Y13662D01*
G01X6411Y13687D01*
G01X6418Y13712D01*
G01X6426Y13738D01*
G01X6440Y13790D01*
G01X6452Y13844D01*
G01X6464Y13900D01*
G01X6470Y13929D01*
G01X6475Y13958D01*
G01X6479Y13987D01*
G01X6484Y14017D01*
G01X6488Y14048D01*
G01X6492Y14078D01*
G01X6496Y14110D01*
G01X6499Y14141D01*
G01X6502Y14173D01*
G01X6508Y14272D01*
G01X6510Y14306D01*
G01X6511Y14341D01*
G01X6512Y14375D01*
G01X6513Y14411D01*
G01X6513Y16090D01*
G01X6304Y16090D01*
G01X6243Y15529D01*
G01X6218Y15529D01*
G01X6168Y15528D01*
G01X6143Y15527D01*
G01X6068Y15526D01*
G01X6043Y15526D01*
G01X5993Y15525D01*
G01X5967Y15525D01*
G01X5942Y15524D01*
G01X5892Y15524D01*
G01X5867Y15523D01*
G01X5817Y15523D01*
G01X5792Y15522D01*
G01X5691Y15522D01*
G01X5666Y15521D01*
G01X5591Y15521D01*
G01X5540Y15520D01*
G01X5389Y15520D01*
G01X5364Y15519D01*
G01X4985Y15519D01*
G01X4960Y15518D01*
G01X4016Y15518D01*
G01X3991Y15519D01*
G01X3618Y15519D01*
G01X3593Y15520D01*
G01X3494Y15520D01*
G01X3395Y15521D01*
G01X3320Y15521D01*
G01X3296Y15522D01*
G01X3196Y15522D01*
G01X3172Y15523D01*
G01X3122Y15523D01*
G01X3097Y15524D01*
G01X3048Y15524D01*
G01X3023Y15525D01*
G01X2998Y15525D01*
G01X2924Y15526D01*
G01X2899Y15527D01*
G01X2850Y15527D01*
G01X2825Y15528D01*
G01X2800Y15528D01*
G01X2776Y15529D01*
G01X2751Y15529D01*
G01X2690Y16090D01*
G37*

%LPC*%
G36*
G01X5315Y14968D02*
G01X4549Y14968D01*
G01X4549Y14557D01*
G01X4550Y14526D01*
G01X4551Y14494D01*
G01X4553Y14464D01*
G01X4554Y14433D01*
G01X4556Y14403D01*
G01X4558Y14374D01*
G01X4561Y14345D01*
G01X4567Y14289D01*
G01X4571Y14261D01*
G01X4574Y14234D01*
G01X4578Y14208D01*
G01X4588Y14156D01*
G01X4593Y14131D01*
G01X4598Y14107D01*
G01X4603Y14082D01*
G01X4609Y14059D01*
G01X4616Y14035D01*
G01X4622Y14013D01*
G01X4629Y13990D01*
G01X4636Y13968D01*
G01X4643Y13947D01*
G01X4651Y13926D01*
G01X4667Y13886D01*
G01X4676Y13866D01*
G01X4694Y13828D01*
G01X4704Y13810D01*
G01X4713Y13792D01*
G01X4723Y13775D01*
G01X4745Y13741D01*
G01X4767Y13709D01*
G01X4779Y13694D01*
G01X4790Y13679D01*
G01X4803Y13665D01*
G01X4815Y13651D01*
G01X4854Y13612D01*
G01X4882Y13588D01*
G01X4896Y13577D01*
G01X4926Y13555D01*
G01X4941Y13545D01*
G01X4957Y13535D01*
G01X4972Y13526D01*
G01X4989Y13517D01*
G01X5005Y13509D01*
G01X5039Y13493D01*
G01X5073Y13479D01*
G01X5091Y13473D01*
G01X5110Y13467D01*
G01X5128Y13461D01*
G01X5166Y13451D01*
G01X5185Y13447D01*
G01X5225Y13439D01*
G01X5245Y13436D01*
G01X5266Y13433D01*
G01X5286Y13430D01*
G01X5308Y13428D01*
G01X5329Y13426D01*
G01X5373Y13424D01*
G01X5395Y13424D01*
G01X5418Y13423D01*
G01X5441Y13424D01*
G01X5463Y13424D01*
G01X5485Y13425D01*
G01X5529Y13429D01*
G01X5550Y13431D01*
G01X5571Y13434D01*
G01X5592Y13438D01*
G01X5612Y13441D01*
G01X5633Y13446D01*
G01X5652Y13450D01*
G01X5672Y13455D01*
G01X5729Y13473D01*
G01X5747Y13480D01*
G01X5765Y13488D01*
G01X5783Y13495D01*
G01X5801Y13504D01*
G01X5818Y13512D01*
G01X5835Y13521D01*
G01X5883Y13551D01*
G01X5899Y13562D01*
G01X5914Y13573D01*
G01X5944Y13597D01*
G01X5959Y13610D01*
G01X5973Y13623D01*
G01X6000Y13650D01*
G01X6013Y13664D01*
G01X6026Y13679D01*
G01X6038Y13694D01*
G01X6051Y13710D01*
G01X6062Y13726D01*
G01X6074Y13743D01*
G01X6096Y13777D01*
G01X6107Y13795D01*
G01X6117Y13813D01*
G01X6137Y13851D01*
G01X6146Y13870D01*
G01X6155Y13890D01*
G01X6164Y13911D01*
G01X6180Y13953D01*
G01X6188Y13975D01*
G01X6202Y14019D01*
G01X6209Y14042D01*
G01X6227Y14114D01*
G01X6237Y14164D01*
G01X6241Y14190D01*
G01X6246Y14216D01*
G01X6250Y14242D01*
G01X6253Y14269D01*
G01X6257Y14296D01*
G01X6260Y14324D01*
G01X6262Y14352D01*
G01X6265Y14381D01*
G01X6266Y14410D01*
G01X6268Y14439D01*
G01X6269Y14469D01*
G01X6270Y14500D01*
G01X6271Y14530D01*
G01X6271Y14957D01*
G01X6247Y14958D01*
G01X6223Y14958D01*
G01X6175Y14959D01*
G01X6150Y14960D01*
G01X6102Y14960D01*
G01X6078Y14961D01*
G01X6006Y14962D01*
G01X5981Y14962D01*
G01X5957Y14963D01*
G01X5884Y14963D01*
G01X5860Y14964D01*
G01X5811Y14964D01*
G01X5787Y14965D01*
G01X5689Y14965D01*
G01X5664Y14966D01*
G01X5540Y14966D01*
G01X5515Y14967D01*
G01X5340Y14967D01*
G01X5315Y14968D01*
G37*
G36*
G01X4302Y14968D02*
G01X3628Y14968D01*
G01X3603Y14967D01*
G01X3454Y14967D01*
G01X3404Y14966D01*
G01X3281Y14966D01*
G01X3256Y14965D01*
G01X3182Y14965D01*
G01X3157Y14964D01*
G01X3108Y14964D01*
G01X3084Y14963D01*
G01X3035Y14963D01*
G01X3010Y14962D01*
G01X2961Y14962D01*
G01X2839Y14960D01*
G01X2815Y14959D01*
G01X2791Y14959D01*
G01X2766Y14958D01*
G01X2742Y14958D01*
G01X2718Y14957D01*
G01X2718Y14476D01*
G01X2720Y14420D01*
G01X2722Y14392D01*
G01X2726Y14338D01*
G01X2729Y14312D01*
G01X2731Y14287D01*
G01X2735Y14261D01*
G01X2738Y14237D01*
G01X2746Y14189D01*
G01X2751Y14165D01*
G01X2756Y14143D01*
G01X2761Y14120D01*
G01X2767Y14098D01*
G01X2773Y14077D01*
G01X2780Y14056D01*
G01X2786Y14036D01*
G01X2794Y14016D01*
G01X2801Y13996D01*
G01X2817Y13958D01*
G01X2826Y13940D01*
G01X2835Y13923D01*
G01X2845Y13906D01*
G01X2854Y13889D01*
G01X2865Y13873D01*
G01X2875Y13857D01*
G01X2886Y13841D01*
G01X2898Y13827D01*
G01X2909Y13812D01*
G01X2922Y13798D01*
G01X2934Y13785D01*
G01X2947Y13772D01*
G01X2961Y13759D01*
G01X2974Y13747D01*
G01X2989Y13735D01*
G01X3003Y13724D01*
G01X3018Y13714D01*
G01X3034Y13703D01*
G01X3049Y13693D01*
G01X3066Y13684D01*
G01X3082Y13675D01*
G01X3100Y13667D01*
G01X3117Y13659D01*
G01X3135Y13651D01*
G01X3153Y13644D01*
G01X3191Y13632D01*
G01X3211Y13626D01*
G01X3231Y13621D01*
G01X3252Y13616D01*
G01X3294Y13608D01*
G01X3316Y13604D01*
G01X3338Y13602D01*
G01X3361Y13599D01*
G01X3384Y13597D01*
G01X3408Y13595D01*
G01X3432Y13594D01*
G01X3457Y13594D01*
G01X3482Y13593D01*
G01X3506Y13594D01*
G01X3531Y13594D01*
G01X3554Y13595D01*
G01X3578Y13597D01*
G01X3601Y13599D01*
G01X3623Y13601D01*
G01X3667Y13607D01*
G01X3689Y13611D01*
G01X3710Y13615D01*
G01X3731Y13620D01*
G01X3771Y13630D01*
G01X3809Y13642D01*
G01X3847Y13656D01*
G01X3865Y13664D01*
G01X3882Y13672D01*
G01X3900Y13681D01*
G01X3916Y13690D01*
G01X3933Y13699D01*
G01X3949Y13709D01*
G01X3965Y13720D01*
G01X3980Y13730D01*
G01X4010Y13754D01*
G01X4024Y13766D01*
G01X4052Y13792D01*
G01X4065Y13805D01*
G01X4078Y13820D01*
G01X4090Y13834D01*
G01X4102Y13849D01*
G01X4114Y13865D01*
G01X4136Y13897D01*
G01X4147Y13914D01*
G01X4157Y13931D01*
G01X4167Y13949D01*
G01X4177Y13968D01*
G01X4195Y14006D01*
G01X4211Y14046D01*
G01X4219Y14067D01*
G01X4226Y14088D01*
G01X4240Y14132D01*
G01X4247Y14155D01*
G01X4253Y14178D01*
G01X4258Y14202D01*
G01X4264Y14226D01*
G01X4268Y14251D01*
G01X4273Y14276D01*
G01X4281Y14328D01*
G01X4285Y14355D01*
G01X4288Y14382D01*
G01X4294Y14438D01*
G01X4296Y14466D01*
G01X4298Y14496D01*
G01X4299Y14525D01*
G01X4300Y14556D01*
G01X4301Y14586D01*
G01X4302Y14618D01*
G01X4302Y14968D01*
G37*

%LPD*%
G36*
G01X4544Y12345D02*
G01X4443Y12345D01*
G01X4417Y12344D01*
G01X4342Y12341D01*
G01X4242Y12333D01*
G01X4218Y12330D01*
G01X4194Y12328D01*
G01X4169Y12325D01*
G01X4145Y12321D01*
G01X4121Y12318D01*
G01X4073Y12310D01*
G01X4050Y12306D01*
G01X4026Y12301D01*
G01X4003Y12297D01*
G01X3979Y12292D01*
G01X3956Y12287D01*
G01X3933Y12281D01*
G01X3910Y12276D01*
G01X3887Y12270D01*
G01X3865Y12264D01*
G01X3842Y12257D01*
G01X3820Y12251D01*
G01X3797Y12244D01*
G01X3731Y12223D01*
G01X3709Y12215D01*
G01X3688Y12207D01*
G01X3666Y12199D01*
G01X3624Y12183D01*
G01X3540Y12147D01*
G01X3520Y12138D01*
G01X3500Y12128D01*
G01X3479Y12118D01*
G01X3459Y12108D01*
G01X3420Y12087D01*
G01X3400Y12077D01*
G01X3362Y12055D01*
G01X3342Y12043D01*
G01X3323Y12032D01*
G01X3305Y12020D01*
G01X3286Y12008D01*
G01X3268Y11996D01*
G01X3249Y11984D01*
G01X3231Y11972D01*
G01X3195Y11946D01*
G01X3178Y11933D01*
G01X3160Y11920D01*
G01X3126Y11893D01*
G01X3109Y11880D01*
G01X3075Y11852D01*
G01X3059Y11838D01*
G01X3042Y11823D01*
G01X3026Y11809D01*
G01X2994Y11779D01*
G01X2979Y11764D01*
G01X2963Y11749D01*
G01X2933Y11717D01*
G01X2903Y11686D01*
G01X2875Y11653D01*
G01X2860Y11637D01*
G01X2846Y11620D01*
G01X2833Y11604D01*
G01X2819Y11587D01*
G01X2806Y11570D01*
G01X2792Y11552D01*
G01X2779Y11535D01*
G01X2767Y11518D01*
G01X2754Y11500D01*
G01X2742Y11482D01*
G01X2729Y11464D01*
G01X2705Y11428D01*
G01X2694Y11409D01*
G01X2682Y11391D01*
G01X2649Y11334D01*
G01X2639Y11315D01*
G01X2618Y11276D01*
G01X2608Y11256D01*
G01X2598Y11237D01*
G01X2588Y11217D01*
G01X2561Y11157D01*
G01X2552Y11136D01*
G01X2544Y11116D01*
G01X2535Y11095D01*
G01X2519Y11053D01*
G01X2512Y11032D01*
G01X2504Y11011D01*
G01X2497Y10990D01*
G01X2490Y10968D01*
G01X2483Y10947D01*
G01X2477Y10925D01*
G01X2470Y10904D01*
G01X2458Y10860D01*
G01X2453Y10838D01*
G01X2447Y10815D01*
G01X2442Y10793D01*
G01X2437Y10770D01*
G01X2432Y10748D01*
G01X2423Y10702D01*
G01X2419Y10680D01*
G01X2416Y10657D01*
G01X2409Y10610D01*
G01X2406Y10587D01*
G01X2403Y10563D01*
G01X2400Y10540D01*
G01X2398Y10516D01*
G01X2396Y10493D01*
G01X2392Y10445D01*
G01X2389Y10373D01*
G01X2388Y10348D01*
G01X2388Y10256D01*
G01X2389Y10234D01*
G01X2389Y10211D01*
G01X2391Y10167D01*
G01X2392Y10144D01*
G01X2394Y10121D01*
G01X2395Y10098D01*
G01X2399Y10052D01*
G01X2402Y10029D01*
G01X2404Y10006D01*
G01X2407Y9982D01*
G01X2410Y9959D01*
G01X2413Y9935D01*
G01X2421Y9887D01*
G01X2425Y9864D01*
G01X2429Y9840D01*
G01X2434Y9815D01*
G01X2444Y9767D01*
G01X2450Y9743D01*
G01X2455Y9718D01*
G01X2462Y9694D01*
G01X2468Y9670D01*
G01X2482Y9620D01*
G01X2489Y9596D01*
G01X2505Y9546D01*
G01X2514Y9522D01*
G01X2522Y9497D01*
G01X2531Y9472D01*
G01X2541Y9447D01*
G01X2551Y9423D01*
G01X2561Y9398D01*
G01X2594Y9323D01*
G01X2618Y9273D01*
G01X2630Y9249D01*
G01X2643Y9224D01*
G01X2685Y9149D01*
G01X3570Y9138D01*
G01X3570Y9468D01*
G01X2800Y9617D01*
G01X2787Y9643D01*
G01X2775Y9670D01*
G01X2764Y9696D01*
G01X2753Y9721D01*
G01X2742Y9747D01*
G01X2715Y9825D01*
G01X2707Y9850D01*
G01X2693Y9902D01*
G01X2687Y9927D01*
G01X2681Y9953D01*
G01X2676Y9978D01*
G01X2671Y10004D01*
G01X2667Y10029D01*
G01X2663Y10055D01*
G01X2660Y10080D01*
G01X2658Y10106D01*
G01X2656Y10131D01*
G01X2654Y10157D01*
G01X2653Y10182D01*
G01X2652Y10208D01*
G01X2652Y10275D01*
G01X2653Y10295D01*
G01X2654Y10316D01*
G01X2655Y10336D01*
G01X2657Y10357D01*
G01X2658Y10377D01*
G01X2660Y10397D01*
G01X2663Y10417D01*
G01X2665Y10437D01*
G01X2674Y10497D01*
G01X2678Y10516D01*
G01X2682Y10536D01*
G01X2686Y10555D01*
G01X2690Y10575D01*
G01X2710Y10651D01*
G01X2716Y10670D01*
G01X2722Y10688D01*
G01X2728Y10707D01*
G01X2735Y10726D01*
G01X2741Y10744D01*
G01X2748Y10762D01*
G01X2756Y10780D01*
G01X2763Y10798D01*
G01X2779Y10834D01*
G01X2796Y10869D01*
G01X2805Y10887D01*
G01X2823Y10921D01*
G01X2833Y10938D01*
G01X2842Y10955D01*
G01X2853Y10972D01*
G01X2863Y10989D01*
G01X2874Y11005D01*
G01X2884Y11021D01*
G01X2895Y11038D01*
G01X2907Y11054D01*
G01X2918Y11070D01*
G01X2930Y11085D01*
G01X2942Y11101D01*
G01X2955Y11116D01*
G01X2968Y11132D01*
G01X2980Y11147D01*
G01X2994Y11162D01*
G01X3007Y11177D01*
G01X3021Y11191D01*
G01X3034Y11206D01*
G01X3049Y11220D01*
G01X3063Y11235D01*
G01X3078Y11249D01*
G01X3093Y11262D01*
G01X3123Y11290D01*
G01X3187Y11342D01*
G01X3221Y11367D01*
G01X3255Y11391D01*
G01X3309Y11427D01*
G01X3327Y11438D01*
G01X3384Y11471D01*
G01X3403Y11481D01*
G01X3423Y11492D01*
G01X3483Y11522D01*
G01X3525Y11540D01*
G01X3546Y11550D01*
G01X3567Y11558D01*
G01X3611Y11576D01*
G01X3677Y11600D01*
G01X3700Y11607D01*
G01X3723Y11615D01*
G01X3746Y11622D01*
G01X3770Y11629D01*
G01X3794Y11635D01*
G01X3818Y11642D01*
G01X3866Y11654D01*
G01X3916Y11665D01*
G01X3941Y11671D01*
G01X3966Y11676D01*
G01X3992Y11681D01*
G01X4070Y11693D01*
G01X4124Y11701D01*
G01X4178Y11707D01*
G01X4206Y11710D01*
G01X4233Y11712D01*
G01X4261Y11715D01*
G01X4290Y11717D01*
G01X4318Y11719D01*
G01X4434Y11723D01*
G01X4556Y11723D01*
G01X4676Y11719D01*
G01X4706Y11717D01*
G01X4764Y11713D01*
G01X4793Y11710D01*
G01X4905Y11698D01*
G01X4933Y11694D01*
G01X4987Y11686D01*
G01X5014Y11681D01*
G01X5092Y11666D01*
G01X5118Y11660D01*
G01X5143Y11655D01*
G01X5193Y11643D01*
G01X5218Y11636D01*
G01X5242Y11629D01*
G01X5266Y11623D01*
G01X5290Y11615D01*
G01X5314Y11608D01*
G01X5337Y11600D01*
G01X5360Y11593D01*
G01X5383Y11585D01*
G01X5405Y11576D01*
G01X5428Y11568D01*
G01X5450Y11559D01*
G01X5471Y11550D01*
G01X5493Y11541D01*
G01X5514Y11531D01*
G01X5535Y11522D01*
G01X5556Y11512D01*
G01X5576Y11502D01*
G01X5616Y11481D01*
G01X5636Y11471D01*
G01X5655Y11460D01*
G01X5675Y11449D01*
G01X5693Y11437D01*
G01X5712Y11426D01*
G01X5784Y11378D01*
G01X5835Y11339D01*
G01X5883Y11300D01*
G01X5899Y11286D01*
G01X5944Y11244D01*
G01X5973Y11215D01*
G01X6001Y11185D01*
G01X6014Y11170D01*
G01X6027Y11154D01*
G01X6040Y11139D01*
G01X6053Y11123D01*
G01X6089Y11075D01*
G01X6101Y11058D01*
G01X6112Y11042D01*
G01X6123Y11025D01*
G01X6144Y10991D01*
G01X6155Y10974D01*
G01X6165Y10957D01*
G01X6174Y10939D01*
G01X6184Y10921D01*
G01X6193Y10903D01*
G01X6201Y10885D01*
G01X6210Y10867D01*
G01X6218Y10849D01*
G01X6226Y10830D01*
G01X6234Y10812D01*
G01X6241Y10793D01*
G01X6249Y10774D01*
G01X6262Y10736D01*
G01X6268Y10716D01*
G01X6274Y10697D01*
G01X6286Y10657D01*
G01X6301Y10597D01*
G01X6305Y10576D01*
G01X6309Y10556D01*
G01X6313Y10535D01*
G01X6316Y10515D01*
G01X6320Y10494D01*
G01X6323Y10473D01*
G01X6325Y10451D01*
G01X6328Y10430D01*
G01X6330Y10409D01*
G01X6332Y10387D01*
G01X6333Y10366D01*
G01X6335Y10344D01*
G01X6336Y10322D01*
G01X6336Y10300D01*
G01X6337Y10278D01*
G01X6337Y10231D01*
G01X6336Y10207D01*
G01X6335Y10182D01*
G01X6334Y10158D01*
G01X6331Y10109D01*
G01X6329Y10084D01*
G01X6327Y10060D01*
G01X6324Y10035D01*
G01X6320Y10010D01*
G01X6317Y9985D01*
G01X6313Y9960D01*
G01X6308Y9936D01*
G01X6304Y9911D01*
G01X6298Y9886D01*
G01X6293Y9861D01*
G01X6287Y9836D01*
G01X6273Y9786D01*
G01X6249Y9711D01*
G01X6240Y9687D01*
G01X6231Y9662D01*
G01X6221Y9637D01*
G01X6188Y9562D01*
G01X5424Y9413D01*
G01X5424Y9083D01*
G01X6309Y9094D01*
G01X6320Y9116D01*
G01X6332Y9138D01*
G01X6343Y9159D01*
G01X6354Y9181D01*
G01X6364Y9203D01*
G01X6375Y9225D01*
G01X6395Y9269D01*
G01X6404Y9291D01*
G01X6414Y9313D01*
G01X6423Y9335D01*
G01X6432Y9358D01*
G01X6440Y9380D01*
G01X6449Y9403D01*
G01X6457Y9425D01*
G01X6465Y9448D01*
G01X6480Y9493D01*
G01X6487Y9516D01*
G01X6501Y9561D01*
G01X6508Y9584D01*
G01X6526Y9653D01*
G01X6531Y9676D01*
G01X6537Y9699D01*
G01X6542Y9723D01*
G01X6547Y9746D01*
G01X6551Y9769D01*
G01X6556Y9793D01*
G01X6560Y9816D01*
G01X6568Y9864D01*
G01X6572Y9887D01*
G01X6581Y9959D01*
G01X6586Y10007D01*
G01X6589Y10031D01*
G01X6593Y10079D01*
G01X6594Y10103D01*
G01X6596Y10128D01*
G01X6598Y10176D01*
G01X6599Y10201D01*
G01X6600Y10225D01*
G01X6601Y10275D01*
G01X6601Y10324D01*
G01X6600Y10348D01*
G01X6600Y10373D01*
G01X6597Y10445D01*
G01X6591Y10517D01*
G01X6589Y10540D01*
G01X6587Y10564D01*
G01X6581Y10610D01*
G01X6578Y10634D01*
G01X6575Y10657D01*
G01X6568Y10702D01*
G01X6564Y10725D01*
G01X6560Y10747D01*
G01X6555Y10770D01*
G01X6551Y10792D01*
G01X6541Y10836D01*
G01X6535Y10858D01*
G01X6530Y10880D01*
G01X6524Y10902D01*
G01X6518Y10923D01*
G01X6512Y10945D01*
G01X6506Y10966D01*
G01X6499Y10987D01*
G01X6486Y11029D01*
G01X6479Y11050D01*
G01X6471Y11071D01*
G01X6464Y11091D01*
G01X6456Y11111D01*
G01X6448Y11132D01*
G01X6440Y11152D01*
G01X6431Y11172D01*
G01X6423Y11192D01*
G01X6414Y11211D01*
G01X6405Y11231D01*
G01X6396Y11250D01*
G01X6377Y11289D01*
G01X6367Y11308D01*
G01X6357Y11326D01*
G01X6337Y11364D01*
G01X6315Y11400D01*
G01X6305Y11418D01*
G01X6293Y11436D01*
G01X6271Y11472D01*
G01X6259Y11489D01*
G01X6247Y11507D01*
G01X6223Y11541D01*
G01X6210Y11558D01*
G01X6198Y11575D01*
G01X6185Y11591D01*
G01X6172Y11608D01*
G01X6159Y11624D01*
G01X6145Y11640D01*
G01X6132Y11656D01*
G01X6104Y11688D01*
G01X6076Y11718D01*
G01X6062Y11734D01*
G01X6047Y11749D01*
G01X6032Y11763D01*
G01X6018Y11778D01*
G01X6002Y11793D01*
G01X5972Y11821D01*
G01X5940Y11849D01*
G01X5908Y11876D01*
G01X5876Y11902D01*
G01X5825Y11941D01*
G01X5791Y11965D01*
G01X5774Y11978D01*
G01X5756Y11989D01*
G01X5738Y12001D01*
G01X5721Y12013D01*
G01X5703Y12024D01*
G01X5684Y12035D01*
G01X5666Y12046D01*
G01X5647Y12057D01*
G01X5629Y12068D01*
G01X5572Y12098D01*
G01X5533Y12118D01*
G01X5514Y12127D01*
G01X5494Y12137D01*
G01X5434Y12164D01*
G01X5414Y12172D01*
G01X5393Y12180D01*
G01X5373Y12189D01*
G01X5352Y12197D01*
G01X5331Y12204D01*
G01X5310Y12212D01*
G01X5268Y12226D01*
G01X5246Y12233D01*
G01X5225Y12240D01*
G01X5203Y12247D01*
G01X5115Y12271D01*
G01X5093Y12276D01*
G01X5070Y12282D01*
G01X5025Y12292D01*
G01X4979Y12301D01*
G01X4933Y12309D01*
G01X4909Y12313D01*
G01X4886Y12317D01*
G01X4862Y12320D01*
G01X4839Y12323D01*
G01X4767Y12332D01*
G01X4742Y12334D01*
G01X4694Y12338D01*
G01X4644Y12341D01*
G01X4620Y12343D01*
G01X4595Y12344D01*
G01X4570Y12344D01*
G01X4544Y12345D01*
G37*

%LPD*%
G36*
G01X2690Y8561D02*
G01X2481Y8561D01*
G01X2481Y6807D01*
G01X2484Y6714D01*
G01X2486Y6683D01*
G01X2490Y6623D01*
G01X2496Y6565D01*
G01X2499Y6537D01*
G01X2503Y6508D01*
G01X2507Y6481D01*
G01X2512Y6453D01*
G01X2517Y6426D01*
G01X2522Y6400D01*
G01X2528Y6373D01*
G01X2534Y6347D01*
G01X2546Y6297D01*
G01X2553Y6272D01*
G01X2561Y6248D01*
G01X2568Y6224D01*
G01X2576Y6200D01*
G01X2584Y6177D01*
G01X2593Y6154D01*
G01X2601Y6132D01*
G01X2611Y6110D01*
G01X2620Y6089D01*
G01X2630Y6067D01*
G01X2640Y6047D01*
G01X2650Y6026D01*
G01X2661Y6006D01*
G01X2672Y5987D01*
G01X2683Y5967D01*
G01X2694Y5949D01*
G01X2706Y5930D01*
G01X2718Y5912D01*
G01X2730Y5895D01*
G01X2743Y5877D01*
G01X2756Y5861D01*
G01X2769Y5844D01*
G01X2782Y5828D01*
G01X2796Y5813D01*
G01X2810Y5797D01*
G01X2824Y5783D01*
G01X2838Y5768D01*
G01X2853Y5754D01*
G01X2883Y5728D01*
G01X2899Y5715D01*
G01X2914Y5703D01*
G01X2946Y5679D01*
G01X2963Y5668D01*
G01X2979Y5657D01*
G01X3013Y5637D01*
G01X3030Y5628D01*
G01X3066Y5610D01*
G01X3083Y5602D01*
G01X3102Y5594D01*
G01X3138Y5580D01*
G01X3157Y5573D01*
G01X3195Y5561D01*
G01X3214Y5556D01*
G01X3234Y5551D01*
G01X3254Y5547D01*
G01X3273Y5543D01*
G01X3293Y5539D01*
G01X3314Y5536D01*
G01X3334Y5533D01*
G01X3355Y5531D01*
G01X3375Y5529D01*
G01X3396Y5527D01*
G01X3417Y5526D01*
G01X3438Y5526D01*
G01X3460Y5525D01*
G01X3479Y5526D01*
G01X3499Y5526D01*
G01X3518Y5527D01*
G01X3538Y5529D01*
G01X3557Y5530D01*
G01X3576Y5533D01*
G01X3596Y5535D01*
G01X3615Y5539D01*
G01X3634Y5542D01*
G01X3672Y5550D01*
G01X3691Y5555D01*
G01X3709Y5561D01*
G01X3728Y5566D01*
G01X3746Y5572D01*
G01X3765Y5579D01*
G01X3783Y5586D01*
G01X3837Y5610D01*
G01X3855Y5619D01*
G01X3872Y5628D01*
G01X3889Y5638D01*
G01X3907Y5648D01*
G01X3941Y5670D01*
G01X3957Y5682D01*
G01X3974Y5694D01*
G01X4006Y5720D01*
G01X4038Y5748D01*
G01X4054Y5763D01*
G01X4069Y5778D01*
G01X4099Y5810D01*
G01X4114Y5827D01*
G01X4128Y5844D01*
G01X4143Y5862D01*
G01X4156Y5880D01*
G01X4184Y5918D01*
G01X4210Y5958D01*
G01X4223Y5979D01*
G01X4259Y6045D01*
G01X4271Y6068D01*
G01X4293Y6116D01*
G01X4303Y6141D01*
G01X4314Y6166D01*
G01X4334Y6218D01*
G01X4343Y6245D01*
G01X4361Y6301D01*
G01X4377Y6359D01*
G01X4385Y6389D01*
G01X4406Y6482D01*
G01X4411Y6449D01*
G01X4416Y6415D01*
G01X4422Y6382D01*
G01X4434Y6318D01*
G01X4441Y6287D01*
G01X4447Y6257D01*
G01X4455Y6227D01*
G01X4462Y6197D01*
G01X4470Y6168D01*
G01X4486Y6112D01*
G01X4495Y6084D01*
G01X4504Y6057D01*
G01X4513Y6031D01*
G01X4523Y6005D01*
G01X4532Y5980D01*
G01X4542Y5955D01*
G01X4553Y5931D01*
G01X4563Y5907D01*
G01X4585Y5861D01*
G01X4597Y5839D01*
G01X4608Y5817D01*
G01X4632Y5775D01*
G01X4658Y5735D01*
G01X4670Y5716D01*
G01X4684Y5697D01*
G01X4697Y5679D01*
G01X4711Y5661D01*
G01X4724Y5643D01*
G01X4738Y5627D01*
G01X4753Y5610D01*
G01X4767Y5594D01*
G01X4797Y5564D01*
G01X4827Y5536D01*
G01X4843Y5522D01*
G01X4875Y5496D01*
G01X4891Y5484D01*
G01X4907Y5473D01*
G01X4924Y5461D01*
G01X4941Y5451D01*
G01X4958Y5440D01*
G01X4975Y5430D01*
G01X5009Y5412D01*
G01X5027Y5403D01*
G01X5063Y5387D01*
G01X5099Y5373D01*
G01X5137Y5361D01*
G01X5155Y5356D01*
G01X5174Y5350D01*
G01X5194Y5346D01*
G01X5232Y5338D01*
G01X5252Y5334D01*
G01X5271Y5331D01*
G01X5291Y5329D01*
G01X5311Y5326D01*
G01X5331Y5325D01*
G01X5351Y5323D01*
G01X5372Y5322D01*
G01X5392Y5322D01*
G01X5413Y5321D01*
G01X5430Y5322D01*
G01X5447Y5322D01*
G01X5464Y5323D01*
G01X5482Y5324D01*
G01X5499Y5325D01*
G01X5567Y5333D01*
G01X5601Y5339D01*
G01X5669Y5355D01*
G01X5685Y5360D01*
G01X5719Y5370D01*
G01X5735Y5376D01*
G01X5752Y5382D01*
G01X5768Y5388D01*
G01X5784Y5395D01*
G01X5801Y5402D01*
G01X5817Y5409D01*
G01X5865Y5433D01*
G01X5880Y5442D01*
G01X5912Y5460D01*
G01X5942Y5480D01*
G01X5958Y5490D01*
G01X6003Y5523D01*
G01X6017Y5535D01*
G01X6032Y5547D01*
G01X6046Y5559D01*
G01X6061Y5572D01*
G01X6075Y5585D01*
G01X6089Y5599D01*
G01X6102Y5613D01*
G01X6116Y5627D01*
G01X6130Y5642D01*
G01X6156Y5672D01*
G01X6182Y5704D01*
G01X6194Y5721D01*
G01X6207Y5738D01*
G01X6231Y5772D01*
G01X6243Y5790D01*
G01X6255Y5809D01*
G01X6288Y5866D01*
G01X6299Y5886D01*
G01X6310Y5907D01*
G01X6340Y5970D01*
G01X6350Y5992D01*
G01X6359Y6015D01*
G01X6368Y6037D01*
G01X6377Y6060D01*
G01X6395Y6108D01*
G01X6403Y6132D01*
G01X6411Y6157D01*
G01X6418Y6182D01*
G01X6426Y6208D01*
G01X6433Y6234D01*
G01X6440Y6261D01*
G01X6446Y6287D01*
G01X6470Y6399D01*
G01X6475Y6428D01*
G01X6479Y6458D01*
G01X6484Y6488D01*
G01X6488Y6518D01*
G01X6496Y6580D01*
G01X6502Y6644D01*
G01X6504Y6676D01*
G01X6506Y6709D01*
G01X6508Y6743D01*
G01X6510Y6776D01*
G01X6513Y6881D01*
G01X6513Y8561D01*
G01X6304Y8561D01*
G01X6243Y8000D01*
G01X6218Y8000D01*
G01X6168Y7999D01*
G01X6143Y7998D01*
G01X6068Y7997D01*
G01X6043Y7997D01*
G01X5993Y7996D01*
G01X5967Y7996D01*
G01X5942Y7995D01*
G01X5892Y7995D01*
G01X5867Y7994D01*
G01X5817Y7994D01*
G01X5792Y7993D01*
G01X5691Y7993D01*
G01X5666Y7992D01*
G01X5591Y7992D01*
G01X5540Y7991D01*
G01X5389Y7991D01*
G01X5364Y7990D01*
G01X4985Y7990D01*
G01X4960Y7989D01*
G01X4016Y7989D01*
G01X3991Y7990D01*
G01X3618Y7990D01*
G01X3593Y7991D01*
G01X3494Y7991D01*
G01X3395Y7992D01*
G01X3320Y7992D01*
G01X3296Y7993D01*
G01X3196Y7993D01*
G01X3172Y7994D01*
G01X3122Y7994D01*
G01X3097Y7995D01*
G01X3048Y7995D01*
G01X3023Y7996D01*
G01X2998Y7996D01*
G01X2924Y7997D01*
G01X2899Y7998D01*
G01X2850Y7998D01*
G01X2825Y7999D01*
G01X2800Y7999D01*
G01X2776Y8000D01*
G01X2751Y8000D01*
G01X2690Y8561D01*
G37*

%LPC*%
G36*
G01X5315Y7439D02*
G01X4549Y7439D01*
G01X4549Y7027D01*
G01X4550Y6996D01*
G01X4551Y6964D01*
G01X4553Y6934D01*
G01X4554Y6903D01*
G01X4556Y6873D01*
G01X4558Y6844D01*
G01X4561Y6815D01*
G01X4567Y6759D01*
G01X4571Y6731D01*
G01X4574Y6704D01*
G01X4578Y6678D01*
G01X4588Y6626D01*
G01X4593Y6601D01*
G01X4598Y6577D01*
G01X4603Y6552D01*
G01X4609Y6529D01*
G01X4616Y6505D01*
G01X4622Y6483D01*
G01X4629Y6460D01*
G01X4636Y6438D01*
G01X4643Y6417D01*
G01X4651Y6396D01*
G01X4667Y6356D01*
G01X4676Y6336D01*
G01X4694Y6298D01*
G01X4704Y6280D01*
G01X4713Y6262D01*
G01X4723Y6245D01*
G01X4745Y6211D01*
G01X4767Y6179D01*
G01X4779Y6164D01*
G01X4790Y6149D01*
G01X4803Y6135D01*
G01X4815Y6121D01*
G01X4854Y6082D01*
G01X4882Y6058D01*
G01X4896Y6047D01*
G01X4926Y6025D01*
G01X4941Y6015D01*
G01X4957Y6005D01*
G01X4972Y5996D01*
G01X4989Y5987D01*
G01X5005Y5979D01*
G01X5039Y5963D01*
G01X5073Y5949D01*
G01X5091Y5943D01*
G01X5110Y5937D01*
G01X5128Y5931D01*
G01X5166Y5921D01*
G01X5185Y5917D01*
G01X5225Y5909D01*
G01X5245Y5906D01*
G01X5266Y5903D01*
G01X5286Y5900D01*
G01X5308Y5898D01*
G01X5329Y5896D01*
G01X5373Y5894D01*
G01X5395Y5894D01*
G01X5418Y5893D01*
G01X5441Y5894D01*
G01X5463Y5894D01*
G01X5485Y5895D01*
G01X5529Y5899D01*
G01X5550Y5901D01*
G01X5571Y5904D01*
G01X5592Y5908D01*
G01X5612Y5911D01*
G01X5633Y5916D01*
G01X5652Y5920D01*
G01X5672Y5925D01*
G01X5729Y5943D01*
G01X5747Y5950D01*
G01X5765Y5958D01*
G01X5783Y5965D01*
G01X5801Y5974D01*
G01X5818Y5982D01*
G01X5835Y5991D01*
G01X5883Y6021D01*
G01X5899Y6032D01*
G01X5914Y6043D01*
G01X5944Y6067D01*
G01X5959Y6080D01*
G01X5973Y6093D01*
G01X6000Y6120D01*
G01X6013Y6134D01*
G01X6026Y6149D01*
G01X6038Y6164D01*
G01X6051Y6180D01*
G01X6062Y6196D01*
G01X6074Y6213D01*
G01X6096Y6247D01*
G01X6107Y6265D01*
G01X6117Y6283D01*
G01X6137Y6321D01*
G01X6164Y6381D01*
G01X6180Y6423D01*
G01X6188Y6445D01*
G01X6195Y6467D01*
G01X6209Y6513D01*
G01X6215Y6536D01*
G01X6221Y6560D01*
G01X6227Y6585D01*
G01X6232Y6609D01*
G01X6237Y6635D01*
G01X6241Y6660D01*
G01X6246Y6686D01*
G01X6250Y6713D01*
G01X6253Y6740D01*
G01X6257Y6767D01*
G01X6260Y6795D01*
G01X6262Y6823D01*
G01X6265Y6852D01*
G01X6266Y6881D01*
G01X6268Y6910D01*
G01X6270Y6970D01*
G01X6271Y7001D01*
G01X6271Y7428D01*
G01X6247Y7429D01*
G01X6223Y7429D01*
G01X6175Y7430D01*
G01X6150Y7431D01*
G01X6102Y7431D01*
G01X6078Y7432D01*
G01X6006Y7433D01*
G01X5981Y7433D01*
G01X5957Y7434D01*
G01X5884Y7434D01*
G01X5860Y7435D01*
G01X5811Y7435D01*
G01X5787Y7436D01*
G01X5689Y7436D01*
G01X5664Y7437D01*
G01X5540Y7437D01*
G01X5515Y7438D01*
G01X5340Y7438D01*
G01X5315Y7439D01*
G37*
G36*
G01X4302Y7439D02*
G01X3628Y7439D01*
G01X3603Y7438D01*
G01X3454Y7438D01*
G01X3404Y7437D01*
G01X3281Y7437D01*
G01X3256Y7436D01*
G01X3182Y7436D01*
G01X3157Y7435D01*
G01X3108Y7435D01*
G01X3084Y7434D01*
G01X3035Y7434D01*
G01X3010Y7433D01*
G01X2961Y7433D01*
G01X2839Y7431D01*
G01X2815Y7430D01*
G01X2791Y7430D01*
G01X2766Y7429D01*
G01X2742Y7429D01*
G01X2718Y7428D01*
G01X2718Y6946D01*
G01X2720Y6890D01*
G01X2722Y6862D01*
G01X2724Y6835D01*
G01X2726Y6809D01*
G01X2729Y6783D01*
G01X2731Y6757D01*
G01X2735Y6732D01*
G01X2738Y6707D01*
G01X2746Y6659D01*
G01X2756Y6613D01*
G01X2761Y6591D01*
G01X2767Y6569D01*
G01X2773Y6548D01*
G01X2780Y6527D01*
G01X2786Y6506D01*
G01X2794Y6486D01*
G01X2801Y6467D01*
G01X2817Y6429D01*
G01X2835Y6393D01*
G01X2845Y6376D01*
G01X2854Y6360D01*
G01X2865Y6343D01*
G01X2875Y6328D01*
G01X2886Y6312D01*
G01X2898Y6297D01*
G01X2909Y6283D01*
G01X2922Y6269D01*
G01X2934Y6256D01*
G01X2947Y6243D01*
G01X2961Y6230D01*
G01X2974Y6218D01*
G01X2989Y6206D01*
G01X3003Y6195D01*
G01X3018Y6184D01*
G01X3034Y6174D01*
G01X3049Y6164D01*
G01X3066Y6155D01*
G01X3082Y6146D01*
G01X3100Y6138D01*
G01X3117Y6130D01*
G01X3135Y6122D01*
G01X3153Y6115D01*
G01X3191Y6103D01*
G01X3211Y6097D01*
G01X3231Y6092D01*
G01X3252Y6087D01*
G01X3294Y6079D01*
G01X3316Y6075D01*
G01X3338Y6073D01*
G01X3361Y6070D01*
G01X3384Y6068D01*
G01X3408Y6066D01*
G01X3432Y6065D01*
G01X3457Y6065D01*
G01X3482Y6064D01*
G01X3506Y6065D01*
G01X3531Y6065D01*
G01X3554Y6066D01*
G01X3578Y6068D01*
G01X3601Y6070D01*
G01X3623Y6072D01*
G01X3667Y6078D01*
G01X3689Y6082D01*
G01X3710Y6086D01*
G01X3731Y6091D01*
G01X3771Y6101D01*
G01X3809Y6113D01*
G01X3847Y6127D01*
G01X3865Y6135D01*
G01X3882Y6143D01*
G01X3900Y6152D01*
G01X3916Y6161D01*
G01X3933Y6170D01*
G01X3949Y6180D01*
G01X3965Y6191D01*
G01X3980Y6201D01*
G01X4010Y6225D01*
G01X4024Y6237D01*
G01X4052Y6263D01*
G01X4065Y6276D01*
G01X4078Y6291D01*
G01X4090Y6305D01*
G01X4102Y6320D01*
G01X4114Y6336D01*
G01X4136Y6368D01*
G01X4147Y6385D01*
G01X4157Y6402D01*
G01X4167Y6420D01*
G01X4177Y6439D01*
G01X4195Y6477D01*
G01X4211Y6517D01*
G01X4219Y6538D01*
G01X4226Y6559D01*
G01X4240Y6603D01*
G01X4247Y6626D01*
G01X4253Y6649D01*
G01X4258Y6673D01*
G01X4264Y6697D01*
G01X4268Y6722D01*
G01X4273Y6747D01*
G01X4281Y6799D01*
G01X4285Y6826D01*
G01X4288Y6853D01*
G01X4294Y6909D01*
G01X4296Y6937D01*
G01X4298Y6967D01*
G01X4299Y6996D01*
G01X4300Y7027D01*
G01X4301Y7057D01*
G01X4302Y7089D01*
G01X4302Y7439D01*
G37*

%LPD*%
G36*
G01X7228Y5397D02*
G01X7206Y5404D01*
G01X7180Y5400D01*
G01X7156Y5394D01*
G01X7133Y5387D01*
G01X7112Y5379D01*
G01X7091Y5370D01*
G01X7072Y5360D01*
G01X7054Y5349D01*
G01X7037Y5337D01*
G01X7007Y5311D01*
G01X6981Y5281D01*
G01X6970Y5264D01*
G01X6960Y5247D01*
G01X6951Y5230D01*
G01X6943Y5211D01*
G01X6936Y5192D01*
G01X6930Y5172D01*
G01X6925Y5152D01*
G01X6921Y5131D01*
G01X6918Y5109D01*
G01X6914Y5065D01*
G01X6914Y5020D01*
G01X6915Y4999D01*
G01X6917Y4978D01*
G01X6920Y4958D01*
G01X6924Y4937D01*
G01X6928Y4917D01*
G01X6934Y4897D01*
G01X6940Y4876D01*
G01X6947Y4856D01*
G01X6955Y4835D01*
G01X6964Y4814D01*
G01X6975Y4794D01*
G01X6986Y4772D01*
G01X6998Y4751D01*
G01X7026Y4707D01*
G01X7042Y4684D01*
G01X7059Y4661D01*
G01X7077Y4637D01*
G01X7096Y4612D01*
G01X7233Y4452D01*
G01X7219Y4438D01*
G01X7205Y4423D01*
G01X7191Y4409D01*
G01X7176Y4396D01*
G01X7161Y4382D01*
G01X7145Y4370D01*
G01X7129Y4357D01*
G01X7113Y4345D01*
G01X7095Y4334D01*
G01X7078Y4323D01*
G01X7059Y4312D01*
G01X7041Y4302D01*
G01X7021Y4292D01*
G01X7002Y4283D01*
G01X6981Y4274D01*
G01X6960Y4266D01*
G01X6916Y4250D01*
G01X6870Y4236D01*
G01X6845Y4230D01*
G01X6821Y4224D01*
G01X6795Y4218D01*
G01X6769Y4213D01*
G01X6742Y4208D01*
G01X6686Y4200D01*
G01X6657Y4196D01*
G01X6627Y4193D01*
G01X6597Y4191D01*
G01X6533Y4187D01*
G01X6500Y4185D01*
G01X6467Y4184D01*
G01X6432Y4184D01*
G01X6397Y4183D01*
G01X6359Y4183D01*
G01X6351Y4184D01*
G01X6259Y4184D01*
G01X6241Y4185D01*
G01X6172Y4185D01*
G01X6162Y4186D01*
G01X6107Y4186D01*
G01X6095Y4187D01*
G01X6047Y4187D01*
G01X6034Y4188D01*
G01X5995Y4188D01*
G01X5982Y4189D01*
G01X5940Y4189D01*
G01X5926Y4190D01*
G01X5881Y4190D01*
G01X5866Y4191D01*
G01X5818Y4191D01*
G01X5802Y4192D01*
G01X5768Y4192D01*
G01X5751Y4193D01*
G01X5716Y4193D01*
G01X5698Y4194D01*
G01X5661Y4194D01*
G01X5642Y4195D01*
G01X5603Y4195D01*
G01X5583Y4196D01*
G01X5542Y4196D01*
G01X5521Y4197D01*
G01X5478Y4197D01*
G01X5457Y4198D01*
G01X5434Y4198D01*
G01X5412Y4199D01*
G01X5366Y4199D01*
G01X5342Y4200D01*
G01X5294Y4200D01*
G01X5269Y4201D01*
G01X5244Y4201D01*
G01X5218Y4202D01*
G01X5166Y4202D01*
G01X5140Y4203D01*
G01X5113Y4203D01*
G01X5085Y4204D01*
G01X5058Y4204D01*
G01X5029Y4205D01*
G01X4972Y4205D01*
G01X4942Y4206D01*
G01X4913Y4206D01*
G01X4882Y4207D01*
G01X4852Y4207D01*
G01X4821Y4208D01*
G01X4789Y4208D01*
G01X4757Y4209D01*
G01X4725Y4209D01*
G01X4692Y4210D01*
G01X4625Y4210D01*
G01X4591Y4211D01*
G01X4556Y4211D01*
G01X4521Y4212D01*
G01X4485Y4212D01*
G01X4449Y4213D01*
G01X4413Y4213D01*
G01X4376Y4214D01*
G01X4338Y4214D01*
G01X4300Y4215D01*
G01X4262Y4215D01*
G01X4223Y4216D01*
G01X4183Y4216D01*
G01X4143Y4217D01*
G01X4103Y4217D01*
G01X4062Y4218D01*
G01X4020Y4218D01*
G01X3979Y4219D01*
G01X3936Y4219D01*
G01X3893Y4220D01*
G01X3849Y4220D01*
G01X3805Y4221D01*
G01X3761Y4221D01*
G01X3716Y4222D01*
G01X3670Y4223D01*
G01X3624Y4223D01*
G01X3577Y4224D01*
G01X3530Y4224D01*
G01X3482Y4225D01*
G01X3433Y4225D01*
G01X3384Y4226D01*
G01X3335Y4226D01*
G01X3285Y4227D01*
G01X3234Y4227D01*
G01X3183Y4228D01*
G01X3131Y4228D01*
G01X3025Y4230D01*
G01X2971Y4230D01*
G01X2917Y4231D01*
G01X2862Y4231D01*
G01X2807Y4232D01*
G01X2751Y4232D01*
G01X2690Y4848D01*
G01X2481Y4848D01*
G01X2481Y3099D01*
G01X2690Y3099D01*
G01X2751Y3660D01*
G01X2775Y3661D01*
G01X2800Y3661D01*
G01X2824Y3662D01*
G01X2849Y3662D01*
G01X2923Y3664D01*
G01X2972Y3664D01*
G01X3021Y3665D01*
G01X3046Y3665D01*
G01X3070Y3666D01*
G01X3120Y3666D01*
G01X3144Y3667D01*
G01X3194Y3667D01*
G01X3219Y3668D01*
G01X3293Y3668D01*
G01X3318Y3669D01*
G01X3442Y3669D01*
G01X3467Y3670D01*
G01X3642Y3670D01*
G01X3667Y3671D01*
G01X5345Y3671D01*
G01X5381Y3672D01*
G01X5520Y3672D01*
G01X5553Y3673D01*
G01X5585Y3673D01*
G01X5617Y3674D01*
G01X5648Y3674D01*
G01X5678Y3675D01*
G01X5708Y3675D01*
G01X5737Y3676D01*
G01X5766Y3676D01*
G01X5794Y3677D01*
G01X5875Y3680D01*
G01X5901Y3681D01*
G01X5976Y3684D01*
G01X6000Y3685D01*
G01X6023Y3687D01*
G01X6046Y3688D01*
G01X6069Y3690D01*
G01X6092Y3691D01*
G01X6114Y3693D01*
G01X6135Y3695D01*
G01X6157Y3696D01*
G01X6178Y3698D01*
G01X6198Y3700D01*
G01X6219Y3702D01*
G01X6259Y3706D01*
G01X6278Y3709D01*
G01X6317Y3714D01*
G01X6391Y3724D01*
G01X6445Y3733D01*
G01X6463Y3737D01*
G01X6481Y3740D01*
G01X6498Y3743D01*
G01X6516Y3747D01*
G01X6533Y3751D01*
G01X6551Y3754D01*
G01X6578Y3760D01*
G01X6604Y3766D01*
G01X6656Y3780D01*
G01X6681Y3787D01*
G01X6706Y3795D01*
G01X6730Y3803D01*
G01X6754Y3812D01*
G01X6778Y3822D01*
G01X6801Y3831D01*
G01X6824Y3841D01*
G01X6847Y3852D01*
G01X6891Y3874D01*
G01X6954Y3910D01*
G01X6974Y3923D01*
G01X6994Y3937D01*
G01X7013Y3950D01*
G01X7033Y3964D01*
G01X7051Y3978D01*
G01X7070Y3993D01*
G01X7087Y4008D01*
G01X7105Y4023D01*
G01X7139Y4055D01*
G01X7155Y4071D01*
G01X7171Y4088D01*
G01X7187Y4104D01*
G01X7202Y4121D01*
G01X7217Y4139D01*
G01X7231Y4156D01*
G01X7259Y4192D01*
G01X7272Y4211D01*
G01X7284Y4229D01*
G01X7297Y4248D01*
G01X7309Y4267D01*
G01X7320Y4287D01*
G01X7332Y4306D01*
G01X7342Y4326D01*
G01X7353Y4346D01*
G01X7363Y4366D01*
G01X7372Y4386D01*
G01X7382Y4407D01*
G01X7390Y4427D01*
G01X7399Y4448D01*
G01X7407Y4469D01*
G01X7421Y4511D01*
G01X7428Y4533D01*
G01X7435Y4554D01*
G01X7440Y4576D01*
G01X7446Y4598D01*
G01X7451Y4619D01*
G01X7456Y4641D01*
G01X7460Y4663D01*
G01X7464Y4686D01*
G01X7468Y4708D01*
G01X7471Y4730D01*
G01X7473Y4752D01*
G01X7476Y4775D01*
G01X7477Y4797D01*
G01X7479Y4820D01*
G01X7480Y4842D01*
G01X7481Y4865D01*
G01X7481Y4912D01*
G01X7480Y4937D01*
G01X7479Y4961D01*
G01X7477Y4985D01*
G01X7471Y5033D01*
G01X7468Y5056D01*
G01X7464Y5079D01*
G01X7459Y5102D01*
G01X7447Y5146D01*
G01X7440Y5167D01*
G01X7432Y5188D01*
G01X7424Y5208D01*
G01X7404Y5246D01*
G01X7393Y5264D01*
G01X7381Y5281D01*
G01X7368Y5298D01*
G01X7354Y5313D01*
G01X7339Y5328D01*
G01X7323Y5342D01*
G01X7306Y5355D01*
G01X7288Y5367D01*
G01X7269Y5378D01*
G01X7249Y5388D01*
G01X7228Y5397D01*
G37*

%LPD*%
G54D53*
G01X28800Y10993D02*
G01X29105Y10993D01*
G01X28800Y11095D02*
G01X28800Y10891D01*
G01X28800Y10708D02*
G01X28814Y10737D01*
G01X28843Y10766D01*
G01X28872Y10781D01*
G01X28916Y10795D01*
G01X28989Y10795D01*
G01X29032Y10781D01*
G01X29061Y10766D01*
G01X29091Y10737D01*
G01X29105Y10708D01*
G01X29105Y10650D01*
G01X29091Y10621D01*
G01X29061Y10591D01*
G01X29032Y10577D01*
G01X28989Y10562D01*
G01X28916Y10562D01*
G01X28872Y10577D01*
G01X28843Y10591D01*
G01X28814Y10621D01*
G01X28800Y10650D01*
G01X28800Y10708D01*
G01X28800Y10466D02*
G01X29018Y10466D01*
G01X29061Y10452D01*
G01X29091Y10423D01*
G01X29105Y10379D01*
G01X29105Y10350D01*
G01X29091Y10306D01*
G01X29061Y10277D01*
G01X29018Y10263D01*
G01X28800Y10263D01*
G01X28872Y9949D02*
G01X28843Y9963D01*
G01X28814Y9992D01*
G01X28800Y10021D01*
G01X28800Y10079D01*
G01X28814Y10109D01*
G01X28843Y10138D01*
G01X28872Y10152D01*
G01X28916Y10167D01*
G01X28989Y10167D01*
G01X29032Y10152D01*
G01X29061Y10138D01*
G01X29091Y10109D01*
G01X29105Y10079D01*
G01X29105Y10021D01*
G01X29091Y9992D01*
G01X29061Y9963D01*
G01X29032Y9949D01*
G01X28800Y9853D02*
G01X29105Y9853D01*
G01X28800Y9649D02*
G01X29105Y9649D01*
G01X28945Y9853D02*
G01X28945Y9649D01*
G01X26653Y11168D02*
G01X26653Y11473D01*
G01X26653Y11168D02*
G01X26784Y11168D01*
G01X26828Y11182D01*
G01X26842Y11197D01*
G01X26857Y11226D01*
G01X26857Y11255D01*
G01X26842Y11284D01*
G01X26828Y11299D01*
G01X26784Y11313D01*
G01X26653Y11313D01*
G01X26755Y11313D02*
G01X26857Y11473D01*
G01X27157Y11168D02*
G01X27011Y11473D01*
G01X26953Y11168D02*
G01X27157Y11168D01*
G01X27749Y11162D02*
G01X27738Y11193D01*
G01X27739Y11234D01*
G01X27749Y11266D01*
G01X27790Y11307D01*
G01X27821Y11316D01*
G01X27862Y11316D01*
G01X27893Y11307D01*
G01X27934Y11286D01*
G01X27985Y11234D01*
G01X28006Y11193D01*
G01X28016Y11162D01*
G01X28016Y11121D01*
G01X28006Y11091D01*
G01X27965Y11050D01*
G01X27934Y11039D01*
G01X27893Y11039D01*
G01X27862Y11049D01*
G01X27609Y11126D02*
G01X27496Y11012D01*
G01X27639Y10992D01*
G01X27608Y10961D01*
G01X27598Y10930D01*
G01X27598Y10910D01*
G01X27619Y10868D01*
G01X27639Y10848D01*
G01X27681Y10827D01*
G01X27722Y10827D01*
G01X27763Y10848D01*
G01X27794Y10879D01*
G01X27815Y10920D01*
G01X27814Y10940D01*
G01X27804Y10971D01*
G01X27315Y10831D02*
G01X27562Y10790D01*
G01X27407Y10636D01*
G01X27315Y10831D02*
G01X27530Y10616D01*
G54D10*
G75*
G01X2264Y22489D02*
G03X2264Y22489I-1083J0D01*
G01*
G75*
G01X2264Y1229D02*
G03X2264Y1229I-1083J0D01*
G01*
G75*
G01X31417Y1181D02*
G03X31417Y1181I-1083J0D01*
G01*
G75*
G01X31417Y22441D02*
G03X31417Y22441I-1083J0D01*
G01*
M00*
M02*
