G04 Layer: BottomLayer*
G04 EasyEDA v6.3.39, 2020-04-30T23:39:24+05:30*
G04 1361d28c2fbe473eb46aea13557a18e3,781d2bfaae87481f995808756cab4c07,10*
G04 Gerber Generator version 0.2*
G04 Scale: 100 percent, Rotated: No, Reflected: No *
G04 Dimensions in inches *
G04 leading zeros omitted , absolute positions ,2 integer and 4 decimal *
%FSLAX24Y24*%
%MOIN*%
G90*
G70D02*

%ADD10C,0.010000*%
%ADD12C,0.020000*%
%ADD16C,0.024000*%
%ADD34C,0.177165*%
%ADD35C,0.118110*%
%ADD37R,0.062992X0.062992*%
%ADD38C,0.062992*%
%ADD39R,0.078740X0.078740*%
%ADD40C,0.078740*%
%ADD41R,0.035433X0.062992*%
%ADD42C,0.060000*%
%ADD44C,0.059055*%
%ADD45C,0.035433*%
%ADD46C,0.047244*%
%ADD47C,0.005000*%

%LPD*%
G36*
G01X20708Y23524D02*
G01X19331Y23528D01*
G01X19319Y23526D01*
G01X19314Y23524D01*
G01X19304Y23518D01*
G01X19300Y23514D01*
G01X19294Y23504D01*
G01X19292Y23499D01*
G01X19291Y23493D01*
G01X19291Y22969D01*
G01X19292Y22964D01*
G01X19294Y22958D01*
G01X19297Y22953D01*
G01X19300Y22949D01*
G01X19304Y22945D01*
G01X19309Y22941D01*
G01X19319Y22937D01*
G01X19331Y22935D01*
G01X19910Y22935D01*
G01X19930Y22931D01*
G01X19948Y22923D01*
G01X19957Y22918D01*
G01X19965Y22912D01*
G01X19972Y22906D01*
G01X20366Y22512D01*
G01X20372Y22504D01*
G01X20378Y22497D01*
G01X20383Y22488D01*
G01X20391Y22470D01*
G01X20395Y22450D01*
G01X20395Y18494D01*
G01X20391Y18474D01*
G01X20383Y18456D01*
G01X20378Y18447D01*
G01X20372Y18439D01*
G01X20366Y18432D01*
G01X20169Y18235D01*
G01X20161Y18228D01*
G01X20153Y18223D01*
G01X20145Y18217D01*
G01X20136Y18213D01*
G01X20127Y18210D01*
G01X20117Y18207D01*
G01X20107Y18206D01*
G01X14906Y18206D01*
G01X14901Y18205D01*
G01X14895Y18204D01*
G01X14890Y18202D01*
G01X14880Y18196D01*
G01X14876Y18192D01*
G01X14870Y18182D01*
G01X14868Y18177D01*
G01X14867Y18171D01*
G01X14867Y18162D01*
G01X14868Y18144D01*
G01X14868Y18107D01*
G01X14867Y18090D01*
G01X14865Y18072D01*
G01X14862Y18054D01*
G01X14858Y18036D01*
G01X14854Y18019D01*
G01X14849Y18002D01*
G01X14843Y17985D01*
G01X14829Y17951D01*
G01X14820Y17935D01*
G01X14812Y17920D01*
G01X14792Y17890D01*
G01X14781Y17875D01*
G01X14769Y17862D01*
G01X14757Y17848D01*
G01X14744Y17836D01*
G01X14731Y17823D01*
G01X14703Y17801D01*
G01X14673Y17781D01*
G01X14657Y17772D01*
G01X14641Y17764D01*
G01X14625Y17757D01*
G01X14608Y17750D01*
G01X14591Y17744D01*
G01X14574Y17739D01*
G01X14557Y17735D01*
G01X14539Y17731D01*
G01X14521Y17728D01*
G01X14503Y17726D01*
G01X14467Y17724D01*
G01X14431Y17726D01*
G01X14413Y17728D01*
G01X14396Y17731D01*
G01X14378Y17735D01*
G01X14361Y17739D01*
G01X14343Y17744D01*
G01X14326Y17750D01*
G01X14310Y17757D01*
G01X14293Y17764D01*
G01X14277Y17772D01*
G01X14262Y17781D01*
G01X14246Y17791D01*
G01X14232Y17801D01*
G01X14217Y17812D01*
G01X14203Y17823D01*
G01X14190Y17836D01*
G01X14177Y17848D01*
G01X14165Y17862D01*
G01X14154Y17875D01*
G01X14143Y17890D01*
G01X14123Y17920D01*
G01X14114Y17935D01*
G01X14106Y17951D01*
G01X14092Y17985D01*
G01X14086Y18002D01*
G01X14076Y18036D01*
G01X14070Y18072D01*
G01X14068Y18090D01*
G01X14067Y18107D01*
G01X14066Y18125D01*
G01X14067Y18144D01*
G01X14068Y18162D01*
G01X14068Y18171D01*
G01X14067Y18177D01*
G01X14065Y18182D01*
G01X14062Y18187D01*
G01X14058Y18192D01*
G01X14054Y18196D01*
G01X14050Y18199D01*
G01X14045Y18202D01*
G01X14039Y18204D01*
G01X14034Y18205D01*
G01X14028Y18206D01*
G01X11888Y18206D01*
G01X11876Y18204D01*
G01X11864Y18198D01*
G01X11860Y18194D01*
G01X11745Y18080D01*
G01X11741Y18075D01*
G01X11738Y18069D01*
G01X11736Y18064D01*
G01X11734Y18058D01*
G01X11734Y3740D01*
G01X11732Y3720D01*
G01X11729Y3710D01*
G01X11726Y3701D01*
G01X11722Y3692D01*
G01X11717Y3684D01*
G01X11711Y3676D01*
G01X11704Y3668D01*
G01X11507Y3471D01*
G01X11500Y3465D01*
G01X11492Y3459D01*
G01X11483Y3454D01*
G01X11475Y3449D01*
G01X11465Y3446D01*
G01X11456Y3444D01*
G01X11446Y3442D01*
G01X9536Y3442D01*
G01X9530Y3441D01*
G01X9525Y3440D01*
G01X9519Y3438D01*
G01X9514Y3435D01*
G01X9510Y3432D01*
G01X9506Y3428D01*
G01X9502Y3423D01*
G01X9498Y3413D01*
G01X9496Y3407D01*
G01X9496Y169D01*
G01X9498Y164D01*
G01X9500Y158D01*
G01X9502Y153D01*
G01X9514Y141D01*
G01X9519Y138D01*
G01X9525Y136D01*
G01X9530Y135D01*
G01X9536Y135D01*
G01X25079Y109D01*
G01X25085Y110D01*
G01X25090Y111D01*
G01X25096Y113D01*
G01X25101Y116D01*
G01X25105Y119D01*
G01X25109Y123D01*
G01X25113Y128D01*
G01X25116Y133D01*
G01X25118Y138D01*
G01X25119Y143D01*
G01X25119Y155D01*
G01X25118Y160D01*
G01X25116Y166D01*
G01X25113Y171D01*
G01X25110Y175D01*
G01X25106Y179D01*
G01X25101Y183D01*
G01X25087Y192D01*
G01X25074Y202D01*
G01X25061Y213D01*
G01X25037Y237D01*
G01X25026Y249D01*
G01X25016Y263D01*
G01X25006Y276D01*
G01X24997Y290D01*
G01X24989Y305D01*
G01X24975Y335D01*
G01X24963Y367D01*
G01X24955Y399D01*
G01X24951Y433D01*
G01X24949Y449D01*
G01X25143Y449D01*
G01X25143Y149D01*
G01X25144Y143D01*
G01X25145Y138D01*
G01X25147Y132D01*
G01X25149Y127D01*
G01X25161Y115D01*
G01X25166Y113D01*
G01X25172Y111D01*
G01X25177Y109D01*
G01X25395Y109D01*
G01X25401Y110D01*
G01X25406Y112D01*
G01X25416Y118D01*
G01X25420Y122D01*
G01X25426Y132D01*
G01X25428Y137D01*
G01X25429Y143D01*
G01X25429Y449D01*
G01X25623Y449D01*
G01X25622Y433D01*
G01X25620Y416D01*
G01X25617Y399D01*
G01X25609Y367D01*
G01X25604Y351D01*
G01X25598Y335D01*
G01X25591Y320D01*
G01X25575Y290D01*
G01X25566Y276D01*
G01X25556Y262D01*
G01X25546Y249D01*
G01X25535Y236D01*
G01X25523Y224D01*
G01X25511Y213D01*
G01X25498Y202D01*
G01X25470Y182D01*
G01X25466Y179D01*
G01X25462Y175D01*
G01X25456Y165D01*
G01X25454Y160D01*
G01X25452Y148D01*
G01X25453Y143D01*
G01X25454Y137D01*
G01X25456Y132D01*
G01X25462Y122D01*
G01X25466Y118D01*
G01X25476Y112D01*
G01X25481Y110D01*
G01X25487Y109D01*
G01X25492Y108D01*
G01X28489Y104D01*
G01X28495Y104D01*
G01X28501Y105D01*
G01X28506Y107D01*
G01X28516Y113D01*
G01X28520Y117D01*
G01X28526Y127D01*
G01X28528Y132D01*
G01X28529Y138D01*
G01X28529Y149D01*
G01X28528Y155D01*
G01X28526Y160D01*
G01X28523Y166D01*
G01X28511Y178D01*
G01X28496Y187D01*
G01X28482Y197D01*
G01X28469Y208D01*
G01X28456Y220D01*
G01X28444Y232D01*
G01X28432Y245D01*
G01X28421Y258D01*
G01X28411Y272D01*
G01X28402Y286D01*
G01X28393Y301D01*
G01X28385Y316D01*
G01X28371Y348D01*
G01X28366Y365D01*
G01X28361Y381D01*
G01X28357Y398D01*
G01X28354Y415D01*
G01X28352Y432D01*
G01X28351Y449D01*
G01X28545Y449D01*
G01X28545Y138D01*
G01X28546Y132D01*
G01X28548Y127D01*
G01X28554Y117D01*
G01X28558Y113D01*
G01X28568Y107D01*
G01X28573Y105D01*
G01X28585Y103D01*
G01X28797Y103D01*
G01X28802Y105D01*
G01X28808Y107D01*
G01X28813Y109D01*
G01X28825Y121D01*
G01X28827Y126D01*
G01X28829Y132D01*
G01X28831Y137D01*
G01X28831Y449D01*
G01X29025Y449D01*
G01X29024Y433D01*
G01X29022Y417D01*
G01X29019Y400D01*
G01X29011Y368D01*
G01X29006Y353D01*
G01X29000Y337D01*
G01X28994Y322D01*
G01X28986Y308D01*
G01X28978Y293D01*
G01X28970Y279D01*
G01X28940Y240D01*
G01X28917Y217D01*
G01X28904Y206D01*
G01X28878Y186D01*
G01X28864Y177D01*
G01X28859Y174D01*
G01X28855Y170D01*
G01X28849Y160D01*
G01X28847Y154D01*
G01X28846Y149D01*
G01X28845Y143D01*
G01X28846Y137D01*
G01X28847Y132D01*
G01X28849Y126D01*
G01X28851Y121D01*
G01X28863Y109D01*
G01X28868Y107D01*
G01X28874Y105D01*
G01X28879Y103D01*
G01X28885Y103D01*
G01X30333Y101D01*
G01X30363Y101D01*
G01X30392Y102D01*
G01X30422Y104D01*
G01X30451Y107D01*
G01X30509Y115D01*
G01X30538Y120D01*
G01X30567Y126D01*
G01X30596Y133D01*
G01X30624Y140D01*
G01X30680Y158D01*
G01X30736Y178D01*
G01X30790Y202D01*
G01X30816Y214D01*
G01X30868Y242D01*
G01X30893Y257D01*
G01X30943Y289D01*
G01X30991Y323D01*
G01X31014Y342D01*
G01X31058Y380D01*
G01X31080Y400D01*
G01X31101Y421D01*
G01X31121Y442D01*
G01X31141Y464D01*
G01X31160Y486D01*
G01X31179Y509D01*
G01X31197Y532D01*
G01X31231Y580D01*
G01X31263Y630D01*
G01X31277Y655D01*
G01X31291Y681D01*
G01X31304Y707D01*
G01X31317Y734D01*
G01X31329Y761D01*
G01X31340Y788D01*
G01X31360Y844D01*
G01X31376Y900D01*
G01X31384Y929D01*
G01X31390Y957D01*
G01X31396Y986D01*
G01X31401Y1015D01*
G01X31405Y1044D01*
G01X31408Y1074D01*
G01X31411Y1103D01*
G01X31412Y1132D01*
G01X31413Y1162D01*
G01X31413Y1168D01*
G01X31412Y1181D01*
G01X31412Y22495D01*
G01X31410Y22525D01*
G01X31407Y22555D01*
G01X31404Y22584D01*
G01X31400Y22614D01*
G01X31382Y22701D01*
G01X31374Y22730D01*
G01X31365Y22759D01*
G01X31356Y22787D01*
G01X31336Y22843D01*
G01X31324Y22871D01*
G01X31312Y22898D01*
G01X31299Y22925D01*
G01X31285Y22951D01*
G01X31271Y22978D01*
G01X31223Y23053D01*
G01X31206Y23078D01*
G01X31188Y23101D01*
G01X31169Y23125D01*
G01X31150Y23148D01*
G01X31130Y23170D01*
G01X31109Y23192D01*
G01X31088Y23213D01*
G01X31067Y23233D01*
G01X31045Y23253D01*
G01X31022Y23273D01*
G01X30999Y23291D01*
G01X30975Y23309D01*
G01X30950Y23327D01*
G01X30926Y23344D01*
G01X30901Y23360D01*
G01X30849Y23390D01*
G01X30822Y23403D01*
G01X30796Y23417D01*
G01X30769Y23429D01*
G01X30741Y23441D01*
G01X30713Y23452D01*
G01X30685Y23462D01*
G01X30657Y23471D01*
G01X30628Y23480D01*
G01X30570Y23494D01*
G01X30512Y23506D01*
G01X30482Y23510D01*
G01X30453Y23514D01*
G01X30423Y23517D01*
G01X30393Y23519D01*
G01X30333Y23521D01*
G01X28902Y23521D01*
G01X28890Y23519D01*
G01X28885Y23517D01*
G01X28875Y23511D01*
G01X28871Y23507D01*
G01X28865Y23497D01*
G01X28863Y23492D01*
G01X28862Y23486D01*
G01X28862Y23475D01*
G01X28863Y23469D01*
G01X28866Y23463D01*
G01X28872Y23453D01*
G01X28877Y23449D01*
G01X28887Y23440D01*
G01X28907Y23420D01*
G01X28916Y23409D01*
G01X28924Y23398D01*
G01X28938Y23374D01*
G01X28943Y23361D01*
G01X28824Y23361D01*
G01X28824Y23486D01*
G01X28823Y23492D01*
G01X28821Y23497D01*
G01X28815Y23507D01*
G01X28811Y23511D01*
G01X28801Y23517D01*
G01X28796Y23519D01*
G01X28784Y23521D01*
G01X28694Y23521D01*
G01X28689Y23520D01*
G01X28683Y23519D01*
G01X28678Y23517D01*
G01X28668Y23511D01*
G01X28664Y23507D01*
G01X28658Y23497D01*
G01X28656Y23492D01*
G01X28655Y23486D01*
G01X28654Y23481D01*
G01X28654Y23361D01*
G01X28535Y23361D01*
G01X28541Y23374D01*
G01X28555Y23398D01*
G01X28563Y23409D01*
G01X28572Y23420D01*
G01X28581Y23430D01*
G01X28591Y23440D01*
G01X28602Y23449D01*
G01X28606Y23453D01*
G01X28610Y23458D01*
G01X28613Y23463D01*
G01X28617Y23475D01*
G01X28617Y23486D01*
G01X28616Y23492D01*
G01X28614Y23497D01*
G01X28611Y23502D01*
G01X28607Y23507D01*
G01X28603Y23511D01*
G01X28599Y23514D01*
G01X28594Y23517D01*
G01X28588Y23519D01*
G01X28583Y23520D01*
G01X28577Y23521D01*
G01X28114Y23521D01*
G01X28108Y23520D01*
G01X28103Y23519D01*
G01X28098Y23517D01*
G01X28088Y23511D01*
G01X28084Y23507D01*
G01X28078Y23497D01*
G01X28076Y23492D01*
G01X28075Y23486D01*
G01X28074Y23481D01*
G01X28076Y23469D01*
G01X28078Y23463D01*
G01X28081Y23458D01*
G01X28085Y23453D01*
G01X28089Y23449D01*
G01X28100Y23440D01*
G01X28110Y23430D01*
G01X28119Y23420D01*
G01X28128Y23409D01*
G01X28136Y23398D01*
G01X28144Y23386D01*
G01X28150Y23374D01*
G01X28156Y23361D01*
G01X28037Y23361D01*
G01X28037Y23486D01*
G01X28035Y23492D01*
G01X28031Y23502D01*
G01X28027Y23507D01*
G01X28023Y23511D01*
G01X28019Y23514D01*
G01X28014Y23517D01*
G01X28008Y23519D01*
G01X28003Y23520D01*
G01X27997Y23521D01*
G01X27907Y23521D01*
G01X27901Y23520D01*
G01X27896Y23519D01*
G01X27890Y23517D01*
G01X27885Y23514D01*
G01X27881Y23511D01*
G01X27877Y23507D01*
G01X27873Y23502D01*
G01X27869Y23492D01*
G01X27867Y23486D01*
G01X27867Y23361D01*
G01X27748Y23361D01*
G01X27754Y23374D01*
G01X27760Y23386D01*
G01X27768Y23398D01*
G01X27776Y23409D01*
G01X27785Y23420D01*
G01X27794Y23430D01*
G01X27804Y23440D01*
G01X27815Y23449D01*
G01X27819Y23453D01*
G01X27823Y23458D01*
G01X27826Y23463D01*
G01X27828Y23469D01*
G01X27830Y23481D01*
G01X27829Y23486D01*
G01X27828Y23492D01*
G01X27826Y23497D01*
G01X27820Y23507D01*
G01X27816Y23511D01*
G01X27806Y23517D01*
G01X27801Y23519D01*
G01X27796Y23520D01*
G01X27790Y23521D01*
G01X27327Y23521D01*
G01X27315Y23519D01*
G01X27310Y23517D01*
G01X27305Y23514D01*
G01X27301Y23511D01*
G01X27297Y23507D01*
G01X27293Y23502D01*
G01X27290Y23497D01*
G01X27288Y23492D01*
G01X27287Y23486D01*
G01X27287Y23475D01*
G01X27291Y23463D01*
G01X27294Y23458D01*
G01X27298Y23453D01*
G01X27302Y23449D01*
G01X27313Y23440D01*
G01X27323Y23430D01*
G01X27332Y23420D01*
G01X27341Y23409D01*
G01X27349Y23398D01*
G01X27363Y23374D01*
G01X27369Y23361D01*
G01X27250Y23361D01*
G01X27250Y23481D01*
G01X27249Y23486D01*
G01X27248Y23492D01*
G01X27246Y23497D01*
G01X27240Y23507D01*
G01X27236Y23511D01*
G01X27226Y23517D01*
G01X27221Y23519D01*
G01X27215Y23520D01*
G01X27210Y23521D01*
G01X27120Y23521D01*
G01X27108Y23519D01*
G01X27103Y23517D01*
G01X27093Y23511D01*
G01X27089Y23507D01*
G01X27083Y23497D01*
G01X27081Y23492D01*
G01X27080Y23486D01*
G01X27080Y23361D01*
G01X26961Y23361D01*
G01X26966Y23374D01*
G01X26980Y23398D01*
G01X26988Y23409D01*
G01X26997Y23420D01*
G01X27017Y23440D01*
G01X27027Y23449D01*
G01X27032Y23453D01*
G01X27038Y23463D01*
G01X27041Y23469D01*
G01X27042Y23475D01*
G01X27042Y23486D01*
G01X27041Y23492D01*
G01X27039Y23497D01*
G01X27033Y23507D01*
G01X27029Y23511D01*
G01X27019Y23517D01*
G01X27014Y23519D01*
G01X27002Y23521D01*
G01X26539Y23521D01*
G01X26534Y23520D01*
G01X26528Y23519D01*
G01X26523Y23517D01*
G01X26513Y23511D01*
G01X26509Y23507D01*
G01X26503Y23497D01*
G01X26501Y23492D01*
G01X26500Y23486D01*
G01X26499Y23481D01*
G01X26501Y23469D01*
G01X26503Y23463D01*
G01X26506Y23458D01*
G01X26510Y23453D01*
G01X26515Y23449D01*
G01X26525Y23440D01*
G01X26545Y23420D01*
G01X26553Y23409D01*
G01X26562Y23398D01*
G01X26569Y23386D01*
G01X26575Y23374D01*
G01X26581Y23361D01*
G01X26462Y23361D01*
G01X26462Y23486D01*
G01X26461Y23492D01*
G01X26459Y23497D01*
G01X26456Y23502D01*
G01X26452Y23507D01*
G01X26448Y23511D01*
G01X26444Y23514D01*
G01X26439Y23517D01*
G01X26433Y23519D01*
G01X26428Y23520D01*
G01X26422Y23521D01*
G01X26332Y23521D01*
G01X26327Y23520D01*
G01X26321Y23519D01*
G01X26316Y23517D01*
G01X26306Y23511D01*
G01X26302Y23507D01*
G01X26296Y23497D01*
G01X26294Y23492D01*
G01X26293Y23486D01*
G01X26292Y23481D01*
G01X26292Y23361D01*
G01X26173Y23361D01*
G01X26179Y23374D01*
G01X26193Y23398D01*
G01X26201Y23409D01*
G01X26210Y23420D01*
G01X26219Y23430D01*
G01X26229Y23440D01*
G01X26240Y23449D01*
G01X26244Y23453D01*
G01X26248Y23458D01*
G01X26251Y23463D01*
G01X26255Y23475D01*
G01X26255Y23486D01*
G01X26253Y23492D01*
G01X26249Y23502D01*
G01X26245Y23507D01*
G01X26241Y23511D01*
G01X26237Y23514D01*
G01X26232Y23517D01*
G01X26226Y23519D01*
G01X26221Y23520D01*
G01X26215Y23521D01*
G01X25752Y23521D01*
G01X25746Y23520D01*
G01X25741Y23519D01*
G01X25735Y23517D01*
G01X25730Y23514D01*
G01X25726Y23511D01*
G01X25722Y23507D01*
G01X25718Y23502D01*
G01X25714Y23492D01*
G01X25712Y23486D01*
G01X25712Y23475D01*
G01X25716Y23463D01*
G01X25719Y23458D01*
G01X25723Y23453D01*
G01X25727Y23449D01*
G01X25738Y23440D01*
G01X25748Y23430D01*
G01X25757Y23420D01*
G01X25766Y23409D01*
G01X25774Y23398D01*
G01X25788Y23374D01*
G01X25794Y23361D01*
G01X25675Y23361D01*
G01X25675Y23481D01*
G01X25674Y23486D01*
G01X25673Y23492D01*
G01X25671Y23497D01*
G01X25665Y23507D01*
G01X25661Y23511D01*
G01X25651Y23517D01*
G01X25646Y23519D01*
G01X25640Y23520D01*
G01X25635Y23521D01*
G01X25545Y23521D01*
G01X25539Y23520D01*
G01X25534Y23519D01*
G01X25528Y23517D01*
G01X25523Y23514D01*
G01X25519Y23511D01*
G01X25515Y23507D01*
G01X25511Y23502D01*
G01X25508Y23497D01*
G01X25506Y23492D01*
G01X25505Y23486D01*
G01X25505Y23361D01*
G01X25386Y23361D01*
G01X25392Y23374D01*
G01X25398Y23386D01*
G01X25405Y23398D01*
G01X25414Y23409D01*
G01X25422Y23420D01*
G01X25442Y23440D01*
G01X25452Y23449D01*
G01X25457Y23453D01*
G01X25461Y23458D01*
G01X25464Y23463D01*
G01X25466Y23469D01*
G01X25468Y23481D01*
G01X25467Y23486D01*
G01X25466Y23492D01*
G01X25464Y23497D01*
G01X25458Y23507D01*
G01X25454Y23511D01*
G01X25444Y23517D01*
G01X25439Y23519D01*
G01X25433Y23520D01*
G01X25428Y23521D01*
G01X24965Y23521D01*
G01X24953Y23519D01*
G01X24948Y23517D01*
G01X24938Y23511D01*
G01X24934Y23507D01*
G01X24928Y23497D01*
G01X24926Y23492D01*
G01X24925Y23486D01*
G01X24925Y23475D01*
G01X24926Y23469D01*
G01X24929Y23463D01*
G01X24935Y23453D01*
G01X24940Y23449D01*
G01X24950Y23440D01*
G01X24970Y23420D01*
G01X24979Y23409D01*
G01X24987Y23398D01*
G01X25001Y23374D01*
G01X25006Y23361D01*
G01X24887Y23361D01*
G01X24887Y23486D01*
G01X24886Y23492D01*
G01X24884Y23497D01*
G01X24878Y23507D01*
G01X24874Y23511D01*
G01X24864Y23517D01*
G01X24859Y23519D01*
G01X24847Y23521D01*
G01X24757Y23521D01*
G01X24752Y23520D01*
G01X24746Y23519D01*
G01X24741Y23517D01*
G01X24731Y23511D01*
G01X24727Y23507D01*
G01X24721Y23497D01*
G01X24719Y23492D01*
G01X24718Y23486D01*
G01X24717Y23481D01*
G01X24717Y23361D01*
G01X24598Y23361D01*
G01X24604Y23374D01*
G01X24618Y23398D01*
G01X24626Y23409D01*
G01X24635Y23420D01*
G01X24644Y23430D01*
G01X24654Y23440D01*
G01X24665Y23449D01*
G01X24669Y23453D01*
G01X24673Y23458D01*
G01X24676Y23463D01*
G01X24680Y23475D01*
G01X24680Y23486D01*
G01X24679Y23492D01*
G01X24677Y23497D01*
G01X24674Y23502D01*
G01X24670Y23507D01*
G01X24666Y23511D01*
G01X24662Y23514D01*
G01X24657Y23517D01*
G01X24651Y23519D01*
G01X24646Y23520D01*
G01X24640Y23521D01*
G01X24177Y23521D01*
G01X24171Y23520D01*
G01X24166Y23519D01*
G01X24161Y23517D01*
G01X24151Y23511D01*
G01X24147Y23507D01*
G01X24141Y23497D01*
G01X24139Y23492D01*
G01X24138Y23486D01*
G01X24137Y23481D01*
G01X24139Y23469D01*
G01X24141Y23463D01*
G01X24144Y23458D01*
G01X24148Y23453D01*
G01X24152Y23449D01*
G01X24163Y23440D01*
G01X24173Y23430D01*
G01X24182Y23420D01*
G01X24191Y23409D01*
G01X24199Y23398D01*
G01X24207Y23386D01*
G01X24213Y23374D01*
G01X24219Y23361D01*
G01X24100Y23361D01*
G01X24100Y23486D01*
G01X24098Y23492D01*
G01X24094Y23502D01*
G01X24090Y23507D01*
G01X24086Y23511D01*
G01X24082Y23514D01*
G01X24077Y23517D01*
G01X24071Y23519D01*
G01X24066Y23520D01*
G01X24060Y23521D01*
G01X23970Y23521D01*
G01X23964Y23520D01*
G01X23959Y23519D01*
G01X23953Y23517D01*
G01X23948Y23514D01*
G01X23944Y23511D01*
G01X23940Y23507D01*
G01X23936Y23502D01*
G01X23932Y23492D01*
G01X23930Y23486D01*
G01X23930Y23361D01*
G01X23811Y23361D01*
G01X23817Y23374D01*
G01X23823Y23386D01*
G01X23831Y23398D01*
G01X23847Y23420D01*
G01X23867Y23440D01*
G01X23878Y23449D01*
G01X23882Y23453D01*
G01X23886Y23458D01*
G01X23889Y23463D01*
G01X23891Y23469D01*
G01X23893Y23481D01*
G01X23892Y23486D01*
G01X23891Y23492D01*
G01X23889Y23497D01*
G01X23883Y23507D01*
G01X23879Y23511D01*
G01X23869Y23517D01*
G01X23864Y23519D01*
G01X23859Y23520D01*
G01X23853Y23521D01*
G01X23390Y23521D01*
G01X23378Y23519D01*
G01X23373Y23517D01*
G01X23368Y23514D01*
G01X23364Y23511D01*
G01X23360Y23507D01*
G01X23356Y23502D01*
G01X23353Y23497D01*
G01X23351Y23492D01*
G01X23350Y23486D01*
G01X23350Y23475D01*
G01X23354Y23463D01*
G01X23357Y23458D01*
G01X23361Y23453D01*
G01X23365Y23449D01*
G01X23376Y23440D01*
G01X23386Y23430D01*
G01X23395Y23420D01*
G01X23404Y23409D01*
G01X23412Y23398D01*
G01X23426Y23374D01*
G01X23432Y23361D01*
G01X23313Y23361D01*
G01X23313Y23481D01*
G01X23312Y23486D01*
G01X23311Y23492D01*
G01X23309Y23497D01*
G01X23303Y23507D01*
G01X23299Y23511D01*
G01X23289Y23517D01*
G01X23284Y23519D01*
G01X23278Y23520D01*
G01X23273Y23521D01*
G01X23183Y23521D01*
G01X23171Y23519D01*
G01X23166Y23517D01*
G01X23156Y23511D01*
G01X23152Y23507D01*
G01X23146Y23497D01*
G01X23144Y23492D01*
G01X23143Y23486D01*
G01X23143Y23361D01*
G01X23024Y23361D01*
G01X23029Y23374D01*
G01X23043Y23398D01*
G01X23051Y23409D01*
G01X23060Y23420D01*
G01X23080Y23440D01*
G01X23090Y23449D01*
G01X23095Y23453D01*
G01X23101Y23463D01*
G01X23104Y23469D01*
G01X23105Y23475D01*
G01X23105Y23486D01*
G01X23104Y23492D01*
G01X23102Y23497D01*
G01X23096Y23507D01*
G01X23092Y23511D01*
G01X23082Y23517D01*
G01X23077Y23519D01*
G01X23065Y23521D01*
G01X22602Y23521D01*
G01X22597Y23520D01*
G01X22591Y23519D01*
G01X22586Y23517D01*
G01X22576Y23511D01*
G01X22572Y23507D01*
G01X22566Y23497D01*
G01X22564Y23492D01*
G01X22563Y23486D01*
G01X22562Y23481D01*
G01X22564Y23469D01*
G01X22566Y23463D01*
G01X22569Y23458D01*
G01X22573Y23453D01*
G01X22577Y23449D01*
G01X22588Y23440D01*
G01X22608Y23420D01*
G01X22616Y23409D01*
G01X22625Y23398D01*
G01X22632Y23386D01*
G01X22638Y23374D01*
G01X22644Y23361D01*
G01X22525Y23361D01*
G01X22525Y23486D01*
G01X22524Y23492D01*
G01X22522Y23497D01*
G01X22519Y23502D01*
G01X22515Y23507D01*
G01X22511Y23511D01*
G01X22507Y23514D01*
G01X22502Y23517D01*
G01X22496Y23519D01*
G01X22491Y23520D01*
G01X22485Y23521D01*
G01X22395Y23521D01*
G01X22389Y23520D01*
G01X22384Y23519D01*
G01X22379Y23517D01*
G01X22369Y23511D01*
G01X22365Y23507D01*
G01X22359Y23497D01*
G01X22357Y23492D01*
G01X22356Y23486D01*
G01X22355Y23481D01*
G01X22355Y23361D01*
G01X22236Y23361D01*
G01X22242Y23374D01*
G01X22256Y23398D01*
G01X22264Y23410D01*
G01X22273Y23420D01*
G01X22282Y23431D01*
G01X22293Y23440D01*
G01X22303Y23450D01*
G01X22308Y23454D01*
G01X22311Y23458D01*
G01X22315Y23463D01*
G01X22317Y23469D01*
G01X22319Y23481D01*
G01X22318Y23487D01*
G01X22317Y23492D01*
G01X22315Y23498D01*
G01X22312Y23503D01*
G01X22309Y23507D01*
G01X22305Y23511D01*
G01X22300Y23515D01*
G01X22290Y23519D01*
G01X22284Y23520D01*
G01X22279Y23521D01*
G01X21813Y23522D01*
G01X21807Y23522D01*
G01X21802Y23520D01*
G01X21796Y23518D01*
G01X21791Y23516D01*
G01X21779Y23504D01*
G01X21777Y23499D01*
G01X21775Y23493D01*
G01X21773Y23488D01*
G01X21773Y23482D01*
G01X21775Y23470D01*
G01X21777Y23464D01*
G01X21780Y23459D01*
G01X21784Y23454D01*
G01X21789Y23450D01*
G01X21799Y23441D01*
G01X21810Y23432D01*
G01X21837Y23399D01*
G01X21844Y23386D01*
G01X21851Y23374D01*
G01X21857Y23361D01*
G01X21738Y23361D01*
G01X21738Y23482D01*
G01X21737Y23488D01*
G01X21736Y23493D01*
G01X21734Y23499D01*
G01X21731Y23504D01*
G01X21728Y23508D01*
G01X21724Y23512D01*
G01X21719Y23516D01*
G01X21714Y23519D01*
G01X21709Y23521D01*
G01X21704Y23522D01*
G01X21602Y23522D01*
G01X21597Y23521D01*
G01X21591Y23519D01*
G01X21586Y23516D01*
G01X21582Y23513D01*
G01X21578Y23509D01*
G01X21574Y23504D01*
G01X21571Y23499D01*
G01X21569Y23494D01*
G01X21568Y23488D01*
G01X21568Y23361D01*
G01X21449Y23361D01*
G01X21461Y23387D01*
G01X21477Y23411D01*
G01X21487Y23422D01*
G01X21496Y23432D01*
G01X21507Y23442D01*
G01X21518Y23451D01*
G01X21522Y23455D01*
G01X21526Y23460D01*
G01X21529Y23465D01*
G01X21532Y23471D01*
G01X21533Y23477D01*
G01X21533Y23488D01*
G01X21532Y23494D01*
G01X21530Y23499D01*
G01X21524Y23509D01*
G01X21520Y23513D01*
G01X21510Y23519D01*
G01X21505Y23521D01*
G01X21493Y23523D01*
G01X21023Y23524D01*
G01X21018Y23523D01*
G01X21012Y23522D01*
G01X21007Y23520D01*
G01X20997Y23514D01*
G01X20993Y23510D01*
G01X20987Y23500D01*
G01X20985Y23495D01*
G01X20984Y23489D01*
G01X20983Y23484D01*
G01X20985Y23472D01*
G01X20988Y23466D01*
G01X20991Y23461D01*
G01X20995Y23456D01*
G01X20999Y23452D01*
G01X21010Y23443D01*
G01X21021Y23433D01*
G01X21031Y23422D01*
G01X21040Y23411D01*
G01X21049Y23399D01*
G01X21056Y23387D01*
G01X21063Y23374D01*
G01X21069Y23361D01*
G01X20950Y23361D01*
G01X20950Y23490D01*
G01X20949Y23495D01*
G01X20947Y23501D01*
G01X20944Y23506D01*
G01X20941Y23510D01*
G01X20937Y23514D01*
G01X20932Y23518D01*
G01X20922Y23522D01*
G01X20916Y23524D01*
G01X20815Y23524D01*
G01X20809Y23523D01*
G01X20804Y23521D01*
G01X20799Y23518D01*
G01X20794Y23514D01*
G01X20790Y23510D01*
G01X20787Y23506D01*
G01X20784Y23501D01*
G01X20782Y23495D01*
G01X20781Y23490D01*
G01X20780Y23484D01*
G01X20780Y23361D01*
G01X20661Y23361D01*
G01X20667Y23374D01*
G01X20674Y23387D01*
G01X20682Y23400D01*
G01X20691Y23411D01*
G01X20700Y23423D01*
G01X20710Y23433D01*
G01X20732Y23453D01*
G01X20737Y23457D01*
G01X20741Y23461D01*
G01X20744Y23467D01*
G01X20746Y23472D01*
G01X20748Y23478D01*
G01X20748Y23490D01*
G01X20747Y23496D01*
G01X20745Y23501D01*
G01X20739Y23511D01*
G01X20735Y23515D01*
G01X20725Y23521D01*
G01X20720Y23523D01*
G01X20714Y23524D01*
G01X20708Y23524D01*
G37*

%LPC*%
G36*
G01X17670Y17385D02*
G01X17656Y17386D01*
G01X17630Y17384D01*
G01X17616Y17382D01*
G01X17603Y17379D01*
G01X17591Y17376D01*
G01X17578Y17371D01*
G01X17566Y17366D01*
G01X17542Y17354D01*
G01X17531Y17347D01*
G01X17520Y17339D01*
G01X17500Y17321D01*
G01X17482Y17301D01*
G01X17474Y17290D01*
G01X17467Y17279D01*
G01X17461Y17268D01*
G01X17455Y17256D01*
G01X17450Y17243D01*
G01X17445Y17231D01*
G01X17439Y17205D01*
G01X17437Y17191D01*
G01X17435Y17165D01*
G01X17436Y17151D01*
G01X17437Y17138D01*
G01X17439Y17124D01*
G01X17442Y17111D01*
G01X17450Y17085D01*
G01X17455Y17073D01*
G01X17461Y17061D01*
G01X17468Y17049D01*
G01X17484Y17027D01*
G01X17493Y17016D01*
G01X17512Y16997D01*
G01X17534Y16981D01*
G01X17545Y16974D01*
G01X17557Y16967D01*
G01X17569Y16962D01*
G01X17582Y16957D01*
G01X17608Y16949D01*
G01X17621Y16947D01*
G01X17635Y16945D01*
G01X17648Y16944D01*
G01X17660Y16942D01*
G01X17670Y16936D01*
G01X17675Y16932D01*
G01X18370Y16237D01*
G01X18374Y16232D01*
G01X18377Y16227D01*
G01X18380Y16221D01*
G01X18382Y16209D01*
G01X18382Y10693D01*
G01X18381Y10687D01*
G01X18380Y10682D01*
G01X18378Y10676D01*
G01X18375Y10671D01*
G01X18372Y10667D01*
G01X18368Y10663D01*
G01X18363Y10659D01*
G01X18348Y10653D01*
G01X18336Y10653D01*
G01X18329Y10655D01*
G01X18324Y10657D01*
G01X18318Y10661D01*
G01X17835Y11144D01*
G01X17830Y11148D01*
G01X17827Y11154D01*
G01X17823Y11166D01*
G01X17823Y11179D01*
G01X17830Y11200D01*
G01X17833Y11214D01*
G01X17836Y11229D01*
G01X17838Y11259D01*
G01X17838Y11273D01*
G01X17834Y11299D01*
G01X17828Y11325D01*
G01X17824Y11338D01*
G01X17818Y11350D01*
G01X17813Y11362D01*
G01X17806Y11374D01*
G01X17799Y11385D01*
G01X17791Y11396D01*
G01X17773Y11416D01*
G01X17763Y11425D01*
G01X17753Y11433D01*
G01X17742Y11441D01*
G01X17720Y11455D01*
G01X17708Y11461D01*
G01X17695Y11466D01*
G01X17683Y11470D01*
G01X17670Y11474D01*
G01X17657Y11477D01*
G01X17644Y11479D01*
G01X17630Y11480D01*
G01X17604Y11480D01*
G01X17590Y11479D01*
G01X17577Y11477D01*
G01X17564Y11474D01*
G01X17551Y11470D01*
G01X17539Y11466D01*
G01X17526Y11461D01*
G01X17514Y11455D01*
G01X17503Y11448D01*
G01X17491Y11441D01*
G01X17481Y11433D01*
G01X17470Y11425D01*
G01X17461Y11416D01*
G01X17443Y11396D01*
G01X17435Y11385D01*
G01X17428Y11374D01*
G01X17421Y11362D01*
G01X17415Y11350D01*
G01X17410Y11338D01*
G01X17402Y11312D01*
G01X17396Y11273D01*
G01X17396Y11246D01*
G01X17398Y11232D01*
G01X17400Y11219D01*
G01X17406Y11193D01*
G01X17416Y11167D01*
G01X17422Y11155D01*
G01X17429Y11143D01*
G01X17436Y11132D01*
G01X17444Y11121D01*
G01X17453Y11111D01*
G01X17463Y11101D01*
G01X17473Y11092D01*
G01X17478Y11086D01*
G01X17482Y11080D01*
G01X17488Y11069D01*
G01X17495Y11059D01*
G01X17502Y11050D01*
G01X17510Y11041D01*
G01X21951Y6600D01*
G01X21955Y6595D01*
G01X21961Y6585D01*
G01X21963Y6573D01*
G01X21964Y6559D01*
G01X21968Y6533D01*
G01X21972Y6519D01*
G01X21976Y6506D01*
G01X21986Y6482D01*
G01X22000Y6458D01*
G01X22016Y6436D01*
G01X22035Y6417D01*
G01X22046Y6408D01*
G01X22057Y6400D01*
G01X22068Y6393D01*
G01X22080Y6386D01*
G01X22092Y6380D01*
G01X22104Y6375D01*
G01X22117Y6370D01*
G01X22130Y6366D01*
G01X22143Y6363D01*
G01X22157Y6361D01*
G01X22170Y6360D01*
G01X22201Y6360D01*
G01X22219Y6362D01*
G01X22236Y6366D01*
G01X22245Y6367D01*
G01X22251Y6367D01*
G01X22256Y6365D01*
G01X22262Y6363D01*
G01X22267Y6361D01*
G01X22279Y6349D01*
G01X22282Y6344D01*
G01X22284Y6338D01*
G01X22285Y6333D01*
G01X22285Y6327D01*
G01X22284Y6318D01*
G01X22281Y6300D01*
G01X22279Y6283D01*
G01X22278Y6266D01*
G01X22278Y6252D01*
G01X22284Y6213D01*
G01X22288Y6200D01*
G01X22292Y6188D01*
G01X22297Y6175D01*
G01X22303Y6163D01*
G01X22317Y6141D01*
G01X22325Y6130D01*
G01X22333Y6120D01*
G01X22342Y6110D01*
G01X22362Y6092D01*
G01X22373Y6084D01*
G01X22395Y6070D01*
G01X22407Y6065D01*
G01X22420Y6059D01*
G01X22425Y6057D01*
G01X22435Y6049D01*
G01X22438Y6045D01*
G01X22441Y6040D01*
G01X22444Y6034D01*
G01X22445Y6028D01*
G01X22445Y6022D01*
G01X22444Y6011D01*
G01X22440Y5996D01*
G01X22436Y5966D01*
G01X22435Y5951D01*
G01X22436Y5937D01*
G01X22437Y5924D01*
G01X22439Y5911D01*
G01X22445Y5885D01*
G01X22450Y5872D01*
G01X22455Y5860D01*
G01X22467Y5836D01*
G01X22475Y5825D01*
G01X22482Y5815D01*
G01X22491Y5804D01*
G01X22510Y5785D01*
G01X22520Y5777D01*
G01X22531Y5769D01*
G01X22542Y5762D01*
G01X22554Y5755D01*
G01X22566Y5749D01*
G01X22578Y5744D01*
G01X22604Y5736D01*
G01X22617Y5733D01*
G01X22630Y5731D01*
G01X22643Y5730D01*
G01X22670Y5730D01*
G01X22698Y5734D01*
G01X22711Y5737D01*
G01X22737Y5745D01*
G01X22750Y5751D01*
G01X22762Y5757D01*
G01X22774Y5764D01*
G01X22786Y5772D01*
G01X22797Y5780D01*
G01X22807Y5789D01*
G01X22812Y5793D01*
G01X22817Y5796D01*
G01X22822Y5798D01*
G01X22834Y5800D01*
G01X26242Y5800D01*
G01X26248Y5799D01*
G01X26253Y5798D01*
G01X26258Y5796D01*
G01X26268Y5790D01*
G01X26272Y5786D01*
G01X26276Y5781D01*
G01X26280Y5771D01*
G01X26284Y5758D01*
G01X26289Y5745D01*
G01X26295Y5733D01*
G01X26302Y5721D01*
G01X26309Y5710D01*
G01X26325Y5688D01*
G01X26334Y5678D01*
G01X26354Y5660D01*
G01X26365Y5652D01*
G01X26377Y5645D01*
G01X26388Y5638D01*
G01X26400Y5632D01*
G01X26413Y5626D01*
G01X26439Y5618D01*
G01X26452Y5615D01*
G01X26465Y5613D01*
G01X26479Y5612D01*
G01X26506Y5612D01*
G01X26519Y5613D01*
G01X26532Y5615D01*
G01X26545Y5618D01*
G01X26571Y5626D01*
G01X26583Y5631D01*
G01X26595Y5637D01*
G01X26607Y5644D01*
G01X26618Y5651D01*
G01X26629Y5659D01*
G01X26639Y5667D01*
G01X26649Y5676D01*
G01X26658Y5686D01*
G01X26666Y5696D01*
G01X26682Y5718D01*
G01X26694Y5742D01*
G01X26699Y5754D01*
G01X26707Y5780D01*
G01X26710Y5793D01*
G01X26712Y5806D01*
G01X26713Y5819D01*
G01X26713Y5847D01*
G01X26712Y5860D01*
G01X26710Y5874D01*
G01X26707Y5887D01*
G01X26703Y5901D01*
G01X26698Y5914D01*
G01X26693Y5926D01*
G01X26686Y5939D01*
G01X26679Y5951D01*
G01X26672Y5962D01*
G01X26663Y5973D01*
G01X26654Y5983D01*
G01X26644Y5993D01*
G01X26634Y6002D01*
G01X26623Y6011D01*
G01X26612Y6019D01*
G01X26600Y6026D01*
G01X26588Y6032D01*
G01X26575Y6038D01*
G01X26570Y6040D01*
G01X26565Y6044D01*
G01X26557Y6052D01*
G01X26554Y6057D01*
G01X26552Y6063D01*
G01X26550Y6075D01*
G01X26551Y6080D01*
G01X26552Y6086D01*
G01X26554Y6091D01*
G01X26560Y6101D01*
G01X26564Y6105D01*
G01X26574Y6111D01*
G01X26579Y6113D01*
G01X26585Y6114D01*
G01X26590Y6115D01*
G01X26947Y6115D01*
G01X26953Y6114D01*
G01X26960Y6113D01*
G01X26965Y6110D01*
G01X26971Y6107D01*
G01X26976Y6103D01*
G01X27227Y5852D01*
G01X27231Y5847D01*
G01X27234Y5842D01*
G01X27236Y5836D01*
G01X27238Y5831D01*
G01X27239Y5825D01*
G01X27240Y5811D01*
G01X27241Y5798D01*
G01X27244Y5784D01*
G01X27247Y5771D01*
G01X27251Y5758D01*
G01X27256Y5746D01*
G01X27262Y5733D01*
G01X27269Y5721D01*
G01X27276Y5710D01*
G01X27292Y5688D01*
G01X27301Y5678D01*
G01X27321Y5660D01*
G01X27332Y5652D01*
G01X27344Y5645D01*
G01X27355Y5638D01*
G01X27367Y5632D01*
G01X27393Y5622D01*
G01X27406Y5618D01*
G01X27419Y5615D01*
G01X27432Y5613D01*
G01X27446Y5612D01*
G01X27473Y5612D01*
G01X27486Y5613D01*
G01X27499Y5615D01*
G01X27512Y5618D01*
G01X27538Y5626D01*
G01X27550Y5631D01*
G01X27562Y5637D01*
G01X27574Y5644D01*
G01X27585Y5651D01*
G01X27596Y5659D01*
G01X27606Y5667D01*
G01X27616Y5676D01*
G01X27625Y5686D01*
G01X27633Y5696D01*
G01X27649Y5718D01*
G01X27661Y5742D01*
G01X27666Y5754D01*
G01X27671Y5767D01*
G01X27677Y5793D01*
G01X27679Y5806D01*
G01X27680Y5819D01*
G01X27681Y5833D01*
G01X27680Y5846D01*
G01X27679Y5860D01*
G01X27677Y5873D01*
G01X27674Y5886D01*
G01X27670Y5900D01*
G01X27666Y5912D01*
G01X27660Y5925D01*
G01X27648Y5949D01*
G01X27632Y5971D01*
G01X27614Y5991D01*
G01X27604Y6000D01*
G01X27593Y6009D01*
G01X27582Y6017D01*
G01X27571Y6024D01*
G01X27559Y6030D01*
G01X27546Y6036D01*
G01X27534Y6041D01*
G01X27521Y6045D01*
G01X27508Y6048D01*
G01X27494Y6051D01*
G01X27481Y6053D01*
G01X27467Y6054D01*
G01X27461Y6054D01*
G01X27455Y6056D01*
G01X27450Y6058D01*
G01X27445Y6061D01*
G01X27440Y6065D01*
G01X27124Y6381D01*
G01X27115Y6388D01*
G01X27095Y6400D01*
G01X27084Y6405D01*
G01X27062Y6413D01*
G01X27050Y6415D01*
G01X27026Y6417D01*
G01X27009Y6417D01*
G01X27004Y6418D01*
G01X26998Y6420D01*
G01X26993Y6423D01*
G01X26989Y6426D01*
G01X26985Y6431D01*
G01X26981Y6435D01*
G01X26977Y6445D01*
G01X26975Y6451D01*
G01X26975Y6457D01*
G01X26977Y6469D01*
G01X26979Y6475D01*
G01X26987Y6485D01*
G01X29313Y8811D01*
G01X29318Y8815D01*
G01X29323Y8818D01*
G01X29329Y8821D01*
G01X29341Y8823D01*
G01X29347Y8822D01*
G01X29352Y8821D01*
G01X29358Y8819D01*
G01X29363Y8816D01*
G01X29367Y8813D01*
G01X29371Y8809D01*
G01X29375Y8804D01*
G01X29378Y8799D01*
G01X29380Y8794D01*
G01X29381Y8788D01*
G01X29381Y8779D01*
G01X29379Y8757D01*
G01X29379Y8716D01*
G01X29380Y8697D01*
G01X29382Y8679D01*
G01X29385Y8660D01*
G01X29389Y8642D01*
G01X29399Y8606D01*
G01X29405Y8588D01*
G01X29412Y8571D01*
G01X29428Y8537D01*
G01X29437Y8521D01*
G01X29447Y8505D01*
G01X29469Y8475D01*
G01X29481Y8461D01*
G01X29494Y8447D01*
G01X29507Y8434D01*
G01X29521Y8421D01*
G01X29535Y8409D01*
G01X29565Y8387D01*
G01X29581Y8377D01*
G01X29597Y8368D01*
G01X29631Y8352D01*
G01X29648Y8345D01*
G01X29666Y8339D01*
G01X29702Y8329D01*
G01X29720Y8325D01*
G01X29739Y8322D01*
G01X29757Y8320D01*
G01X29776Y8319D01*
G01X29813Y8319D01*
G01X29832Y8320D01*
G01X29850Y8322D01*
G01X29869Y8325D01*
G01X29887Y8329D01*
G01X29923Y8339D01*
G01X29941Y8345D01*
G01X29958Y8352D01*
G01X29992Y8368D01*
G01X30008Y8377D01*
G01X30024Y8387D01*
G01X30054Y8409D01*
G01X30068Y8421D01*
G01X30082Y8434D01*
G01X30095Y8447D01*
G01X30108Y8461D01*
G01X30120Y8475D01*
G01X30142Y8505D01*
G01X30152Y8521D01*
G01X30161Y8537D01*
G01X30177Y8571D01*
G01X30184Y8588D01*
G01X30196Y8624D01*
G01X30204Y8660D01*
G01X30207Y8679D01*
G01X30209Y8697D01*
G01X30210Y8716D01*
G01X30210Y8753D01*
G01X30209Y8772D01*
G01X30207Y8791D01*
G01X30204Y8810D01*
G01X30200Y8828D01*
G01X30190Y8864D01*
G01X30176Y8900D01*
G01X30160Y8934D01*
G01X30140Y8966D01*
G01X30118Y8996D01*
G01X30106Y9011D01*
G01X30093Y9025D01*
G01X30079Y9038D01*
G01X30051Y9062D01*
G01X30035Y9074D01*
G01X30031Y9078D01*
G01X30026Y9082D01*
G01X30023Y9088D01*
G01X30019Y9100D01*
G01X30019Y9112D01*
G01X30020Y9118D01*
G01X30022Y9123D01*
G01X30025Y9128D01*
G01X30028Y9132D01*
G01X30032Y9136D01*
G01X30037Y9140D01*
G01X30042Y9143D01*
G01X30047Y9145D01*
G01X30053Y9146D01*
G01X30255Y9146D01*
G01X30267Y9147D01*
G01X30278Y9148D01*
G01X30290Y9150D01*
G01X30301Y9154D01*
G01X30313Y9158D01*
G01X30323Y9163D01*
G01X30334Y9168D01*
G01X30344Y9175D01*
G01X30353Y9182D01*
G01X30362Y9190D01*
G01X30637Y9466D01*
G01X30642Y9470D01*
G01X30647Y9473D01*
G01X30653Y9476D01*
G01X30665Y9478D01*
G01X31119Y9478D01*
G01X31128Y9479D01*
G01X31137Y9481D01*
G01X31146Y9484D01*
G01X31155Y9488D01*
G01X31163Y9493D01*
G01X31170Y9498D01*
G01X31178Y9504D01*
G01X31190Y9518D01*
G01X31195Y9525D01*
G01X31200Y9534D01*
G01X31204Y9542D01*
G01X31207Y9551D01*
G01X31209Y9560D01*
G01X31210Y9569D01*
G01X31210Y10218D01*
G01X31209Y10227D01*
G01X31207Y10236D01*
G01X31204Y10245D01*
G01X31200Y10253D01*
G01X31195Y10262D01*
G01X31190Y10269D01*
G01X31184Y10277D01*
G01X31178Y10283D01*
G01X31170Y10289D01*
G01X31163Y10294D01*
G01X31155Y10299D01*
G01X31146Y10303D01*
G01X31137Y10306D01*
G01X31128Y10308D01*
G01X31119Y10309D01*
G01X30515Y10309D01*
G01X30510Y10310D01*
G01X30504Y10311D01*
G01X30499Y10313D01*
G01X30489Y10319D01*
G01X30485Y10323D01*
G01X30479Y10333D01*
G01X30477Y10338D01*
G01X30476Y10344D01*
G01X30475Y10349D01*
G01X30476Y10356D01*
G01X30477Y10362D01*
G01X30480Y10368D01*
G01X30483Y10373D01*
G01X30487Y10378D01*
G01X30606Y10495D01*
G01X30611Y10499D01*
G01X30616Y10502D01*
G01X30622Y10505D01*
G01X30634Y10507D01*
G01X30641Y10506D01*
G01X30648Y10504D01*
G01X30666Y10498D01*
G01X30702Y10488D01*
G01X30720Y10484D01*
G01X30739Y10481D01*
G01X30757Y10479D01*
G01X30776Y10478D01*
G01X30813Y10478D01*
G01X30832Y10479D01*
G01X30850Y10481D01*
G01X30869Y10484D01*
G01X30887Y10488D01*
G01X30923Y10498D01*
G01X30941Y10504D01*
G01X30958Y10511D01*
G01X30992Y10527D01*
G01X31008Y10536D01*
G01X31024Y10546D01*
G01X31054Y10568D01*
G01X31068Y10580D01*
G01X31082Y10593D01*
G01X31095Y10606D01*
G01X31108Y10620D01*
G01X31120Y10634D01*
G01X31142Y10664D01*
G01X31152Y10680D01*
G01X31161Y10696D01*
G01X31177Y10730D01*
G01X31184Y10747D01*
G01X31196Y10783D01*
G01X31204Y10819D01*
G01X31207Y10838D01*
G01X31209Y10856D01*
G01X31210Y10875D01*
G01X31210Y10912D01*
G01X31209Y10931D01*
G01X31207Y10949D01*
G01X31204Y10968D01*
G01X31196Y11004D01*
G01X31184Y11040D01*
G01X31177Y11057D01*
G01X31161Y11091D01*
G01X31152Y11107D01*
G01X31142Y11123D01*
G01X31120Y11153D01*
G01X31108Y11167D01*
G01X31095Y11181D01*
G01X31082Y11194D01*
G01X31068Y11207D01*
G01X31054Y11219D01*
G01X31024Y11241D01*
G01X31008Y11251D01*
G01X30992Y11260D01*
G01X30958Y11276D01*
G01X30941Y11283D01*
G01X30923Y11289D01*
G01X30887Y11299D01*
G01X30869Y11303D01*
G01X30850Y11306D01*
G01X30832Y11308D01*
G01X30813Y11309D01*
G01X30776Y11309D01*
G01X30757Y11308D01*
G01X30739Y11306D01*
G01X30720Y11303D01*
G01X30702Y11299D01*
G01X30666Y11289D01*
G01X30648Y11283D01*
G01X30631Y11276D01*
G01X30597Y11260D01*
G01X30581Y11251D01*
G01X30565Y11241D01*
G01X30535Y11219D01*
G01X30521Y11207D01*
G01X30507Y11194D01*
G01X30494Y11181D01*
G01X30481Y11167D01*
G01X30469Y11153D01*
G01X30447Y11123D01*
G01X30437Y11107D01*
G01X30428Y11091D01*
G01X30412Y11057D01*
G01X30405Y11040D01*
G01X30399Y11022D01*
G01X30389Y10986D01*
G01X30385Y10968D01*
G01X30382Y10949D01*
G01X30380Y10931D01*
G01X30379Y10912D01*
G01X30379Y10873D01*
G01X30381Y10852D01*
G01X30383Y10832D01*
G01X30391Y10792D01*
G01X30403Y10752D01*
G01X30405Y10745D01*
G01X30406Y10739D01*
G01X30405Y10732D01*
G01X30404Y10726D01*
G01X30401Y10720D01*
G01X30398Y10715D01*
G01X30394Y10710D01*
G01X30244Y10562D01*
G01X30239Y10558D01*
G01X30234Y10555D01*
G01X30222Y10551D01*
G01X30130Y10551D01*
G01X30124Y10552D01*
G01X30119Y10554D01*
G01X30109Y10560D01*
G01X30105Y10564D01*
G01X30099Y10574D01*
G01X30097Y10579D01*
G01X30095Y10591D01*
G01X30096Y10596D01*
G01X30097Y10602D01*
G01X30099Y10607D01*
G01X30102Y10613D01*
G01X30105Y10617D01*
G01X30118Y10632D01*
G01X30140Y10662D01*
G01X30160Y10694D01*
G01X30176Y10728D01*
G01X30183Y10746D01*
G01X30190Y10763D01*
G01X30195Y10782D01*
G01X30200Y10800D01*
G01X30204Y10818D01*
G01X30207Y10837D01*
G01X30209Y10856D01*
G01X30210Y10875D01*
G01X30210Y10912D01*
G01X30209Y10931D01*
G01X30207Y10949D01*
G01X30204Y10968D01*
G01X30196Y11004D01*
G01X30184Y11040D01*
G01X30177Y11057D01*
G01X30161Y11091D01*
G01X30152Y11107D01*
G01X30142Y11123D01*
G01X30120Y11153D01*
G01X30108Y11167D01*
G01X30095Y11181D01*
G01X30082Y11194D01*
G01X30068Y11207D01*
G01X30054Y11219D01*
G01X30024Y11241D01*
G01X30008Y11251D01*
G01X29992Y11260D01*
G01X29958Y11276D01*
G01X29941Y11283D01*
G01X29923Y11289D01*
G01X29887Y11299D01*
G01X29869Y11303D01*
G01X29850Y11306D01*
G01X29832Y11308D01*
G01X29813Y11309D01*
G01X29776Y11309D01*
G01X29758Y11308D01*
G01X29740Y11306D01*
G01X29721Y11303D01*
G01X29685Y11295D01*
G01X29668Y11290D01*
G01X29650Y11284D01*
G01X29633Y11277D01*
G01X29617Y11269D01*
G01X29600Y11261D01*
G01X29568Y11243D01*
G01X29538Y11221D01*
G01X29524Y11210D01*
G01X29510Y11197D01*
G01X29497Y11185D01*
G01X29461Y11143D01*
G01X29451Y11128D01*
G01X29441Y11112D01*
G01X29437Y11108D01*
G01X29433Y11103D01*
G01X29429Y11100D01*
G01X29424Y11097D01*
G01X29418Y11095D01*
G01X29412Y11094D01*
G01X29407Y11093D01*
G01X28270Y11093D01*
G01X28264Y11094D01*
G01X28259Y11095D01*
G01X28254Y11097D01*
G01X28244Y11103D01*
G01X28240Y11107D01*
G01X28236Y11112D01*
G01X28232Y11122D01*
G01X28231Y11128D01*
G01X28230Y11133D01*
G01X28231Y11140D01*
G01X28232Y11146D01*
G01X28235Y11151D01*
G01X28238Y11157D01*
G01X28242Y11162D01*
G01X28524Y11443D01*
G01X28534Y11451D01*
G01X28546Y11455D01*
G01X30328Y11455D01*
G01X30339Y11457D01*
G01X30349Y11459D01*
G01X30360Y11463D01*
G01X30370Y11467D01*
G01X30380Y11472D01*
G01X30389Y11478D01*
G01X30398Y11485D01*
G01X30406Y11492D01*
G01X30583Y11669D01*
G01X30593Y11677D01*
G01X30605Y11681D01*
G01X30611Y11681D01*
G01X30619Y11680D01*
G01X30627Y11678D01*
G01X30645Y11670D01*
G01X30681Y11658D01*
G01X30700Y11653D01*
G01X30718Y11650D01*
G01X30737Y11646D01*
G01X30756Y11644D01*
G01X30775Y11643D01*
G01X30813Y11643D01*
G01X30832Y11644D01*
G01X30850Y11646D01*
G01X30869Y11649D01*
G01X30887Y11653D01*
G01X30923Y11663D01*
G01X30941Y11669D01*
G01X30958Y11676D01*
G01X30992Y11692D01*
G01X31008Y11701D01*
G01X31024Y11711D01*
G01X31054Y11733D01*
G01X31068Y11745D01*
G01X31082Y11758D01*
G01X31095Y11771D01*
G01X31108Y11785D01*
G01X31120Y11799D01*
G01X31142Y11829D01*
G01X31152Y11845D01*
G01X31161Y11861D01*
G01X31177Y11895D01*
G01X31184Y11912D01*
G01X31196Y11948D01*
G01X31204Y11984D01*
G01X31207Y12003D01*
G01X31209Y12021D01*
G01X31210Y12040D01*
G01X31210Y12077D01*
G01X31209Y12096D01*
G01X31207Y12114D01*
G01X31204Y12133D01*
G01X31196Y12169D01*
G01X31184Y12205D01*
G01X31177Y12222D01*
G01X31161Y12256D01*
G01X31152Y12272D01*
G01X31142Y12288D01*
G01X31120Y12318D01*
G01X31108Y12332D01*
G01X31095Y12346D01*
G01X31082Y12359D01*
G01X31068Y12372D01*
G01X31054Y12384D01*
G01X31024Y12406D01*
G01X31008Y12416D01*
G01X30992Y12425D01*
G01X30958Y12441D01*
G01X30941Y12448D01*
G01X30923Y12454D01*
G01X30887Y12464D01*
G01X30869Y12468D01*
G01X30850Y12471D01*
G01X30832Y12473D01*
G01X30813Y12474D01*
G01X30776Y12474D01*
G01X30757Y12473D01*
G01X30739Y12471D01*
G01X30720Y12468D01*
G01X30702Y12464D01*
G01X30666Y12454D01*
G01X30648Y12448D01*
G01X30631Y12441D01*
G01X30597Y12425D01*
G01X30581Y12416D01*
G01X30565Y12406D01*
G01X30535Y12384D01*
G01X30521Y12372D01*
G01X30507Y12359D01*
G01X30494Y12346D01*
G01X30481Y12332D01*
G01X30469Y12318D01*
G01X30447Y12288D01*
G01X30437Y12272D01*
G01X30428Y12256D01*
G01X30412Y12222D01*
G01X30405Y12205D01*
G01X30399Y12187D01*
G01X30389Y12151D01*
G01X30385Y12133D01*
G01X30382Y12114D01*
G01X30380Y12096D01*
G01X30379Y12077D01*
G01X30379Y12039D01*
G01X30380Y12020D01*
G01X30382Y12002D01*
G01X30386Y11983D01*
G01X30389Y11964D01*
G01X30394Y11946D01*
G01X30406Y11910D01*
G01X30413Y11892D01*
G01X30416Y11884D01*
G01X30417Y11876D01*
G01X30415Y11864D01*
G01X30412Y11858D01*
G01X30409Y11853D01*
G01X30405Y11848D01*
G01X30272Y11715D01*
G01X30266Y11711D01*
G01X30254Y11707D01*
G01X30122Y11707D01*
G01X30116Y11709D01*
G01X30106Y11713D01*
G01X30101Y11717D01*
G01X30097Y11721D01*
G01X30094Y11725D01*
G01X30091Y11730D01*
G01X30089Y11736D01*
G01X30088Y11741D01*
G01X30088Y11753D01*
G01X30089Y11759D01*
G01X30092Y11764D01*
G01X30095Y11770D01*
G01X30098Y11774D01*
G01X30111Y11788D01*
G01X30122Y11802D01*
G01X30144Y11832D01*
G01X30162Y11864D01*
G01X30170Y11880D01*
G01X30178Y11897D01*
G01X30185Y11914D01*
G01X30191Y11932D01*
G01X30196Y11949D01*
G01X30204Y11985D01*
G01X30207Y12003D01*
G01X30209Y12022D01*
G01X30210Y12040D01*
G01X30210Y12077D01*
G01X30209Y12096D01*
G01X30207Y12114D01*
G01X30204Y12133D01*
G01X30196Y12169D01*
G01X30184Y12205D01*
G01X30177Y12222D01*
G01X30161Y12256D01*
G01X30152Y12272D01*
G01X30142Y12288D01*
G01X30120Y12318D01*
G01X30108Y12332D01*
G01X30095Y12346D01*
G01X30082Y12359D01*
G01X30068Y12372D01*
G01X30054Y12384D01*
G01X30024Y12406D01*
G01X30008Y12416D01*
G01X29992Y12425D01*
G01X29958Y12441D01*
G01X29941Y12448D01*
G01X29923Y12454D01*
G01X29887Y12464D01*
G01X29869Y12468D01*
G01X29850Y12471D01*
G01X29832Y12473D01*
G01X29813Y12474D01*
G01X29776Y12474D01*
G01X29758Y12473D01*
G01X29739Y12471D01*
G01X29721Y12468D01*
G01X29685Y12460D01*
G01X29668Y12455D01*
G01X29650Y12449D01*
G01X29633Y12442D01*
G01X29616Y12434D01*
G01X29600Y12426D01*
G01X29584Y12417D01*
G01X29568Y12407D01*
G01X29553Y12397D01*
G01X29538Y12386D01*
G01X29510Y12362D01*
G01X29497Y12349D01*
G01X29484Y12335D01*
G01X29472Y12321D01*
G01X29461Y12307D01*
G01X29450Y12292D01*
G01X29440Y12276D01*
G01X29422Y12244D01*
G01X29414Y12227D01*
G01X29407Y12210D01*
G01X29405Y12205D01*
G01X29401Y12200D01*
G01X29393Y12192D01*
G01X29387Y12189D01*
G01X29382Y12187D01*
G01X29376Y12185D01*
G01X28645Y12185D01*
G01X28639Y12187D01*
G01X28629Y12191D01*
G01X28624Y12195D01*
G01X28620Y12199D01*
G01X28617Y12203D01*
G01X28614Y12208D01*
G01X28612Y12214D01*
G01X28611Y12219D01*
G01X28610Y12225D01*
G01X28611Y12233D01*
G01X28614Y12247D01*
G01X28615Y12262D01*
G01X28615Y12289D01*
G01X28614Y12303D01*
G01X28612Y12316D01*
G01X28609Y12329D01*
G01X28605Y12342D01*
G01X28601Y12354D01*
G01X28596Y12367D01*
G01X28590Y12379D01*
G01X28584Y12390D01*
G01X28576Y12402D01*
G01X28568Y12412D01*
G01X28560Y12423D01*
G01X28541Y12442D01*
G01X28531Y12450D01*
G01X28520Y12458D01*
G01X28509Y12465D01*
G01X28497Y12472D01*
G01X28485Y12478D01*
G01X28473Y12483D01*
G01X28447Y12491D01*
G01X28408Y12497D01*
G01X28381Y12497D01*
G01X28368Y12496D01*
G01X28355Y12494D01*
G01X28342Y12491D01*
G01X28316Y12483D01*
G01X28304Y12478D01*
G01X28292Y12472D01*
G01X28280Y12465D01*
G01X28269Y12458D01*
G01X28258Y12450D01*
G01X28248Y12442D01*
G01X28229Y12423D01*
G01X28221Y12413D01*
G01X28213Y12402D01*
G01X28206Y12391D01*
G01X28199Y12379D01*
G01X28196Y12374D01*
G01X28192Y12370D01*
G01X28182Y12362D01*
G01X28176Y12360D01*
G01X28164Y12358D01*
G01X28152Y12360D01*
G01X28147Y12362D01*
G01X28141Y12365D01*
G01X28133Y12373D01*
G01X28129Y12378D01*
G01X28127Y12383D01*
G01X28125Y12389D01*
G01X28124Y12394D01*
G01X28122Y12415D01*
G01X28119Y12435D01*
G01X28115Y12455D01*
G01X28110Y12475D01*
G01X28098Y12513D01*
G01X28091Y12532D01*
G01X28083Y12551D01*
G01X28074Y12570D01*
G01X28065Y12588D01*
G01X28055Y12605D01*
G01X28044Y12622D01*
G01X28032Y12639D01*
G01X28020Y12655D01*
G01X28007Y12671D01*
G01X27994Y12686D01*
G01X27965Y12715D01*
G01X27933Y12741D01*
G01X27917Y12753D01*
G01X27900Y12765D01*
G01X27883Y12775D01*
G01X27847Y12795D01*
G01X27829Y12803D01*
G01X27810Y12811D01*
G01X27791Y12818D01*
G01X27771Y12824D01*
G01X27752Y12829D01*
G01X27746Y12831D01*
G01X27736Y12837D01*
G01X27732Y12841D01*
G01X27728Y12846D01*
G01X27725Y12851D01*
G01X27723Y12856D01*
G01X27721Y12868D01*
G01X27722Y12874D01*
G01X27723Y12879D01*
G01X27725Y12885D01*
G01X27728Y12890D01*
G01X27731Y12894D01*
G01X27735Y12898D01*
G01X27740Y12902D01*
G01X27750Y12906D01*
G01X27756Y12908D01*
G01X29344Y12908D01*
G01X29350Y12906D01*
G01X29360Y12902D01*
G01X29365Y12898D01*
G01X29369Y12894D01*
G01X29372Y12890D01*
G01X29375Y12885D01*
G01X29377Y12879D01*
G01X29378Y12874D01*
G01X29379Y12868D01*
G01X29379Y12734D01*
G01X29380Y12725D01*
G01X29382Y12716D01*
G01X29385Y12707D01*
G01X29389Y12699D01*
G01X29394Y12690D01*
G01X29399Y12683D01*
G01X29405Y12676D01*
G01X29412Y12669D01*
G01X29419Y12663D01*
G01X29426Y12658D01*
G01X29435Y12653D01*
G01X29443Y12649D01*
G01X29452Y12646D01*
G01X29461Y12644D01*
G01X29470Y12643D01*
G01X30119Y12643D01*
G01X30128Y12644D01*
G01X30137Y12646D01*
G01X30146Y12649D01*
G01X30155Y12653D01*
G01X30163Y12658D01*
G01X30170Y12663D01*
G01X30178Y12669D01*
G01X30190Y12683D01*
G01X30195Y12690D01*
G01X30200Y12699D01*
G01X30204Y12707D01*
G01X30207Y12716D01*
G01X30209Y12725D01*
G01X30210Y12734D01*
G01X30210Y13383D01*
G01X30209Y13392D01*
G01X30207Y13401D01*
G01X30204Y13410D01*
G01X30200Y13418D01*
G01X30195Y13427D01*
G01X30190Y13434D01*
G01X30184Y13442D01*
G01X30178Y13448D01*
G01X30170Y13454D01*
G01X30163Y13459D01*
G01X30155Y13464D01*
G01X30146Y13468D01*
G01X30137Y13471D01*
G01X30128Y13473D01*
G01X30119Y13474D01*
G01X29470Y13474D01*
G01X29461Y13473D01*
G01X29452Y13471D01*
G01X29443Y13468D01*
G01X29435Y13464D01*
G01X29426Y13459D01*
G01X29419Y13454D01*
G01X29405Y13442D01*
G01X29399Y13434D01*
G01X29394Y13427D01*
G01X29389Y13418D01*
G01X29385Y13410D01*
G01X29382Y13401D01*
G01X29380Y13392D01*
G01X29379Y13383D01*
G01X29379Y13250D01*
G01X29378Y13244D01*
G01X29377Y13239D01*
G01X29375Y13233D01*
G01X29372Y13228D01*
G01X29369Y13224D01*
G01X29365Y13220D01*
G01X29360Y13216D01*
G01X29350Y13212D01*
G01X29344Y13210D01*
G01X26666Y13210D01*
G01X26661Y13212D01*
G01X26655Y13214D01*
G01X26650Y13216D01*
G01X26638Y13228D01*
G01X26635Y13233D01*
G01X26633Y13239D01*
G01X26632Y13244D01*
G01X26632Y13256D01*
G01X26636Y13268D01*
G01X26639Y13274D01*
G01X26644Y13278D01*
G01X26909Y13544D01*
G01X26914Y13548D01*
G01X26919Y13551D01*
G01X26925Y13554D01*
G01X26931Y13555D01*
G01X26938Y13556D01*
G01X30294Y13556D01*
G01X30306Y13554D01*
G01X30312Y13551D01*
G01X30317Y13548D01*
G01X30322Y13544D01*
G01X30479Y13387D01*
G01X30487Y13377D01*
G01X30491Y13365D01*
G01X30491Y13353D01*
G01X30489Y13347D01*
G01X30485Y13337D01*
G01X30481Y13332D01*
G01X30469Y13318D01*
G01X30447Y13288D01*
G01X30437Y13272D01*
G01X30428Y13256D01*
G01X30412Y13222D01*
G01X30405Y13205D01*
G01X30399Y13187D01*
G01X30389Y13151D01*
G01X30385Y13133D01*
G01X30382Y13114D01*
G01X30380Y13096D01*
G01X30379Y13077D01*
G01X30379Y13040D01*
G01X30380Y13021D01*
G01X30382Y13003D01*
G01X30385Y12984D01*
G01X30389Y12966D01*
G01X30399Y12930D01*
G01X30405Y12912D01*
G01X30412Y12895D01*
G01X30428Y12861D01*
G01X30437Y12845D01*
G01X30447Y12829D01*
G01X30469Y12799D01*
G01X30481Y12785D01*
G01X30494Y12771D01*
G01X30507Y12758D01*
G01X30521Y12745D01*
G01X30535Y12733D01*
G01X30565Y12711D01*
G01X30581Y12701D01*
G01X30597Y12692D01*
G01X30631Y12676D01*
G01X30648Y12669D01*
G01X30666Y12663D01*
G01X30702Y12653D01*
G01X30720Y12649D01*
G01X30739Y12646D01*
G01X30757Y12644D01*
G01X30776Y12643D01*
G01X30813Y12643D01*
G01X30832Y12644D01*
G01X30850Y12646D01*
G01X30869Y12649D01*
G01X30887Y12653D01*
G01X30923Y12663D01*
G01X30941Y12669D01*
G01X30958Y12676D01*
G01X30992Y12692D01*
G01X31008Y12701D01*
G01X31024Y12711D01*
G01X31054Y12733D01*
G01X31068Y12745D01*
G01X31082Y12758D01*
G01X31095Y12771D01*
G01X31108Y12785D01*
G01X31120Y12799D01*
G01X31142Y12829D01*
G01X31152Y12845D01*
G01X31161Y12861D01*
G01X31177Y12895D01*
G01X31184Y12912D01*
G01X31196Y12948D01*
G01X31204Y12984D01*
G01X31207Y13003D01*
G01X31209Y13021D01*
G01X31210Y13040D01*
G01X31210Y13077D01*
G01X31209Y13096D01*
G01X31207Y13114D01*
G01X31204Y13133D01*
G01X31196Y13169D01*
G01X31190Y13187D01*
G01X31184Y13204D01*
G01X31177Y13222D01*
G01X31170Y13239D01*
G01X31152Y13271D01*
G01X31142Y13287D01*
G01X31120Y13317D01*
G01X31108Y13332D01*
G01X31096Y13345D01*
G01X31083Y13359D01*
G01X31055Y13383D01*
G01X31025Y13405D01*
G01X31009Y13415D01*
G01X30993Y13424D01*
G01X30976Y13433D01*
G01X30942Y13447D01*
G01X30924Y13454D01*
G01X30907Y13459D01*
G01X30889Y13464D01*
G01X30870Y13467D01*
G01X30834Y13473D01*
G01X30827Y13474D01*
G01X30820Y13476D01*
G01X30814Y13480D01*
G01X30809Y13484D01*
G01X30471Y13822D01*
G01X30462Y13829D01*
G01X30452Y13835D01*
G01X30441Y13841D01*
G01X30431Y13846D01*
G01X30420Y13850D01*
G01X30408Y13854D01*
G01X30397Y13856D01*
G01X30373Y13858D01*
G01X27912Y13858D01*
G01X27906Y13859D01*
G01X27901Y13861D01*
G01X27891Y13867D01*
G01X27887Y13871D01*
G01X27881Y13881D01*
G01X27879Y13886D01*
G01X27877Y13898D01*
G01X27878Y13903D01*
G01X27879Y13909D01*
G01X27881Y13914D01*
G01X27887Y13924D01*
G01X27891Y13928D01*
G01X27896Y13931D01*
G01X27930Y13955D01*
G01X27962Y13981D01*
G01X27977Y13995D01*
G01X28005Y14025D01*
G01X28031Y14057D01*
G01X28042Y14074D01*
G01X28053Y14092D01*
G01X28064Y14109D01*
G01X28073Y14128D01*
G01X27853Y14128D01*
G01X27853Y13892D01*
G01X27851Y13886D01*
G01X27847Y13876D01*
G01X27843Y13871D01*
G01X27839Y13867D01*
G01X27835Y13864D01*
G01X27830Y13861D01*
G01X27824Y13859D01*
G01X27819Y13858D01*
G01X27444Y13858D01*
G01X27438Y13859D01*
G01X27433Y13861D01*
G01X27423Y13867D01*
G01X27419Y13871D01*
G01X27413Y13881D01*
G01X27411Y13886D01*
G01X27409Y13898D01*
G01X27409Y14128D01*
G01X27189Y14128D01*
G01X27199Y14109D01*
G01X27209Y14092D01*
G01X27220Y14074D01*
G01X27232Y14057D01*
G01X27244Y14041D01*
G01X27258Y14025D01*
G01X27271Y14010D01*
G01X27286Y13995D01*
G01X27301Y13981D01*
G01X27333Y13955D01*
G01X27349Y13943D01*
G01X27367Y13931D01*
G01X27371Y13928D01*
G01X27375Y13924D01*
G01X27379Y13919D01*
G01X27381Y13914D01*
G01X27384Y13909D01*
G01X27385Y13903D01*
G01X27385Y13892D01*
G01X27384Y13886D01*
G01X27382Y13881D01*
G01X27379Y13876D01*
G01X27375Y13871D01*
G01X27371Y13867D01*
G01X27367Y13864D01*
G01X27362Y13861D01*
G01X27356Y13859D01*
G01X27351Y13858D01*
G01X26858Y13858D01*
G01X26847Y13857D01*
G01X26835Y13856D01*
G01X26823Y13854D01*
G01X26801Y13846D01*
G01X26790Y13841D01*
G01X26770Y13829D01*
G01X26760Y13822D01*
G01X26752Y13813D01*
G01X22516Y9578D01*
G01X22511Y9574D01*
G01X22501Y9568D01*
G01X22489Y9566D01*
G01X22476Y9565D01*
G01X22462Y9563D01*
G01X22449Y9561D01*
G01X22436Y9558D01*
G01X22410Y9548D01*
G01X22398Y9543D01*
G01X22374Y9529D01*
G01X22363Y9521D01*
G01X22353Y9513D01*
G01X22343Y9503D01*
G01X22333Y9494D01*
G01X22324Y9483D01*
G01X22316Y9473D01*
G01X22302Y9449D01*
G01X22296Y9437D01*
G01X22291Y9425D01*
G01X22286Y9412D01*
G01X22280Y9386D01*
G01X22278Y9372D01*
G01X22276Y9359D01*
G01X22276Y9331D01*
G01X22278Y9317D01*
G01X22280Y9304D01*
G01X22283Y9290D01*
G01X22287Y9277D01*
G01X22292Y9263D01*
G01X22297Y9251D01*
G01X22304Y9238D01*
G01X22311Y9226D01*
G01X22327Y9204D01*
G01X22336Y9193D01*
G01X22346Y9183D01*
G01X22357Y9174D01*
G01X22361Y9170D01*
G01X22365Y9165D01*
G01X22368Y9160D01*
G01X22370Y9155D01*
G01X22372Y9143D01*
G01X22371Y9137D01*
G01X22370Y9132D01*
G01X22368Y9126D01*
G01X22365Y9121D01*
G01X22357Y9113D01*
G01X22347Y9104D01*
G01X22329Y9084D01*
G01X22321Y9074D01*
G01X22313Y9063D01*
G01X22310Y9058D01*
G01X22306Y9054D01*
G01X22296Y9048D01*
G01X22291Y9046D01*
G01X22285Y9045D01*
G01X22274Y9045D01*
G01X22268Y9046D01*
G01X22262Y9049D01*
G01X22257Y9052D01*
G01X22252Y9056D01*
G01X22242Y9065D01*
G01X22231Y9074D01*
G01X22219Y9081D01*
G01X22207Y9089D01*
G01X22195Y9095D01*
G01X22182Y9101D01*
G01X22169Y9105D01*
G01X22155Y9109D01*
G01X22142Y9112D01*
G01X22128Y9115D01*
G01X22114Y9116D01*
G01X22086Y9116D01*
G01X22073Y9115D01*
G01X22045Y9109D01*
G01X22032Y9106D01*
G01X22019Y9101D01*
G01X22006Y9095D01*
G01X21994Y9089D01*
G01X21982Y9082D01*
G01X21960Y9066D01*
G01X21949Y9057D01*
G01X21939Y9047D01*
G01X21930Y9037D01*
G01X21922Y9026D01*
G01X21914Y9014D01*
G01X21907Y9003D01*
G01X21901Y8990D01*
G01X21895Y8978D01*
G01X21890Y8965D01*
G01X21888Y8959D01*
G01X21885Y8954D01*
G01X21876Y8945D01*
G01X21870Y8941D01*
G01X21865Y8939D01*
G01X21859Y8938D01*
G01X21852Y8937D01*
G01X21840Y8939D01*
G01X21834Y8942D01*
G01X21829Y8945D01*
G01X21824Y8949D01*
G01X19941Y10832D01*
G01X19936Y10836D01*
G01X19933Y10842D01*
G01X19931Y10847D01*
G01X19929Y10854D01*
G01X19929Y11030D01*
G01X19930Y11036D01*
G01X19932Y11041D01*
G01X19935Y11046D01*
G01X19939Y11051D01*
G01X19943Y11055D01*
G01X19947Y11058D01*
G01X19952Y11061D01*
G01X19958Y11063D01*
G01X19963Y11064D01*
G01X20515Y11064D01*
G01X20525Y11065D01*
G01X20534Y11066D01*
G01X20543Y11068D01*
G01X20552Y11071D01*
G01X20561Y11075D01*
G01X20569Y11079D01*
G01X20576Y11085D01*
G01X20584Y11091D01*
G01X20590Y11097D01*
G01X20596Y11104D01*
G01X20606Y11120D01*
G01X20610Y11129D01*
G01X20613Y11138D01*
G01X20615Y11147D01*
G01X20616Y11156D01*
G01X20616Y12946D01*
G01X20615Y12956D01*
G01X20613Y12965D01*
G01X20610Y12973D01*
G01X20606Y12982D01*
G01X20596Y12998D01*
G01X20584Y13012D01*
G01X20576Y13018D01*
G01X20569Y13023D01*
G01X20561Y13027D01*
G01X20552Y13031D01*
G01X20543Y13034D01*
G01X20525Y13038D01*
G01X18931Y13038D01*
G01X18913Y13034D01*
G01X18904Y13031D01*
G01X18888Y13023D01*
G01X18880Y13018D01*
G01X18873Y13012D01*
G01X18866Y13005D01*
G01X18860Y12998D01*
G01X18850Y12982D01*
G01X18847Y12973D01*
G01X18844Y12965D01*
G01X18841Y12956D01*
G01X18840Y12946D01*
G01X18840Y11156D01*
G01X18841Y11147D01*
G01X18850Y11120D01*
G01X18860Y11104D01*
G01X18866Y11097D01*
G01X18880Y11085D01*
G01X18888Y11079D01*
G01X18904Y11071D01*
G01X18913Y11068D01*
G01X18922Y11066D01*
G01X18931Y11065D01*
G01X18941Y11064D01*
G01X19493Y11064D01*
G01X19498Y11063D01*
G01X19503Y11061D01*
G01X19513Y11055D01*
G01X19517Y11051D01*
G01X19523Y11041D01*
G01X19525Y11036D01*
G01X19527Y11024D01*
G01X19527Y10747D01*
G01X19531Y10721D01*
G01X19537Y10695D01*
G01X19542Y10683D01*
G01X19554Y10659D01*
G01X19561Y10648D01*
G01X19568Y10638D01*
G01X19577Y10627D01*
G01X19586Y10618D01*
G01X22058Y8147D01*
G01X22068Y8137D01*
G01X22092Y8119D01*
G01X22118Y8105D01*
G01X22131Y8100D01*
G01X22137Y8097D01*
G01X22142Y8094D01*
G01X22147Y8090D01*
G01X22151Y8085D01*
G01X22154Y8080D01*
G01X22156Y8074D01*
G01X22158Y8062D01*
G01X22156Y8050D01*
G01X22154Y8045D01*
G01X22151Y8039D01*
G01X22142Y8030D01*
G01X22137Y8027D01*
G01X22125Y8023D01*
G01X22119Y8022D01*
G01X22106Y8022D01*
G01X22092Y8020D01*
G01X22066Y8014D01*
G01X22053Y8010D01*
G01X22040Y8005D01*
G01X22016Y7993D01*
G01X22004Y7986D01*
G01X21993Y7978D01*
G01X21983Y7969D01*
G01X21972Y7960D01*
G01X21954Y7940D01*
G01X21946Y7929D01*
G01X21939Y7918D01*
G01X21932Y7906D01*
G01X21926Y7894D01*
G01X21920Y7881D01*
G01X21912Y7855D01*
G01X21909Y7842D01*
G01X21907Y7829D01*
G01X21906Y7815D01*
G01X21906Y7788D01*
G01X21907Y7775D01*
G01X21909Y7762D01*
G01X21912Y7749D01*
G01X21920Y7723D01*
G01X21925Y7711D01*
G01X21937Y7687D01*
G01X21953Y7665D01*
G01X21961Y7655D01*
G01X21970Y7645D01*
G01X21980Y7636D01*
G01X21990Y7628D01*
G01X22012Y7612D01*
G01X22036Y7600D01*
G01X22048Y7595D01*
G01X22074Y7587D01*
G01X22087Y7584D01*
G01X22100Y7582D01*
G01X22113Y7581D01*
G01X22140Y7581D01*
G01X22153Y7582D01*
G01X22166Y7584D01*
G01X22179Y7587D01*
G01X22205Y7595D01*
G01X22217Y7600D01*
G01X22241Y7612D01*
G01X22263Y7628D01*
G01X22273Y7636D01*
G01X22283Y7645D01*
G01X22292Y7655D01*
G01X22300Y7665D01*
G01X22316Y7687D01*
G01X22328Y7711D01*
G01X22333Y7723D01*
G01X22338Y7736D01*
G01X22344Y7762D01*
G01X22346Y7775D01*
G01X22347Y7788D01*
G01X22348Y7802D01*
G01X22347Y7815D01*
G01X22346Y7829D01*
G01X22344Y7842D01*
G01X22341Y7856D01*
G01X22337Y7869D01*
G01X22332Y7882D01*
G01X22327Y7894D01*
G01X22321Y7906D01*
G01X22307Y7930D01*
G01X22298Y7940D01*
G01X22289Y7951D01*
G01X22280Y7961D01*
G01X22270Y7970D01*
G01X22248Y7986D01*
G01X22224Y8000D01*
G01X22212Y8005D01*
G01X22199Y8010D01*
G01X22194Y8013D01*
G01X22188Y8016D01*
G01X22184Y8020D01*
G01X22180Y8025D01*
G01X22177Y8030D01*
G01X22174Y8036D01*
G01X22172Y8048D01*
G01X22173Y8054D01*
G01X22174Y8059D01*
G01X22176Y8065D01*
G01X22179Y8070D01*
G01X22182Y8074D01*
G01X22186Y8078D01*
G01X22191Y8082D01*
G01X22201Y8086D01*
G01X22207Y8088D01*
G01X23737Y8088D01*
G01X23743Y8086D01*
G01X23753Y8082D01*
G01X23758Y8078D01*
G01X23762Y8074D01*
G01X23765Y8070D01*
G01X23768Y8065D01*
G01X23770Y8059D01*
G01X23771Y8054D01*
G01X23772Y8048D01*
G01X23770Y8036D01*
G01X23767Y8030D01*
G01X23764Y8025D01*
G01X23760Y8020D01*
G01X23756Y8016D01*
G01X23750Y8013D01*
G01X23745Y8010D01*
G01X23719Y8000D01*
G01X23707Y7993D01*
G01X23696Y7986D01*
G01X23684Y7978D01*
G01X23674Y7970D01*
G01X23664Y7961D01*
G01X23654Y7951D01*
G01X23645Y7940D01*
G01X23637Y7930D01*
G01X23629Y7918D01*
G01X23622Y7906D01*
G01X23616Y7894D01*
G01X23611Y7881D01*
G01X23606Y7869D01*
G01X23602Y7855D01*
G01X23599Y7842D01*
G01X23597Y7829D01*
G01X23596Y7815D01*
G01X23596Y7788D01*
G01X23597Y7775D01*
G01X23599Y7761D01*
G01X23602Y7748D01*
G01X23606Y7735D01*
G01X23610Y7723D01*
G01X23615Y7711D01*
G01X23627Y7687D01*
G01X23643Y7665D01*
G01X23651Y7655D01*
G01X23660Y7645D01*
G01X23680Y7627D01*
G01X23691Y7619D01*
G01X23702Y7612D01*
G01X23726Y7600D01*
G01X23738Y7595D01*
G01X23751Y7590D01*
G01X23777Y7584D01*
G01X23790Y7582D01*
G01X23803Y7581D01*
G01X23817Y7580D01*
G01X23843Y7582D01*
G01X23856Y7584D01*
G01X23870Y7587D01*
G01X23882Y7590D01*
G01X23895Y7595D01*
G01X23907Y7600D01*
G01X23931Y7612D01*
G01X23942Y7619D01*
G01X23953Y7627D01*
G01X23973Y7645D01*
G01X23991Y7665D01*
G01X23998Y7676D01*
G01X24006Y7687D01*
G01X24018Y7711D01*
G01X24028Y7735D01*
G01X24034Y7761D01*
G01X24036Y7775D01*
G01X24038Y7801D01*
G01X24036Y7829D01*
G01X24034Y7842D01*
G01X24031Y7855D01*
G01X24027Y7869D01*
G01X24023Y7881D01*
G01X24017Y7894D01*
G01X24011Y7906D01*
G01X23997Y7930D01*
G01X23988Y7940D01*
G01X23979Y7951D01*
G01X23970Y7961D01*
G01X23960Y7970D01*
G01X23938Y7986D01*
G01X23914Y8000D01*
G01X23901Y8005D01*
G01X23889Y8010D01*
G01X23883Y8013D01*
G01X23878Y8016D01*
G01X23873Y8020D01*
G01X23869Y8025D01*
G01X23866Y8030D01*
G01X23863Y8036D01*
G01X23862Y8042D01*
G01X23862Y8054D01*
G01X23863Y8059D01*
G01X23865Y8065D01*
G01X23868Y8070D01*
G01X23871Y8074D01*
G01X23875Y8078D01*
G01X23880Y8082D01*
G01X23890Y8086D01*
G01X23896Y8088D01*
G01X24449Y8088D01*
G01X24461Y8084D01*
G01X24473Y8079D01*
G01X24487Y8074D01*
G01X24500Y8070D01*
G01X24514Y8067D01*
G01X24527Y8065D01*
G01X24541Y8063D01*
G01X24569Y8063D01*
G01X24582Y8064D01*
G01X24595Y8066D01*
G01X24608Y8069D01*
G01X24634Y8077D01*
G01X24646Y8082D01*
G01X24658Y8088D01*
G01X24670Y8095D01*
G01X24681Y8102D01*
G01X24692Y8110D01*
G01X24702Y8118D01*
G01X24721Y8137D01*
G01X24729Y8148D01*
G01X24737Y8158D01*
G01X24744Y8169D01*
G01X24751Y8181D01*
G01X24757Y8193D01*
G01X24762Y8205D01*
G01X24770Y8231D01*
G01X24773Y8244D01*
G01X24775Y8257D01*
G01X24776Y8270D01*
G01X24776Y8297D01*
G01X24775Y8310D01*
G01X24773Y8324D01*
G01X24770Y8337D01*
G01X24766Y8350D01*
G01X24762Y8362D01*
G01X24757Y8375D01*
G01X24751Y8387D01*
G01X24737Y8409D01*
G01X24729Y8420D01*
G01X24721Y8430D01*
G01X24712Y8440D01*
G01X24692Y8458D01*
G01X24681Y8466D01*
G01X24670Y8473D01*
G01X24646Y8485D01*
G01X24634Y8490D01*
G01X24621Y8495D01*
G01X24595Y8501D01*
G01X24582Y8503D01*
G01X24569Y8504D01*
G01X24555Y8505D01*
G01X24540Y8504D01*
G01X24526Y8503D01*
G01X24496Y8497D01*
G01X24482Y8492D01*
G01X24475Y8491D01*
G01X24469Y8490D01*
G01X23244Y8490D01*
G01X23239Y8492D01*
G01X23233Y8494D01*
G01X23228Y8496D01*
G01X23216Y8508D01*
G01X23214Y8513D01*
G01X23212Y8519D01*
G01X23210Y8524D01*
G01X23210Y8530D01*
G01X23211Y8537D01*
G01X23212Y8543D01*
G01X23215Y8550D01*
G01X23222Y8562D01*
G01X23232Y8588D01*
G01X23236Y8602D01*
G01X23239Y8616D01*
G01X23242Y8629D01*
G01X23243Y8644D01*
G01X23243Y8671D01*
G01X23242Y8685D01*
G01X23239Y8699D01*
G01X23236Y8712D01*
G01X23233Y8726D01*
G01X23228Y8739D01*
G01X23222Y8751D01*
G01X23216Y8764D01*
G01X23209Y8776D01*
G01X23193Y8798D01*
G01X23184Y8808D01*
G01X23174Y8818D01*
G01X23164Y8827D01*
G01X23153Y8836D01*
G01X23142Y8844D01*
G01X23130Y8851D01*
G01X23125Y8854D01*
G01X23120Y8858D01*
G01X23116Y8863D01*
G01X23113Y8868D01*
G01X23111Y8874D01*
G01X23109Y8886D01*
G01X23111Y8898D01*
G01X23114Y8904D01*
G01X23117Y8909D01*
G01X23121Y8914D01*
G01X23321Y9114D01*
G01X23333Y9120D01*
G01X23345Y9122D01*
G01X23351Y9121D01*
G01X23356Y9120D01*
G01X23361Y9118D01*
G01X23367Y9115D01*
G01X23371Y9112D01*
G01X23375Y9108D01*
G01X23379Y9103D01*
G01X23383Y9093D01*
G01X23384Y9087D01*
G01X23385Y9082D01*
G01X23385Y9062D01*
G01X23386Y9049D01*
G01X23388Y9036D01*
G01X23391Y9023D01*
G01X23399Y8997D01*
G01X23405Y8985D01*
G01X23410Y8973D01*
G01X23417Y8961D01*
G01X23424Y8950D01*
G01X23432Y8939D01*
G01X23450Y8919D01*
G01X23460Y8910D01*
G01X23471Y8901D01*
G01X23481Y8893D01*
G01X23493Y8886D01*
G01X23517Y8874D01*
G01X23529Y8869D01*
G01X23542Y8864D01*
G01X23568Y8858D01*
G01X23581Y8856D01*
G01X23587Y8855D01*
G01X23592Y8853D01*
G01X23598Y8851D01*
G01X23602Y8847D01*
G01X23607Y8843D01*
G01X23610Y8839D01*
G01X23613Y8833D01*
G01X23615Y8828D01*
G01X23616Y8822D01*
G01X23617Y8817D01*
G01X23617Y8813D01*
G01X23616Y8795D01*
G01X23616Y8782D01*
G01X23618Y8769D01*
G01X23620Y8755D01*
G01X23622Y8742D01*
G01X23626Y8729D01*
G01X23630Y8717D01*
G01X23635Y8705D01*
G01X23641Y8693D01*
G01X23648Y8681D01*
G01X23655Y8670D01*
G01X23663Y8659D01*
G01X23681Y8639D01*
G01X23690Y8630D01*
G01X23701Y8621D01*
G01X23711Y8613D01*
G01X23723Y8606D01*
G01X23734Y8600D01*
G01X23746Y8594D01*
G01X23759Y8589D01*
G01X23771Y8584D01*
G01X23797Y8578D01*
G01X23810Y8576D01*
G01X23824Y8575D01*
G01X23837Y8574D01*
G01X23850Y8575D01*
G01X23864Y8576D01*
G01X23877Y8578D01*
G01X23891Y8581D01*
G01X23917Y8589D01*
G01X23929Y8594D01*
G01X23941Y8600D01*
G01X23953Y8607D01*
G01X23975Y8623D01*
G01X23995Y8641D01*
G01X24004Y8651D01*
G01X24013Y8662D01*
G01X24021Y8673D01*
G01X24028Y8684D01*
G01X24040Y8708D01*
G01X24045Y8721D01*
G01X24053Y8747D01*
G01X24055Y8760D01*
G01X24057Y8774D01*
G01X24058Y8787D01*
G01X24058Y8793D01*
G01X24062Y8805D01*
G01X24066Y8810D01*
G01X24069Y8814D01*
G01X25059Y9804D01*
G01X25064Y9808D01*
G01X25069Y9811D01*
G01X25075Y9814D01*
G01X25087Y9816D01*
G01X25700Y9816D01*
G01X25712Y9817D01*
G01X25723Y9820D01*
G01X25735Y9823D01*
G01X25746Y9827D01*
G01X25756Y9832D01*
G01X25767Y9838D01*
G01X25777Y9844D01*
G01X25795Y9860D01*
G01X26172Y10237D01*
G01X26177Y10241D01*
G01X26182Y10244D01*
G01X26188Y10247D01*
G01X26200Y10249D01*
G01X29465Y10249D01*
G01X29471Y10248D01*
G01X29476Y10247D01*
G01X29482Y10245D01*
G01X29487Y10242D01*
G01X29491Y10239D01*
G01X29495Y10235D01*
G01X29499Y10230D01*
G01X29503Y10220D01*
G01X29505Y10214D01*
G01X29505Y10203D01*
G01X29501Y10191D01*
G01X29498Y10186D01*
G01X29494Y10181D01*
G01X29481Y10167D01*
G01X29469Y10153D01*
G01X29447Y10123D01*
G01X29437Y10107D01*
G01X29428Y10091D01*
G01X29412Y10057D01*
G01X29405Y10040D01*
G01X29399Y10022D01*
G01X29389Y9986D01*
G01X29385Y9968D01*
G01X29382Y9949D01*
G01X29380Y9931D01*
G01X29379Y9912D01*
G01X29379Y9875D01*
G01X29380Y9857D01*
G01X29382Y9839D01*
G01X29385Y9820D01*
G01X29389Y9802D01*
G01X29393Y9785D01*
G01X29398Y9767D01*
G01X29404Y9750D01*
G01X29406Y9743D01*
G01X29407Y9736D01*
G01X29406Y9729D01*
G01X29405Y9723D01*
G01X29402Y9718D01*
G01X29399Y9712D01*
G01X29395Y9707D01*
G01X28119Y8432D01*
G01X28115Y8428D01*
G01X28109Y8424D01*
G01X28103Y8422D01*
G01X28091Y8420D01*
G01X28085Y8420D01*
G01X28080Y8422D01*
G01X28074Y8424D01*
G01X28069Y8426D01*
G01X28057Y8438D01*
G01X28055Y8444D01*
G01X28049Y8455D01*
G01X28042Y8467D01*
G01X28035Y8478D01*
G01X28027Y8489D01*
G01X28009Y8509D01*
G01X28000Y8518D01*
G01X27989Y8527D01*
G01X27979Y8534D01*
G01X27967Y8542D01*
G01X27956Y8548D01*
G01X27944Y8554D01*
G01X27931Y8559D01*
G01X27919Y8563D01*
G01X27906Y8567D01*
G01X27893Y8570D01*
G01X27880Y8572D01*
G01X27867Y8573D01*
G01X27839Y8573D01*
G01X27826Y8572D01*
G01X27812Y8570D01*
G01X27799Y8567D01*
G01X27785Y8563D01*
G01X27772Y8558D01*
G01X27760Y8553D01*
G01X27747Y8546D01*
G01X27735Y8539D01*
G01X27724Y8532D01*
G01X27713Y8523D01*
G01X27703Y8514D01*
G01X27698Y8510D01*
G01X27693Y8507D01*
G01X27687Y8505D01*
G01X27675Y8503D01*
G01X26436Y8503D01*
G01X26424Y8505D01*
G01X26418Y8508D01*
G01X26413Y8511D01*
G01X26408Y8515D01*
G01X25974Y8949D01*
G01X25971Y8955D01*
G01X25967Y8967D01*
G01X25967Y8980D01*
G01X25969Y8987D01*
G01X25972Y8993D01*
G01X25976Y8999D01*
G01X25985Y9010D01*
G01X25992Y9021D01*
G01X26000Y9033D01*
G01X26006Y9045D01*
G01X26016Y9071D01*
G01X26020Y9085D01*
G01X26023Y9098D01*
G01X26027Y9126D01*
G01X26027Y9153D01*
G01X26025Y9166D01*
G01X26023Y9180D01*
G01X26021Y9193D01*
G01X26017Y9206D01*
G01X26013Y9218D01*
G01X26008Y9231D01*
G01X26002Y9243D01*
G01X25988Y9265D01*
G01X25980Y9276D01*
G01X25962Y9296D01*
G01X25953Y9305D01*
G01X25942Y9314D01*
G01X25932Y9322D01*
G01X25920Y9329D01*
G01X25909Y9335D01*
G01X25897Y9341D01*
G01X25884Y9346D01*
G01X25872Y9351D01*
G01X25846Y9357D01*
G01X25833Y9359D01*
G01X25819Y9360D01*
G01X25806Y9361D01*
G01X25793Y9360D01*
G01X25779Y9359D01*
G01X25766Y9357D01*
G01X25740Y9351D01*
G01X25728Y9346D01*
G01X25715Y9341D01*
G01X25703Y9335D01*
G01X25692Y9329D01*
G01X25680Y9322D01*
G01X25670Y9314D01*
G01X25659Y9305D01*
G01X25650Y9296D01*
G01X25632Y9276D01*
G01X25624Y9265D01*
G01X25610Y9243D01*
G01X25604Y9231D01*
G01X25599Y9218D01*
G01X25595Y9206D01*
G01X25591Y9193D01*
G01X25589Y9180D01*
G01X25587Y9166D01*
G01X25585Y9153D01*
G01X25585Y9126D01*
G01X25587Y9112D01*
G01X25589Y9099D01*
G01X25592Y9085D01*
G01X25600Y9059D01*
G01X25606Y9046D01*
G01X25612Y9034D01*
G01X25619Y9022D01*
G01X25635Y9000D01*
G01X25644Y8989D01*
G01X25648Y8985D01*
G01X25651Y8979D01*
G01X25653Y8974D01*
G01X25655Y8968D01*
G01X25655Y8892D01*
G01X25659Y8868D01*
G01X25662Y8857D01*
G01X25667Y8846D01*
G01X25671Y8835D01*
G01X25677Y8825D01*
G01X25691Y8805D01*
G01X26250Y8246D01*
G01X26268Y8230D01*
G01X26278Y8224D01*
G01X26289Y8218D01*
G01X26299Y8213D01*
G01X26311Y8209D01*
G01X26322Y8206D01*
G01X26334Y8203D01*
G01X26345Y8202D01*
G01X26357Y8201D01*
G01X27681Y8201D01*
G01X27687Y8200D01*
G01X27693Y8197D01*
G01X27703Y8191D01*
G01X27713Y8181D01*
G01X27749Y8157D01*
G01X27762Y8151D01*
G01X27772Y8145D01*
G01X27776Y8141D01*
G01X27782Y8131D01*
G01X27784Y8126D01*
G01X27785Y8120D01*
G01X27786Y8115D01*
G01X27785Y8108D01*
G01X27784Y8102D01*
G01X27781Y8096D01*
G01X27778Y8091D01*
G01X27774Y8086D01*
G01X26588Y6901D01*
G01X26584Y6897D01*
G01X26578Y6894D01*
G01X26573Y6891D01*
G01X26566Y6890D01*
G01X26560Y6889D01*
G01X26141Y6889D01*
G01X26135Y6890D01*
G01X26130Y6891D01*
G01X26124Y6893D01*
G01X26119Y6896D01*
G01X26114Y6900D01*
G01X26104Y6909D01*
G01X26093Y6917D01*
G01X26081Y6925D01*
G01X26069Y6932D01*
G01X26057Y6938D01*
G01X26044Y6944D01*
G01X26031Y6949D01*
G01X26005Y6955D01*
G01X25977Y6959D01*
G01X25950Y6959D01*
G01X25936Y6958D01*
G01X25923Y6955D01*
G01X25910Y6953D01*
G01X25896Y6949D01*
G01X25884Y6944D01*
G01X25871Y6939D01*
G01X25859Y6933D01*
G01X25847Y6926D01*
G01X25836Y6919D01*
G01X25825Y6910D01*
G01X25805Y6892D01*
G01X25796Y6882D01*
G01X25787Y6871D01*
G01X25779Y6860D01*
G01X25772Y6849D01*
G01X25766Y6837D01*
G01X25760Y6824D01*
G01X25755Y6811D01*
G01X25751Y6798D01*
G01X25745Y6772D01*
G01X25743Y6758D01*
G01X25742Y6753D01*
G01X25741Y6747D01*
G01X25735Y6737D01*
G01X25731Y6732D01*
G01X25721Y6726D01*
G01X25715Y6724D01*
G01X25710Y6722D01*
G01X25704Y6722D01*
G01X25696Y6723D01*
G01X25677Y6725D01*
G01X25657Y6726D01*
G01X25644Y6726D01*
G01X25630Y6725D01*
G01X25617Y6723D01*
G01X25604Y6720D01*
G01X25591Y6716D01*
G01X25579Y6712D01*
G01X25566Y6707D01*
G01X25554Y6701D01*
G01X25543Y6694D01*
G01X25531Y6687D01*
G01X25521Y6679D01*
G01X25510Y6671D01*
G01X25501Y6661D01*
G01X25492Y6652D01*
G01X25483Y6641D01*
G01X25475Y6631D01*
G01X25468Y6620D01*
G01X25461Y6608D01*
G01X25455Y6596D01*
G01X25450Y6584D01*
G01X25442Y6558D01*
G01X25436Y6519D01*
G01X25436Y6491D01*
G01X25438Y6478D01*
G01X25440Y6464D01*
G01X25440Y6451D01*
G01X25439Y6445D01*
G01X25437Y6440D01*
G01X25434Y6435D01*
G01X25431Y6431D01*
G01X25427Y6426D01*
G01X25417Y6420D01*
G01X25412Y6418D01*
G01X25406Y6417D01*
G01X22671Y6417D01*
G01X22665Y6418D01*
G01X22659Y6421D01*
G01X22654Y6424D01*
G01X22650Y6427D01*
G01X22639Y6437D01*
G01X22617Y6453D01*
G01X22605Y6460D01*
G01X22593Y6466D01*
G01X22567Y6476D01*
G01X22554Y6480D01*
G01X22540Y6483D01*
G01X22526Y6485D01*
G01X22513Y6486D01*
G01X22499Y6487D01*
G01X22481Y6486D01*
G01X22464Y6484D01*
G01X22447Y6481D01*
G01X22438Y6479D01*
G01X22426Y6481D01*
G01X22421Y6483D01*
G01X22411Y6489D01*
G01X22407Y6493D01*
G01X22401Y6503D01*
G01X22399Y6508D01*
G01X22398Y6514D01*
G01X22398Y6519D01*
G01X22399Y6529D01*
G01X22402Y6546D01*
G01X22404Y6563D01*
G01X22405Y6581D01*
G01X22405Y6594D01*
G01X22403Y6608D01*
G01X22401Y6621D01*
G01X22395Y6647D01*
G01X22390Y6660D01*
G01X22385Y6672D01*
G01X22379Y6684D01*
G01X22372Y6696D01*
G01X22365Y6707D01*
G01X22357Y6718D01*
G01X22339Y6738D01*
G01X22329Y6747D01*
G01X22325Y6751D01*
G01X22319Y6761D01*
G01X22317Y6766D01*
G01X22315Y6778D01*
G01X22316Y6783D01*
G01X22317Y6789D01*
G01X22319Y6794D01*
G01X22325Y6804D01*
G01X22329Y6808D01*
G01X22339Y6817D01*
G01X22357Y6837D01*
G01X22365Y6848D01*
G01X22372Y6859D01*
G01X22379Y6871D01*
G01X22385Y6883D01*
G01X22390Y6895D01*
G01X22395Y6908D01*
G01X22401Y6934D01*
G01X22403Y6947D01*
G01X22405Y6961D01*
G01X22405Y6988D01*
G01X22403Y7002D01*
G01X22401Y7015D01*
G01X22395Y7041D01*
G01X22385Y7067D01*
G01X22379Y7079D01*
G01X22372Y7091D01*
G01X22356Y7113D01*
G01X22338Y7133D01*
G01X22328Y7142D01*
G01X22317Y7151D01*
G01X22306Y7158D01*
G01X22295Y7166D01*
G01X22283Y7172D01*
G01X22270Y7178D01*
G01X22258Y7183D01*
G01X22245Y7187D01*
G01X22232Y7190D01*
G01X22218Y7193D01*
G01X22205Y7194D01*
G01X22191Y7195D01*
G01X22185Y7196D01*
G01X22180Y7197D01*
G01X22174Y7200D01*
G01X22169Y7203D01*
G01X22164Y7207D01*
G01X18696Y10676D01*
G01X18691Y10681D01*
G01X18688Y10686D01*
G01X18684Y10698D01*
G01X18684Y16288D01*
G01X18682Y16312D01*
G01X18680Y16323D01*
G01X18676Y16335D01*
G01X18672Y16346D01*
G01X18667Y16357D01*
G01X18662Y16367D01*
G01X18655Y16377D01*
G01X18648Y16386D01*
G01X18640Y16395D01*
G01X17889Y17145D01*
G01X17885Y17150D01*
G01X17882Y17155D01*
G01X17879Y17161D01*
G01X17878Y17166D01*
G01X17877Y17172D01*
G01X17876Y17186D01*
G01X17875Y17199D01*
G01X17872Y17213D01*
G01X17869Y17226D01*
G01X17865Y17239D01*
G01X17860Y17251D01*
G01X17854Y17264D01*
G01X17847Y17276D01*
G01X17840Y17287D01*
G01X17824Y17309D01*
G01X17815Y17319D01*
G01X17795Y17337D01*
G01X17784Y17345D01*
G01X17772Y17353D01*
G01X17761Y17360D01*
G01X17748Y17366D01*
G01X17736Y17371D01*
G01X17710Y17379D01*
G01X17697Y17382D01*
G01X17683Y17384D01*
G01X17670Y17385D01*
G37*
G36*
G01X29813Y6984D02*
G01X29776Y6984D01*
G01X29757Y6983D01*
G01X29739Y6981D01*
G01X29720Y6978D01*
G01X29702Y6974D01*
G01X29666Y6964D01*
G01X29648Y6958D01*
G01X29631Y6951D01*
G01X29597Y6935D01*
G01X29581Y6926D01*
G01X29565Y6916D01*
G01X29535Y6894D01*
G01X29521Y6882D01*
G01X29507Y6869D01*
G01X29494Y6856D01*
G01X29481Y6842D01*
G01X29469Y6828D01*
G01X29447Y6798D01*
G01X29437Y6782D01*
G01X29428Y6766D01*
G01X29412Y6732D01*
G01X29405Y6715D01*
G01X29399Y6697D01*
G01X29389Y6661D01*
G01X29385Y6643D01*
G01X29382Y6624D01*
G01X29380Y6606D01*
G01X29379Y6587D01*
G01X29379Y6550D01*
G01X29380Y6532D01*
G01X29382Y6514D01*
G01X29385Y6496D01*
G01X29393Y6460D01*
G01X29398Y6442D01*
G01X29404Y6425D01*
G01X29406Y6418D01*
G01X29407Y6411D01*
G01X29405Y6399D01*
G01X29402Y6393D01*
G01X29399Y6388D01*
G01X29395Y6383D01*
G01X28259Y5247D01*
G01X28254Y5243D01*
G01X28249Y5240D01*
G01X28237Y5236D01*
G01X21923Y5236D01*
G01X21917Y5237D01*
G01X21911Y5240D01*
G01X21906Y5243D01*
G01X21902Y5246D01*
G01X21880Y5264D01*
G01X21869Y5272D01*
G01X21857Y5279D01*
G01X21845Y5285D01*
G01X21819Y5295D01*
G01X21806Y5299D01*
G01X21792Y5302D01*
G01X21778Y5304D01*
G01X21765Y5305D01*
G01X21751Y5306D01*
G01X21738Y5305D01*
G01X21724Y5304D01*
G01X21711Y5302D01*
G01X21685Y5296D01*
G01X21673Y5291D01*
G01X21660Y5286D01*
G01X21648Y5280D01*
G01X21637Y5274D01*
G01X21625Y5266D01*
G01X21615Y5259D01*
G01X21604Y5250D01*
G01X21595Y5241D01*
G01X21577Y5221D01*
G01X21569Y5210D01*
G01X21562Y5199D01*
G01X21555Y5187D01*
G01X21549Y5175D01*
G01X21544Y5163D01*
G01X21536Y5137D01*
G01X21530Y5098D01*
G01X21530Y5071D01*
G01X21536Y5032D01*
G01X21544Y5006D01*
G01X21549Y4994D01*
G01X21555Y4982D01*
G01X21562Y4970D01*
G01X21569Y4959D01*
G01X21577Y4948D01*
G01X21595Y4928D01*
G01X21604Y4919D01*
G01X21615Y4911D01*
G01X21625Y4903D01*
G01X21637Y4895D01*
G01X21648Y4889D01*
G01X21660Y4883D01*
G01X21673Y4878D01*
G01X21685Y4874D01*
G01X21698Y4870D01*
G01X21711Y4867D01*
G01X21724Y4865D01*
G01X21738Y4864D01*
G01X21765Y4864D01*
G01X21778Y4865D01*
G01X21792Y4867D01*
G01X21806Y4870D01*
G01X21819Y4874D01*
G01X21845Y4884D01*
G01X21869Y4898D01*
G01X21880Y4905D01*
G01X21902Y4923D01*
G01X21906Y4927D01*
G01X21911Y4930D01*
G01X21917Y4932D01*
G01X21929Y4934D01*
G01X23726Y4934D01*
G01X23732Y4933D01*
G01X23737Y4932D01*
G01X23743Y4930D01*
G01X23748Y4927D01*
G01X23752Y4924D01*
G01X23756Y4920D01*
G01X23760Y4915D01*
G01X23764Y4905D01*
G01X23765Y4899D01*
G01X23766Y4894D01*
G01X23765Y4887D01*
G01X23764Y4881D01*
G01X23761Y4875D01*
G01X23755Y4862D01*
G01X23750Y4850D01*
G01X23745Y4837D01*
G01X23741Y4824D01*
G01X23738Y4810D01*
G01X23736Y4797D01*
G01X23735Y4783D01*
G01X23735Y4756D01*
G01X23736Y4743D01*
G01X23738Y4730D01*
G01X23741Y4717D01*
G01X23749Y4691D01*
G01X23754Y4679D01*
G01X23766Y4655D01*
G01X23782Y4633D01*
G01X23790Y4623D01*
G01X23799Y4613D01*
G01X23809Y4604D01*
G01X23819Y4596D01*
G01X23830Y4588D01*
G01X23841Y4581D01*
G01X23853Y4574D01*
G01X23865Y4568D01*
G01X23877Y4563D01*
G01X23903Y4555D01*
G01X23916Y4552D01*
G01X23929Y4550D01*
G01X23942Y4549D01*
G01X23969Y4549D01*
G01X23983Y4550D01*
G01X23997Y4553D01*
G01X24010Y4556D01*
G01X24024Y4559D01*
G01X24037Y4564D01*
G01X24049Y4570D01*
G01X24062Y4576D01*
G01X24073Y4583D01*
G01X24085Y4590D01*
G01X24096Y4599D01*
G01X24106Y4608D01*
G01X24111Y4612D01*
G01X24116Y4615D01*
G01X24122Y4617D01*
G01X24128Y4618D01*
G01X24133Y4619D01*
G01X29794Y4619D01*
G01X29818Y4623D01*
G01X29829Y4626D01*
G01X29840Y4630D01*
G01X29851Y4635D01*
G01X29861Y4641D01*
G01X29871Y4648D01*
G01X29880Y4655D01*
G01X29889Y4663D01*
G01X30401Y5175D01*
G01X30417Y5193D01*
G01X30429Y5213D01*
G01X30434Y5224D01*
G01X30438Y5236D01*
G01X30441Y5247D01*
G01X30443Y5253D01*
G01X30449Y5263D01*
G01X30453Y5268D01*
G01X30463Y5274D01*
G01X30468Y5276D01*
G01X30474Y5278D01*
G01X30486Y5278D01*
G01X30498Y5274D01*
G01X30503Y5271D01*
G01X30508Y5267D01*
G01X30536Y5243D01*
G01X30566Y5221D01*
G01X30582Y5211D01*
G01X30598Y5202D01*
G01X30615Y5193D01*
G01X30649Y5179D01*
G01X30666Y5173D01*
G01X30684Y5167D01*
G01X30720Y5159D01*
G01X30739Y5156D01*
G01X30757Y5154D01*
G01X30776Y5153D01*
G01X30813Y5153D01*
G01X30832Y5154D01*
G01X30850Y5156D01*
G01X30869Y5159D01*
G01X30887Y5163D01*
G01X30923Y5173D01*
G01X30941Y5179D01*
G01X30958Y5186D01*
G01X30992Y5202D01*
G01X31008Y5211D01*
G01X31024Y5221D01*
G01X31054Y5243D01*
G01X31068Y5255D01*
G01X31082Y5268D01*
G01X31095Y5281D01*
G01X31108Y5295D01*
G01X31120Y5309D01*
G01X31142Y5339D01*
G01X31152Y5355D01*
G01X31161Y5371D01*
G01X31177Y5405D01*
G01X31184Y5422D01*
G01X31196Y5458D01*
G01X31204Y5494D01*
G01X31207Y5513D01*
G01X31209Y5531D01*
G01X31210Y5550D01*
G01X31210Y5587D01*
G01X31209Y5606D01*
G01X31207Y5624D01*
G01X31204Y5643D01*
G01X31196Y5679D01*
G01X31184Y5715D01*
G01X31177Y5732D01*
G01X31161Y5766D01*
G01X31152Y5782D01*
G01X31142Y5798D01*
G01X31120Y5828D01*
G01X31108Y5842D01*
G01X31095Y5856D01*
G01X31082Y5869D01*
G01X31068Y5882D01*
G01X31054Y5894D01*
G01X31024Y5916D01*
G01X31008Y5926D01*
G01X30992Y5935D01*
G01X30958Y5951D01*
G01X30941Y5958D01*
G01X30923Y5964D01*
G01X30887Y5974D01*
G01X30869Y5978D01*
G01X30850Y5981D01*
G01X30832Y5983D01*
G01X30813Y5984D01*
G01X30776Y5984D01*
G01X30758Y5983D01*
G01X30740Y5981D01*
G01X30704Y5975D01*
G01X30686Y5970D01*
G01X30669Y5965D01*
G01X30652Y5959D01*
G01X30618Y5945D01*
G01X30602Y5937D01*
G01X30570Y5919D01*
G01X30555Y5908D01*
G01X30540Y5898D01*
G01X30512Y5874D01*
G01X30508Y5870D01*
G01X30502Y5867D01*
G01X30497Y5865D01*
G01X30485Y5863D01*
G01X30480Y5864D01*
G01X30474Y5865D01*
G01X30469Y5867D01*
G01X30459Y5873D01*
G01X30455Y5877D01*
G01X30449Y5887D01*
G01X30447Y5892D01*
G01X30446Y5898D01*
G01X30445Y5903D01*
G01X30445Y5990D01*
G01X30447Y6002D01*
G01X30450Y6008D01*
G01X30453Y6013D01*
G01X30457Y6018D01*
G01X30584Y6145D01*
G01X30596Y6151D01*
G01X30608Y6153D01*
G01X31119Y6153D01*
G01X31128Y6154D01*
G01X31137Y6156D01*
G01X31146Y6159D01*
G01X31155Y6163D01*
G01X31163Y6168D01*
G01X31170Y6173D01*
G01X31178Y6179D01*
G01X31190Y6193D01*
G01X31195Y6200D01*
G01X31200Y6209D01*
G01X31204Y6217D01*
G01X31207Y6226D01*
G01X31209Y6235D01*
G01X31210Y6244D01*
G01X31210Y6893D01*
G01X31209Y6902D01*
G01X31207Y6911D01*
G01X31204Y6920D01*
G01X31200Y6928D01*
G01X31195Y6937D01*
G01X31190Y6944D01*
G01X31184Y6952D01*
G01X31178Y6958D01*
G01X31170Y6964D01*
G01X31163Y6969D01*
G01X31155Y6974D01*
G01X31146Y6978D01*
G01X31137Y6981D01*
G01X31128Y6983D01*
G01X31119Y6984D01*
G01X30470Y6984D01*
G01X30461Y6983D01*
G01X30452Y6981D01*
G01X30443Y6978D01*
G01X30435Y6974D01*
G01X30426Y6969D01*
G01X30419Y6964D01*
G01X30405Y6952D01*
G01X30399Y6944D01*
G01X30394Y6937D01*
G01X30389Y6928D01*
G01X30385Y6920D01*
G01X30382Y6911D01*
G01X30380Y6902D01*
G01X30379Y6893D01*
G01X30379Y6383D01*
G01X30377Y6371D01*
G01X30374Y6365D01*
G01X30371Y6360D01*
G01X30367Y6355D01*
G01X30187Y6176D01*
G01X30179Y6167D01*
G01X30172Y6158D01*
G01X30165Y6148D01*
G01X30160Y6137D01*
G01X30155Y6127D01*
G01X30151Y6116D01*
G01X30147Y6104D01*
G01X30145Y6093D01*
G01X30143Y6069D01*
G01X30143Y5898D01*
G01X30142Y5893D01*
G01X30140Y5887D01*
G01X30137Y5882D01*
G01X30125Y5870D01*
G01X30120Y5868D01*
G01X30114Y5866D01*
G01X30109Y5865D01*
G01X30103Y5864D01*
G01X30091Y5866D01*
G01X30086Y5868D01*
G01X30081Y5871D01*
G01X30076Y5875D01*
G01X30061Y5888D01*
G01X30029Y5912D01*
G01X30012Y5923D01*
G01X29995Y5933D01*
G01X29977Y5942D01*
G01X29977Y5751D01*
G01X30109Y5751D01*
G01X30114Y5749D01*
G01X30120Y5747D01*
G01X30125Y5745D01*
G01X30137Y5733D01*
G01X30140Y5728D01*
G01X30142Y5722D01*
G01X30143Y5717D01*
G01X30143Y5420D01*
G01X30142Y5415D01*
G01X30140Y5409D01*
G01X30137Y5404D01*
G01X30125Y5392D01*
G01X30120Y5390D01*
G01X30114Y5388D01*
G01X30109Y5386D01*
G01X29977Y5386D01*
G01X29977Y5188D01*
G01X29973Y5176D01*
G01X29965Y5166D01*
G01X29888Y5089D01*
G01X29732Y4932D01*
G01X29727Y4928D01*
G01X29721Y4925D01*
G01X29716Y4923D01*
G01X29710Y4921D01*
G01X28450Y4921D01*
G01X28445Y4922D01*
G01X28439Y4924D01*
G01X28434Y4927D01*
G01X28430Y4930D01*
G01X28426Y4935D01*
G01X28422Y4939D01*
G01X28418Y4949D01*
G01X28416Y4955D01*
G01X28416Y4961D01*
G01X28418Y4973D01*
G01X28420Y4979D01*
G01X28428Y4989D01*
G01X29608Y6169D01*
G01X29618Y6177D01*
G01X29624Y6179D01*
G01X29636Y6181D01*
G01X29643Y6180D01*
G01X29650Y6178D01*
G01X29668Y6172D01*
G01X29685Y6167D01*
G01X29721Y6159D01*
G01X29739Y6156D01*
G01X29758Y6154D01*
G01X29776Y6153D01*
G01X29813Y6153D01*
G01X29832Y6154D01*
G01X29850Y6156D01*
G01X29869Y6159D01*
G01X29887Y6163D01*
G01X29923Y6173D01*
G01X29941Y6179D01*
G01X29958Y6186D01*
G01X29992Y6202D01*
G01X30008Y6211D01*
G01X30024Y6221D01*
G01X30054Y6243D01*
G01X30068Y6255D01*
G01X30082Y6268D01*
G01X30095Y6281D01*
G01X30108Y6295D01*
G01X30120Y6309D01*
G01X30142Y6339D01*
G01X30152Y6355D01*
G01X30161Y6371D01*
G01X30177Y6405D01*
G01X30184Y6422D01*
G01X30196Y6458D01*
G01X30204Y6494D01*
G01X30207Y6513D01*
G01X30209Y6531D01*
G01X30210Y6550D01*
G01X30210Y6587D01*
G01X30209Y6606D01*
G01X30207Y6624D01*
G01X30204Y6643D01*
G01X30196Y6679D01*
G01X30184Y6715D01*
G01X30177Y6732D01*
G01X30161Y6766D01*
G01X30152Y6782D01*
G01X30142Y6798D01*
G01X30120Y6828D01*
G01X30108Y6842D01*
G01X30095Y6856D01*
G01X30082Y6869D01*
G01X30068Y6882D01*
G01X30054Y6894D01*
G01X30024Y6916D01*
G01X30008Y6926D01*
G01X29992Y6935D01*
G01X29958Y6951D01*
G01X29941Y6958D01*
G01X29923Y6964D01*
G01X29887Y6974D01*
G01X29869Y6978D01*
G01X29850Y6981D01*
G01X29832Y6983D01*
G01X29813Y6984D01*
G37*
G36*
G01X20111Y6959D02*
G01X20084Y6959D01*
G01X20070Y6958D01*
G01X20057Y6955D01*
G01X20044Y6953D01*
G01X20031Y6949D01*
G01X20005Y6939D01*
G01X19993Y6933D01*
G01X19981Y6926D01*
G01X19970Y6919D01*
G01X19959Y6911D01*
G01X19949Y6902D01*
G01X19939Y6892D01*
G01X19921Y6872D01*
G01X19913Y6861D01*
G01X19906Y6849D01*
G01X19894Y6825D01*
G01X19889Y6812D01*
G01X19885Y6800D01*
G01X19882Y6786D01*
G01X19879Y6773D01*
G01X19877Y6760D01*
G01X19876Y6746D01*
G01X19876Y6740D01*
G01X19874Y6734D01*
G01X19872Y6729D01*
G01X19869Y6724D01*
G01X19865Y6719D01*
G01X18179Y5034D01*
G01X18171Y5025D01*
G01X18164Y5016D01*
G01X18157Y5006D01*
G01X18152Y4996D01*
G01X18147Y4985D01*
G01X18143Y4974D01*
G01X18139Y4962D01*
G01X18137Y4951D01*
G01X18135Y4927D01*
G01X18135Y2022D01*
G01X18131Y2010D01*
G01X18128Y2005D01*
G01X18125Y2001D01*
G01X18115Y1990D01*
G01X18099Y1968D01*
G01X18092Y1956D01*
G01X18086Y1944D01*
G01X18076Y1918D01*
G01X18072Y1905D01*
G01X18069Y1891D01*
G01X18067Y1877D01*
G01X18066Y1864D01*
G01X18065Y1850D01*
G01X18066Y1837D01*
G01X18067Y1823D01*
G01X18069Y1810D01*
G01X18075Y1784D01*
G01X18080Y1772D01*
G01X18085Y1759D01*
G01X18091Y1747D01*
G01X18097Y1736D01*
G01X18104Y1724D01*
G01X18112Y1714D01*
G01X18121Y1703D01*
G01X18140Y1684D01*
G01X18150Y1676D01*
G01X18161Y1668D01*
G01X18172Y1661D01*
G01X18184Y1654D01*
G01X18196Y1648D01*
G01X18208Y1643D01*
G01X18220Y1639D01*
G01X18233Y1635D01*
G01X18246Y1633D01*
G01X18260Y1631D01*
G01X18273Y1629D01*
G01X18300Y1629D01*
G01X18339Y1635D01*
G01X18365Y1643D01*
G01X18377Y1648D01*
G01X18389Y1654D01*
G01X18401Y1661D01*
G01X18412Y1668D01*
G01X18423Y1676D01*
G01X18433Y1684D01*
G01X18442Y1694D01*
G01X18452Y1703D01*
G01X18460Y1714D01*
G01X18468Y1724D01*
G01X18475Y1736D01*
G01X18482Y1747D01*
G01X18488Y1759D01*
G01X18493Y1772D01*
G01X18497Y1784D01*
G01X18501Y1797D01*
G01X18504Y1810D01*
G01X18506Y1823D01*
G01X18507Y1837D01*
G01X18507Y1864D01*
G01X18506Y1877D01*
G01X18500Y1905D01*
G01X18497Y1918D01*
G01X18492Y1931D01*
G01X18486Y1944D01*
G01X18480Y1956D01*
G01X18473Y1968D01*
G01X18457Y1990D01*
G01X18448Y2001D01*
G01X18444Y2005D01*
G01X18441Y2010D01*
G01X18439Y2016D01*
G01X18437Y2028D01*
G01X18437Y4848D01*
G01X18439Y4860D01*
G01X18442Y4866D01*
G01X18445Y4871D01*
G01X18449Y4876D01*
G01X20078Y6506D01*
G01X20083Y6510D01*
G01X20088Y6513D01*
G01X20093Y6515D01*
G01X20099Y6517D01*
G01X20105Y6517D01*
G01X20119Y6518D01*
G01X20132Y6520D01*
G01X20146Y6523D01*
G01X20159Y6526D01*
G01X20172Y6530D01*
G01X20184Y6535D01*
G01X20197Y6541D01*
G01X20208Y6547D01*
G01X20220Y6554D01*
G01X20231Y6562D01*
G01X20242Y6571D01*
G01X20252Y6580D01*
G01X20270Y6600D01*
G01X20278Y6611D01*
G01X20285Y6622D01*
G01X20292Y6634D01*
G01X20298Y6646D01*
G01X20303Y6659D01*
G01X20308Y6671D01*
G01X20312Y6684D01*
G01X20315Y6698D01*
G01X20317Y6711D01*
G01X20318Y6725D01*
G01X20318Y6752D01*
G01X20317Y6765D01*
G01X20315Y6778D01*
G01X20312Y6791D01*
G01X20304Y6817D01*
G01X20299Y6829D01*
G01X20293Y6841D01*
G01X20286Y6853D01*
G01X20279Y6864D01*
G01X20271Y6874D01*
G01X20263Y6885D01*
G01X20244Y6904D01*
G01X20234Y6912D01*
G01X20223Y6920D01*
G01X20212Y6927D01*
G01X20200Y6934D01*
G01X20188Y6940D01*
G01X20176Y6945D01*
G01X20150Y6953D01*
G01X20137Y6956D01*
G01X20124Y6958D01*
G01X20111Y6959D01*
G37*
G36*
G01X25741Y15620D02*
G01X25727Y15621D01*
G01X25714Y15620D01*
G01X25700Y15619D01*
G01X25687Y15617D01*
G01X25673Y15614D01*
G01X25660Y15610D01*
G01X25648Y15606D01*
G01X25635Y15600D01*
G01X25611Y15588D01*
G01X25589Y15572D01*
G01X25569Y15554D01*
G01X25560Y15544D01*
G01X25551Y15533D01*
G01X25543Y15522D01*
G01X25536Y15511D01*
G01X25530Y15499D01*
G01X25524Y15486D01*
G01X25519Y15474D01*
G01X25515Y15461D01*
G01X25512Y15448D01*
G01X25509Y15434D01*
G01X25507Y15421D01*
G01X25506Y15407D01*
G01X25506Y15401D01*
G01X25504Y15396D01*
G01X25502Y15390D01*
G01X25499Y15385D01*
G01X24889Y14775D01*
G01X24884Y14771D01*
G01X24879Y14768D01*
G01X24873Y14765D01*
G01X24861Y14763D01*
G01X23897Y14763D01*
G01X23885Y14765D01*
G01X23880Y14767D01*
G01X23875Y14770D01*
G01X23870Y14774D01*
G01X23860Y14783D01*
G01X23849Y14791D01*
G01X23837Y14799D01*
G01X23825Y14806D01*
G01X23813Y14812D01*
G01X23800Y14818D01*
G01X23787Y14823D01*
G01X23761Y14829D01*
G01X23733Y14833D01*
G01X23706Y14833D01*
G01X23693Y14832D01*
G01X23680Y14830D01*
G01X23667Y14827D01*
G01X23641Y14819D01*
G01X23629Y14814D01*
G01X23617Y14808D01*
G01X23605Y14801D01*
G01X23594Y14794D01*
G01X23583Y14786D01*
G01X23573Y14778D01*
G01X23554Y14759D01*
G01X23545Y14748D01*
G01X23538Y14738D01*
G01X23530Y14727D01*
G01X23518Y14703D01*
G01X23513Y14691D01*
G01X23508Y14678D01*
G01X23502Y14652D01*
G01X23500Y14639D01*
G01X23499Y14626D01*
G01X23498Y14612D01*
G01X23499Y14599D01*
G01X23500Y14585D01*
G01X23502Y14572D01*
G01X23505Y14559D01*
G01X23513Y14533D01*
G01X23518Y14520D01*
G01X23524Y14508D01*
G01X23531Y14497D01*
G01X23538Y14485D01*
G01X23547Y14475D01*
G01X23555Y14464D01*
G01X23565Y14454D01*
G01X23575Y14445D01*
G01X23585Y14437D01*
G01X23596Y14429D01*
G01X23607Y14422D01*
G01X23617Y14414D01*
G01X23620Y14410D01*
G01X23623Y14404D01*
G01X23625Y14399D01*
G01X23627Y14393D01*
G01X23627Y14382D01*
G01X23626Y14376D01*
G01X23624Y14371D01*
G01X23621Y14366D01*
G01X23617Y14361D01*
G01X23613Y14357D01*
G01X23609Y14354D01*
G01X23604Y14351D01*
G01X23598Y14349D01*
G01X23593Y14348D01*
G01X23587Y14347D01*
G01X23317Y14347D01*
G01X23307Y14345D01*
G01X23298Y14343D01*
G01X23289Y14340D01*
G01X23281Y14337D01*
G01X23265Y14327D01*
G01X23258Y14321D01*
G01X23251Y14314D01*
G01X23245Y14307D01*
G01X23235Y14291D01*
G01X23232Y14283D01*
G01X23229Y14274D01*
G01X23225Y14256D01*
G01X23225Y13449D01*
G01X23229Y13431D01*
G01X23232Y13422D01*
G01X23235Y13414D01*
G01X23245Y13398D01*
G01X23251Y13391D01*
G01X23258Y13384D01*
G01X23265Y13378D01*
G01X23281Y13368D01*
G01X23289Y13365D01*
G01X23298Y13362D01*
G01X23307Y13360D01*
G01X23317Y13358D01*
G01X23456Y13358D01*
G01X23462Y13357D01*
G01X23467Y13356D01*
G01X23473Y13354D01*
G01X23478Y13351D01*
G01X23482Y13348D01*
G01X23486Y13344D01*
G01X23490Y13339D01*
G01X23494Y13329D01*
G01X23496Y13323D01*
G01X23496Y13312D01*
G01X23492Y13300D01*
G01X23489Y13295D01*
G01X23485Y13290D01*
G01X23481Y13286D01*
G01X23476Y13283D01*
G01X23459Y13273D01*
G01X23442Y13262D01*
G01X23425Y13250D01*
G01X23409Y13238D01*
G01X23394Y13225D01*
G01X23379Y13211D01*
G01X23351Y13183D01*
G01X23338Y13167D01*
G01X23326Y13152D01*
G01X23314Y13136D01*
G01X23292Y13102D01*
G01X23282Y13084D01*
G01X23273Y13066D01*
G01X23265Y13048D01*
G01X23257Y13029D01*
G01X23239Y12972D01*
G01X23231Y12932D01*
G01X23228Y12913D01*
G01X23226Y12893D01*
G01X23225Y12873D01*
G01X23225Y12833D01*
G01X23226Y12813D01*
G01X23228Y12793D01*
G01X23231Y12773D01*
G01X23235Y12754D01*
G01X23239Y12734D01*
G01X23244Y12715D01*
G01X23250Y12696D01*
G01X23257Y12677D01*
G01X23264Y12659D01*
G01X23273Y12640D01*
G01X23281Y12623D01*
G01X23291Y12605D01*
G01X23301Y12588D01*
G01X23312Y12571D01*
G01X23324Y12555D01*
G01X23336Y12540D01*
G01X23349Y12524D01*
G01X23391Y12482D01*
G01X23407Y12469D01*
G01X23422Y12457D01*
G01X23439Y12445D01*
G01X23455Y12434D01*
G01X23472Y12424D01*
G01X23490Y12414D01*
G01X23507Y12406D01*
G01X23526Y12397D01*
G01X23544Y12390D01*
G01X23563Y12383D01*
G01X23582Y12377D01*
G01X23601Y12372D01*
G01X23621Y12368D01*
G01X23640Y12364D01*
G01X23660Y12361D01*
G01X23680Y12359D01*
G01X23700Y12358D01*
G01X23739Y12358D01*
G01X23759Y12359D01*
G01X23779Y12361D01*
G01X23799Y12364D01*
G01X23818Y12368D01*
G01X23838Y12372D01*
G01X23857Y12377D01*
G01X23876Y12383D01*
G01X23895Y12390D01*
G01X23913Y12397D01*
G01X23932Y12406D01*
G01X23949Y12414D01*
G01X23967Y12424D01*
G01X23984Y12434D01*
G01X24001Y12445D01*
G01X24017Y12457D01*
G01X24032Y12469D01*
G01X24048Y12482D01*
G01X24090Y12524D01*
G01X24103Y12540D01*
G01X24115Y12555D01*
G01X24127Y12571D01*
G01X24138Y12588D01*
G01X24148Y12605D01*
G01X24158Y12623D01*
G01X24166Y12640D01*
G01X24175Y12659D01*
G01X24182Y12677D01*
G01X24189Y12696D01*
G01X24195Y12715D01*
G01X24200Y12734D01*
G01X24204Y12754D01*
G01X24208Y12773D01*
G01X24211Y12793D01*
G01X24213Y12813D01*
G01X24214Y12833D01*
G01X24214Y12873D01*
G01X24213Y12893D01*
G01X24211Y12913D01*
G01X24208Y12932D01*
G01X24200Y12972D01*
G01X24182Y13029D01*
G01X24174Y13048D01*
G01X24166Y13066D01*
G01X24157Y13084D01*
G01X24147Y13102D01*
G01X24125Y13136D01*
G01X24113Y13152D01*
G01X24101Y13167D01*
G01X24088Y13183D01*
G01X24060Y13211D01*
G01X24045Y13225D01*
G01X24030Y13238D01*
G01X24014Y13250D01*
G01X23997Y13262D01*
G01X23981Y13273D01*
G01X23963Y13283D01*
G01X23958Y13286D01*
G01X23954Y13290D01*
G01X23950Y13295D01*
G01X23947Y13300D01*
G01X23943Y13312D01*
G01X23943Y13323D01*
G01X23945Y13329D01*
G01X23949Y13339D01*
G01X23953Y13344D01*
G01X23957Y13348D01*
G01X23961Y13351D01*
G01X23966Y13354D01*
G01X23972Y13356D01*
G01X23977Y13357D01*
G01X23983Y13358D01*
G01X24123Y13358D01*
G01X24141Y13362D01*
G01X24150Y13365D01*
G01X24158Y13368D01*
G01X24174Y13378D01*
G01X24181Y13384D01*
G01X24188Y13391D01*
G01X24194Y13398D01*
G01X24204Y13414D01*
G01X24207Y13422D01*
G01X24213Y13440D01*
G01X24214Y13449D01*
G01X24214Y14256D01*
G01X24213Y14265D01*
G01X24207Y14283D01*
G01X24204Y14291D01*
G01X24194Y14307D01*
G01X24188Y14314D01*
G01X24181Y14321D01*
G01X24174Y14327D01*
G01X24158Y14337D01*
G01X24150Y14340D01*
G01X24141Y14343D01*
G01X24123Y14347D01*
G01X23852Y14347D01*
G01X23840Y14349D01*
G01X23835Y14351D01*
G01X23830Y14354D01*
G01X23826Y14357D01*
G01X23821Y14361D01*
G01X23815Y14371D01*
G01X23813Y14376D01*
G01X23812Y14382D01*
G01X23812Y14393D01*
G01X23813Y14399D01*
G01X23816Y14404D01*
G01X23819Y14410D01*
G01X23822Y14414D01*
G01X23827Y14418D01*
G01X23831Y14422D01*
G01X23845Y14430D01*
G01X23858Y14440D01*
G01X23870Y14450D01*
G01X23875Y14454D01*
G01X23880Y14457D01*
G01X23885Y14459D01*
G01X23891Y14461D01*
G01X24940Y14461D01*
G01X24952Y14462D01*
G01X24963Y14463D01*
G01X24975Y14465D01*
G01X24987Y14469D01*
G01X24998Y14473D01*
G01X25008Y14478D01*
G01X25019Y14483D01*
G01X25029Y14490D01*
G01X25038Y14497D01*
G01X25047Y14505D01*
G01X25708Y15167D01*
G01X25713Y15171D01*
G01X25723Y15177D01*
G01X25735Y15179D01*
G01X25749Y15180D01*
G01X25762Y15181D01*
G01X25775Y15184D01*
G01X25789Y15187D01*
G01X25801Y15191D01*
G01X25814Y15196D01*
G01X25826Y15202D01*
G01X25850Y15216D01*
G01X25861Y15224D01*
G01X25871Y15232D01*
G01X25881Y15241D01*
G01X25891Y15251D01*
G01X25900Y15261D01*
G01X25908Y15272D01*
G01X25915Y15284D01*
G01X25922Y15295D01*
G01X25928Y15308D01*
G01X25933Y15320D01*
G01X25938Y15333D01*
G01X25942Y15346D01*
G01X25944Y15359D01*
G01X25947Y15373D01*
G01X25948Y15386D01*
G01X25948Y15413D01*
G01X25947Y15426D01*
G01X25945Y15439D01*
G01X25942Y15452D01*
G01X25934Y15478D01*
G01X25929Y15490D01*
G01X25923Y15502D01*
G01X25916Y15514D01*
G01X25909Y15525D01*
G01X25901Y15536D01*
G01X25893Y15546D01*
G01X25874Y15565D01*
G01X25864Y15574D01*
G01X25853Y15581D01*
G01X25842Y15589D01*
G01X25818Y15601D01*
G01X25806Y15606D01*
G01X25793Y15611D01*
G01X25767Y15617D01*
G01X25754Y15619D01*
G01X25741Y15620D01*
G37*
G36*
G01X30362Y2167D02*
G01X30306Y2167D01*
G01X30277Y2166D01*
G01X30249Y2164D01*
G01X30221Y2161D01*
G01X30165Y2153D01*
G01X30138Y2148D01*
G01X30110Y2142D01*
G01X30083Y2135D01*
G01X30029Y2119D01*
G01X30002Y2110D01*
G01X29976Y2100D01*
G01X29924Y2078D01*
G01X29898Y2066D01*
G01X29848Y2040D01*
G01X29824Y2025D01*
G01X29800Y2011D01*
G01X29754Y1979D01*
G01X29731Y1962D01*
G01X29687Y1926D01*
G01X29666Y1907D01*
G01X29646Y1888D01*
G01X29626Y1868D01*
G01X29607Y1848D01*
G01X29588Y1827D01*
G01X29552Y1783D01*
G01X29535Y1760D01*
G01X29519Y1737D01*
G01X29504Y1714D01*
G01X29474Y1666D01*
G01X29448Y1616D01*
G01X29436Y1590D01*
G01X29425Y1565D01*
G01X29414Y1538D01*
G01X29404Y1512D01*
G01X29395Y1485D01*
G01X29379Y1431D01*
G01X29373Y1404D01*
G01X29367Y1376D01*
G01X29361Y1349D01*
G01X29353Y1293D01*
G01X29351Y1265D01*
G01X29348Y1237D01*
G01X29347Y1209D01*
G01X29347Y1152D01*
G01X29348Y1124D01*
G01X29351Y1096D01*
G01X29353Y1068D01*
G01X29361Y1012D01*
G01X29367Y984D01*
G01X29379Y930D01*
G01X29387Y902D01*
G01X29395Y875D01*
G01X29404Y849D01*
G01X29414Y822D01*
G01X29436Y770D01*
G01X29448Y745D01*
G01X29474Y695D01*
G01X29519Y623D01*
G01X29535Y600D01*
G01X29552Y578D01*
G01X29588Y534D01*
G01X29607Y513D01*
G01X29626Y493D01*
G01X29666Y453D01*
G01X29687Y435D01*
G01X29709Y416D01*
G01X29731Y399D01*
G01X29754Y382D01*
G01X29800Y350D01*
G01X29824Y335D01*
G01X29848Y321D01*
G01X29898Y295D01*
G01X29950Y271D01*
G01X30002Y251D01*
G01X30029Y242D01*
G01X30083Y226D01*
G01X30110Y219D01*
G01X30138Y213D01*
G01X30165Y208D01*
G01X30221Y200D01*
G01X30249Y197D01*
G01X30277Y195D01*
G01X30306Y194D01*
G01X30362Y194D01*
G01X30390Y195D01*
G01X30418Y197D01*
G01X30446Y200D01*
G01X30502Y208D01*
G01X30530Y213D01*
G01X30557Y219D01*
G01X30585Y226D01*
G01X30639Y242D01*
G01X30665Y251D01*
G01X30692Y261D01*
G01X30718Y271D01*
G01X30744Y283D01*
G01X30769Y295D01*
G01X30819Y321D01*
G01X30843Y335D01*
G01X30867Y350D01*
G01X30891Y366D01*
G01X30914Y382D01*
G01X30958Y416D01*
G01X30980Y435D01*
G01X31001Y453D01*
G01X31061Y513D01*
G01X31080Y534D01*
G01X31098Y556D01*
G01X31132Y600D01*
G01X31148Y623D01*
G01X31164Y647D01*
G01X31179Y671D01*
G01X31193Y695D01*
G01X31219Y745D01*
G01X31231Y770D01*
G01X31243Y796D01*
G01X31253Y822D01*
G01X31263Y849D01*
G01X31272Y875D01*
G01X31281Y902D01*
G01X31288Y930D01*
G01X31295Y957D01*
G01X31301Y984D01*
G01X31306Y1012D01*
G01X31314Y1068D01*
G01X31317Y1096D01*
G01X31319Y1124D01*
G01X31321Y1180D01*
G01X31320Y1209D01*
G01X31319Y1237D01*
G01X31317Y1265D01*
G01X31314Y1293D01*
G01X31306Y1349D01*
G01X31301Y1376D01*
G01X31295Y1404D01*
G01X31281Y1458D01*
G01X31263Y1512D01*
G01X31253Y1538D01*
G01X31243Y1565D01*
G01X31231Y1590D01*
G01X31219Y1616D01*
G01X31193Y1666D01*
G01X31179Y1690D01*
G01X31164Y1714D01*
G01X31132Y1760D01*
G01X31115Y1783D01*
G01X31098Y1805D01*
G01X31080Y1827D01*
G01X31061Y1848D01*
G01X31021Y1888D01*
G01X31001Y1907D01*
G01X30980Y1926D01*
G01X30936Y1962D01*
G01X30914Y1979D01*
G01X30891Y1995D01*
G01X30867Y2011D01*
G01X30843Y2025D01*
G01X30819Y2040D01*
G01X30769Y2066D01*
G01X30744Y2078D01*
G01X30692Y2100D01*
G01X30665Y2110D01*
G01X30639Y2119D01*
G01X30585Y2135D01*
G01X30557Y2142D01*
G01X30530Y2148D01*
G01X30502Y2153D01*
G01X30446Y2161D01*
G01X30418Y2164D01*
G01X30390Y2166D01*
G01X30362Y2167D01*
G37*
G36*
G01X30390Y23426D02*
G01X30334Y23428D01*
G01X30305Y23427D01*
G01X30277Y23426D01*
G01X30249Y23424D01*
G01X30221Y23421D01*
G01X30165Y23413D01*
G01X30138Y23408D01*
G01X30110Y23402D01*
G01X30056Y23388D01*
G01X30002Y23370D01*
G01X29950Y23350D01*
G01X29898Y23326D01*
G01X29848Y23300D01*
G01X29824Y23286D01*
G01X29800Y23271D01*
G01X29754Y23239D01*
G01X29731Y23222D01*
G01X29709Y23205D01*
G01X29687Y23186D01*
G01X29666Y23168D01*
G01X29626Y23128D01*
G01X29607Y23108D01*
G01X29588Y23087D01*
G01X29552Y23043D01*
G01X29535Y23021D01*
G01X29519Y22998D01*
G01X29503Y22974D01*
G01X29489Y22950D01*
G01X29474Y22926D01*
G01X29448Y22876D01*
G01X29436Y22851D01*
G01X29414Y22799D01*
G01X29404Y22772D01*
G01X29395Y22746D01*
G01X29379Y22692D01*
G01X29372Y22664D01*
G01X29366Y22637D01*
G01X29361Y22609D01*
G01X29353Y22553D01*
G01X29350Y22525D01*
G01X29348Y22497D01*
G01X29347Y22469D01*
G01X29347Y22413D01*
G01X29348Y22384D01*
G01X29350Y22356D01*
G01X29353Y22328D01*
G01X29361Y22272D01*
G01X29366Y22245D01*
G01X29372Y22217D01*
G01X29379Y22190D01*
G01X29395Y22136D01*
G01X29404Y22109D01*
G01X29414Y22083D01*
G01X29436Y22031D01*
G01X29448Y22005D01*
G01X29474Y21955D01*
G01X29489Y21931D01*
G01X29503Y21907D01*
G01X29535Y21861D01*
G01X29552Y21838D01*
G01X29588Y21794D01*
G01X29607Y21773D01*
G01X29626Y21753D01*
G01X29646Y21733D01*
G01X29666Y21714D01*
G01X29687Y21695D01*
G01X29731Y21659D01*
G01X29754Y21642D01*
G01X29777Y21626D01*
G01X29800Y21611D01*
G01X29848Y21581D01*
G01X29898Y21555D01*
G01X29924Y21543D01*
G01X29976Y21521D01*
G01X30002Y21511D01*
G01X30029Y21502D01*
G01X30083Y21486D01*
G01X30110Y21480D01*
G01X30138Y21474D01*
G01X30165Y21468D01*
G01X30221Y21460D01*
G01X30249Y21457D01*
G01X30277Y21455D01*
G01X30305Y21454D01*
G01X30362Y21454D01*
G01X30390Y21455D01*
G01X30418Y21457D01*
G01X30446Y21460D01*
G01X30502Y21468D01*
G01X30530Y21474D01*
G01X30557Y21480D01*
G01X30585Y21486D01*
G01X30639Y21502D01*
G01X30665Y21511D01*
G01X30692Y21521D01*
G01X30744Y21543D01*
G01X30769Y21555D01*
G01X30819Y21581D01*
G01X30891Y21626D01*
G01X30914Y21642D01*
G01X30936Y21659D01*
G01X30980Y21695D01*
G01X31001Y21714D01*
G01X31021Y21733D01*
G01X31061Y21773D01*
G01X31079Y21794D01*
G01X31098Y21816D01*
G01X31115Y21838D01*
G01X31132Y21861D01*
G01X31164Y21907D01*
G01X31179Y21931D01*
G01X31193Y21955D01*
G01X31219Y22005D01*
G01X31243Y22057D01*
G01X31263Y22109D01*
G01X31281Y22163D01*
G01X31295Y22217D01*
G01X31301Y22245D01*
G01X31306Y22272D01*
G01X31314Y22328D01*
G01X31317Y22356D01*
G01X31319Y22384D01*
G01X31320Y22413D01*
G01X31320Y22469D01*
G01X31319Y22497D01*
G01X31317Y22525D01*
G01X31314Y22553D01*
G01X31306Y22609D01*
G01X31301Y22637D01*
G01X31295Y22664D01*
G01X31288Y22692D01*
G01X31281Y22719D01*
G01X31272Y22746D01*
G01X31263Y22772D01*
G01X31253Y22799D01*
G01X31243Y22825D01*
G01X31231Y22851D01*
G01X31219Y22876D01*
G01X31193Y22926D01*
G01X31179Y22950D01*
G01X31164Y22974D01*
G01X31148Y22998D01*
G01X31132Y23021D01*
G01X31098Y23065D01*
G01X31079Y23087D01*
G01X31061Y23108D01*
G01X31001Y23168D01*
G01X30980Y23186D01*
G01X30958Y23205D01*
G01X30914Y23239D01*
G01X30891Y23255D01*
G01X30867Y23271D01*
G01X30843Y23286D01*
G01X30819Y23300D01*
G01X30769Y23326D01*
G01X30744Y23338D01*
G01X30718Y23350D01*
G01X30692Y23360D01*
G01X30665Y23370D01*
G01X30639Y23379D01*
G01X30612Y23388D01*
G01X30585Y23395D01*
G01X30557Y23402D01*
G01X30530Y23408D01*
G01X30502Y23413D01*
G01X30446Y23421D01*
G01X30418Y23424D01*
G01X30390Y23426D01*
G37*
G36*
G01X26562Y3573D02*
G01X26535Y3573D01*
G01X26522Y3572D01*
G01X26509Y3570D01*
G01X26496Y3567D01*
G01X26470Y3559D01*
G01X26458Y3554D01*
G01X26434Y3542D01*
G01X26412Y3526D01*
G01X26402Y3518D01*
G01X26392Y3509D01*
G01X26383Y3499D01*
G01X26375Y3489D01*
G01X26359Y3467D01*
G01X26347Y3443D01*
G01X26342Y3431D01*
G01X26334Y3405D01*
G01X26331Y3392D01*
G01X26329Y3379D01*
G01X26328Y3366D01*
G01X26328Y3339D01*
G01X26329Y3325D01*
G01X26331Y3311D01*
G01X26334Y3298D01*
G01X26338Y3284D01*
G01X26343Y3271D01*
G01X26348Y3259D01*
G01X26355Y3246D01*
G01X26362Y3235D01*
G01X26369Y3223D01*
G01X26378Y3212D01*
G01X26387Y3202D01*
G01X26391Y3197D01*
G01X26394Y3192D01*
G01X26396Y3186D01*
G01X26397Y3181D01*
G01X26398Y3175D01*
G01X26398Y2363D01*
G01X26396Y2351D01*
G01X26393Y2345D01*
G01X26390Y2340D01*
G01X26386Y2335D01*
G01X26329Y2278D01*
G01X26321Y2269D01*
G01X26314Y2260D01*
G01X26307Y2250D01*
G01X26301Y2240D01*
G01X26296Y2229D01*
G01X26292Y2218D01*
G01X26289Y2207D01*
G01X26285Y2183D01*
G01X26285Y2041D01*
G01X26287Y2030D01*
G01X26289Y2018D01*
G01X26292Y2006D01*
G01X26296Y1995D01*
G01X26301Y1985D01*
G01X26307Y1974D01*
G01X26314Y1964D01*
G01X26321Y1955D01*
G01X26329Y1946D01*
G01X26565Y1710D01*
G01X26574Y1702D01*
G01X26583Y1695D01*
G01X26593Y1688D01*
G01X26604Y1682D01*
G01X26614Y1677D01*
G01X26625Y1673D01*
G01X26637Y1670D01*
G01X26648Y1668D01*
G01X26660Y1666D01*
G01X26920Y1666D01*
G01X26944Y1670D01*
G01X26955Y1673D01*
G01X26966Y1677D01*
G01X26977Y1682D01*
G01X26987Y1688D01*
G01X26997Y1695D01*
G01X27006Y1702D01*
G01X27015Y1710D01*
G01X27169Y1864D01*
G01X27175Y1867D01*
G01X27180Y1869D01*
G01X27186Y1871D01*
G01X27192Y1872D01*
G01X27205Y1873D01*
G01X27219Y1874D01*
G01X27245Y1880D01*
G01X27258Y1884D01*
G01X27271Y1889D01*
G01X27295Y1901D01*
G01X27307Y1909D01*
G01X27318Y1917D01*
G01X27328Y1925D01*
G01X27338Y1934D01*
G01X27348Y1944D01*
G01X27356Y1954D01*
G01X27365Y1965D01*
G01X27372Y1976D01*
G01X27379Y1988D01*
G01X27385Y2000D01*
G01X27395Y2026D01*
G01X27401Y2052D01*
G01X27403Y2065D01*
G01X27405Y2079D01*
G01X27405Y2093D01*
G01X27404Y2106D01*
G01X27403Y2120D01*
G01X27401Y2134D01*
G01X27398Y2147D01*
G01X27394Y2161D01*
G01X27390Y2174D01*
G01X27384Y2186D01*
G01X27378Y2199D01*
G01X27371Y2211D01*
G01X27355Y2233D01*
G01X27345Y2243D01*
G01X27336Y2253D01*
G01X27314Y2271D01*
G01X27303Y2279D01*
G01X27291Y2286D01*
G01X27273Y2295D01*
G01X27268Y2299D01*
G01X27264Y2304D01*
G01X27258Y2316D01*
G01X27256Y2328D01*
G01X27257Y2334D01*
G01X27258Y2341D01*
G01X27260Y2346D01*
G01X27264Y2352D01*
G01X27268Y2356D01*
G01X27527Y2616D01*
G01X27535Y2624D01*
G01X27549Y2644D01*
G01X27555Y2654D01*
G01X27560Y2665D01*
G01X27564Y2676D01*
G01X27567Y2687D01*
G01X27571Y2711D01*
G01X27571Y3175D01*
G01X27572Y3181D01*
G01X27573Y3186D01*
G01X27575Y3192D01*
G01X27578Y3197D01*
G01X27582Y3202D01*
G01X27591Y3212D01*
G01X27599Y3223D01*
G01X27607Y3235D01*
G01X27614Y3247D01*
G01X27620Y3259D01*
G01X27626Y3272D01*
G01X27634Y3298D01*
G01X27637Y3311D01*
G01X27641Y3339D01*
G01X27641Y3366D01*
G01X27640Y3379D01*
G01X27638Y3392D01*
G01X27635Y3405D01*
G01X27627Y3431D01*
G01X27622Y3443D01*
G01X27616Y3455D01*
G01X27609Y3467D01*
G01X27602Y3478D01*
G01X27594Y3489D01*
G01X27586Y3499D01*
G01X27567Y3518D01*
G01X27556Y3526D01*
G01X27546Y3534D01*
G01X27534Y3542D01*
G01X27523Y3548D01*
G01X27511Y3554D01*
G01X27498Y3559D01*
G01X27486Y3563D01*
G01X27473Y3567D01*
G01X27460Y3570D01*
G01X27447Y3572D01*
G01X27433Y3573D01*
G01X27407Y3573D01*
G01X27393Y3572D01*
G01X27380Y3570D01*
G01X27367Y3567D01*
G01X27354Y3563D01*
G01X27342Y3559D01*
G01X27329Y3554D01*
G01X27317Y3548D01*
G01X27306Y3542D01*
G01X27284Y3526D01*
G01X27274Y3518D01*
G01X27264Y3509D01*
G01X27246Y3489D01*
G01X27238Y3478D01*
G01X27231Y3467D01*
G01X27224Y3455D01*
G01X27219Y3443D01*
G01X27213Y3431D01*
G01X27209Y3418D01*
G01X27203Y3392D01*
G01X27201Y3379D01*
G01X27200Y3366D01*
G01X27199Y3352D01*
G01X27200Y3339D01*
G01X27201Y3325D01*
G01X27203Y3311D01*
G01X27206Y3298D01*
G01X27210Y3284D01*
G01X27214Y3271D01*
G01X27220Y3259D01*
G01X27226Y3246D01*
G01X27233Y3235D01*
G01X27241Y3223D01*
G01X27249Y3212D01*
G01X27258Y3202D01*
G01X27262Y3197D01*
G01X27265Y3192D01*
G01X27269Y3180D01*
G01X27269Y2795D01*
G01X27265Y2783D01*
G01X27262Y2778D01*
G01X26805Y2321D01*
G01X26800Y2318D01*
G01X26788Y2314D01*
G01X26782Y2313D01*
G01X26765Y2312D01*
G01X26747Y2309D01*
G01X26734Y2309D01*
G01X26728Y2310D01*
G01X26723Y2312D01*
G01X26713Y2318D01*
G01X26709Y2322D01*
G01X26703Y2332D01*
G01X26701Y2337D01*
G01X26700Y2343D01*
G01X26700Y3181D01*
G01X26701Y3186D01*
G01X26704Y3192D01*
G01X26710Y3202D01*
G01X26719Y3212D01*
G01X26728Y3223D01*
G01X26736Y3235D01*
G01X26743Y3246D01*
G01X26749Y3259D01*
G01X26754Y3271D01*
G01X26759Y3284D01*
G01X26763Y3298D01*
G01X26766Y3311D01*
G01X26768Y3325D01*
G01X26769Y3339D01*
G01X26770Y3352D01*
G01X26769Y3366D01*
G01X26768Y3379D01*
G01X26766Y3392D01*
G01X26760Y3418D01*
G01X26755Y3431D01*
G01X26750Y3443D01*
G01X26738Y3467D01*
G01X26731Y3478D01*
G01X26723Y3489D01*
G01X26705Y3509D01*
G01X26695Y3518D01*
G01X26685Y3526D01*
G01X26663Y3542D01*
G01X26639Y3554D01*
G01X26627Y3559D01*
G01X26614Y3563D01*
G01X26602Y3567D01*
G01X26588Y3570D01*
G01X26575Y3572D01*
G01X26562Y3573D01*
G37*
G36*
G01X29775Y3965D02*
G01X29735Y3965D01*
G01X29715Y3964D01*
G01X29695Y3962D01*
G01X29675Y3959D01*
G01X29656Y3955D01*
G01X29636Y3951D01*
G01X29617Y3946D01*
G01X29598Y3940D01*
G01X29579Y3933D01*
G01X29561Y3926D01*
G01X29542Y3917D01*
G01X29525Y3909D01*
G01X29507Y3899D01*
G01X29490Y3889D01*
G01X29474Y3878D01*
G01X29457Y3866D01*
G01X29442Y3854D01*
G01X29426Y3841D01*
G01X29384Y3799D01*
G01X29371Y3783D01*
G01X29359Y3768D01*
G01X29347Y3752D01*
G01X29336Y3735D01*
G01X29326Y3718D01*
G01X29316Y3700D01*
G01X29308Y3683D01*
G01X29299Y3664D01*
G01X29292Y3646D01*
G01X29285Y3627D01*
G01X29279Y3608D01*
G01X29274Y3589D01*
G01X29270Y3569D01*
G01X29266Y3550D01*
G01X29263Y3530D01*
G01X29261Y3510D01*
G01X29260Y3490D01*
G01X29260Y3451D01*
G01X29261Y3431D01*
G01X29263Y3411D01*
G01X29266Y3391D01*
G01X29270Y3372D01*
G01X29274Y3352D01*
G01X29279Y3333D01*
G01X29285Y3314D01*
G01X29292Y3295D01*
G01X29299Y3277D01*
G01X29308Y3258D01*
G01X29316Y3241D01*
G01X29326Y3223D01*
G01X29336Y3206D01*
G01X29347Y3189D01*
G01X29359Y3173D01*
G01X29371Y3158D01*
G01X29384Y3142D01*
G01X29426Y3100D01*
G01X29442Y3087D01*
G01X29457Y3075D01*
G01X29474Y3063D01*
G01X29490Y3052D01*
G01X29507Y3042D01*
G01X29525Y3032D01*
G01X29542Y3024D01*
G01X29561Y3015D01*
G01X29579Y3008D01*
G01X29598Y3001D01*
G01X29617Y2995D01*
G01X29636Y2990D01*
G01X29656Y2986D01*
G01X29675Y2982D01*
G01X29695Y2979D01*
G01X29715Y2977D01*
G01X29735Y2976D01*
G01X29775Y2976D01*
G01X29795Y2977D01*
G01X29815Y2979D01*
G01X29835Y2982D01*
G01X29854Y2986D01*
G01X29874Y2990D01*
G01X29931Y3008D01*
G01X29950Y3016D01*
G01X29968Y3024D01*
G01X29986Y3033D01*
G01X30004Y3043D01*
G01X30038Y3065D01*
G01X30070Y3089D01*
G01X30085Y3102D01*
G01X30099Y3116D01*
G01X30114Y3130D01*
G01X30140Y3160D01*
G01X30152Y3176D01*
G01X30164Y3193D01*
G01X30175Y3210D01*
G01X30185Y3227D01*
G01X30188Y3232D01*
G01X30192Y3236D01*
G01X30197Y3240D01*
G01X30202Y3243D01*
G01X30214Y3247D01*
G01X30226Y3247D01*
G01X30241Y3241D01*
G01X30246Y3237D01*
G01X30250Y3233D01*
G01X30253Y3229D01*
G01X30256Y3224D01*
G01X30258Y3218D01*
G01X30259Y3213D01*
G01X30260Y3207D01*
G01X30260Y3067D01*
G01X30264Y3049D01*
G01X30267Y3040D01*
G01X30270Y3032D01*
G01X30280Y3016D01*
G01X30286Y3009D01*
G01X30293Y3002D01*
G01X30300Y2996D01*
G01X30316Y2986D01*
G01X30324Y2983D01*
G01X30333Y2980D01*
G01X30342Y2978D01*
G01X30352Y2976D01*
G01X31158Y2976D01*
G01X31176Y2980D01*
G01X31185Y2983D01*
G01X31193Y2986D01*
G01X31209Y2996D01*
G01X31216Y3002D01*
G01X31223Y3009D01*
G01X31229Y3016D01*
G01X31239Y3032D01*
G01X31242Y3040D01*
G01X31248Y3058D01*
G01X31249Y3067D01*
G01X31249Y3874D01*
G01X31248Y3883D01*
G01X31242Y3901D01*
G01X31239Y3909D01*
G01X31229Y3925D01*
G01X31223Y3932D01*
G01X31216Y3939D01*
G01X31209Y3945D01*
G01X31193Y3955D01*
G01X31185Y3958D01*
G01X31176Y3961D01*
G01X31158Y3965D01*
G01X30352Y3965D01*
G01X30342Y3963D01*
G01X30333Y3961D01*
G01X30324Y3958D01*
G01X30316Y3955D01*
G01X30300Y3945D01*
G01X30293Y3939D01*
G01X30286Y3932D01*
G01X30280Y3925D01*
G01X30270Y3909D01*
G01X30267Y3901D01*
G01X30264Y3892D01*
G01X30260Y3874D01*
G01X30260Y3734D01*
G01X30259Y3728D01*
G01X30258Y3723D01*
G01X30256Y3717D01*
G01X30253Y3712D01*
G01X30250Y3708D01*
G01X30246Y3704D01*
G01X30241Y3700D01*
G01X30226Y3694D01*
G01X30214Y3694D01*
G01X30202Y3698D01*
G01X30197Y3701D01*
G01X30192Y3705D01*
G01X30188Y3709D01*
G01X30185Y3714D01*
G01X30175Y3732D01*
G01X30164Y3748D01*
G01X30152Y3765D01*
G01X30140Y3781D01*
G01X30114Y3811D01*
G01X30099Y3825D01*
G01X30085Y3839D01*
G01X30070Y3852D01*
G01X30038Y3876D01*
G01X30004Y3898D01*
G01X29986Y3908D01*
G01X29968Y3917D01*
G01X29950Y3925D01*
G01X29931Y3933D01*
G01X29874Y3951D01*
G01X29854Y3955D01*
G01X29835Y3959D01*
G01X29815Y3962D01*
G01X29795Y3964D01*
G01X29775Y3965D01*
G37*
G36*
G01X26906Y9704D02*
G01X26896Y9705D01*
G01X26876Y9703D01*
G01X26866Y9701D01*
G01X26848Y9693D01*
G01X26840Y9688D01*
G01X26832Y9682D01*
G01X26824Y9675D01*
G01X26407Y9258D01*
G01X26400Y9250D01*
G01X26394Y9242D01*
G01X26389Y9234D01*
G01X26385Y9225D01*
G01X26382Y9216D01*
G01X26379Y9206D01*
G01X26377Y9186D01*
G01X26378Y9176D01*
G01X26379Y9167D01*
G01X26382Y9157D01*
G01X26385Y9148D01*
G01X26389Y9139D01*
G01X26394Y9130D01*
G01X26400Y9122D01*
G01X26407Y9115D01*
G01X26824Y8697D01*
G01X26840Y8685D01*
G01X26848Y8680D01*
G01X26857Y8675D01*
G01X26866Y8672D01*
G01X26886Y8668D01*
G01X26906Y8668D01*
G01X26915Y8670D01*
G01X26925Y8672D01*
G01X26934Y8675D01*
G01X26952Y8685D01*
G01X26960Y8691D01*
G01X26967Y8697D01*
G01X27385Y9115D01*
G01X27391Y9122D01*
G01X27397Y9130D01*
G01X27407Y9148D01*
G01X27410Y9157D01*
G01X27412Y9167D01*
G01X27414Y9176D01*
G01X27414Y9196D01*
G01X27410Y9216D01*
G01X27407Y9225D01*
G01X27402Y9234D01*
G01X27397Y9242D01*
G01X27385Y9258D01*
G01X26967Y9675D01*
G01X26960Y9682D01*
G01X26952Y9688D01*
G01X26943Y9693D01*
G01X26925Y9701D01*
G01X26915Y9703D01*
G01X26906Y9704D01*
G37*
G36*
G01X22764Y15848D02*
G01X22391Y15848D01*
G01X22373Y15844D01*
G01X22364Y15841D01*
G01X22355Y15837D01*
G01X22347Y15833D01*
G01X22340Y15828D01*
G01X22332Y15822D01*
G01X22320Y15808D01*
G01X22310Y15792D01*
G01X22306Y15783D01*
G01X22303Y15775D01*
G01X22301Y15766D01*
G01X22300Y15756D01*
G01X22299Y15747D01*
G01X22299Y15117D01*
G01X22300Y15108D01*
G01X22301Y15098D01*
G01X22303Y15089D01*
G01X22306Y15081D01*
G01X22310Y15072D01*
G01X22320Y15056D01*
G01X22332Y15042D01*
G01X22340Y15036D01*
G01X22347Y15031D01*
G01X22355Y15027D01*
G01X22364Y15023D01*
G01X22373Y15020D01*
G01X22391Y15016D01*
G01X22755Y15016D01*
G01X22764Y15017D01*
G01X22774Y15018D01*
G01X22783Y15020D01*
G01X22792Y15023D01*
G01X22801Y15027D01*
G01X22809Y15032D01*
G01X22825Y15044D01*
G01X22831Y15051D01*
G01X22837Y15059D01*
G01X22842Y15067D01*
G01X22846Y15072D01*
G01X22854Y15080D01*
G01X22860Y15083D01*
G01X22865Y15085D01*
G01X22871Y15087D01*
G01X22877Y15087D01*
G01X22884Y15086D01*
G01X22890Y15085D01*
G01X22897Y15082D01*
G01X22902Y15078D01*
G01X22928Y15060D01*
G01X22941Y15052D01*
G01X22955Y15044D01*
G01X22985Y15032D01*
G01X23000Y15027D01*
G01X23015Y15023D01*
G01X23030Y15020D01*
G01X23062Y15016D01*
G01X23093Y15016D01*
G01X23109Y15018D01*
G01X23124Y15020D01*
G01X23140Y15023D01*
G01X23155Y15027D01*
G01X23185Y15037D01*
G01X23213Y15051D01*
G01X23226Y15059D01*
G01X23252Y15077D01*
G01X23264Y15088D01*
G01X23286Y15110D01*
G01X23296Y15122D01*
G01X23300Y15127D01*
G01X23310Y15133D01*
G01X23316Y15136D01*
G01X23322Y15137D01*
G01X23334Y15137D01*
G01X23339Y15136D01*
G01X23345Y15133D01*
G01X23355Y15127D01*
G01X23359Y15122D01*
G01X23389Y15089D01*
G01X23401Y15079D01*
G01X23412Y15070D01*
G01X23425Y15062D01*
G01X23437Y15054D01*
G01X23450Y15047D01*
G01X23464Y15040D01*
G01X23464Y15249D01*
G01X23396Y15249D01*
G01X23384Y15251D01*
G01X23379Y15253D01*
G01X23369Y15259D01*
G01X23365Y15263D01*
G01X23359Y15273D01*
G01X23357Y15278D01*
G01X23356Y15284D01*
G01X23356Y15580D01*
G01X23357Y15586D01*
G01X23359Y15591D01*
G01X23365Y15601D01*
G01X23369Y15605D01*
G01X23379Y15611D01*
G01X23384Y15613D01*
G01X23390Y15614D01*
G01X23464Y15614D01*
G01X23464Y15824D01*
G01X23450Y15817D01*
G01X23437Y15810D01*
G01X23425Y15802D01*
G01X23412Y15794D01*
G01X23401Y15784D01*
G01X23389Y15775D01*
G01X23359Y15742D01*
G01X23355Y15737D01*
G01X23345Y15731D01*
G01X23339Y15728D01*
G01X23334Y15727D01*
G01X23322Y15727D01*
G01X23316Y15728D01*
G01X23310Y15731D01*
G01X23300Y15737D01*
G01X23296Y15742D01*
G01X23286Y15754D01*
G01X23264Y15776D01*
G01X23252Y15786D01*
G01X23239Y15796D01*
G01X23226Y15805D01*
G01X23213Y15813D01*
G01X23199Y15820D01*
G01X23185Y15826D01*
G01X23170Y15832D01*
G01X23155Y15837D01*
G01X23140Y15841D01*
G01X23124Y15844D01*
G01X23109Y15846D01*
G01X23093Y15847D01*
G01X23078Y15848D01*
G01X23046Y15846D01*
G01X23030Y15844D01*
G01X23015Y15841D01*
G01X23000Y15837D01*
G01X22985Y15832D01*
G01X22955Y15820D01*
G01X22942Y15812D01*
G01X22928Y15804D01*
G01X22902Y15786D01*
G01X22897Y15782D01*
G01X22891Y15779D01*
G01X22884Y15777D01*
G01X22871Y15777D01*
G01X22865Y15779D01*
G01X22860Y15781D01*
G01X22855Y15784D01*
G01X22850Y15788D01*
G01X22846Y15792D01*
G01X22842Y15797D01*
G01X22837Y15805D01*
G01X22831Y15813D01*
G01X22825Y15820D01*
G01X22817Y15826D01*
G01X22810Y15832D01*
G01X22801Y15837D01*
G01X22792Y15841D01*
G01X22783Y15844D01*
G01X22774Y15846D01*
G01X22764Y15848D01*
G37*
G36*
G01X30813Y8150D02*
G01X30776Y8150D01*
G01X30757Y8149D01*
G01X30739Y8147D01*
G01X30720Y8144D01*
G01X30702Y8140D01*
G01X30666Y8130D01*
G01X30648Y8124D01*
G01X30631Y8117D01*
G01X30597Y8101D01*
G01X30581Y8092D01*
G01X30565Y8082D01*
G01X30535Y8060D01*
G01X30521Y8048D01*
G01X30507Y8035D01*
G01X30494Y8022D01*
G01X30481Y8008D01*
G01X30469Y7994D01*
G01X30447Y7964D01*
G01X30437Y7948D01*
G01X30428Y7932D01*
G01X30412Y7898D01*
G01X30405Y7881D01*
G01X30399Y7863D01*
G01X30389Y7827D01*
G01X30385Y7809D01*
G01X30382Y7790D01*
G01X30380Y7772D01*
G01X30379Y7753D01*
G01X30379Y7716D01*
G01X30380Y7697D01*
G01X30382Y7679D01*
G01X30385Y7660D01*
G01X30389Y7642D01*
G01X30399Y7606D01*
G01X30405Y7588D01*
G01X30412Y7571D01*
G01X30428Y7537D01*
G01X30437Y7521D01*
G01X30447Y7505D01*
G01X30469Y7475D01*
G01X30481Y7461D01*
G01X30494Y7447D01*
G01X30507Y7434D01*
G01X30521Y7421D01*
G01X30535Y7409D01*
G01X30565Y7387D01*
G01X30581Y7377D01*
G01X30597Y7368D01*
G01X30631Y7352D01*
G01X30648Y7345D01*
G01X30666Y7339D01*
G01X30702Y7329D01*
G01X30720Y7325D01*
G01X30739Y7322D01*
G01X30757Y7320D01*
G01X30776Y7319D01*
G01X30813Y7319D01*
G01X30832Y7320D01*
G01X30850Y7322D01*
G01X30869Y7325D01*
G01X30887Y7329D01*
G01X30923Y7339D01*
G01X30941Y7345D01*
G01X30958Y7352D01*
G01X30992Y7368D01*
G01X31008Y7377D01*
G01X31024Y7387D01*
G01X31054Y7409D01*
G01X31068Y7421D01*
G01X31082Y7434D01*
G01X31095Y7447D01*
G01X31108Y7461D01*
G01X31120Y7475D01*
G01X31142Y7505D01*
G01X31152Y7521D01*
G01X31161Y7537D01*
G01X31177Y7571D01*
G01X31184Y7588D01*
G01X31196Y7624D01*
G01X31204Y7660D01*
G01X31207Y7679D01*
G01X31209Y7697D01*
G01X31210Y7716D01*
G01X31210Y7753D01*
G01X31209Y7772D01*
G01X31207Y7790D01*
G01X31204Y7809D01*
G01X31196Y7845D01*
G01X31184Y7881D01*
G01X31177Y7898D01*
G01X31161Y7932D01*
G01X31152Y7948D01*
G01X31142Y7964D01*
G01X31120Y7994D01*
G01X31108Y8008D01*
G01X31095Y8022D01*
G01X31082Y8035D01*
G01X31068Y8048D01*
G01X31054Y8060D01*
G01X31024Y8082D01*
G01X31008Y8092D01*
G01X30992Y8101D01*
G01X30958Y8117D01*
G01X30941Y8124D01*
G01X30923Y8130D01*
G01X30887Y8140D01*
G01X30869Y8144D01*
G01X30850Y8147D01*
G01X30832Y8149D01*
G01X30813Y8150D01*
G37*
G36*
G01X30119Y8150D02*
G01X29470Y8150D01*
G01X29461Y8149D01*
G01X29452Y8147D01*
G01X29443Y8144D01*
G01X29435Y8140D01*
G01X29426Y8135D01*
G01X29419Y8130D01*
G01X29405Y8118D01*
G01X29399Y8110D01*
G01X29394Y8103D01*
G01X29389Y8094D01*
G01X29385Y8086D01*
G01X29382Y8077D01*
G01X29380Y8068D01*
G01X29379Y8059D01*
G01X29379Y7410D01*
G01X29380Y7401D01*
G01X29382Y7392D01*
G01X29385Y7383D01*
G01X29389Y7375D01*
G01X29394Y7366D01*
G01X29399Y7359D01*
G01X29405Y7352D01*
G01X29412Y7345D01*
G01X29419Y7339D01*
G01X29426Y7334D01*
G01X29435Y7329D01*
G01X29443Y7325D01*
G01X29452Y7322D01*
G01X29461Y7320D01*
G01X29470Y7319D01*
G01X30119Y7319D01*
G01X30128Y7320D01*
G01X30137Y7322D01*
G01X30146Y7325D01*
G01X30155Y7329D01*
G01X30163Y7334D01*
G01X30170Y7339D01*
G01X30178Y7345D01*
G01X30190Y7359D01*
G01X30195Y7366D01*
G01X30200Y7375D01*
G01X30204Y7383D01*
G01X30207Y7392D01*
G01X30209Y7401D01*
G01X30210Y7410D01*
G01X30210Y8059D01*
G01X30209Y8068D01*
G01X30207Y8077D01*
G01X30204Y8086D01*
G01X30200Y8094D01*
G01X30195Y8103D01*
G01X30190Y8110D01*
G01X30184Y8118D01*
G01X30178Y8124D01*
G01X30170Y8130D01*
G01X30163Y8135D01*
G01X30155Y8140D01*
G01X30146Y8144D01*
G01X30137Y8147D01*
G01X30128Y8149D01*
G01X30119Y8150D01*
G37*
G36*
G01X14485Y17526D02*
G01X14449Y17526D01*
G01X14431Y17525D01*
G01X14413Y17523D01*
G01X14396Y17520D01*
G01X14378Y17516D01*
G01X14361Y17512D01*
G01X14343Y17507D01*
G01X14326Y17501D01*
G01X14310Y17494D01*
G01X14293Y17487D01*
G01X14277Y17479D01*
G01X14262Y17470D01*
G01X14246Y17460D01*
G01X14232Y17450D01*
G01X14217Y17439D01*
G01X14203Y17427D01*
G01X14177Y17403D01*
G01X14165Y17389D01*
G01X14143Y17361D01*
G01X14123Y17331D01*
G01X14114Y17315D01*
G01X14106Y17299D01*
G01X14099Y17283D01*
G01X14092Y17266D01*
G01X14086Y17249D01*
G01X14076Y17215D01*
G01X14070Y17179D01*
G01X14068Y17161D01*
G01X14066Y17125D01*
G01X14067Y17107D01*
G01X14068Y17090D01*
G01X14070Y17072D01*
G01X14076Y17036D01*
G01X14086Y17002D01*
G01X14092Y16985D01*
G01X14106Y16951D01*
G01X14114Y16935D01*
G01X14123Y16920D01*
G01X14143Y16890D01*
G01X14154Y16875D01*
G01X14165Y16862D01*
G01X14177Y16848D01*
G01X14190Y16836D01*
G01X14203Y16823D01*
G01X14217Y16812D01*
G01X14232Y16801D01*
G01X14246Y16791D01*
G01X14262Y16781D01*
G01X14277Y16772D01*
G01X14293Y16764D01*
G01X14310Y16757D01*
G01X14326Y16750D01*
G01X14343Y16744D01*
G01X14361Y16739D01*
G01X14378Y16735D01*
G01X14396Y16731D01*
G01X14413Y16728D01*
G01X14431Y16726D01*
G01X14467Y16724D01*
G01X14503Y16726D01*
G01X14521Y16728D01*
G01X14539Y16731D01*
G01X14557Y16735D01*
G01X14574Y16739D01*
G01X14591Y16744D01*
G01X14608Y16750D01*
G01X14625Y16757D01*
G01X14641Y16764D01*
G01X14657Y16772D01*
G01X14673Y16781D01*
G01X14703Y16801D01*
G01X14731Y16823D01*
G01X14744Y16836D01*
G01X14757Y16848D01*
G01X14769Y16862D01*
G01X14781Y16875D01*
G01X14792Y16890D01*
G01X14812Y16920D01*
G01X14820Y16935D01*
G01X14829Y16951D01*
G01X14843Y16985D01*
G01X14849Y17002D01*
G01X14854Y17019D01*
G01X14858Y17036D01*
G01X14862Y17054D01*
G01X14865Y17072D01*
G01X14867Y17090D01*
G01X14868Y17107D01*
G01X14868Y17143D01*
G01X14867Y17161D01*
G01X14865Y17179D01*
G01X14862Y17197D01*
G01X14858Y17215D01*
G01X14854Y17232D01*
G01X14849Y17249D01*
G01X14843Y17266D01*
G01X14836Y17283D01*
G01X14829Y17299D01*
G01X14820Y17315D01*
G01X14812Y17331D01*
G01X14792Y17361D01*
G01X14781Y17375D01*
G01X14757Y17403D01*
G01X14731Y17427D01*
G01X14717Y17439D01*
G01X14703Y17450D01*
G01X14673Y17470D01*
G01X14657Y17479D01*
G01X14641Y17487D01*
G01X14625Y17494D01*
G01X14608Y17501D01*
G01X14591Y17507D01*
G01X14574Y17512D01*
G01X14557Y17516D01*
G01X14539Y17520D01*
G01X14521Y17523D01*
G01X14503Y17525D01*
G01X14485Y17526D01*
G37*
G36*
G01X14525Y12660D02*
G01X14489Y12660D01*
G01X14471Y12659D01*
G01X14453Y12657D01*
G01X14435Y12654D01*
G01X14417Y12650D01*
G01X14400Y12646D01*
G01X14383Y12641D01*
G01X14366Y12635D01*
G01X14349Y12628D01*
G01X14333Y12621D01*
G01X14317Y12612D01*
G01X14301Y12604D01*
G01X14271Y12584D01*
G01X14257Y12573D01*
G01X14243Y12561D01*
G01X14230Y12549D01*
G01X14217Y12536D01*
G01X14205Y12523D01*
G01X14193Y12509D01*
G01X14182Y12495D01*
G01X14162Y12465D01*
G01X14154Y12449D01*
G01X14145Y12433D01*
G01X14138Y12417D01*
G01X14131Y12400D01*
G01X14125Y12383D01*
G01X14120Y12366D01*
G01X14116Y12349D01*
G01X14112Y12331D01*
G01X14109Y12313D01*
G01X14107Y12295D01*
G01X14106Y12277D01*
G01X14106Y12241D01*
G01X14107Y12223D01*
G01X14109Y12205D01*
G01X14112Y12188D01*
G01X14116Y12170D01*
G01X14120Y12153D01*
G01X14125Y12135D01*
G01X14131Y12118D01*
G01X14138Y12102D01*
G01X14145Y12085D01*
G01X14154Y12069D01*
G01X14162Y12054D01*
G01X14172Y12038D01*
G01X14182Y12024D01*
G01X14193Y12009D01*
G01X14205Y11995D01*
G01X14217Y11982D01*
G01X14230Y11969D01*
G01X14243Y11957D01*
G01X14271Y11935D01*
G01X14301Y11915D01*
G01X14317Y11906D01*
G01X14333Y11898D01*
G01X14349Y11891D01*
G01X14366Y11884D01*
G01X14383Y11878D01*
G01X14417Y11868D01*
G01X14453Y11862D01*
G01X14471Y11860D01*
G01X14507Y11858D01*
G01X14543Y11860D01*
G01X14561Y11862D01*
G01X14578Y11865D01*
G01X14596Y11868D01*
G01X14613Y11873D01*
G01X14631Y11878D01*
G01X14648Y11884D01*
G01X14664Y11891D01*
G01X14681Y11898D01*
G01X14697Y11906D01*
G01X14712Y11915D01*
G01X14728Y11925D01*
G01X14742Y11935D01*
G01X14757Y11946D01*
G01X14771Y11957D01*
G01X14784Y11969D01*
G01X14797Y11982D01*
G01X14809Y11995D01*
G01X14820Y12009D01*
G01X14831Y12024D01*
G01X14841Y12038D01*
G01X14851Y12054D01*
G01X14860Y12069D01*
G01X14868Y12085D01*
G01X14875Y12102D01*
G01X14882Y12118D01*
G01X14888Y12135D01*
G01X14893Y12153D01*
G01X14898Y12170D01*
G01X14901Y12188D01*
G01X14904Y12205D01*
G01X14906Y12223D01*
G01X14908Y12259D01*
G01X14906Y12295D01*
G01X14904Y12313D01*
G01X14898Y12349D01*
G01X14888Y12383D01*
G01X14882Y12400D01*
G01X14875Y12417D01*
G01X14868Y12433D01*
G01X14860Y12449D01*
G01X14851Y12465D01*
G01X14831Y12495D01*
G01X14809Y12523D01*
G01X14797Y12536D01*
G01X14784Y12549D01*
G01X14771Y12561D01*
G01X14757Y12573D01*
G01X14742Y12584D01*
G01X14728Y12594D01*
G01X14712Y12604D01*
G01X14697Y12612D01*
G01X14681Y12621D01*
G01X14664Y12628D01*
G01X14648Y12635D01*
G01X14631Y12641D01*
G01X14613Y12646D01*
G01X14596Y12650D01*
G01X14578Y12654D01*
G01X14561Y12657D01*
G01X14543Y12659D01*
G01X14525Y12660D01*
G37*
G36*
G01X14525Y5715D02*
G01X14489Y5715D01*
G01X14471Y5714D01*
G01X14453Y5712D01*
G01X14435Y5709D01*
G01X14417Y5705D01*
G01X14400Y5701D01*
G01X14383Y5696D01*
G01X14366Y5690D01*
G01X14349Y5683D01*
G01X14333Y5676D01*
G01X14317Y5668D01*
G01X14301Y5659D01*
G01X14271Y5639D01*
G01X14257Y5628D01*
G01X14243Y5616D01*
G01X14217Y5592D01*
G01X14193Y5564D01*
G01X14182Y5550D01*
G01X14162Y5520D01*
G01X14154Y5504D01*
G01X14145Y5488D01*
G01X14138Y5472D01*
G01X14131Y5455D01*
G01X14125Y5438D01*
G01X14120Y5421D01*
G01X14116Y5404D01*
G01X14112Y5386D01*
G01X14109Y5368D01*
G01X14107Y5350D01*
G01X14106Y5332D01*
G01X14106Y5296D01*
G01X14107Y5279D01*
G01X14109Y5261D01*
G01X14112Y5243D01*
G01X14116Y5225D01*
G01X14120Y5208D01*
G01X14125Y5191D01*
G01X14131Y5174D01*
G01X14145Y5140D01*
G01X14154Y5124D01*
G01X14162Y5109D01*
G01X14182Y5079D01*
G01X14193Y5064D01*
G01X14205Y5051D01*
G01X14217Y5037D01*
G01X14230Y5025D01*
G01X14243Y5012D01*
G01X14271Y4990D01*
G01X14301Y4970D01*
G01X14317Y4961D01*
G01X14333Y4953D01*
G01X14349Y4946D01*
G01X14366Y4939D01*
G01X14383Y4933D01*
G01X14400Y4928D01*
G01X14417Y4924D01*
G01X14435Y4920D01*
G01X14453Y4917D01*
G01X14471Y4915D01*
G01X14507Y4913D01*
G01X14543Y4915D01*
G01X14561Y4917D01*
G01X14578Y4920D01*
G01X14596Y4924D01*
G01X14613Y4928D01*
G01X14631Y4933D01*
G01X14648Y4939D01*
G01X14664Y4946D01*
G01X14681Y4953D01*
G01X14697Y4961D01*
G01X14712Y4970D01*
G01X14728Y4980D01*
G01X14742Y4990D01*
G01X14757Y5001D01*
G01X14771Y5012D01*
G01X14784Y5025D01*
G01X14797Y5037D01*
G01X14809Y5051D01*
G01X14820Y5064D01*
G01X14831Y5079D01*
G01X14851Y5109D01*
G01X14860Y5124D01*
G01X14868Y5140D01*
G01X14882Y5174D01*
G01X14888Y5191D01*
G01X14898Y5225D01*
G01X14904Y5261D01*
G01X14906Y5279D01*
G01X14907Y5296D01*
G01X14908Y5314D01*
G01X14906Y5350D01*
G01X14904Y5368D01*
G01X14898Y5404D01*
G01X14888Y5438D01*
G01X14882Y5455D01*
G01X14875Y5472D01*
G01X14868Y5488D01*
G01X14860Y5504D01*
G01X14851Y5520D01*
G01X14831Y5550D01*
G01X14809Y5578D01*
G01X14797Y5592D01*
G01X14771Y5616D01*
G01X14757Y5628D01*
G01X14742Y5639D01*
G01X14728Y5649D01*
G01X14712Y5659D01*
G01X14697Y5668D01*
G01X14681Y5676D01*
G01X14664Y5683D01*
G01X14648Y5690D01*
G01X14631Y5696D01*
G01X14613Y5701D01*
G01X14596Y5705D01*
G01X14578Y5709D01*
G01X14561Y5712D01*
G01X14543Y5714D01*
G01X14525Y5715D01*
G37*
G36*
G01X14525Y11660D02*
G01X14489Y11660D01*
G01X14471Y11659D01*
G01X14453Y11657D01*
G01X14435Y11654D01*
G01X14417Y11650D01*
G01X14400Y11646D01*
G01X14383Y11641D01*
G01X14366Y11635D01*
G01X14349Y11628D01*
G01X14333Y11621D01*
G01X14317Y11612D01*
G01X14301Y11604D01*
G01X14271Y11584D01*
G01X14257Y11573D01*
G01X14243Y11561D01*
G01X14230Y11549D01*
G01X14217Y11536D01*
G01X14205Y11523D01*
G01X14193Y11509D01*
G01X14182Y11495D01*
G01X14162Y11465D01*
G01X14154Y11449D01*
G01X14145Y11433D01*
G01X14138Y11417D01*
G01X14131Y11400D01*
G01X14125Y11383D01*
G01X14120Y11366D01*
G01X14116Y11349D01*
G01X14112Y11331D01*
G01X14109Y11313D01*
G01X14107Y11295D01*
G01X14106Y11277D01*
G01X14106Y11241D01*
G01X14107Y11223D01*
G01X14109Y11205D01*
G01X14112Y11188D01*
G01X14116Y11170D01*
G01X14120Y11153D01*
G01X14125Y11135D01*
G01X14131Y11118D01*
G01X14138Y11102D01*
G01X14145Y11085D01*
G01X14154Y11069D01*
G01X14162Y11054D01*
G01X14172Y11038D01*
G01X14182Y11024D01*
G01X14193Y11009D01*
G01X14205Y10995D01*
G01X14217Y10982D01*
G01X14230Y10969D01*
G01X14243Y10957D01*
G01X14271Y10935D01*
G01X14301Y10915D01*
G01X14317Y10906D01*
G01X14333Y10898D01*
G01X14349Y10891D01*
G01X14366Y10884D01*
G01X14383Y10878D01*
G01X14417Y10868D01*
G01X14453Y10862D01*
G01X14471Y10860D01*
G01X14507Y10858D01*
G01X14543Y10860D01*
G01X14561Y10862D01*
G01X14578Y10865D01*
G01X14596Y10868D01*
G01X14613Y10873D01*
G01X14631Y10878D01*
G01X14648Y10884D01*
G01X14664Y10891D01*
G01X14681Y10898D01*
G01X14697Y10906D01*
G01X14712Y10915D01*
G01X14728Y10925D01*
G01X14742Y10935D01*
G01X14757Y10946D01*
G01X14771Y10957D01*
G01X14784Y10969D01*
G01X14797Y10982D01*
G01X14809Y10995D01*
G01X14820Y11009D01*
G01X14831Y11024D01*
G01X14841Y11038D01*
G01X14851Y11054D01*
G01X14860Y11069D01*
G01X14868Y11085D01*
G01X14875Y11102D01*
G01X14882Y11118D01*
G01X14888Y11135D01*
G01X14893Y11153D01*
G01X14898Y11170D01*
G01X14901Y11188D01*
G01X14904Y11205D01*
G01X14906Y11223D01*
G01X14908Y11259D01*
G01X14906Y11295D01*
G01X14904Y11313D01*
G01X14898Y11349D01*
G01X14888Y11383D01*
G01X14882Y11400D01*
G01X14875Y11417D01*
G01X14868Y11433D01*
G01X14860Y11449D01*
G01X14851Y11465D01*
G01X14831Y11495D01*
G01X14809Y11523D01*
G01X14797Y11536D01*
G01X14784Y11549D01*
G01X14771Y11561D01*
G01X14757Y11573D01*
G01X14742Y11584D01*
G01X14728Y11594D01*
G01X14712Y11604D01*
G01X14697Y11612D01*
G01X14681Y11621D01*
G01X14664Y11628D01*
G01X14648Y11635D01*
G01X14631Y11641D01*
G01X14613Y11646D01*
G01X14596Y11650D01*
G01X14578Y11654D01*
G01X14561Y11657D01*
G01X14543Y11659D01*
G01X14525Y11660D01*
G37*
G36*
G01X14525Y6715D02*
G01X14489Y6715D01*
G01X14471Y6714D01*
G01X14453Y6712D01*
G01X14435Y6709D01*
G01X14417Y6705D01*
G01X14400Y6701D01*
G01X14383Y6696D01*
G01X14366Y6690D01*
G01X14349Y6683D01*
G01X14333Y6676D01*
G01X14317Y6668D01*
G01X14301Y6659D01*
G01X14271Y6639D01*
G01X14257Y6628D01*
G01X14243Y6616D01*
G01X14217Y6592D01*
G01X14193Y6564D01*
G01X14182Y6550D01*
G01X14162Y6520D01*
G01X14154Y6504D01*
G01X14145Y6488D01*
G01X14138Y6472D01*
G01X14131Y6455D01*
G01X14125Y6438D01*
G01X14120Y6421D01*
G01X14116Y6404D01*
G01X14112Y6386D01*
G01X14109Y6368D01*
G01X14107Y6350D01*
G01X14106Y6332D01*
G01X14106Y6296D01*
G01X14107Y6279D01*
G01X14109Y6261D01*
G01X14112Y6243D01*
G01X14116Y6225D01*
G01X14120Y6208D01*
G01X14125Y6191D01*
G01X14131Y6174D01*
G01X14145Y6140D01*
G01X14154Y6124D01*
G01X14162Y6109D01*
G01X14182Y6079D01*
G01X14193Y6064D01*
G01X14205Y6051D01*
G01X14217Y6037D01*
G01X14230Y6025D01*
G01X14243Y6012D01*
G01X14271Y5990D01*
G01X14301Y5970D01*
G01X14317Y5961D01*
G01X14333Y5953D01*
G01X14349Y5946D01*
G01X14366Y5939D01*
G01X14383Y5933D01*
G01X14400Y5928D01*
G01X14417Y5924D01*
G01X14435Y5920D01*
G01X14453Y5917D01*
G01X14471Y5915D01*
G01X14507Y5913D01*
G01X14543Y5915D01*
G01X14561Y5917D01*
G01X14578Y5920D01*
G01X14596Y5924D01*
G01X14613Y5928D01*
G01X14631Y5933D01*
G01X14648Y5939D01*
G01X14664Y5946D01*
G01X14681Y5953D01*
G01X14697Y5961D01*
G01X14712Y5970D01*
G01X14728Y5980D01*
G01X14742Y5990D01*
G01X14757Y6001D01*
G01X14771Y6012D01*
G01X14784Y6025D01*
G01X14797Y6037D01*
G01X14809Y6051D01*
G01X14820Y6064D01*
G01X14831Y6079D01*
G01X14851Y6109D01*
G01X14860Y6124D01*
G01X14868Y6140D01*
G01X14882Y6174D01*
G01X14888Y6191D01*
G01X14898Y6225D01*
G01X14904Y6261D01*
G01X14906Y6279D01*
G01X14907Y6296D01*
G01X14908Y6314D01*
G01X14906Y6350D01*
G01X14904Y6368D01*
G01X14898Y6404D01*
G01X14888Y6438D01*
G01X14882Y6455D01*
G01X14875Y6472D01*
G01X14868Y6488D01*
G01X14860Y6504D01*
G01X14851Y6520D01*
G01X14831Y6550D01*
G01X14809Y6578D01*
G01X14797Y6592D01*
G01X14771Y6616D01*
G01X14757Y6628D01*
G01X14742Y6639D01*
G01X14728Y6649D01*
G01X14712Y6659D01*
G01X14697Y6668D01*
G01X14681Y6676D01*
G01X14664Y6683D01*
G01X14648Y6690D01*
G01X14631Y6696D01*
G01X14613Y6701D01*
G01X14596Y6705D01*
G01X14578Y6709D01*
G01X14561Y6712D01*
G01X14543Y6714D01*
G01X14525Y6715D01*
G37*
G36*
G01X19329Y14080D02*
G01X18859Y14080D01*
G01X18859Y13662D01*
G01X18860Y13652D01*
G01X18861Y13643D01*
G01X18863Y13634D01*
G01X18866Y13625D01*
G01X18874Y13609D01*
G01X18880Y13601D01*
G01X18892Y13587D01*
G01X18899Y13581D01*
G01X18915Y13571D01*
G01X18942Y13562D01*
G01X18951Y13561D01*
G01X19329Y13561D01*
G01X19329Y14080D01*
G37*
G36*
G01X20544Y15534D02*
G01X20166Y15534D01*
G01X20166Y15015D01*
G01X20636Y15015D01*
G01X20636Y15443D01*
G01X20632Y15461D01*
G01X20629Y15470D01*
G01X20621Y15486D01*
G01X20616Y15494D01*
G01X20610Y15501D01*
G01X20603Y15508D01*
G01X20596Y15514D01*
G01X20580Y15524D01*
G01X20572Y15528D01*
G01X20563Y15530D01*
G01X20554Y15533D01*
G01X20544Y15534D01*
G37*
G36*
G01X19329Y15534D02*
G01X18951Y15534D01*
G01X18942Y15533D01*
G01X18933Y15530D01*
G01X18924Y15528D01*
G01X18915Y15524D01*
G01X18899Y15514D01*
G01X18892Y15508D01*
G01X18880Y15494D01*
G01X18874Y15486D01*
G01X18866Y15470D01*
G01X18863Y15461D01*
G01X18861Y15452D01*
G01X18860Y15443D01*
G01X18859Y15433D01*
G01X18859Y15015D01*
G01X19329Y15015D01*
G01X19329Y15534D01*
G37*
G36*
G01X20636Y14080D02*
G01X20166Y14080D01*
G01X20166Y13561D01*
G01X20544Y13561D01*
G01X20554Y13562D01*
G01X20572Y13568D01*
G01X20580Y13571D01*
G01X20596Y13581D01*
G01X20603Y13587D01*
G01X20610Y13594D01*
G01X20616Y13601D01*
G01X20621Y13609D01*
G01X20629Y13625D01*
G01X20632Y13634D01*
G01X20636Y13652D01*
G01X20636Y14080D01*
G37*
G36*
G01X17604Y5573D02*
G01X17578Y5575D01*
G01X17564Y5574D01*
G01X17551Y5573D01*
G01X17538Y5571D01*
G01X17512Y5565D01*
G01X17499Y5560D01*
G01X17487Y5555D01*
G01X17463Y5543D01*
G01X17452Y5536D01*
G01X17441Y5528D01*
G01X17421Y5510D01*
G01X17412Y5500D01*
G01X17404Y5490D01*
G01X17388Y5468D01*
G01X17382Y5457D01*
G01X17376Y5445D01*
G01X17371Y5432D01*
G01X17367Y5420D01*
G01X17363Y5407D01*
G01X17360Y5394D01*
G01X17358Y5380D01*
G01X17357Y5367D01*
G01X17357Y5340D01*
G01X17358Y5327D01*
G01X17360Y5314D01*
G01X17363Y5301D01*
G01X17371Y5275D01*
G01X17376Y5263D01*
G01X17388Y5239D01*
G01X17396Y5228D01*
G01X17404Y5218D01*
G01X17412Y5207D01*
G01X17431Y5188D01*
G01X17441Y5180D01*
G01X17452Y5172D01*
G01X17463Y5165D01*
G01X17475Y5158D01*
G01X17487Y5152D01*
G01X17499Y5147D01*
G01X17525Y5139D01*
G01X17538Y5136D01*
G01X17551Y5134D01*
G01X17564Y5133D01*
G01X17591Y5133D01*
G01X17604Y5134D01*
G01X17617Y5136D01*
G01X17630Y5139D01*
G01X17656Y5147D01*
G01X17668Y5152D01*
G01X17680Y5158D01*
G01X17692Y5165D01*
G01X17703Y5172D01*
G01X17714Y5180D01*
G01X17724Y5188D01*
G01X17743Y5207D01*
G01X17751Y5218D01*
G01X17759Y5228D01*
G01X17767Y5239D01*
G01X17779Y5263D01*
G01X17784Y5275D01*
G01X17789Y5288D01*
G01X17795Y5314D01*
G01X17797Y5327D01*
G01X17798Y5340D01*
G01X17799Y5354D01*
G01X17797Y5380D01*
G01X17795Y5394D01*
G01X17789Y5420D01*
G01X17784Y5432D01*
G01X17779Y5445D01*
G01X17773Y5457D01*
G01X17767Y5468D01*
G01X17751Y5490D01*
G01X17743Y5500D01*
G01X17734Y5510D01*
G01X17714Y5528D01*
G01X17703Y5536D01*
G01X17692Y5543D01*
G01X17668Y5555D01*
G01X17656Y5560D01*
G01X17643Y5565D01*
G01X17617Y5571D01*
G01X17604Y5573D01*
G37*
G36*
G01X23012Y7165D02*
G01X22986Y7167D01*
G01X22972Y7166D01*
G01X22959Y7165D01*
G01X22946Y7163D01*
G01X22920Y7157D01*
G01X22907Y7152D01*
G01X22895Y7147D01*
G01X22871Y7135D01*
G01X22860Y7128D01*
G01X22849Y7120D01*
G01X22829Y7102D01*
G01X22820Y7092D01*
G01X22812Y7082D01*
G01X22804Y7071D01*
G01X22790Y7049D01*
G01X22784Y7037D01*
G01X22779Y7024D01*
G01X22775Y7012D01*
G01X22771Y6999D01*
G01X22768Y6986D01*
G01X22766Y6972D01*
G01X22765Y6959D01*
G01X22765Y6932D01*
G01X22766Y6919D01*
G01X22768Y6906D01*
G01X22771Y6893D01*
G01X22779Y6867D01*
G01X22784Y6855D01*
G01X22790Y6843D01*
G01X22797Y6831D01*
G01X22804Y6820D01*
G01X22812Y6810D01*
G01X22820Y6799D01*
G01X22839Y6780D01*
G01X22849Y6772D01*
G01X22860Y6764D01*
G01X22871Y6757D01*
G01X22883Y6750D01*
G01X22895Y6744D01*
G01X22907Y6739D01*
G01X22933Y6731D01*
G01X22946Y6728D01*
G01X22959Y6726D01*
G01X22972Y6725D01*
G01X22999Y6725D01*
G01X23012Y6726D01*
G01X23026Y6728D01*
G01X23039Y6731D01*
G01X23051Y6735D01*
G01X23064Y6739D01*
G01X23076Y6744D01*
G01X23088Y6750D01*
G01X23100Y6757D01*
G01X23111Y6764D01*
G01X23122Y6772D01*
G01X23132Y6780D01*
G01X23151Y6799D01*
G01X23160Y6810D01*
G01X23168Y6820D01*
G01X23175Y6831D01*
G01X23187Y6855D01*
G01X23192Y6867D01*
G01X23197Y6880D01*
G01X23203Y6906D01*
G01X23205Y6919D01*
G01X23206Y6932D01*
G01X23207Y6946D01*
G01X23205Y6972D01*
G01X23203Y6986D01*
G01X23197Y7012D01*
G01X23192Y7024D01*
G01X23187Y7037D01*
G01X23181Y7049D01*
G01X23175Y7060D01*
G01X23168Y7071D01*
G01X23160Y7082D01*
G01X23142Y7102D01*
G01X23122Y7120D01*
G01X23111Y7128D01*
G01X23100Y7135D01*
G01X23076Y7147D01*
G01X23064Y7152D01*
G01X23051Y7157D01*
G01X23039Y7160D01*
G01X23026Y7163D01*
G01X23012Y7165D01*
G37*
G36*
G01X28846Y1274D02*
G01X28831Y1282D01*
G01X28831Y991D01*
G01X29025Y991D01*
G01X29024Y1008D01*
G01X29022Y1025D01*
G01X29019Y1041D01*
G01X29011Y1073D01*
G01X29006Y1089D01*
G01X29000Y1105D01*
G01X28993Y1120D01*
G01X28985Y1135D01*
G01X28977Y1149D01*
G01X28959Y1177D01*
G01X28948Y1190D01*
G01X28938Y1203D01*
G01X28926Y1215D01*
G01X28914Y1226D01*
G01X28888Y1248D01*
G01X28860Y1266D01*
G01X28846Y1274D01*
G37*
G36*
G01X28545Y991D02*
G01X28545Y1282D01*
G01X28515Y1266D01*
G01X28501Y1257D01*
G01X28488Y1248D01*
G01X28474Y1237D01*
G01X28450Y1215D01*
G01X28438Y1203D01*
G01X28427Y1190D01*
G01X28417Y1177D01*
G01X28407Y1163D01*
G01X28398Y1149D01*
G01X28390Y1135D01*
G01X28376Y1105D01*
G01X28370Y1089D01*
G01X28360Y1057D01*
G01X28354Y1025D01*
G01X28352Y1008D01*
G01X28351Y991D01*
G01X28545Y991D01*
G37*
G36*
G01X25143Y991D02*
G01X25143Y1282D01*
G01X25128Y1274D01*
G01X25114Y1266D01*
G01X25086Y1248D01*
G01X25060Y1226D01*
G01X25048Y1215D01*
G01X25037Y1203D01*
G01X25015Y1177D01*
G01X25006Y1164D01*
G01X24997Y1149D01*
G01X24989Y1135D01*
G01X24981Y1120D01*
G01X24974Y1105D01*
G01X24969Y1089D01*
G01X24963Y1073D01*
G01X24955Y1041D01*
G01X24953Y1025D01*
G01X24949Y991D01*
G01X25143Y991D01*
G37*
G36*
G01X25459Y1266D02*
G01X25429Y1282D01*
G01X25429Y991D01*
G01X25623Y991D01*
G01X25622Y1008D01*
G01X25620Y1025D01*
G01X25614Y1057D01*
G01X25604Y1089D01*
G01X25598Y1105D01*
G01X25584Y1135D01*
G01X25576Y1149D01*
G01X25567Y1164D01*
G01X25547Y1190D01*
G01X25536Y1203D01*
G01X25524Y1215D01*
G01X25500Y1237D01*
G01X25487Y1248D01*
G01X25459Y1266D01*
G37*
G36*
G01X28545Y3072D02*
G01X28545Y3333D01*
G01X28515Y3317D01*
G01X28501Y3308D01*
G01X28487Y3298D01*
G01X28474Y3288D01*
G01X28461Y3277D01*
G01X28437Y3253D01*
G01X28426Y3240D01*
G01X28416Y3227D01*
G01X28406Y3213D01*
G01X28397Y3199D01*
G01X28389Y3184D01*
G01X28382Y3169D01*
G01X28375Y3153D01*
G01X28369Y3138D01*
G01X28364Y3122D01*
G01X28360Y3105D01*
G01X28356Y3089D01*
G01X28354Y3072D01*
G01X28545Y3072D01*
G37*
G36*
G01X25459Y3317D02*
G01X25429Y3333D01*
G01X25429Y3072D01*
G01X25620Y3072D01*
G01X25618Y3089D01*
G01X25614Y3105D01*
G01X25610Y3122D01*
G01X25605Y3138D01*
G01X25599Y3153D01*
G01X25592Y3169D01*
G01X25585Y3184D01*
G01X25577Y3199D01*
G01X25568Y3213D01*
G01X25558Y3227D01*
G01X25548Y3240D01*
G01X25537Y3253D01*
G01X25513Y3277D01*
G01X25500Y3288D01*
G01X25487Y3298D01*
G01X25473Y3308D01*
G01X25459Y3317D01*
G37*
G36*
G01X28861Y3317D02*
G01X28831Y3333D01*
G01X28831Y3072D01*
G01X29022Y3072D01*
G01X29019Y3089D01*
G01X29016Y3105D01*
G01X29012Y3122D01*
G01X29006Y3138D01*
G01X29001Y3153D01*
G01X28994Y3169D01*
G01X28978Y3199D01*
G01X28960Y3227D01*
G01X28938Y3253D01*
G01X28927Y3265D01*
G01X28915Y3277D01*
G01X28902Y3288D01*
G01X28889Y3298D01*
G01X28875Y3308D01*
G01X28861Y3317D01*
G37*
G36*
G01X25143Y3072D02*
G01X25143Y3333D01*
G01X25113Y3317D01*
G01X25099Y3308D01*
G01X25085Y3298D01*
G01X25072Y3288D01*
G01X25059Y3277D01*
G01X25047Y3265D01*
G01X25036Y3253D01*
G01X25014Y3227D01*
G01X24996Y3199D01*
G01X24980Y3169D01*
G01X24973Y3153D01*
G01X24968Y3138D01*
G01X24962Y3122D01*
G01X24958Y3105D01*
G01X24955Y3089D01*
G01X24952Y3072D01*
G01X25143Y3072D01*
G37*
G36*
G01X29022Y2589D02*
G01X28831Y2589D01*
G01X28831Y2328D01*
G01X28861Y2344D01*
G01X28875Y2353D01*
G01X28889Y2363D01*
G01X28902Y2373D01*
G01X28915Y2384D01*
G01X28927Y2396D01*
G01X28938Y2408D01*
G01X28960Y2434D01*
G01X28978Y2462D01*
G01X28994Y2492D01*
G01X29001Y2508D01*
G01X29006Y2524D01*
G01X29012Y2540D01*
G01X29016Y2556D01*
G01X29019Y2572D01*
G01X29022Y2589D01*
G37*
G36*
G01X28545Y2589D02*
G01X28354Y2589D01*
G01X28356Y2572D01*
G01X28364Y2540D01*
G01X28369Y2524D01*
G01X28375Y2508D01*
G01X28382Y2492D01*
G01X28389Y2477D01*
G01X28397Y2462D01*
G01X28406Y2448D01*
G01X28416Y2434D01*
G01X28426Y2421D01*
G01X28437Y2408D01*
G01X28461Y2384D01*
G01X28474Y2373D01*
G01X28487Y2363D01*
G01X28501Y2353D01*
G01X28515Y2344D01*
G01X28545Y2328D01*
G01X28545Y2589D01*
G37*
G36*
G01X25143Y2589D02*
G01X24952Y2589D01*
G01X24955Y2572D01*
G01X24958Y2556D01*
G01X24962Y2540D01*
G01X24968Y2524D01*
G01X24973Y2508D01*
G01X24980Y2492D01*
G01X24996Y2462D01*
G01X25014Y2434D01*
G01X25036Y2408D01*
G01X25047Y2396D01*
G01X25059Y2384D01*
G01X25072Y2373D01*
G01X25085Y2363D01*
G01X25099Y2353D01*
G01X25113Y2344D01*
G01X25143Y2328D01*
G01X25143Y2589D01*
G37*
G36*
G01X25620Y2589D02*
G01X25429Y2589D01*
G01X25429Y2328D01*
G01X25459Y2344D01*
G01X25473Y2353D01*
G01X25487Y2363D01*
G01X25500Y2373D01*
G01X25513Y2384D01*
G01X25537Y2408D01*
G01X25548Y2421D01*
G01X25558Y2434D01*
G01X25568Y2448D01*
G01X25577Y2462D01*
G01X25585Y2477D01*
G01X25592Y2492D01*
G01X25599Y2508D01*
G01X25605Y2524D01*
G01X25610Y2540D01*
G01X25618Y2572D01*
G01X25620Y2589D01*
G37*
G36*
G01X27872Y14782D02*
G01X27853Y14792D01*
G01X27853Y14571D01*
G01X28073Y14571D01*
G01X28064Y14590D01*
G01X28053Y14608D01*
G01X28041Y14626D01*
G01X28029Y14643D01*
G01X28016Y14660D01*
G01X28003Y14676D01*
G01X27988Y14692D01*
G01X27973Y14707D01*
G01X27958Y14721D01*
G01X27942Y14735D01*
G01X27925Y14747D01*
G01X27908Y14760D01*
G01X27872Y14782D01*
G37*
G36*
G01X27409Y14571D02*
G01X27409Y14792D01*
G01X27391Y14782D01*
G01X27372Y14771D01*
G01X27355Y14760D01*
G01X27337Y14747D01*
G01X27321Y14735D01*
G01X27289Y14707D01*
G01X27274Y14692D01*
G01X27246Y14660D01*
G01X27233Y14643D01*
G01X27221Y14626D01*
G01X27199Y14590D01*
G01X27189Y14571D01*
G01X27409Y14571D01*
G37*
G36*
G01X30993Y9100D02*
G01X30977Y9108D01*
G01X30977Y8917D01*
G01X31168Y8917D01*
G01X31160Y8933D01*
G01X31151Y8949D01*
G01X31141Y8965D01*
G01X31130Y8980D01*
G01X31119Y8994D01*
G01X31107Y9009D01*
G01X31095Y9022D01*
G01X31082Y9035D01*
G01X31069Y9047D01*
G01X31054Y9059D01*
G01X31040Y9070D01*
G01X31025Y9081D01*
G01X31009Y9091D01*
G01X30993Y9100D01*
G37*
G36*
G01X30612Y8917D02*
G01X30612Y9108D01*
G01X30596Y9100D01*
G01X30580Y9091D01*
G01X30564Y9081D01*
G01X30549Y9070D01*
G01X30535Y9059D01*
G01X30507Y9035D01*
G01X30494Y9022D01*
G01X30482Y9009D01*
G01X30470Y8994D01*
G01X30459Y8980D01*
G01X30448Y8965D01*
G01X30438Y8949D01*
G01X30429Y8933D01*
G01X30421Y8917D01*
G01X30612Y8917D01*
G37*
G36*
G01X31168Y8552D02*
G01X30977Y8552D01*
G01X30977Y8361D01*
G01X30993Y8369D01*
G01X31009Y8378D01*
G01X31025Y8388D01*
G01X31040Y8399D01*
G01X31054Y8410D01*
G01X31069Y8422D01*
G01X31082Y8434D01*
G01X31095Y8447D01*
G01X31107Y8460D01*
G01X31119Y8475D01*
G01X31130Y8489D01*
G01X31141Y8504D01*
G01X31151Y8520D01*
G01X31160Y8536D01*
G01X31168Y8552D01*
G37*
G36*
G01X29612Y5386D02*
G01X29421Y5386D01*
G01X29429Y5370D01*
G01X29438Y5354D01*
G01X29448Y5338D01*
G01X29459Y5323D01*
G01X29470Y5309D01*
G01X29482Y5294D01*
G01X29494Y5281D01*
G01X29507Y5268D01*
G01X29535Y5244D01*
G01X29549Y5233D01*
G01X29564Y5222D01*
G01X29580Y5212D01*
G01X29596Y5203D01*
G01X29612Y5195D01*
G01X29612Y5386D01*
G37*
G36*
G01X29612Y5751D02*
G01X29612Y5942D01*
G01X29596Y5934D01*
G01X29580Y5925D01*
G01X29564Y5915D01*
G01X29549Y5904D01*
G01X29535Y5893D01*
G01X29507Y5869D01*
G01X29494Y5856D01*
G01X29482Y5843D01*
G01X29470Y5828D01*
G01X29459Y5814D01*
G01X29448Y5799D01*
G01X29438Y5783D01*
G01X29429Y5767D01*
G01X29421Y5751D01*
G01X29612Y5751D01*
G37*
G36*
G01X30612Y8552D02*
G01X30421Y8552D01*
G01X30429Y8536D01*
G01X30438Y8520D01*
G01X30448Y8504D01*
G01X30459Y8489D01*
G01X30470Y8475D01*
G01X30482Y8460D01*
G01X30494Y8447D01*
G01X30507Y8434D01*
G01X30535Y8410D01*
G01X30549Y8399D01*
G01X30564Y8388D01*
G01X30580Y8378D01*
G01X30596Y8369D01*
G01X30612Y8361D01*
G01X30612Y8552D01*
G37*
G36*
G01X23705Y15817D02*
G01X23691Y15824D01*
G01X23691Y15614D01*
G01X23852Y15614D01*
G01X23846Y15644D01*
G01X23841Y15659D01*
G01X23836Y15673D01*
G01X23830Y15687D01*
G01X23823Y15701D01*
G01X23807Y15727D01*
G01X23798Y15739D01*
G01X23788Y15751D01*
G01X23778Y15762D01*
G01X23767Y15773D01*
G01X23756Y15783D01*
G01X23744Y15793D01*
G01X23731Y15802D01*
G01X23718Y15810D01*
G01X23705Y15817D01*
G37*
G36*
G01X23852Y15249D02*
G01X23691Y15249D01*
G01X23691Y15040D01*
G01X23705Y15047D01*
G01X23718Y15054D01*
G01X23731Y15062D01*
G01X23744Y15071D01*
G01X23756Y15081D01*
G01X23778Y15101D01*
G01X23798Y15125D01*
G01X23807Y15137D01*
G01X23823Y15163D01*
G01X23830Y15177D01*
G01X23836Y15191D01*
G01X23841Y15205D01*
G01X23846Y15220D01*
G01X23849Y15234D01*
G01X23852Y15249D01*
G37*
G36*
G01X9757Y1931D02*
G01X9638Y1931D01*
G01X9644Y1918D01*
G01X9651Y1905D01*
G01X9658Y1893D01*
G01X9667Y1882D01*
G01X9676Y1870D01*
G01X9685Y1860D01*
G01X9696Y1850D01*
G01X9707Y1841D01*
G01X9731Y1825D01*
G01X9744Y1818D01*
G01X9757Y1812D01*
G01X9757Y1931D01*
G37*
G36*
G01X31017Y15317D02*
G01X30898Y15317D01*
G01X30910Y15291D01*
G01X30926Y15267D01*
G01X30935Y15256D01*
G01X30945Y15246D01*
G01X30956Y15236D01*
G01X30967Y15227D01*
G01X30979Y15218D01*
G01X30991Y15211D01*
G01X31004Y15204D01*
G01X31017Y15198D01*
G01X31017Y15317D01*
G37*
G36*
G01X9940Y2214D02*
G01X9927Y2220D01*
G01X9927Y2101D01*
G01X10046Y2101D01*
G01X10040Y2114D01*
G01X10033Y2127D01*
G01X10017Y2151D01*
G01X10008Y2162D01*
G01X9988Y2182D01*
G01X9976Y2191D01*
G01X9965Y2200D01*
G01X9953Y2207D01*
G01X9940Y2214D01*
G37*
G36*
G01X26292Y23191D02*
G01X26173Y23191D01*
G01X26179Y23178D01*
G01X26186Y23165D01*
G01X26202Y23141D01*
G01X26211Y23130D01*
G01X26231Y23110D01*
G01X26243Y23101D01*
G01X26254Y23092D01*
G01X26266Y23085D01*
G01X26279Y23078D01*
G01X26292Y23072D01*
G01X26292Y23191D01*
G37*
G36*
G01X9757Y526D02*
G01X9757Y645D01*
G01X9731Y633D01*
G01X9707Y617D01*
G01X9696Y607D01*
G01X9685Y598D01*
G01X9667Y576D01*
G01X9658Y564D01*
G01X9651Y552D01*
G01X9644Y539D01*
G01X9638Y526D01*
G01X9757Y526D01*
G37*
G36*
G01X31017Y15487D02*
G01X31017Y15606D01*
G01X31004Y15600D01*
G01X30991Y15593D01*
G01X30979Y15586D01*
G01X30967Y15577D01*
G01X30956Y15568D01*
G01X30945Y15558D01*
G01X30935Y15548D01*
G01X30926Y15537D01*
G01X30910Y15513D01*
G01X30898Y15487D01*
G01X31017Y15487D01*
G37*
G36*
G01X10046Y2719D02*
G01X9927Y2719D01*
G01X9927Y2600D01*
G01X9953Y2612D01*
G01X9965Y2620D01*
G01X9976Y2628D01*
G01X9988Y2637D01*
G01X9998Y2647D01*
G01X10008Y2658D01*
G01X10017Y2669D01*
G01X10033Y2693D01*
G01X10040Y2705D01*
G01X10046Y2719D01*
G37*
G36*
G01X17631Y526D02*
G01X17631Y645D01*
G01X17605Y633D01*
G01X17581Y617D01*
G01X17570Y607D01*
G01X17560Y598D01*
G01X17550Y587D01*
G01X17541Y576D01*
G01X17532Y564D01*
G01X17525Y552D01*
G01X17518Y539D01*
G01X17512Y526D01*
G01X17631Y526D01*
G37*
G36*
G01X9757Y2889D02*
G01X9757Y3008D01*
G01X9744Y3002D01*
G01X9731Y2995D01*
G01X9707Y2979D01*
G01X9696Y2970D01*
G01X9685Y2960D01*
G01X9658Y2927D01*
G01X9651Y2914D01*
G01X9644Y2902D01*
G01X9638Y2889D01*
G01X9757Y2889D01*
G37*
G36*
G01X31017Y14700D02*
G01X31017Y14819D01*
G01X31004Y14813D01*
G01X30991Y14806D01*
G01X30967Y14790D01*
G01X30956Y14781D01*
G01X30945Y14771D01*
G01X30935Y14760D01*
G01X30926Y14749D01*
G01X30918Y14738D01*
G01X30910Y14725D01*
G01X30904Y14713D01*
G01X30898Y14700D01*
G01X31017Y14700D01*
G37*
G36*
G01X9940Y3002D02*
G01X9927Y3008D01*
G01X9927Y2889D01*
G01X10046Y2889D01*
G01X10040Y2902D01*
G01X10033Y2914D01*
G01X10025Y2927D01*
G01X10017Y2938D01*
G01X10008Y2949D01*
G01X9998Y2960D01*
G01X9988Y2970D01*
G01X9976Y2979D01*
G01X9965Y2987D01*
G01X9953Y2995D01*
G01X9940Y3002D01*
G37*
G36*
G01X17631Y356D02*
G01X17512Y356D01*
G01X17518Y343D01*
G01X17525Y331D01*
G01X17532Y318D01*
G01X17550Y296D01*
G01X17560Y285D01*
G01X17570Y275D01*
G01X17581Y266D01*
G01X17605Y250D01*
G01X17618Y243D01*
G01X17631Y237D01*
G01X17631Y356D01*
G37*
G36*
G01X9757Y2719D02*
G01X9638Y2719D01*
G01X9644Y2705D01*
G01X9658Y2681D01*
G01X9667Y2669D01*
G01X9685Y2647D01*
G01X9696Y2637D01*
G01X9707Y2628D01*
G01X9731Y2612D01*
G01X9757Y2600D01*
G01X9757Y2719D01*
G37*
G36*
G01X12906Y526D02*
G01X12906Y645D01*
G01X12893Y639D01*
G01X12881Y633D01*
G01X12868Y625D01*
G01X12857Y617D01*
G01X12846Y607D01*
G01X12835Y598D01*
G01X12825Y587D01*
G01X12816Y576D01*
G01X12800Y552D01*
G01X12793Y539D01*
G01X12787Y526D01*
G01X12906Y526D01*
G37*
G36*
G01X10046Y356D02*
G01X9927Y356D01*
G01X9927Y237D01*
G01X9940Y243D01*
G01X9953Y250D01*
G01X9965Y258D01*
G01X9976Y266D01*
G01X9988Y275D01*
G01X9998Y285D01*
G01X10008Y296D01*
G01X10017Y307D01*
G01X10025Y318D01*
G01X10033Y331D01*
G01X10040Y343D01*
G01X10046Y356D01*
G37*
G36*
G01X18418Y526D02*
G01X18418Y645D01*
G01X18392Y633D01*
G01X18380Y625D01*
G01X18369Y617D01*
G01X18357Y607D01*
G01X18347Y598D01*
G01X18337Y587D01*
G01X18328Y576D01*
G01X18312Y552D01*
G01X18305Y539D01*
G01X18299Y526D01*
G01X18418Y526D01*
G37*
G36*
G01X9757Y356D02*
G01X9638Y356D01*
G01X9644Y343D01*
G01X9651Y331D01*
G01X9658Y318D01*
G01X9685Y285D01*
G01X9696Y275D01*
G01X9707Y266D01*
G01X9731Y250D01*
G01X9744Y243D01*
G01X9757Y237D01*
G01X9757Y356D01*
G37*
G36*
G01X12906Y356D02*
G01X12787Y356D01*
G01X12793Y343D01*
G01X12800Y331D01*
G01X12808Y318D01*
G01X12816Y307D01*
G01X12825Y296D01*
G01X12835Y285D01*
G01X12846Y275D01*
G01X12857Y266D01*
G01X12868Y258D01*
G01X12881Y250D01*
G01X12893Y243D01*
G01X12906Y237D01*
G01X12906Y356D01*
G37*
G36*
G01X9940Y1427D02*
G01X9927Y1433D01*
G01X9927Y1314D01*
G01X10046Y1314D01*
G01X10040Y1327D01*
G01X10033Y1340D01*
G01X10025Y1352D01*
G01X10017Y1363D01*
G01X10008Y1375D01*
G01X9988Y1395D01*
G01X9976Y1404D01*
G01X9965Y1412D01*
G01X9953Y1420D01*
G01X9940Y1427D01*
G37*
G36*
G01X20780Y356D02*
G01X20661Y356D01*
G01X20667Y343D01*
G01X20674Y331D01*
G01X20682Y318D01*
G01X20690Y307D01*
G01X20699Y296D01*
G01X20709Y285D01*
G01X20720Y275D01*
G01X20731Y266D01*
G01X20742Y258D01*
G01X20755Y250D01*
G01X20767Y243D01*
G01X20780Y237D01*
G01X20780Y356D01*
G37*
G36*
G01X24219Y356D02*
G01X24100Y356D01*
G01X24100Y237D01*
G01X24113Y243D01*
G01X24126Y250D01*
G01X24150Y266D01*
G01X24161Y275D01*
G01X24171Y285D01*
G01X24181Y296D01*
G01X24199Y318D01*
G01X24206Y331D01*
G01X24213Y343D01*
G01X24219Y356D01*
G37*
G36*
G01X21568Y526D02*
G01X21568Y645D01*
G01X21542Y633D01*
G01X21518Y617D01*
G01X21507Y607D01*
G01X21497Y598D01*
G01X21487Y587D01*
G01X21478Y576D01*
G01X21469Y564D01*
G01X21462Y552D01*
G01X21455Y539D01*
G01X21449Y526D01*
G01X21568Y526D01*
G37*
G36*
G01X24126Y633D02*
G01X24100Y645D01*
G01X24100Y526D01*
G01X24219Y526D01*
G01X24213Y539D01*
G01X24206Y552D01*
G01X24199Y564D01*
G01X24190Y576D01*
G01X24181Y587D01*
G01X24171Y598D01*
G01X24161Y607D01*
G01X24150Y617D01*
G01X24126Y633D01*
G37*
G36*
G01X15452Y639D02*
G01X15439Y645D01*
G01X15439Y526D01*
G01X15558Y526D01*
G01X15552Y539D01*
G01X15545Y552D01*
G01X15529Y576D01*
G01X15520Y587D01*
G01X15510Y598D01*
G01X15499Y607D01*
G01X15488Y617D01*
G01X15477Y625D01*
G01X15464Y633D01*
G01X15452Y639D01*
G37*
G36*
G01X9757Y2101D02*
G01X9757Y2220D01*
G01X9744Y2214D01*
G01X9731Y2207D01*
G01X9719Y2200D01*
G01X9707Y2191D01*
G01X9696Y2182D01*
G01X9685Y2172D01*
G01X9676Y2162D01*
G01X9667Y2151D01*
G01X9658Y2139D01*
G01X9651Y2127D01*
G01X9644Y2114D01*
G01X9638Y2101D01*
G01X9757Y2101D01*
G37*
G36*
G01X23432Y23191D02*
G01X23313Y23191D01*
G01X23313Y23072D01*
G01X23326Y23078D01*
G01X23338Y23085D01*
G01X23351Y23092D01*
G01X23373Y23110D01*
G01X23384Y23120D01*
G01X23394Y23130D01*
G01X23403Y23141D01*
G01X23419Y23165D01*
G01X23426Y23178D01*
G01X23432Y23191D01*
G37*
G36*
G01X20780Y23191D02*
G01X20661Y23191D01*
G01X20667Y23178D01*
G01X20674Y23165D01*
G01X20690Y23141D01*
G01X20699Y23130D01*
G01X20709Y23120D01*
G01X20720Y23110D01*
G01X20742Y23092D01*
G01X20755Y23085D01*
G01X20767Y23078D01*
G01X20780Y23072D01*
G01X20780Y23191D01*
G37*
G36*
G01X18418Y356D02*
G01X18299Y356D01*
G01X18305Y343D01*
G01X18312Y331D01*
G01X18320Y318D01*
G01X18328Y307D01*
G01X18337Y296D01*
G01X18347Y285D01*
G01X18357Y275D01*
G01X18369Y266D01*
G01X18380Y258D01*
G01X18392Y250D01*
G01X18405Y243D01*
G01X18418Y237D01*
G01X18418Y356D01*
G37*
G36*
G01X9757Y1314D02*
G01X9757Y1433D01*
G01X9744Y1427D01*
G01X9731Y1420D01*
G01X9707Y1404D01*
G01X9696Y1395D01*
G01X9685Y1385D01*
G01X9676Y1375D01*
G01X9667Y1363D01*
G01X9658Y1352D01*
G01X9651Y1340D01*
G01X9644Y1327D01*
G01X9638Y1314D01*
G01X9757Y1314D01*
G37*
G36*
G01X23432Y356D02*
G01X23313Y356D01*
G01X23313Y237D01*
G01X23326Y243D01*
G01X23338Y250D01*
G01X23351Y258D01*
G01X23362Y266D01*
G01X23373Y275D01*
G01X23384Y285D01*
G01X23394Y296D01*
G01X23403Y307D01*
G01X23411Y318D01*
G01X23419Y331D01*
G01X23426Y343D01*
G01X23432Y356D01*
G37*
G36*
G01X10046Y1931D02*
G01X9927Y1931D01*
G01X9927Y1812D01*
G01X9940Y1818D01*
G01X9953Y1825D01*
G01X9965Y1833D01*
G01X9976Y1841D01*
G01X9988Y1850D01*
G01X10008Y1870D01*
G01X10017Y1882D01*
G01X10025Y1893D01*
G01X10033Y1905D01*
G01X10040Y1918D01*
G01X10046Y1931D01*
G37*
G36*
G01X24219Y23191D02*
G01X24100Y23191D01*
G01X24100Y23072D01*
G01X24113Y23078D01*
G01X24126Y23085D01*
G01X24138Y23092D01*
G01X24150Y23101D01*
G01X24161Y23110D01*
G01X24181Y23130D01*
G01X24190Y23141D01*
G01X24199Y23153D01*
G01X24206Y23165D01*
G01X24213Y23178D01*
G01X24219Y23191D01*
G37*
G36*
G01X9757Y1144D02*
G01X9638Y1144D01*
G01X9644Y1131D01*
G01X9651Y1118D01*
G01X9658Y1106D01*
G01X9667Y1094D01*
G01X9685Y1072D01*
G01X9707Y1054D01*
G01X9719Y1045D01*
G01X9731Y1038D01*
G01X9744Y1031D01*
G01X9757Y1025D01*
G01X9757Y1144D01*
G37*
G36*
G01X21568Y356D02*
G01X21449Y356D01*
G01X21455Y343D01*
G01X21462Y331D01*
G01X21469Y318D01*
G01X21487Y296D01*
G01X21497Y285D01*
G01X21507Y275D01*
G01X21518Y266D01*
G01X21542Y250D01*
G01X21555Y243D01*
G01X21568Y237D01*
G01X21568Y356D01*
G37*
G36*
G01X31017Y20999D02*
G01X31017Y21118D01*
G01X31004Y21112D01*
G01X30991Y21105D01*
G01X30967Y21089D01*
G01X30956Y21080D01*
G01X30945Y21070D01*
G01X30935Y21060D01*
G01X30926Y21048D01*
G01X30918Y21037D01*
G01X30910Y21025D01*
G01X30898Y20999D01*
G01X31017Y20999D01*
G37*
G36*
G01X20780Y526D02*
G01X20780Y645D01*
G01X20767Y639D01*
G01X20755Y633D01*
G01X20742Y625D01*
G01X20731Y617D01*
G01X20720Y607D01*
G01X20709Y598D01*
G01X20699Y587D01*
G01X20690Y576D01*
G01X20674Y552D01*
G01X20667Y539D01*
G01X20661Y526D01*
G01X20780Y526D01*
G37*
G36*
G01X31017Y19254D02*
G01X30898Y19254D01*
G01X30910Y19228D01*
G01X30926Y19204D01*
G01X30935Y19193D01*
G01X30945Y19183D01*
G01X30956Y19173D01*
G01X30967Y19164D01*
G01X30979Y19155D01*
G01X30991Y19148D01*
G01X31004Y19141D01*
G01X31017Y19135D01*
G01X31017Y19254D01*
G37*
G36*
G01X22355Y526D02*
G01X22355Y645D01*
G01X22329Y633D01*
G01X22317Y625D01*
G01X22306Y617D01*
G01X22294Y607D01*
G01X22284Y598D01*
G01X22274Y587D01*
G01X22265Y576D01*
G01X22249Y552D01*
G01X22242Y539D01*
G01X22236Y526D01*
G01X22355Y526D01*
G37*
G36*
G01X10046Y1144D02*
G01X9927Y1144D01*
G01X9927Y1025D01*
G01X9940Y1031D01*
G01X9953Y1038D01*
G01X9965Y1045D01*
G01X9976Y1054D01*
G01X9988Y1063D01*
G01X9998Y1072D01*
G01X10008Y1083D01*
G01X10017Y1094D01*
G01X10033Y1118D01*
G01X10040Y1131D01*
G01X10046Y1144D01*
G37*
G36*
G01X13694Y356D02*
G01X13575Y356D01*
G01X13581Y343D01*
G01X13588Y331D01*
G01X13595Y318D01*
G01X13622Y285D01*
G01X13633Y275D01*
G01X13644Y266D01*
G01X13668Y250D01*
G01X13681Y243D01*
G01X13694Y237D01*
G01X13694Y356D01*
G37*
G36*
G01X31017Y18637D02*
G01X31017Y18756D01*
G01X31004Y18750D01*
G01X30991Y18743D01*
G01X30967Y18727D01*
G01X30956Y18718D01*
G01X30945Y18708D01*
G01X30935Y18697D01*
G01X30926Y18686D01*
G01X30918Y18675D01*
G01X30910Y18662D01*
G01X30904Y18650D01*
G01X30898Y18637D01*
G01X31017Y18637D01*
G37*
G36*
G01X21568Y23191D02*
G01X21449Y23191D01*
G01X21455Y23178D01*
G01X21462Y23165D01*
G01X21469Y23153D01*
G01X21478Y23141D01*
G01X21487Y23130D01*
G01X21507Y23110D01*
G01X21518Y23101D01*
G01X21530Y23092D01*
G01X21542Y23085D01*
G01X21555Y23078D01*
G01X21568Y23072D01*
G01X21568Y23191D01*
G37*
G36*
G01X9953Y633D02*
G01X9927Y645D01*
G01X9927Y526D01*
G01X10046Y526D01*
G01X10040Y539D01*
G01X10033Y552D01*
G01X10017Y576D01*
G01X10008Y587D01*
G01X9998Y598D01*
G01X9988Y607D01*
G01X9976Y617D01*
G01X9965Y625D01*
G01X9953Y633D01*
G37*
G36*
G01X15558Y356D02*
G01X15439Y356D01*
G01X15439Y237D01*
G01X15452Y243D01*
G01X15464Y250D01*
G01X15477Y258D01*
G01X15488Y266D01*
G01X15499Y275D01*
G01X15510Y285D01*
G01X15520Y296D01*
G01X15529Y307D01*
G01X15537Y318D01*
G01X15545Y331D01*
G01X15552Y343D01*
G01X15558Y356D01*
G37*
G36*
G01X31017Y17849D02*
G01X31017Y17968D01*
G01X31004Y17962D01*
G01X30991Y17955D01*
G01X30979Y17948D01*
G01X30967Y17939D01*
G01X30956Y17930D01*
G01X30945Y17920D01*
G01X30935Y17910D01*
G01X30926Y17899D01*
G01X30910Y17875D01*
G01X30898Y17849D01*
G01X31017Y17849D01*
G37*
G36*
G01X23326Y639D02*
G01X23313Y645D01*
G01X23313Y526D01*
G01X23432Y526D01*
G01X23426Y539D01*
G01X23419Y552D01*
G01X23403Y576D01*
G01X23394Y587D01*
G01X23384Y598D01*
G01X23373Y607D01*
G01X23362Y617D01*
G01X23351Y625D01*
G01X23338Y633D01*
G01X23326Y639D01*
G37*
G36*
G01X31017Y14530D02*
G01X30898Y14530D01*
G01X30904Y14516D01*
G01X30910Y14504D01*
G01X30926Y14480D01*
G01X30935Y14469D01*
G01X30945Y14458D01*
G01X30956Y14448D01*
G01X30967Y14439D01*
G01X30991Y14423D01*
G01X31017Y14411D01*
G01X31017Y14530D01*
G37*
G36*
G01X13694Y526D02*
G01X13694Y645D01*
G01X13668Y633D01*
G01X13644Y617D01*
G01X13633Y607D01*
G01X13622Y598D01*
G01X13604Y576D01*
G01X13595Y564D01*
G01X13588Y552D01*
G01X13581Y539D01*
G01X13575Y526D01*
G01X13694Y526D01*
G37*
G36*
G01X31017Y17679D02*
G01X30898Y17679D01*
G01X30910Y17653D01*
G01X30918Y17641D01*
G01X30926Y17630D01*
G01X30935Y17618D01*
G01X30945Y17608D01*
G01X30956Y17598D01*
G01X30967Y17589D01*
G01X30991Y17573D01*
G01X31004Y17566D01*
G01X31017Y17560D01*
G01X31017Y17679D01*
G37*
G36*
G01X10833Y356D02*
G01X10714Y356D01*
G01X10714Y237D01*
G01X10727Y243D01*
G01X10740Y250D01*
G01X10764Y266D01*
G01X10775Y275D01*
G01X10785Y285D01*
G01X10795Y296D01*
G01X10813Y318D01*
G01X10820Y331D01*
G01X10827Y343D01*
G01X10833Y356D01*
G37*
G36*
G01X31017Y20829D02*
G01X30898Y20829D01*
G01X30910Y20803D01*
G01X30926Y20779D01*
G01X30935Y20768D01*
G01X30945Y20758D01*
G01X30956Y20748D01*
G01X30967Y20739D01*
G01X30979Y20730D01*
G01X30991Y20723D01*
G01X31004Y20716D01*
G01X31017Y20710D01*
G01X31017Y20829D01*
G37*
G36*
G01X25505Y23191D02*
G01X25386Y23191D01*
G01X25392Y23178D01*
G01X25399Y23165D01*
G01X25406Y23153D01*
G01X25415Y23141D01*
G01X25424Y23130D01*
G01X25444Y23110D01*
G01X25455Y23101D01*
G01X25467Y23092D01*
G01X25479Y23085D01*
G01X25492Y23078D01*
G01X25505Y23072D01*
G01X25505Y23191D01*
G37*
G36*
G01X31017Y20211D02*
G01X31017Y20330D01*
G01X30991Y20318D01*
G01X30967Y20302D01*
G01X30956Y20293D01*
G01X30945Y20283D01*
G01X30935Y20272D01*
G01X30926Y20261D01*
G01X30910Y20237D01*
G01X30898Y20211D01*
G01X31017Y20211D01*
G37*
G36*
G01X27369Y23191D02*
G01X27250Y23191D01*
G01X27250Y23072D01*
G01X27263Y23078D01*
G01X27275Y23085D01*
G01X27288Y23092D01*
G01X27310Y23110D01*
G01X27321Y23120D01*
G01X27331Y23130D01*
G01X27340Y23141D01*
G01X27356Y23165D01*
G01X27363Y23178D01*
G01X27369Y23191D01*
G37*
G36*
G01X31017Y19424D02*
G01X31017Y19543D01*
G01X31004Y19537D01*
G01X30991Y19530D01*
G01X30979Y19523D01*
G01X30967Y19514D01*
G01X30956Y19505D01*
G01X30945Y19495D01*
G01X30935Y19485D01*
G01X30926Y19474D01*
G01X30910Y19450D01*
G01X30898Y19424D01*
G01X31017Y19424D01*
G37*
G36*
G01X24717Y23191D02*
G01X24598Y23191D01*
G01X24604Y23178D01*
G01X24611Y23165D01*
G01X24627Y23141D01*
G01X24636Y23130D01*
G01X24646Y23120D01*
G01X24657Y23110D01*
G01X24679Y23092D01*
G01X24692Y23085D01*
G01X24704Y23078D01*
G01X24717Y23072D01*
G01X24717Y23191D01*
G37*
G36*
G01X31017Y17062D02*
G01X31017Y17181D01*
G01X31004Y17175D01*
G01X30991Y17168D01*
G01X30967Y17152D01*
G01X30956Y17143D01*
G01X30945Y17133D01*
G01X30935Y17123D01*
G01X30926Y17111D01*
G01X30918Y17100D01*
G01X30910Y17088D01*
G01X30898Y17062D01*
G01X31017Y17062D01*
G37*
G36*
G01X10740Y633D02*
G01X10714Y645D01*
G01X10714Y526D01*
G01X10833Y526D01*
G01X10827Y539D01*
G01X10820Y552D01*
G01X10813Y564D01*
G01X10804Y576D01*
G01X10795Y587D01*
G01X10785Y598D01*
G01X10775Y607D01*
G01X10764Y617D01*
G01X10740Y633D01*
G37*
G36*
G01X31017Y16892D02*
G01X30898Y16892D01*
G01X30910Y16866D01*
G01X30926Y16842D01*
G01X30935Y16831D01*
G01X30945Y16821D01*
G01X30956Y16811D01*
G01X30967Y16802D01*
G01X30979Y16793D01*
G01X30991Y16786D01*
G01X31004Y16779D01*
G01X31017Y16773D01*
G01X31017Y16892D01*
G37*
G36*
G01X18614Y633D02*
G01X18588Y645D01*
G01X18588Y526D01*
G01X18707Y526D01*
G01X18701Y539D01*
G01X18694Y552D01*
G01X18687Y564D01*
G01X18678Y576D01*
G01X18669Y587D01*
G01X18659Y598D01*
G01X18649Y607D01*
G01X18638Y617D01*
G01X18614Y633D01*
G37*
G36*
G01X31017Y20041D02*
G01X30898Y20041D01*
G01X30904Y20028D01*
G01X30910Y20016D01*
G01X30918Y20003D01*
G01X30926Y19992D01*
G01X30935Y19981D01*
G01X30945Y19970D01*
G01X30956Y19960D01*
G01X30967Y19951D01*
G01X30991Y19935D01*
G01X31004Y19928D01*
G01X31017Y19922D01*
G01X31017Y20041D01*
G37*
G36*
G01X28156Y23191D02*
G01X28037Y23191D01*
G01X28037Y23072D01*
G01X28050Y23078D01*
G01X28063Y23085D01*
G01X28075Y23092D01*
G01X28087Y23101D01*
G01X28098Y23110D01*
G01X28118Y23130D01*
G01X28127Y23141D01*
G01X28136Y23153D01*
G01X28143Y23165D01*
G01X28150Y23178D01*
G01X28156Y23191D01*
G37*
G36*
G01X31017Y16274D02*
G01X31017Y16393D01*
G01X30991Y16381D01*
G01X30967Y16365D01*
G01X30956Y16355D01*
G01X30945Y16346D01*
G01X30935Y16335D01*
G01X30926Y16324D01*
G01X30910Y16300D01*
G01X30898Y16274D01*
G01X31017Y16274D01*
G37*
G36*
G01X18707Y356D02*
G01X18588Y356D01*
G01X18588Y237D01*
G01X18601Y243D01*
G01X18614Y250D01*
G01X18638Y266D01*
G01X18649Y275D01*
G01X18659Y285D01*
G01X18669Y296D01*
G01X18687Y318D01*
G01X18694Y331D01*
G01X18701Y343D01*
G01X18707Y356D01*
G37*
G36*
G01X31017Y16104D02*
G01X30898Y16104D01*
G01X30904Y16091D01*
G01X30910Y16079D01*
G01X30918Y16066D01*
G01X30926Y16055D01*
G01X30935Y16044D01*
G01X30945Y16033D01*
G01X30956Y16023D01*
G01X30967Y16014D01*
G01X30991Y15998D01*
G01X31004Y15991D01*
G01X31017Y15985D01*
G01X31017Y16104D01*
G37*
G36*
G01X11515Y639D02*
G01X11502Y645D01*
G01X11502Y526D01*
G01X11621Y526D01*
G01X11615Y539D01*
G01X11608Y552D01*
G01X11592Y576D01*
G01X11583Y587D01*
G01X11573Y598D01*
G01X11562Y607D01*
G01X11551Y617D01*
G01X11540Y625D01*
G01X11527Y633D01*
G01X11515Y639D01*
G37*
G36*
G01X14677Y633D02*
G01X14651Y645D01*
G01X14651Y526D01*
G01X14770Y526D01*
G01X14764Y539D01*
G01X14757Y552D01*
G01X14750Y564D01*
G01X14741Y576D01*
G01X14732Y587D01*
G01X14722Y598D01*
G01X14712Y607D01*
G01X14701Y617D01*
G01X14677Y633D01*
G37*
G36*
G01X22355Y356D02*
G01X22236Y356D01*
G01X22242Y343D01*
G01X22249Y331D01*
G01X22257Y318D01*
G01X22265Y307D01*
G01X22274Y296D01*
G01X22284Y285D01*
G01X22294Y275D01*
G01X22306Y266D01*
G01X22317Y258D01*
G01X22329Y250D01*
G01X22342Y243D01*
G01X22355Y237D01*
G01X22355Y356D01*
G37*
G36*
G01X14770Y356D02*
G01X14651Y356D01*
G01X14651Y237D01*
G01X14664Y243D01*
G01X14677Y250D01*
G01X14701Y266D01*
G01X14712Y275D01*
G01X14722Y285D01*
G01X14732Y296D01*
G01X14750Y318D01*
G01X14757Y331D01*
G01X14764Y343D01*
G01X14770Y356D01*
G37*
G36*
G01X11621Y356D02*
G01X11502Y356D01*
G01X11502Y237D01*
G01X11515Y243D01*
G01X11527Y250D01*
G01X11540Y258D01*
G01X11551Y266D01*
G01X11562Y275D01*
G01X11573Y285D01*
G01X11583Y296D01*
G01X11592Y307D01*
G01X11600Y318D01*
G01X11608Y331D01*
G01X11615Y343D01*
G01X11621Y356D01*
G37*
G36*
G01X19389Y639D02*
G01X19376Y645D01*
G01X19376Y526D01*
G01X19495Y526D01*
G01X19489Y539D01*
G01X19482Y552D01*
G01X19466Y576D01*
G01X19457Y587D01*
G01X19447Y598D01*
G01X19436Y607D01*
G01X19425Y617D01*
G01X19414Y625D01*
G01X19401Y633D01*
G01X19389Y639D01*
G37*
G36*
G01X22355Y23191D02*
G01X22236Y23191D01*
G01X22242Y23178D01*
G01X22249Y23165D01*
G01X22265Y23141D01*
G01X22274Y23130D01*
G01X22294Y23110D01*
G01X22306Y23101D01*
G01X22317Y23092D01*
G01X22329Y23085D01*
G01X22342Y23078D01*
G01X22355Y23072D01*
G01X22355Y23191D01*
G37*
G36*
G01X19495Y356D02*
G01X19376Y356D01*
G01X19376Y237D01*
G01X19389Y243D01*
G01X19401Y250D01*
G01X19414Y258D01*
G01X19425Y266D01*
G01X19436Y275D01*
G01X19447Y285D01*
G01X19457Y296D01*
G01X19466Y307D01*
G01X19474Y318D01*
G01X19482Y331D01*
G01X19489Y343D01*
G01X19495Y356D01*
G37*
G36*
G01X31017Y18467D02*
G01X30898Y18467D01*
G01X30910Y18441D01*
G01X30926Y18417D01*
G01X30935Y18406D01*
G01X30945Y18395D01*
G01X30956Y18385D01*
G01X30967Y18376D01*
G01X30991Y18360D01*
G01X31017Y18348D01*
G01X31017Y18467D01*
G37*
G36*
G01X31306Y14530D02*
G01X31187Y14530D01*
G01X31187Y14411D01*
G01X31200Y14417D01*
G01X31212Y14423D01*
G01X31225Y14431D01*
G01X31236Y14439D01*
G01X31247Y14448D01*
G01X31258Y14458D01*
G01X31268Y14469D01*
G01X31277Y14480D01*
G01X31293Y14504D01*
G01X31300Y14516D01*
G01X31306Y14530D01*
G37*
G36*
G01X11332Y526D02*
G01X11332Y645D01*
G01X11318Y639D01*
G01X11306Y633D01*
G01X11282Y617D01*
G01X11271Y607D01*
G01X11260Y598D01*
G01X11250Y587D01*
G01X11241Y576D01*
G01X11225Y552D01*
G01X11213Y526D01*
G01X11332Y526D01*
G37*
G36*
G01X31306Y20041D02*
G01X31187Y20041D01*
G01X31187Y19922D01*
G01X31200Y19928D01*
G01X31212Y19935D01*
G01X31225Y19943D01*
G01X31236Y19951D01*
G01X31247Y19960D01*
G01X31258Y19970D01*
G01X31268Y19981D01*
G01X31277Y19992D01*
G01X31285Y20003D01*
G01X31293Y20016D01*
G01X31300Y20028D01*
G01X31306Y20041D01*
G37*
G36*
G01X14481Y356D02*
G01X14362Y356D01*
G01X14368Y343D01*
G01X14375Y331D01*
G01X14383Y318D01*
G01X14391Y307D01*
G01X14400Y296D01*
G01X14410Y285D01*
G01X14420Y275D01*
G01X14431Y266D01*
G01X14455Y250D01*
G01X14468Y243D01*
G01X14481Y237D01*
G01X14481Y356D01*
G37*
G36*
G01X31306Y16892D02*
G01X31187Y16892D01*
G01X31187Y16773D01*
G01X31200Y16779D01*
G01X31212Y16786D01*
G01X31225Y16793D01*
G01X31247Y16811D01*
G01X31258Y16821D01*
G01X31268Y16831D01*
G01X31277Y16842D01*
G01X31293Y16866D01*
G01X31300Y16879D01*
G01X31306Y16892D01*
G37*
G36*
G01X27867Y23191D02*
G01X27748Y23191D01*
G01X27754Y23178D01*
G01X27761Y23165D01*
G01X27768Y23153D01*
G01X27777Y23141D01*
G01X27786Y23130D01*
G01X27806Y23110D01*
G01X27817Y23101D01*
G01X27829Y23092D01*
G01X27841Y23085D01*
G01X27854Y23078D01*
G01X27867Y23072D01*
G01X27867Y23191D01*
G37*
G36*
G01X23930Y356D02*
G01X23811Y356D01*
G01X23817Y343D01*
G01X23824Y331D01*
G01X23831Y318D01*
G01X23849Y296D01*
G01X23859Y285D01*
G01X23869Y275D01*
G01X23880Y266D01*
G01X23904Y250D01*
G01X23917Y243D01*
G01X23930Y237D01*
G01X23930Y356D01*
G37*
G36*
G01X19993Y526D02*
G01X19993Y645D01*
G01X19967Y633D01*
G01X19943Y617D01*
G01X19932Y607D01*
G01X19922Y598D01*
G01X19912Y587D01*
G01X19903Y576D01*
G01X19894Y564D01*
G01X19887Y552D01*
G01X19880Y539D01*
G01X19874Y526D01*
G01X19993Y526D01*
G37*
G36*
G01X31200Y17175D02*
G01X31187Y17181D01*
G01X31187Y17062D01*
G01X31306Y17062D01*
G01X31300Y17075D01*
G01X31293Y17088D01*
G01X31285Y17100D01*
G01X31277Y17111D01*
G01X31268Y17123D01*
G01X31258Y17133D01*
G01X31247Y17143D01*
G01X31236Y17152D01*
G01X31225Y17160D01*
G01X31212Y17168D01*
G01X31200Y17175D01*
G37*
G36*
G01X22644Y356D02*
G01X22525Y356D01*
G01X22525Y237D01*
G01X22538Y243D01*
G01X22551Y250D01*
G01X22575Y266D01*
G01X22586Y275D01*
G01X22596Y285D01*
G01X22606Y296D01*
G01X22624Y318D01*
G01X22631Y331D01*
G01X22638Y343D01*
G01X22644Y356D01*
G37*
G36*
G01X31200Y20324D02*
G01X31187Y20330D01*
G01X31187Y20211D01*
G01X31306Y20211D01*
G01X31300Y20224D01*
G01X31293Y20237D01*
G01X31277Y20261D01*
G01X31268Y20272D01*
G01X31258Y20283D01*
G01X31247Y20293D01*
G01X31236Y20302D01*
G01X31225Y20310D01*
G01X31212Y20318D01*
G01X31200Y20324D01*
G37*
G36*
G01X14481Y526D02*
G01X14481Y645D01*
G01X14455Y633D01*
G01X14431Y617D01*
G01X14420Y607D01*
G01X14410Y598D01*
G01X14400Y587D01*
G01X14391Y576D01*
G01X14375Y552D01*
G01X14368Y539D01*
G01X14362Y526D01*
G01X14481Y526D01*
G37*
G36*
G01X31200Y16387D02*
G01X31187Y16393D01*
G01X31187Y16274D01*
G01X31306Y16274D01*
G01X31300Y16287D01*
G01X31293Y16300D01*
G01X31277Y16324D01*
G01X31268Y16335D01*
G01X31258Y16346D01*
G01X31247Y16355D01*
G01X31236Y16365D01*
G01X31225Y16373D01*
G01X31212Y16381D01*
G01X31200Y16387D01*
G37*
G36*
G01X22551Y633D02*
G01X22525Y645D01*
G01X22525Y526D01*
G01X22644Y526D01*
G01X22638Y539D01*
G01X22631Y552D01*
G01X22624Y564D01*
G01X22615Y576D01*
G01X22606Y587D01*
G01X22596Y598D01*
G01X22586Y607D01*
G01X22575Y617D01*
G01X22551Y633D01*
G37*
G36*
G01X31200Y21112D02*
G01X31187Y21118D01*
G01X31187Y20999D01*
G01X31306Y20999D01*
G01X31300Y21012D01*
G01X31293Y21025D01*
G01X31285Y21037D01*
G01X31277Y21048D01*
G01X31268Y21060D01*
G01X31258Y21070D01*
G01X31247Y21080D01*
G01X31236Y21089D01*
G01X31225Y21097D01*
G01X31212Y21105D01*
G01X31200Y21112D01*
G37*
G36*
G01X25006Y23191D02*
G01X24887Y23191D01*
G01X24887Y23072D01*
G01X24900Y23078D01*
G01X24913Y23085D01*
G01X24925Y23092D01*
G01X24937Y23101D01*
G01X24948Y23110D01*
G01X24959Y23120D01*
G01X24968Y23130D01*
G01X24978Y23141D01*
G01X24994Y23165D01*
G01X25006Y23191D01*
G37*
G36*
G01X31306Y17679D02*
G01X31187Y17679D01*
G01X31187Y17560D01*
G01X31200Y17566D01*
G01X31212Y17573D01*
G01X31225Y17581D01*
G01X31236Y17589D01*
G01X31247Y17598D01*
G01X31258Y17608D01*
G01X31268Y17618D01*
G01X31277Y17630D01*
G01X31285Y17641D01*
G01X31293Y17653D01*
G01X31300Y17666D01*
G01X31306Y17679D01*
G37*
G36*
G01X11332Y356D02*
G01X11213Y356D01*
G01X11219Y343D01*
G01X11225Y331D01*
G01X11233Y318D01*
G01X11241Y307D01*
G01X11250Y296D01*
G01X11260Y285D01*
G01X11271Y275D01*
G01X11282Y266D01*
G01X11306Y250D01*
G01X11318Y243D01*
G01X11332Y237D01*
G01X11332Y356D01*
G37*
G36*
G01X31306Y20829D02*
G01X31187Y20829D01*
G01X31187Y20710D01*
G01X31200Y20716D01*
G01X31212Y20723D01*
G01X31225Y20730D01*
G01X31247Y20748D01*
G01X31258Y20758D01*
G01X31268Y20768D01*
G01X31277Y20779D01*
G01X31293Y20803D01*
G01X31300Y20816D01*
G01X31306Y20829D01*
G37*
G36*
G01X13890Y633D02*
G01X13864Y645D01*
G01X13864Y526D01*
G01X13983Y526D01*
G01X13977Y539D01*
G01X13970Y552D01*
G01X13954Y576D01*
G01X13945Y587D01*
G01X13935Y598D01*
G01X13925Y607D01*
G01X13913Y617D01*
G01X13902Y625D01*
G01X13890Y633D01*
G37*
G36*
G01X31200Y17962D02*
G01X31187Y17968D01*
G01X31187Y17849D01*
G01X31306Y17849D01*
G01X31300Y17862D01*
G01X31293Y17875D01*
G01X31277Y17899D01*
G01X31268Y17910D01*
G01X31258Y17920D01*
G01X31247Y17930D01*
G01X31225Y17948D01*
G01X31212Y17955D01*
G01X31200Y17962D01*
G37*
G36*
G01X23143Y526D02*
G01X23143Y645D01*
G01X23129Y639D01*
G01X23117Y633D01*
G01X23093Y617D01*
G01X23082Y607D01*
G01X23071Y598D01*
G01X23061Y587D01*
G01X23052Y576D01*
G01X23036Y552D01*
G01X23024Y526D01*
G01X23143Y526D01*
G37*
G36*
G01X31200Y19537D02*
G01X31187Y19543D01*
G01X31187Y19424D01*
G01X31306Y19424D01*
G01X31300Y19437D01*
G01X31293Y19450D01*
G01X31277Y19474D01*
G01X31268Y19485D01*
G01X31258Y19495D01*
G01X31247Y19505D01*
G01X31225Y19523D01*
G01X31212Y19530D01*
G01X31200Y19537D01*
G37*
G36*
G01X19206Y356D02*
G01X19087Y356D01*
G01X19093Y343D01*
G01X19099Y331D01*
G01X19107Y318D01*
G01X19115Y307D01*
G01X19124Y296D01*
G01X19134Y285D01*
G01X19145Y275D01*
G01X19156Y266D01*
G01X19180Y250D01*
G01X19192Y243D01*
G01X19206Y237D01*
G01X19206Y356D01*
G37*
G36*
G01X31306Y16104D02*
G01X31187Y16104D01*
G01X31187Y15985D01*
G01X31200Y15991D01*
G01X31212Y15998D01*
G01X31225Y16006D01*
G01X31236Y16014D01*
G01X31247Y16023D01*
G01X31258Y16033D01*
G01X31268Y16044D01*
G01X31277Y16055D01*
G01X31285Y16066D01*
G01X31293Y16079D01*
G01X31300Y16091D01*
G01X31306Y16104D01*
G37*
G36*
G01X21857Y23191D02*
G01X21738Y23191D01*
G01X21738Y23072D01*
G01X21751Y23078D01*
G01X21764Y23085D01*
G01X21776Y23092D01*
G01X21787Y23101D01*
G01X21799Y23110D01*
G01X21819Y23130D01*
G01X21828Y23141D01*
G01X21844Y23165D01*
G01X21851Y23178D01*
G01X21857Y23191D01*
G37*
G36*
G01X31200Y14813D02*
G01X31187Y14819D01*
G01X31187Y14700D01*
G01X31306Y14700D01*
G01X31300Y14713D01*
G01X31293Y14725D01*
G01X31285Y14738D01*
G01X31277Y14749D01*
G01X31268Y14760D01*
G01X31258Y14771D01*
G01X31247Y14781D01*
G01X31236Y14790D01*
G01X31225Y14798D01*
G01X31212Y14806D01*
G01X31200Y14813D01*
G37*
G36*
G01X19993Y356D02*
G01X19874Y356D01*
G01X19880Y343D01*
G01X19887Y331D01*
G01X19894Y318D01*
G01X19912Y296D01*
G01X19922Y285D01*
G01X19932Y275D01*
G01X19943Y266D01*
G01X19967Y250D01*
G01X19980Y243D01*
G01X19993Y237D01*
G01X19993Y356D01*
G37*
G36*
G01X31200Y15600D02*
G01X31187Y15606D01*
G01X31187Y15487D01*
G01X31306Y15487D01*
G01X31300Y15500D01*
G01X31293Y15513D01*
G01X31277Y15537D01*
G01X31268Y15548D01*
G01X31258Y15558D01*
G01X31247Y15568D01*
G01X31225Y15586D01*
G01X31212Y15593D01*
G01X31200Y15600D01*
G37*
G36*
G01X23143Y356D02*
G01X23024Y356D01*
G01X23030Y343D01*
G01X23036Y331D01*
G01X23044Y318D01*
G01X23052Y307D01*
G01X23061Y296D01*
G01X23071Y285D01*
G01X23082Y275D01*
G01X23093Y266D01*
G01X23117Y250D01*
G01X23129Y243D01*
G01X23143Y237D01*
G01X23143Y356D01*
G37*
G36*
G01X31306Y15317D02*
G01X31187Y15317D01*
G01X31187Y15198D01*
G01X31200Y15204D01*
G01X31212Y15211D01*
G01X31225Y15218D01*
G01X31247Y15236D01*
G01X31258Y15246D01*
G01X31268Y15256D01*
G01X31277Y15267D01*
G01X31293Y15291D01*
G01X31300Y15304D01*
G01X31306Y15317D01*
G37*
G36*
G01X19206Y526D02*
G01X19206Y645D01*
G01X19192Y639D01*
G01X19180Y633D01*
G01X19156Y617D01*
G01X19145Y607D01*
G01X19134Y598D01*
G01X19124Y587D01*
G01X19115Y576D01*
G01X19099Y552D01*
G01X19087Y526D01*
G01X19206Y526D01*
G37*
G36*
G01X31200Y18750D02*
G01X31187Y18756D01*
G01X31187Y18637D01*
G01X31306Y18637D01*
G01X31300Y18650D01*
G01X31293Y18662D01*
G01X31285Y18675D01*
G01X31277Y18686D01*
G01X31268Y18697D01*
G01X31258Y18708D01*
G01X31247Y18718D01*
G01X31236Y18727D01*
G01X31225Y18735D01*
G01X31212Y18743D01*
G01X31200Y18750D01*
G37*
G36*
G01X22644Y23191D02*
G01X22525Y23191D01*
G01X22525Y23072D01*
G01X22538Y23078D01*
G01X22551Y23085D01*
G01X22563Y23092D01*
G01X22575Y23101D01*
G01X22586Y23110D01*
G01X22606Y23130D01*
G01X22615Y23141D01*
G01X22624Y23153D01*
G01X22631Y23165D01*
G01X22638Y23178D01*
G01X22644Y23191D01*
G37*
G36*
G01X31306Y19254D02*
G01X31187Y19254D01*
G01X31187Y19135D01*
G01X31200Y19141D01*
G01X31212Y19148D01*
G01X31225Y19155D01*
G01X31247Y19173D01*
G01X31258Y19183D01*
G01X31268Y19193D01*
G01X31277Y19204D01*
G01X31293Y19228D01*
G01X31300Y19241D01*
G01X31306Y19254D01*
G37*
G36*
G01X15269Y356D02*
G01X15150Y356D01*
G01X15156Y343D01*
G01X15162Y331D01*
G01X15170Y318D01*
G01X15178Y307D01*
G01X15187Y296D01*
G01X15197Y285D01*
G01X15208Y275D01*
G01X15219Y266D01*
G01X15243Y250D01*
G01X15255Y243D01*
G01X15269Y237D01*
G01X15269Y356D01*
G37*
G36*
G01X28654Y23191D02*
G01X28535Y23191D01*
G01X28541Y23178D01*
G01X28548Y23165D01*
G01X28564Y23141D01*
G01X28573Y23130D01*
G01X28583Y23120D01*
G01X28594Y23110D01*
G01X28616Y23092D01*
G01X28629Y23085D01*
G01X28641Y23078D01*
G01X28654Y23072D01*
G01X28654Y23191D01*
G37*
G36*
G01X13983Y356D02*
G01X13864Y356D01*
G01X13864Y237D01*
G01X13877Y243D01*
G01X13890Y250D01*
G01X13902Y258D01*
G01X13913Y266D01*
G01X13925Y275D01*
G01X13935Y285D01*
G01X13945Y296D01*
G01X13954Y307D01*
G01X13962Y318D01*
G01X13970Y331D01*
G01X13977Y343D01*
G01X13983Y356D01*
G37*
G36*
G01X12119Y356D02*
G01X12000Y356D01*
G01X12006Y343D01*
G01X12013Y331D01*
G01X12020Y318D01*
G01X12038Y296D01*
G01X12048Y285D01*
G01X12058Y275D01*
G01X12069Y266D01*
G01X12093Y250D01*
G01X12106Y243D01*
G01X12119Y237D01*
G01X12119Y356D01*
G37*
G36*
G01X15269Y526D02*
G01X15269Y645D01*
G01X15255Y639D01*
G01X15243Y633D01*
G01X15219Y617D01*
G01X15208Y607D01*
G01X15197Y598D01*
G01X15187Y587D01*
G01X15178Y576D01*
G01X15162Y552D01*
G01X15150Y526D01*
G01X15269Y526D01*
G37*
G36*
G01X21857Y356D02*
G01X21738Y356D01*
G01X21738Y237D01*
G01X21751Y243D01*
G01X21764Y250D01*
G01X21776Y258D01*
G01X21787Y266D01*
G01X21799Y275D01*
G01X21809Y285D01*
G01X21819Y296D01*
G01X21828Y307D01*
G01X21836Y318D01*
G01X21844Y331D01*
G01X21851Y343D01*
G01X21857Y356D01*
G37*
G36*
G01X20189Y633D02*
G01X20163Y645D01*
G01X20163Y526D01*
G01X20282Y526D01*
G01X20276Y539D01*
G01X20269Y552D01*
G01X20262Y564D01*
G01X20253Y576D01*
G01X20244Y587D01*
G01X20234Y598D01*
G01X20224Y607D01*
G01X20213Y617D01*
G01X20189Y633D01*
G37*
G36*
G01X12119Y526D02*
G01X12119Y645D01*
G01X12093Y633D01*
G01X12069Y617D01*
G01X12058Y607D01*
G01X12048Y598D01*
G01X12038Y587D01*
G01X12029Y576D01*
G01X12020Y564D01*
G01X12013Y552D01*
G01X12006Y539D01*
G01X12000Y526D01*
G01X12119Y526D01*
G37*
G36*
G01X20282Y356D02*
G01X20163Y356D01*
G01X20163Y237D01*
G01X20176Y243D01*
G01X20189Y250D01*
G01X20213Y266D01*
G01X20224Y275D01*
G01X20234Y285D01*
G01X20244Y296D01*
G01X20262Y318D01*
G01X20269Y331D01*
G01X20276Y343D01*
G01X20282Y356D01*
G37*
G36*
G01X27080Y23191D02*
G01X26961Y23191D01*
G01X26973Y23165D01*
G01X26989Y23141D01*
G01X26998Y23130D01*
G01X27008Y23120D01*
G01X27019Y23110D01*
G01X27030Y23101D01*
G01X27042Y23092D01*
G01X27054Y23085D01*
G01X27067Y23078D01*
G01X27080Y23072D01*
G01X27080Y23191D01*
G37*
G36*
G01X25794Y23191D02*
G01X25675Y23191D01*
G01X25675Y23072D01*
G01X25688Y23078D01*
G01X25701Y23085D01*
G01X25713Y23092D01*
G01X25724Y23101D01*
G01X25736Y23110D01*
G01X25756Y23130D01*
G01X25765Y23141D01*
G01X25781Y23165D01*
G01X25788Y23178D01*
G01X25794Y23191D01*
G37*
G36*
G01X23143Y23191D02*
G01X23024Y23191D01*
G01X23036Y23165D01*
G01X23052Y23141D01*
G01X23061Y23130D01*
G01X23071Y23120D01*
G01X23082Y23110D01*
G01X23093Y23101D01*
G01X23105Y23092D01*
G01X23129Y23078D01*
G01X23143Y23072D01*
G01X23143Y23191D01*
G37*
G36*
G01X13102Y633D02*
G01X13076Y645D01*
G01X13076Y526D01*
G01X13195Y526D01*
G01X13183Y552D01*
G01X13167Y576D01*
G01X13157Y587D01*
G01X13148Y598D01*
G01X13137Y607D01*
G01X13126Y617D01*
G01X13102Y633D01*
G37*
G36*
G01X21764Y633D02*
G01X21738Y645D01*
G01X21738Y526D01*
G01X21857Y526D01*
G01X21851Y539D01*
G01X21844Y552D01*
G01X21828Y576D01*
G01X21819Y587D01*
G01X21809Y598D01*
G01X21799Y607D01*
G01X21787Y617D01*
G01X21776Y625D01*
G01X21764Y633D01*
G37*
G36*
G01X13195Y356D02*
G01X13076Y356D01*
G01X13076Y237D01*
G01X13089Y243D01*
G01X13102Y250D01*
G01X13126Y266D01*
G01X13137Y275D01*
G01X13148Y285D01*
G01X13157Y296D01*
G01X13167Y307D01*
G01X13175Y318D01*
G01X13183Y331D01*
G01X13189Y343D01*
G01X13195Y356D01*
G37*
G36*
G01X12408Y356D02*
G01X12289Y356D01*
G01X12289Y237D01*
G01X12302Y243D01*
G01X12315Y250D01*
G01X12339Y266D01*
G01X12350Y275D01*
G01X12360Y285D01*
G01X12370Y296D01*
G01X12388Y318D01*
G01X12395Y331D01*
G01X12402Y343D01*
G01X12408Y356D01*
G37*
G36*
G01X16056Y356D02*
G01X15937Y356D01*
G01X15943Y343D01*
G01X15950Y331D01*
G01X15957Y318D01*
G01X15975Y296D01*
G01X15985Y285D01*
G01X15995Y275D01*
G01X16006Y266D01*
G01X16030Y250D01*
G01X16043Y243D01*
G01X16056Y237D01*
G01X16056Y356D01*
G37*
G36*
G01X10544Y526D02*
G01X10544Y645D01*
G01X10518Y633D01*
G01X10494Y617D01*
G01X10483Y607D01*
G01X10473Y598D01*
G01X10463Y587D01*
G01X10454Y576D01*
G01X10438Y552D01*
G01X10431Y539D01*
G01X10425Y526D01*
G01X10544Y526D01*
G37*
G36*
G01X17920Y356D02*
G01X17801Y356D01*
G01X17801Y237D01*
G01X17814Y243D01*
G01X17827Y250D01*
G01X17839Y258D01*
G01X17850Y266D01*
G01X17862Y275D01*
G01X17872Y285D01*
G01X17882Y296D01*
G01X17891Y307D01*
G01X17899Y318D01*
G01X17907Y331D01*
G01X17914Y343D01*
G01X17920Y356D01*
G37*
G36*
G01X12315Y633D02*
G01X12289Y645D01*
G01X12289Y526D01*
G01X12408Y526D01*
G01X12402Y539D01*
G01X12395Y552D01*
G01X12388Y564D01*
G01X12379Y576D01*
G01X12370Y587D01*
G01X12360Y598D01*
G01X12350Y607D01*
G01X12339Y617D01*
G01X12315Y633D01*
G37*
G36*
G01X16056Y526D02*
G01X16056Y645D01*
G01X16030Y633D01*
G01X16006Y617D01*
G01X15995Y607D01*
G01X15985Y598D01*
G01X15975Y587D01*
G01X15966Y576D01*
G01X15957Y564D01*
G01X15950Y552D01*
G01X15943Y539D01*
G01X15937Y526D01*
G01X16056Y526D01*
G37*
G36*
G01X26581Y23191D02*
G01X26462Y23191D01*
G01X26462Y23072D01*
G01X26475Y23078D01*
G01X26488Y23085D01*
G01X26500Y23092D01*
G01X26512Y23101D01*
G01X26523Y23110D01*
G01X26543Y23130D01*
G01X26552Y23141D01*
G01X26561Y23153D01*
G01X26568Y23165D01*
G01X26575Y23178D01*
G01X26581Y23191D01*
G37*
G36*
G01X17827Y633D02*
G01X17801Y645D01*
G01X17801Y526D01*
G01X17920Y526D01*
G01X17914Y539D01*
G01X17907Y552D01*
G01X17891Y576D01*
G01X17882Y587D01*
G01X17872Y598D01*
G01X17862Y607D01*
G01X17850Y617D01*
G01X17839Y625D01*
G01X17827Y633D01*
G37*
G36*
G01X10544Y356D02*
G01X10425Y356D01*
G01X10431Y343D01*
G01X10438Y331D01*
G01X10446Y318D01*
G01X10454Y307D01*
G01X10463Y296D01*
G01X10473Y285D01*
G01X10483Y275D01*
G01X10494Y266D01*
G01X10518Y250D01*
G01X10531Y243D01*
G01X10544Y237D01*
G01X10544Y356D01*
G37*
G36*
G01X16345Y356D02*
G01X16226Y356D01*
G01X16226Y237D01*
G01X16239Y243D01*
G01X16252Y250D01*
G01X16276Y266D01*
G01X16287Y275D01*
G01X16297Y285D01*
G01X16307Y296D01*
G01X16325Y318D01*
G01X16332Y331D01*
G01X16339Y343D01*
G01X16345Y356D01*
G37*
G36*
G01X28943Y23191D02*
G01X28824Y23191D01*
G01X28824Y23072D01*
G01X28837Y23078D01*
G01X28850Y23085D01*
G01X28862Y23092D01*
G01X28874Y23101D01*
G01X28885Y23110D01*
G01X28896Y23120D01*
G01X28906Y23130D01*
G01X28915Y23141D01*
G01X28931Y23165D01*
G01X28943Y23191D01*
G37*
G36*
G01X20976Y633D02*
G01X20950Y645D01*
G01X20950Y526D01*
G01X21069Y526D01*
G01X21057Y552D01*
G01X21041Y576D01*
G01X21031Y587D01*
G01X21022Y598D01*
G01X21011Y607D01*
G01X21000Y617D01*
G01X20976Y633D01*
G37*
G36*
G01X23930Y526D02*
G01X23930Y645D01*
G01X23904Y633D01*
G01X23880Y617D01*
G01X23869Y607D01*
G01X23859Y598D01*
G01X23849Y587D01*
G01X23840Y576D01*
G01X23831Y564D01*
G01X23824Y552D01*
G01X23817Y539D01*
G01X23811Y526D01*
G01X23930Y526D01*
G37*
G36*
G01X16252Y633D02*
G01X16226Y645D01*
G01X16226Y526D01*
G01X16345Y526D01*
G01X16339Y539D01*
G01X16332Y552D01*
G01X16325Y564D01*
G01X16316Y576D01*
G01X16307Y587D01*
G01X16297Y598D01*
G01X16287Y607D01*
G01X16276Y617D01*
G01X16252Y633D01*
G37*
G36*
G01X21069Y356D02*
G01X20950Y356D01*
G01X20950Y237D01*
G01X20963Y243D01*
G01X20976Y250D01*
G01X21000Y266D01*
G01X21011Y275D01*
G01X21022Y285D01*
G01X21031Y296D01*
G01X21041Y307D01*
G01X21049Y318D01*
G01X21057Y331D01*
G01X21063Y343D01*
G01X21069Y356D01*
G37*
G36*
G01X23930Y23191D02*
G01X23811Y23191D01*
G01X23817Y23178D01*
G01X23824Y23165D01*
G01X23831Y23153D01*
G01X23840Y23141D01*
G01X23849Y23130D01*
G01X23869Y23110D01*
G01X23880Y23101D01*
G01X23892Y23092D01*
G01X23904Y23085D01*
G01X23917Y23078D01*
G01X23930Y23072D01*
G01X23930Y23191D01*
G37*
G36*
G01X21069Y23191D02*
G01X20950Y23191D01*
G01X20950Y23072D01*
G01X20963Y23078D01*
G01X20976Y23085D01*
G01X20988Y23092D01*
G01X21000Y23101D01*
G01X21011Y23110D01*
G01X21022Y23120D01*
G01X21031Y23130D01*
G01X21041Y23141D01*
G01X21057Y23165D01*
G01X21069Y23191D01*
G37*
G36*
G01X16843Y356D02*
G01X16724Y356D01*
G01X16730Y343D01*
G01X16737Y331D01*
G01X16745Y318D01*
G01X16753Y307D01*
G01X16762Y296D01*
G01X16772Y285D01*
G01X16783Y275D01*
G01X16794Y266D01*
G01X16805Y258D01*
G01X16818Y250D01*
G01X16830Y243D01*
G01X16843Y237D01*
G01X16843Y356D01*
G37*
G36*
G01X17132Y356D02*
G01X17013Y356D01*
G01X17013Y237D01*
G01X17026Y243D01*
G01X17039Y250D01*
G01X17063Y266D01*
G01X17074Y275D01*
G01X17085Y285D01*
G01X17094Y296D01*
G01X17104Y307D01*
G01X17112Y318D01*
G01X17120Y331D01*
G01X17126Y343D01*
G01X17132Y356D01*
G37*
G36*
G01X16843Y526D02*
G01X16843Y645D01*
G01X16830Y639D01*
G01X16818Y633D01*
G01X16805Y625D01*
G01X16794Y617D01*
G01X16783Y607D01*
G01X16772Y598D01*
G01X16762Y587D01*
G01X16753Y576D01*
G01X16737Y552D01*
G01X16730Y539D01*
G01X16724Y526D01*
G01X16843Y526D01*
G37*
G36*
G01X17039Y633D02*
G01X17013Y645D01*
G01X17013Y526D01*
G01X17132Y526D01*
G01X17120Y552D01*
G01X17104Y576D01*
G01X17094Y587D01*
G01X17085Y598D01*
G01X17074Y607D01*
G01X17063Y617D01*
G01X17039Y633D01*
G37*
G36*
G01X31306Y18467D02*
G01X31187Y18467D01*
G01X31187Y18348D01*
G01X31200Y18354D01*
G01X31212Y18360D01*
G01X31225Y18368D01*
G01X31236Y18376D01*
G01X31247Y18385D01*
G01X31258Y18395D01*
G01X31268Y18406D01*
G01X31277Y18417D01*
G01X31293Y18441D01*
G01X31300Y18454D01*
G01X31306Y18467D01*
G37*

%LPD*%
G54D10*
G01X30794Y13059D02*
G01X30794Y13286D01*
G01X30373Y13707D01*
G01X26858Y13707D01*
G01X22497Y9345D01*
G01X29795Y13059D02*
G01X26575Y13059D01*
G01X22853Y9337D01*
G54D47*
G01X30794Y12059D02*
G01X30317Y11581D01*
G01X28484Y11581D01*
G01X28011Y11109D01*
G01X25137Y11109D01*
G01X22696Y8667D01*
G01X22328Y8667D01*
G01X22100Y8895D01*
G01X29851Y10910D02*
G01X29851Y10967D01*
G01X25311Y10967D01*
G01X25053Y10709D01*
G01X25053Y10523D01*
G01X23606Y9076D01*
G54D10*
G01X30794Y10893D02*
G01X30294Y10400D01*
G01X26121Y10400D01*
G01X25688Y9967D01*
G01X25008Y9967D01*
G01X23837Y8795D01*
G01X22656Y5951D02*
G01X26374Y5951D01*
G01X26492Y5833D01*
G01X27420Y3352D02*
G01X27420Y2722D01*
G01X26790Y2093D01*
G01X26549Y3352D02*
G01X26549Y2284D01*
G01X26436Y2171D01*
G01X26436Y2053D01*
G01X26672Y1817D01*
G01X26908Y1817D01*
G01X27184Y2093D01*
G01X18286Y1850D02*
G01X18286Y4927D01*
G01X20097Y6738D01*
G01X17617Y11259D02*
G01X17617Y11148D01*
G01X22184Y6581D01*
G01X23719Y14612D02*
G01X24940Y14612D01*
G01X25727Y15400D01*
G01X25657Y6505D02*
G01X26793Y6505D01*
G01X29586Y9297D01*
G01X30255Y9297D01*
G01X30794Y9837D01*
G01X30794Y9893D01*
G01X25963Y6738D02*
G01X26639Y6738D01*
G01X29794Y9893D01*
G01X17657Y17164D02*
G01X18533Y16288D01*
G01X18533Y10625D01*
G01X22184Y6974D01*
G54D47*
G01X29794Y12059D02*
G01X28489Y12059D01*
G01X27893Y11462D01*
G01X25280Y11462D01*
G01X22760Y8942D01*
G01X22499Y8942D01*
G54D10*
G01X22499Y6266D02*
G01X27026Y6266D01*
G01X27460Y5833D01*
G01X25806Y9140D02*
G01X25806Y8904D01*
G01X26357Y8352D01*
G01X27853Y8352D01*
G01X21751Y5085D02*
G01X28310Y5085D01*
G01X29794Y6569D01*
G01X23956Y4770D02*
G01X29782Y4770D01*
G01X30294Y5281D01*
G01X30294Y6069D01*
G01X30794Y6569D01*
G01X26208Y11897D02*
G01X25787Y11897D01*
G01X25731Y11840D01*
G01X26208Y11897D02*
G01X26208Y12163D01*
G01X26465Y12420D01*
G01X27561Y12420D01*
G01X27631Y12349D01*
G54D12*
G01X19728Y12051D02*
G01X19728Y10760D01*
G01X22200Y8289D01*
G01X24555Y8289D01*
G54D10*
G01X26838Y11896D02*
G01X27173Y11896D01*
G01X27266Y11803D01*
G01X27921Y11803D01*
G01X28394Y12276D01*
G36*
G01X26405Y12113D02*
G01X26011Y12113D01*
G01X26011Y11680D01*
G01X26405Y11680D01*
G01X26405Y12113D01*
G37*
G36*
G01X27035Y12113D02*
G01X26641Y12113D01*
G01X26641Y11680D01*
G01X27035Y11680D01*
G01X27035Y12113D01*
G37*

%LPD*%
G36*
G01X19900Y22834D02*
G01X18719Y22834D01*
G01X18326Y22440D01*
G01X18326Y20472D01*
G01X18129Y20275D01*
G01X9467Y20275D01*
G01X9271Y20078D01*
G01X9270Y6692D01*
G01X9270Y3740D01*
G01X9467Y3543D01*
G01X11436Y3543D01*
G01X11633Y3740D01*
G01X11633Y18110D01*
G01X11830Y18307D01*
G01X20097Y18307D01*
G01X20294Y18503D01*
G01X20294Y22440D01*
G01X19900Y22834D01*
G37*

%LPD*%
G36*
G01X6908Y22834D02*
G01X6908Y23031D01*
G01X6711Y22834D01*
G01X6908Y22834D01*
G37*

%LPD*%
G36*
G01X16554Y23031D02*
G01X6908Y23031D01*
G01X6908Y22834D01*
G01X6711Y22834D01*
G01X6711Y16929D01*
G01X8483Y16929D01*
G01X8483Y20866D01*
G01X8680Y21062D01*
G01X16554Y21062D01*
G01X17145Y21456D01*
G01X17145Y22637D01*
G01X16554Y23031D01*
G37*

%LPD*%
G36*
G01X6711Y16938D02*
G01X6711Y16968D01*
G01X6692Y16937D01*
G01X6712Y16937D01*
G01X6711Y16771D01*
G01X6711Y3779D01*
G01X6908Y3582D01*
G01X8286Y3582D01*
G01X8483Y3779D01*
G01X8484Y16937D01*
G01X6711Y16938D01*
G37*
G54D16*
G01X7682Y8089D03*
G01X7679Y8442D03*
G01X7681Y8830D03*
G01X7683Y9207D03*
G01X10058Y8070D03*
G01X10058Y8464D03*
G01X10058Y8858D03*
G01X10058Y9251D03*
G01X10058Y13976D03*
G01X10058Y14370D03*
G01X10058Y14763D03*
G01X10058Y15157D03*
G01X7674Y13970D03*
G01X7668Y14325D03*
G01X7668Y14721D03*
G01X7666Y15129D03*
G01X9861Y19488D03*
G01X10255Y19488D03*
G01X10648Y19488D03*
G01X11042Y19488D03*
G01X11042Y21850D03*
G01X10648Y21850D03*
G01X10255Y21850D03*
G01X9861Y21850D03*
G54D34*
G01X1181Y22488D03*
G01X1181Y1229D03*
G01X30333Y1181D03*
G01X30333Y22440D03*
G54D35*
G01X984Y17764D03*
G01X984Y11859D03*
G01X984Y5953D03*
G01X16160Y22047D03*
G01X19310Y22047D03*
G01X984Y19260D03*
G01X984Y16229D03*
G01X984Y13434D03*
G01X984Y10284D03*
G01X984Y4378D03*
G01X984Y7528D03*
G54D16*
G01X9664Y19094D03*
G01X10058Y19094D03*
G01X10452Y19094D03*
G01X10845Y19094D03*
G01X11239Y19094D03*
G01X11239Y17913D03*
G01X10845Y17913D03*
G01X10452Y17913D03*
G01X10058Y17913D03*
G01X9664Y17913D03*
G01X9664Y13188D03*
G01X10058Y13188D03*
G01X10452Y13188D03*
G01X10845Y13188D03*
G01X11239Y13188D03*
G01X11239Y12007D03*
G01X10845Y12007D03*
G01X10452Y12007D03*
G01X10058Y12007D03*
G01X9664Y12007D03*
G01X9664Y7283D03*
G01X10058Y7283D03*
G01X10452Y7283D03*
G01X10845Y7283D03*
G01X11239Y7283D03*
G01X11239Y6102D03*
G01X10845Y6102D03*
G01X10452Y6102D03*
G01X10058Y6102D03*
G01X9664Y6102D03*
G01X11830Y21850D03*
G01X12223Y21850D03*
G01X12617Y21850D03*
G01X13011Y21850D03*
G01X13011Y19488D03*
G01X12617Y19488D03*
G01X12223Y19488D03*
G01X11830Y19488D03*
G01X13798Y21850D03*
G01X14192Y21850D03*
G01X14585Y21850D03*
G01X14979Y21850D03*
G01X14979Y19488D03*
G01X14585Y19488D03*
G01X14192Y19488D03*
G01X13798Y19488D03*
G01X11082Y3785D03*
G01X11475Y3785D03*
G01X11397Y14691D03*
G01X11397Y14258D03*
G01X11357Y8785D03*
G01X11357Y8392D03*
G01X7283Y21229D03*
G01X7283Y20874D03*
G01X7283Y20481D03*
G01X7283Y20126D03*
G01X7266Y15129D03*
G01X7268Y14723D03*
G01X7268Y14330D03*
G01X7268Y13975D03*
G01X7256Y9212D03*
G01X7256Y8838D03*
G01X7256Y8444D03*
G01X7256Y8090D03*
G01X20865Y23276D03*
G01X21653Y23276D03*
G01X22440Y23276D03*
G01X23228Y23276D03*
G01X24015Y23276D03*
G01X24802Y23276D03*
G01X25590Y23276D03*
G01X26377Y23276D03*
G01X27165Y23276D03*
G01X27952Y23276D03*
G01X28739Y23276D03*
G01X31102Y20914D03*
G01X31102Y20126D03*
G01X31102Y19339D03*
G01X31102Y18552D03*
G01X31102Y17764D03*
G01X31102Y16977D03*
G01X31102Y16189D03*
G01X31102Y15402D03*
G01X31102Y14615D03*
G01X9842Y2804D03*
G01X9842Y2016D03*
G01X9842Y1229D03*
G01X9842Y441D03*
G01X10629Y441D03*
G01X11417Y441D03*
G01X12204Y441D03*
G01X12991Y441D03*
G01X13779Y441D03*
G01X14566Y441D03*
G01X15354Y441D03*
G01X16141Y441D03*
G01X16928Y441D03*
G01X17716Y441D03*
G01X18503Y441D03*
G01X19291Y441D03*
G01X20078Y441D03*
G01X20865Y441D03*
G01X21653Y441D03*
G01X22440Y441D03*
G01X23228Y441D03*
G01X24015Y441D03*
G36*
G01X18960Y15433D02*
G01X18960Y13662D01*
G01X20535Y13662D01*
G01X20535Y15433D01*
G01X18960Y15433D01*
G37*
G36*
G01X18941Y12937D02*
G01X18941Y11165D01*
G01X20515Y11165D01*
G01X20515Y12937D01*
G01X18941Y12937D01*
G37*
G54D37*
G01X29795Y7735D03*
G54D38*
G01X29795Y8735D03*
G01X30795Y7735D03*
G01X30795Y8735D03*
G54D39*
G01X23720Y13853D03*
G54D40*
G01X23720Y12853D03*
G54D39*
G01X30755Y3471D03*
G54D40*
G01X29755Y3471D03*
G54D37*
G01X29795Y13059D03*
G54D38*
G01X30795Y13059D03*
G01X29795Y12059D03*
G01X30795Y12059D03*
G54D37*
G01X30795Y9894D03*
G54D38*
G01X29795Y9894D03*
G01X30795Y10894D03*
G01X29795Y10894D03*
G54D37*
G01X30795Y6569D03*
G54D38*
G01X30795Y5569D03*
G01X29795Y6569D03*
G01X29795Y5569D03*
G54D40*
G01X27631Y12349D03*
G01X27631Y14349D03*
G54D41*
G01X22578Y15432D03*
G54D42*
G01X14467Y17125D03*
G01X14467Y18125D03*
G01X14507Y11259D03*
G01X14507Y12259D03*
G01X14507Y5315D03*
G01X14507Y6315D03*
G36*
G01X26896Y8769D02*
G01X26478Y9186D01*
G01X26896Y9604D01*
G01X27313Y9186D01*
G01X26896Y8769D01*
G37*
G54D44*
G01X25538Y10544D03*
G54D16*
G01X27853Y8352D03*
G01X25806Y9140D03*
G01X1712Y21957D03*
G01X649Y21957D03*
G01X1712Y23020D03*
G01X649Y23020D03*
G01X1180Y23237D03*
G01X1928Y22489D03*
G01X1180Y21741D03*
G01X432Y22489D03*
G01X1712Y1760D03*
G01X1712Y697D03*
G01X649Y1760D03*
G01X649Y697D03*
G01X432Y1229D03*
G01X1180Y1977D03*
G01X1928Y1229D03*
G01X1180Y481D03*
G01X29802Y1712D03*
G01X30865Y1712D03*
G01X29802Y649D03*
G01X30865Y649D03*
G01X30334Y432D03*
G01X29586Y1180D03*
G01X30334Y1928D03*
G01X31082Y1180D03*
G01X29802Y21909D03*
G01X29802Y22972D03*
G01X30865Y21909D03*
G01X30865Y22972D03*
G01X31082Y22441D03*
G01X30334Y21693D03*
G01X29586Y22441D03*
G01X30334Y23189D03*
G01X18286Y1850D03*
G01X17656Y17165D03*
G01X17617Y11259D03*
G01X17578Y5354D03*
G01X16031Y10179D03*
G01X22100Y8895D03*
G01X22497Y9345D03*
G01X22499Y8943D03*
G01X22853Y9337D03*
G01X23606Y9076D03*
G01X23837Y8795D03*
G01X22499Y6266D03*
G01X22656Y5951D03*
G01X26492Y5833D03*
G01X27460Y5833D03*
G01X26790Y2093D03*
G01X27184Y2093D03*
G01X26549Y3352D03*
G01X27420Y3352D03*
G01X23956Y4770D03*
G01X20097Y6738D03*
G01X25657Y6505D03*
G01X25964Y6738D03*
G01X21751Y5085D03*
G01X22184Y6974D03*
G01X22184Y6581D03*
G01X25727Y15400D03*
G01X23719Y14612D03*
G01X18838Y7880D03*
G01X24152Y12014D03*
G01X26935Y7687D03*
G01X24604Y7448D03*
G01X28483Y7093D03*
G01X28483Y9258D03*
G01X26787Y13985D03*
G01X23327Y8905D03*
G01X12145Y3543D03*
G01X24555Y8284D03*
G01X23022Y8658D03*
G01X22986Y6946D03*
G01X22127Y7802D03*
G01X23817Y7801D03*
G01X25731Y11840D03*
G01X24847Y14101D03*
G01X28394Y12276D03*
G01X25889Y13142D03*
G54D45*
G01X23578Y15570D02*
G01X23578Y15294D01*
G01X23078Y15570D02*
G01X23078Y15294D01*
G54D46*
G01X28688Y3027D02*
G01X28688Y2634D01*
G01X25286Y3027D02*
G01X25286Y2634D01*
G01X25286Y976D02*
G01X25286Y464D01*
G01X28688Y976D02*
G01X28688Y464D01*
M00*
M02*
