G04 Layer: TopSolderMaskLayer*
G04 EasyEDA v6.3.39, 2020-04-30T23:39:24+05:30*
G04 1361d28c2fbe473eb46aea13557a18e3,781d2bfaae87481f995808756cab4c07,10*
G04 Gerber Generator version 0.2*
G04 Scale: 100 percent, Rotated: No, Reflected: No *
G04 Dimensions in inches *
G04 leading zeros omitted , absolute positions ,2 integer and 4 decimal *
%FSLAX24Y24*%
%MOIN*%
G90*
G70D02*

%ADD53C,0.006000*%
%ADD54C,0.043433*%
%ADD55C,0.055244*%
%ADD56C,0.031622*%
%ADD57C,0.019024*%
%ADD58C,0.032000*%
%ADD59C,0.185165*%
%ADD60C,0.126110*%
%ADD67C,0.070992*%
%ADD69C,0.086740*%
%ADD72R,0.051307X0.047370*%
%ADD82C,0.068000*%
%ADD86C,0.067055*%

%LPD*%

%LPD*%
G36*
G01X5547Y3516D02*
G01X5559Y3532D01*
G01X5555Y3531D01*
G01X5549Y3530D01*
G01X5539Y3528D01*
G01X5528Y3526D01*
G01X5499Y3521D01*
G01X5443Y3507D01*
G01X5416Y3500D01*
G01X5389Y3491D01*
G01X5363Y3482D01*
G01X5337Y3472D01*
G01X5312Y3461D01*
G01X5288Y3450D01*
G01X5264Y3438D01*
G01X5241Y3425D01*
G01X5219Y3412D01*
G01X5197Y3398D01*
G01X5177Y3384D01*
G01X5157Y3369D01*
G01X5139Y3354D01*
G01X5121Y3338D01*
G01X5104Y3322D01*
G01X5074Y3288D01*
G01X5061Y3270D01*
G01X5049Y3252D01*
G01X5038Y3234D01*
G01X5028Y3216D01*
G01X5010Y3172D01*
G01X5003Y3149D01*
G01X4997Y3125D01*
G01X4991Y3100D01*
G01X4987Y3075D01*
G01X4984Y3049D01*
G01X4983Y3024D01*
G01X4982Y2998D01*
G01X4983Y2973D01*
G01X4985Y2947D01*
G01X4988Y2922D01*
G01X4991Y2902D01*
G01X4995Y2883D01*
G01X5005Y2845D01*
G01X5011Y2827D01*
G01X5018Y2808D01*
G01X5026Y2791D01*
G01X5034Y2773D01*
G01X5043Y2756D01*
G01X5053Y2739D01*
G01X5075Y2705D01*
G01X5101Y2673D01*
G01X5115Y2657D01*
G01X5130Y2641D01*
G01X5146Y2625D01*
G01X5163Y2609D01*
G01X5181Y2593D01*
G01X5200Y2577D01*
G01X5220Y2562D01*
G01X5241Y2546D01*
G01X5263Y2530D01*
G01X5286Y2515D01*
G01X5310Y2499D01*
G01X5335Y2483D01*
G01X5389Y2451D01*
G01X5418Y2435D01*
G01X5448Y2419D01*
G01X5479Y2403D01*
G01X5511Y2386D01*
G01X5646Y2317D01*
G01X5589Y2378D01*
G01X5572Y2397D01*
G01X5556Y2416D01*
G01X5540Y2434D01*
G01X5510Y2472D01*
G01X5484Y2510D01*
G01X5460Y2548D01*
G01X5449Y2567D01*
G01X5429Y2607D01*
G01X5420Y2627D01*
G01X5404Y2667D01*
G01X5390Y2709D01*
G01X5385Y2730D01*
G01X5379Y2752D01*
G01X5375Y2774D01*
G01X5370Y2797D01*
G01X5367Y2819D01*
G01X5361Y2867D01*
G01X5359Y2891D01*
G01X5358Y2915D01*
G01X5357Y2941D01*
G01X5357Y3017D01*
G01X5359Y3041D01*
G01X5360Y3065D01*
G01X5363Y3089D01*
G01X5369Y3135D01*
G01X5373Y3157D01*
G01X5383Y3201D01*
G01X5388Y3222D01*
G01X5395Y3243D01*
G01X5401Y3264D01*
G01X5409Y3285D01*
G01X5425Y3325D01*
G01X5435Y3344D01*
G01X5444Y3363D01*
G01X5477Y3420D01*
G01X5490Y3438D01*
G01X5503Y3457D01*
G01X5516Y3475D01*
G01X5533Y3497D01*
G01X5547Y3516D01*
G37*

%LPD*%
G36*
G01X4804Y3528D02*
G01X4796Y3530D01*
G01X4780Y3528D01*
G01X4756Y3524D01*
G01X4724Y3517D01*
G01X4698Y3511D01*
G01X4673Y3504D01*
G01X4649Y3497D01*
G01X4625Y3489D01*
G01X4602Y3481D01*
G01X4558Y3463D01*
G01X4537Y3453D01*
G01X4516Y3442D01*
G01X4496Y3431D01*
G01X4458Y3407D01*
G01X4440Y3394D01*
G01X4406Y3366D01*
G01X4390Y3352D01*
G01X4375Y3337D01*
G01X4360Y3321D01*
G01X4346Y3305D01*
G01X4333Y3288D01*
G01X4316Y3265D01*
G01X4301Y3243D01*
G01X4288Y3221D01*
G01X4278Y3198D01*
G01X4269Y3176D01*
G01X4261Y3153D01*
G01X4255Y3129D01*
G01X4251Y3103D01*
G01X4248Y3075D01*
G01X4247Y3046D01*
G01X4247Y2979D01*
G01X4249Y2945D01*
G01X4251Y2917D01*
G01X4254Y2893D01*
G01X4257Y2872D01*
G01X4262Y2852D01*
G01X4269Y2833D01*
G01X4277Y2813D01*
G01X4287Y2789D01*
G01X4303Y2759D01*
G01X4312Y2744D01*
G01X4321Y2730D01*
G01X4331Y2715D01*
G01X4342Y2701D01*
G01X4353Y2686D01*
G01X4377Y2658D01*
G01X4405Y2630D01*
G01X4435Y2602D01*
G01X4452Y2588D01*
G01X4469Y2575D01*
G01X4487Y2561D01*
G01X4506Y2547D01*
G01X4526Y2533D01*
G01X4568Y2505D01*
G01X4591Y2491D01*
G01X4614Y2476D01*
G01X4638Y2462D01*
G01X4664Y2448D01*
G01X4690Y2433D01*
G01X4717Y2418D01*
G01X4745Y2403D01*
G01X4775Y2388D01*
G01X4915Y2317D01*
G01X4835Y2403D01*
G01X4816Y2423D01*
G01X4799Y2443D01*
G01X4782Y2464D01*
G01X4766Y2485D01*
G01X4751Y2506D01*
G01X4737Y2527D01*
G01X4724Y2548D01*
G01X4711Y2570D01*
G01X4700Y2592D01*
G01X4689Y2615D01*
G01X4679Y2637D01*
G01X4669Y2661D01*
G01X4661Y2684D01*
G01X4653Y2708D01*
G01X4646Y2732D01*
G01X4634Y2782D01*
G01X4622Y2860D01*
G01X4620Y2887D01*
G01X4618Y2915D01*
G01X4617Y2943D01*
G01X4617Y3002D01*
G01X4618Y3032D01*
G01X4620Y3061D01*
G01X4626Y3117D01*
G01X4630Y3144D01*
G01X4635Y3171D01*
G01X4641Y3197D01*
G01X4647Y3222D01*
G01X4663Y3272D01*
G01X4672Y3296D01*
G01X4682Y3319D01*
G01X4692Y3343D01*
G01X4704Y3365D01*
G01X4716Y3388D01*
G01X4729Y3410D01*
G01X4743Y3432D01*
G01X4758Y3453D01*
G01X4774Y3475D01*
G01X4790Y3496D01*
G01X4801Y3511D01*
G01X4806Y3522D01*
G01X4804Y3528D01*
G37*

%LPD*%
G36*
G01X6218Y3521D02*
G01X6194Y3521D01*
G01X6175Y3518D01*
G01X6153Y3514D01*
G01X6127Y3508D01*
G01X6097Y3500D01*
G01X6051Y3486D01*
G01X6029Y3478D01*
G01X6006Y3469D01*
G01X5984Y3460D01*
G01X5963Y3450D01*
G01X5942Y3439D01*
G01X5922Y3428D01*
G01X5902Y3416D01*
G01X5864Y3390D01*
G01X5846Y3377D01*
G01X5829Y3363D01*
G01X5813Y3349D01*
G01X5797Y3334D01*
G01X5782Y3319D01*
G01X5768Y3304D01*
G01X5755Y3288D01*
G01X5743Y3272D01*
G01X5732Y3256D01*
G01X5720Y3236D01*
G01X5710Y3215D01*
G01X5700Y3193D01*
G01X5691Y3170D01*
G01X5684Y3146D01*
G01X5678Y3122D01*
G01X5672Y3097D01*
G01X5668Y3072D01*
G01X5664Y3020D01*
G01X5664Y2968D01*
G01X5670Y2916D01*
G01X5674Y2890D01*
G01X5680Y2865D01*
G01X5698Y2808D01*
G01X5706Y2790D01*
G01X5714Y2773D01*
G01X5723Y2755D01*
G01X5733Y2738D01*
G01X5744Y2721D01*
G01X5756Y2704D01*
G01X5769Y2687D01*
G01X5782Y2671D01*
G01X5797Y2655D01*
G01X5813Y2638D01*
G01X5830Y2622D01*
G01X5848Y2606D01*
G01X5867Y2590D01*
G01X5887Y2573D01*
G01X5909Y2557D01*
G01X5931Y2540D01*
G01X5955Y2524D01*
G01X6007Y2490D01*
G01X6035Y2473D01*
G01X6065Y2455D01*
G01X6096Y2438D01*
G01X6128Y2420D01*
G01X6162Y2401D01*
G01X6197Y2382D01*
G01X6343Y2305D01*
G01X6265Y2389D01*
G01X6247Y2409D01*
G01X6230Y2428D01*
G01X6198Y2468D01*
G01X6183Y2487D01*
G01X6169Y2507D01*
G01X6156Y2527D01*
G01X6144Y2548D01*
G01X6132Y2568D01*
G01X6121Y2589D01*
G01X6101Y2631D01*
G01X6092Y2653D01*
G01X6084Y2674D01*
G01X6076Y2696D01*
G01X6069Y2719D01*
G01X6063Y2741D01*
G01X6057Y2764D01*
G01X6053Y2788D01*
G01X6048Y2811D01*
G01X6045Y2835D01*
G01X6039Y2885D01*
G01X6038Y2910D01*
G01X6036Y2940D01*
G01X6036Y2998D01*
G01X6037Y3026D01*
G01X6039Y3054D01*
G01X6045Y3108D01*
G01X6049Y3135D01*
G01X6054Y3161D01*
G01X6060Y3186D01*
G01X6067Y3211D01*
G01X6083Y3261D01*
G01X6092Y3285D01*
G01X6102Y3308D01*
G01X6113Y3332D01*
G01X6124Y3355D01*
G01X6137Y3378D01*
G01X6150Y3400D01*
G01X6164Y3422D01*
G01X6186Y3455D01*
G01X6205Y3483D01*
G01X6218Y3504D01*
G01X6223Y3514D01*
G01X6223Y3518D01*
G01X6218Y3521D01*
G37*

%LPD*%
G36*
G01X5837Y2240D02*
G01X4595Y2240D01*
G01X4569Y2239D01*
G01X4383Y2239D01*
G01X4363Y2238D01*
G01X4275Y2238D01*
G01X4260Y2237D01*
G01X4217Y2237D01*
G01X4204Y2236D01*
G01X4168Y2236D01*
G01X4158Y2235D01*
G01X4129Y2235D01*
G01X4121Y2234D01*
G01X4105Y2234D01*
G01X4099Y2233D01*
G01X4086Y2233D01*
G01X4081Y2232D01*
G01X4071Y2232D01*
G01X4067Y2231D01*
G01X4060Y2231D01*
G01X4057Y2230D01*
G01X4055Y2230D01*
G01X4053Y2229D01*
G01X4050Y2229D01*
G01X4049Y2228D01*
G01X4048Y2228D01*
G01X4048Y2227D01*
G01X4046Y2213D01*
G01X4045Y2186D01*
G01X4045Y2106D01*
G01X4049Y2001D01*
G01X7974Y2001D01*
G01X7974Y2236D01*
G01X6014Y2239D01*
G01X5895Y2239D01*
G01X5837Y2240D01*
G37*

%LPD*%
G36*
G01X5749Y1830D02*
G01X5627Y1893D01*
G01X5704Y1812D01*
G01X5726Y1789D01*
G01X5766Y1743D01*
G01X5802Y1697D01*
G01X5818Y1674D01*
G01X5833Y1651D01*
G01X5848Y1627D01*
G01X5862Y1604D01*
G01X5875Y1580D01*
G01X5887Y1556D01*
G01X5899Y1531D01*
G01X5908Y1510D01*
G01X5916Y1491D01*
G01X5923Y1471D01*
G01X5930Y1453D01*
G01X5936Y1434D01*
G01X5941Y1416D01*
G01X5949Y1378D01*
G01X5952Y1358D01*
G01X5954Y1337D01*
G01X5956Y1315D01*
G01X5958Y1292D01*
G01X5959Y1267D01*
G01X5960Y1241D01*
G01X5960Y1181D01*
G01X5959Y1148D01*
G01X5958Y1117D01*
G01X5956Y1087D01*
G01X5954Y1058D01*
G01X5951Y1029D01*
G01X5947Y1002D01*
G01X5943Y976D01*
G01X5938Y950D01*
G01X5932Y925D01*
G01X5925Y901D01*
G01X5918Y878D01*
G01X5910Y854D01*
G01X5901Y832D01*
G01X5891Y810D01*
G01X5869Y766D01*
G01X5856Y744D01*
G01X5843Y723D01*
G01X5829Y701D01*
G01X5813Y680D01*
G01X5775Y628D01*
G01X5851Y642D01*
G01X5878Y648D01*
G01X5928Y660D01*
G01X5953Y668D01*
G01X5976Y675D01*
G01X5999Y683D01*
G01X6021Y692D01*
G01X6042Y702D01*
G01X6063Y711D01*
G01X6083Y722D01*
G01X6102Y733D01*
G01X6120Y744D01*
G01X6138Y756D01*
G01X6155Y768D01*
G01X6171Y781D01*
G01X6201Y809D01*
G01X6215Y824D01*
G01X6241Y854D01*
G01X6252Y870D01*
G01X6274Y904D01*
G01X6292Y940D01*
G01X6300Y959D01*
G01X6307Y978D01*
G01X6319Y1018D01*
G01X6324Y1039D01*
G01X6328Y1060D01*
G01X6332Y1082D01*
G01X6334Y1104D01*
G01X6336Y1127D01*
G01X6337Y1151D01*
G01X6338Y1174D01*
G01X6337Y1193D01*
G01X6337Y1212D01*
G01X6335Y1230D01*
G01X6333Y1249D01*
G01X6330Y1266D01*
G01X6327Y1284D01*
G01X6322Y1302D01*
G01X6318Y1319D01*
G01X6306Y1353D01*
G01X6299Y1370D01*
G01X6291Y1386D01*
G01X6283Y1403D01*
G01X6274Y1419D01*
G01X6254Y1451D01*
G01X6230Y1483D01*
G01X6218Y1498D01*
G01X6204Y1514D01*
G01X6189Y1530D01*
G01X6158Y1561D01*
G01X6141Y1576D01*
G01X6123Y1592D01*
G01X6105Y1607D01*
G01X6085Y1623D01*
G01X6065Y1638D01*
G01X6044Y1654D01*
G01X6022Y1669D01*
G01X5999Y1685D01*
G01X5975Y1701D01*
G01X5950Y1716D01*
G01X5924Y1732D01*
G01X5870Y1764D01*
G01X5841Y1780D01*
G01X5811Y1797D01*
G01X5781Y1813D01*
G01X5749Y1830D01*
G37*

%LPD*%
G36*
G01X6417Y1863D02*
G01X6355Y1897D01*
G01X6444Y1808D01*
G01X6461Y1789D01*
G01X6478Y1771D01*
G01X6495Y1752D01*
G01X6525Y1714D01*
G01X6540Y1694D01*
G01X6554Y1675D01*
G01X6580Y1635D01*
G01X6592Y1615D01*
G01X6614Y1575D01*
G01X6624Y1555D01*
G01X6634Y1534D01*
G01X6643Y1513D01*
G01X6651Y1493D01*
G01X6659Y1472D01*
G01X6666Y1450D01*
G01X6673Y1429D01*
G01X6679Y1408D01*
G01X6689Y1364D01*
G01X6693Y1342D01*
G01X6697Y1317D01*
G01X6700Y1293D01*
G01X6703Y1267D01*
G01X6705Y1242D01*
G01X6706Y1217D01*
G01X6706Y1166D01*
G01X6705Y1140D01*
G01X6703Y1115D01*
G01X6701Y1089D01*
G01X6698Y1064D01*
G01X6695Y1038D01*
G01X6691Y1013D01*
G01X6686Y988D01*
G01X6680Y964D01*
G01X6674Y939D01*
G01X6668Y915D01*
G01X6660Y891D01*
G01X6653Y868D01*
G01X6635Y822D01*
G01X6626Y800D01*
G01X6616Y778D01*
G01X6605Y757D01*
G01X6594Y737D01*
G01X6582Y717D01*
G01X6570Y698D01*
G01X6557Y679D01*
G01X6517Y624D01*
G01X6560Y631D01*
G01X6590Y636D01*
G01X6648Y650D01*
G01X6676Y658D01*
G01X6704Y667D01*
G01X6731Y676D01*
G01X6757Y687D01*
G01X6782Y698D01*
G01X6806Y710D01*
G01X6829Y723D01*
G01X6851Y736D01*
G01X6873Y750D01*
G01X6893Y764D01*
G01X6912Y780D01*
G01X6929Y795D01*
G01X6946Y812D01*
G01X6962Y830D01*
G01X6978Y849D01*
G01X6992Y869D01*
G01X7005Y889D01*
G01X7017Y909D01*
G01X7028Y930D01*
G01X7038Y952D01*
G01X7046Y975D01*
G01X7054Y999D01*
G01X7060Y1024D01*
G01X7066Y1050D01*
G01X7071Y1078D01*
G01X7074Y1099D01*
G01X7076Y1119D01*
G01X7077Y1140D01*
G01X7078Y1160D01*
G01X7078Y1180D01*
G01X7076Y1220D01*
G01X7074Y1239D01*
G01X7071Y1258D01*
G01X7067Y1277D01*
G01X7062Y1296D01*
G01X7057Y1314D01*
G01X7051Y1332D01*
G01X7044Y1351D01*
G01X7037Y1369D01*
G01X7028Y1386D01*
G01X7019Y1404D01*
G01X7009Y1421D01*
G01X6998Y1439D01*
G01X6987Y1456D01*
G01X6961Y1490D01*
G01X6947Y1506D01*
G01X6932Y1523D01*
G01X6916Y1540D01*
G01X6900Y1556D01*
G01X6883Y1572D01*
G01X6826Y1620D01*
G01X6805Y1636D01*
G01X6761Y1668D01*
G01X6738Y1683D01*
G01X6713Y1699D01*
G01X6688Y1714D01*
G01X6663Y1730D01*
G01X6636Y1745D01*
G01X6608Y1761D01*
G01X6580Y1776D01*
G01X6558Y1787D01*
G01X6535Y1800D01*
G01X6513Y1812D01*
G01X6490Y1824D01*
G01X6468Y1835D01*
G01X6449Y1846D01*
G01X6431Y1855D01*
G01X6417Y1863D01*
G37*

%LPD*%
G36*
G01X7198Y1811D02*
G01X7052Y1887D01*
G01X7127Y1808D01*
G01X7146Y1786D01*
G01X7165Y1765D01*
G01X7182Y1745D01*
G01X7199Y1724D01*
G01X7215Y1703D01*
G01X7231Y1683D01*
G01X7245Y1662D01*
G01X7259Y1642D01*
G01X7272Y1621D01*
G01X7284Y1600D01*
G01X7295Y1580D01*
G01X7306Y1559D01*
G01X7316Y1538D01*
G01X7325Y1517D01*
G01X7333Y1495D01*
G01X7341Y1474D01*
G01X7355Y1430D01*
G01X7360Y1407D01*
G01X7365Y1385D01*
G01X7370Y1362D01*
G01X7374Y1338D01*
G01X7377Y1314D01*
G01X7379Y1290D01*
G01X7383Y1240D01*
G01X7384Y1214D01*
G01X7384Y1187D01*
G01X7383Y1160D01*
G01X7383Y1134D01*
G01X7381Y1108D01*
G01X7377Y1058D01*
G01X7374Y1033D01*
G01X7371Y1010D01*
G01X7367Y986D01*
G01X7362Y963D01*
G01X7357Y941D01*
G01X7345Y897D01*
G01X7338Y875D01*
G01X7322Y833D01*
G01X7304Y791D01*
G01X7294Y771D01*
G01X7283Y750D01*
G01X7259Y710D01*
G01X7246Y689D01*
G01X7233Y669D01*
G01X7219Y649D01*
G01X7199Y622D01*
G01X7238Y630D01*
G01X7272Y637D01*
G01X7304Y645D01*
G01X7335Y652D01*
G01X7364Y660D01*
G01X7391Y669D01*
G01X7417Y678D01*
G01X7442Y687D01*
G01X7465Y697D01*
G01X7488Y708D01*
G01X7509Y719D01*
G01X7529Y731D01*
G01X7548Y743D01*
G01X7566Y756D01*
G01X7583Y769D01*
G01X7600Y784D01*
G01X7616Y799D01*
G01X7646Y831D01*
G01X7659Y847D01*
G01X7683Y881D01*
G01X7694Y898D01*
G01X7712Y934D01*
G01X7720Y952D01*
G01X7727Y971D01*
G01X7739Y1011D01*
G01X7743Y1032D01*
G01X7747Y1054D01*
G01X7750Y1076D01*
G01X7754Y1122D01*
G01X7754Y1172D01*
G01X7753Y1199D01*
G01X7752Y1229D01*
G01X7750Y1255D01*
G01X7747Y1278D01*
G01X7743Y1298D01*
G01X7738Y1318D01*
G01X7732Y1336D01*
G01X7724Y1356D01*
G01X7714Y1378D01*
G01X7698Y1410D01*
G01X7689Y1425D01*
G01X7679Y1441D01*
G01X7668Y1456D01*
G01X7656Y1472D01*
G01X7644Y1487D01*
G01X7631Y1503D01*
G01X7618Y1518D01*
G01X7572Y1564D01*
G01X7555Y1579D01*
G01X7537Y1594D01*
G01X7499Y1624D01*
G01X7479Y1640D01*
G01X7458Y1655D01*
G01X7436Y1670D01*
G01X7413Y1686D01*
G01X7365Y1716D01*
G01X7339Y1732D01*
G01X7313Y1747D01*
G01X7286Y1763D01*
G01X7228Y1795D01*
G01X7198Y1811D01*
G37*

%LPD*%
G54D54*
G01X23578Y15570D02*
G01X23578Y15294D01*
G01X23078Y15570D02*
G01X23078Y15294D01*
G54D55*
G01X28688Y3027D02*
G01X28688Y2634D01*
G01X25286Y3027D02*
G01X25286Y2634D01*
G01X25286Y976D02*
G01X25286Y464D01*
G01X28688Y976D02*
G01X28688Y464D01*
G54D56*
G01X14062Y15671D02*
G01X13700Y15671D01*
G01X14062Y15171D02*
G01X13700Y15171D01*
G01X14062Y14671D02*
G01X13700Y14671D01*
G01X14062Y14171D02*
G01X13700Y14171D01*
G01X16219Y15671D02*
G01X15857Y15671D01*
G01X16219Y15171D02*
G01X15857Y15171D01*
G01X16219Y14671D02*
G01X15857Y14671D01*
G01X16219Y14171D02*
G01X15857Y14171D01*
G01X14042Y9805D02*
G01X13680Y9805D01*
G01X14042Y9305D02*
G01X13680Y9305D01*
G01X14042Y8805D02*
G01X13680Y8805D01*
G01X14042Y8305D02*
G01X13680Y8305D01*
G01X16200Y9805D02*
G01X15837Y9805D01*
G01X16200Y9305D02*
G01X15837Y9305D01*
G01X16200Y8805D02*
G01X15837Y8805D01*
G01X16200Y8305D02*
G01X15837Y8305D01*
G01X13924Y3938D02*
G01X13562Y3938D01*
G01X13924Y3438D02*
G01X13562Y3438D01*
G01X13924Y2938D02*
G01X13562Y2938D01*
G01X13924Y2438D02*
G01X13562Y2438D01*
G01X16081Y3938D02*
G01X15719Y3938D01*
G01X16081Y3438D02*
G01X15719Y3438D01*
G01X16081Y2938D02*
G01X15719Y2938D01*
G01X16081Y2438D02*
G01X15719Y2438D01*
G01X23170Y18110D02*
G01X23170Y18503D01*
G01X23170Y20472D02*
G01X23170Y20866D01*
G01X22670Y18110D02*
G01X22670Y18503D01*
G01X22170Y18110D02*
G01X22170Y18503D01*
G01X21670Y18110D02*
G01X21670Y18503D01*
G01X22670Y20472D02*
G01X22670Y20866D01*
G01X22170Y20472D02*
G01X22170Y20866D01*
G01X21670Y20472D02*
G01X21670Y20866D01*
G54D57*
G01X25772Y7089D02*
G01X25349Y7512D01*
G01X25633Y6949D02*
G01X25209Y7373D01*
G01X25493Y6810D02*
G01X25070Y7233D01*
G01X25354Y6671D02*
G01X24931Y7094D01*
G01X25215Y6532D02*
G01X24792Y6955D01*
G01X25076Y6393D02*
G01X24653Y6816D01*
G01X24937Y6253D02*
G01X24514Y6677D01*
G01X24797Y6114D02*
G01X24374Y6537D01*
G01X24658Y5975D02*
G01X24235Y6398D01*
G01X24519Y5836D02*
G01X24096Y6259D01*
G01X24380Y5697D02*
G01X23957Y6120D01*
G01X24241Y5557D02*
G01X23818Y5981D01*
G01X24101Y5418D02*
G01X23678Y5841D01*
G01X23962Y5279D02*
G01X23539Y5702D01*
G01X23823Y5140D02*
G01X23400Y5563D01*
G01X23684Y5001D02*
G01X23261Y5424D01*
G01X22682Y5424D02*
G01X22259Y5001D01*
G01X22543Y5563D02*
G01X22119Y5140D01*
G01X22403Y5702D02*
G01X21980Y5279D01*
G01X22264Y5841D02*
G01X21841Y5418D01*
G01X22125Y5981D02*
G01X21702Y5557D01*
G01X21986Y6120D02*
G01X21563Y5697D01*
G01X21847Y6259D02*
G01X21424Y5836D01*
G01X21707Y6398D02*
G01X21284Y5975D01*
G01X21568Y6537D02*
G01X21145Y6114D01*
G01X21429Y6677D02*
G01X21006Y6253D01*
G01X21290Y6816D02*
G01X20867Y6393D01*
G01X21151Y6955D02*
G01X20727Y6532D01*
G01X21011Y7094D02*
G01X20588Y6671D01*
G01X20872Y7233D02*
G01X20449Y6810D01*
G01X20733Y7373D02*
G01X20310Y6949D01*
G01X20594Y7512D02*
G01X20171Y7089D01*
G01X20594Y8091D02*
G01X20171Y8514D01*
G01X20733Y8230D02*
G01X20310Y8653D01*
G01X20872Y8369D02*
G01X20449Y8792D01*
G01X21011Y8508D02*
G01X20588Y8931D01*
G01X21151Y8648D02*
G01X20727Y9071D01*
G01X21290Y8787D02*
G01X20867Y9210D01*
G01X21429Y8926D02*
G01X21006Y9349D01*
G01X21568Y9065D02*
G01X21145Y9488D01*
G01X21707Y9204D02*
G01X21284Y9627D01*
G01X21847Y9344D02*
G01X21424Y9767D01*
G01X21986Y9483D02*
G01X21563Y9906D01*
G01X22125Y9622D02*
G01X21702Y10045D01*
G01X22264Y9761D02*
G01X21841Y10184D01*
G01X22403Y9900D02*
G01X21980Y10323D01*
G01X22543Y10039D02*
G01X22119Y10463D01*
G01X22682Y10179D02*
G01X22259Y10602D01*
G01X23684Y10602D02*
G01X23261Y10179D01*
G01X23823Y10463D02*
G01X23400Y10039D01*
G01X23962Y10323D02*
G01X23539Y9900D01*
G01X24101Y10184D02*
G01X23678Y9761D01*
G01X24241Y10045D02*
G01X23818Y9622D01*
G01X24380Y9906D02*
G01X23957Y9483D01*
G01X24519Y9767D02*
G01X24096Y9344D01*
G01X24658Y9627D02*
G01X24235Y9204D01*
G01X24797Y9488D02*
G01X24374Y9065D01*
G01X24937Y9349D02*
G01X24514Y8926D01*
G01X25076Y9210D02*
G01X24653Y8787D01*
G01X25215Y9071D02*
G01X24792Y8648D01*
G01X25354Y8931D02*
G01X24931Y8508D01*
G01X25493Y8792D02*
G01X25070Y8369D01*
G01X25633Y8653D02*
G01X25209Y8230D01*
G01X25772Y8514D02*
G01X25349Y8091D01*
G54D53*
G01X18231Y17506D02*
G01X18202Y17477D01*
G01X18173Y17434D01*
G01X18144Y17375D01*
G01X18129Y17303D01*
G01X18129Y17245D01*
G01X18144Y17172D01*
G01X18173Y17114D01*
G01X18202Y17070D01*
G01X18231Y17041D01*
G01X18327Y17346D02*
G01X18327Y17143D01*
G01X18327Y17288D02*
G01X18370Y17332D01*
G01X18400Y17346D01*
G01X18443Y17346D01*
G01X18472Y17332D01*
G01X18487Y17288D01*
G01X18487Y17143D01*
G01X18656Y17346D02*
G01X18626Y17332D01*
G01X18597Y17303D01*
G01X18583Y17259D01*
G01X18583Y17230D01*
G01X18597Y17186D01*
G01X18626Y17157D01*
G01X18656Y17143D01*
G01X18699Y17143D01*
G01X18728Y17157D01*
G01X18757Y17186D01*
G01X18772Y17230D01*
G01X18772Y17259D01*
G01X18757Y17303D01*
G01X18728Y17332D01*
G01X18699Y17346D01*
G01X18656Y17346D01*
G01X18912Y17448D02*
G01X18912Y17201D01*
G01X18926Y17157D01*
G01X18955Y17143D01*
G01X18984Y17143D01*
G01X18868Y17346D02*
G01X18970Y17346D01*
G01X19508Y17405D02*
G01X19479Y17434D01*
G01X19435Y17448D01*
G01X19377Y17448D01*
G01X19333Y17434D01*
G01X19304Y17405D01*
G01X19304Y17375D01*
G01X19319Y17346D01*
G01X19333Y17332D01*
G01X19362Y17317D01*
G01X19450Y17288D01*
G01X19479Y17274D01*
G01X19493Y17259D01*
G01X19508Y17230D01*
G01X19508Y17186D01*
G01X19479Y17157D01*
G01X19435Y17143D01*
G01X19377Y17143D01*
G01X19333Y17157D01*
G01X19304Y17186D01*
G01X19604Y17448D02*
G01X19604Y17143D01*
G01X19749Y17346D02*
G01X19604Y17201D01*
G01X19662Y17259D02*
G01X19764Y17143D01*
G01X20034Y17346D02*
G01X20034Y17143D01*
G01X20034Y17303D02*
G01X20005Y17332D01*
G01X19976Y17346D01*
G01X19933Y17346D01*
G01X19904Y17332D01*
G01X19874Y17303D01*
G01X19860Y17259D01*
G01X19860Y17230D01*
G01X19874Y17186D01*
G01X19904Y17157D01*
G01X19933Y17143D01*
G01X19976Y17143D01*
G01X20005Y17157D01*
G01X20034Y17186D01*
G01X20145Y17346D02*
G01X20232Y17143D01*
G01X20320Y17346D02*
G01X20232Y17143D01*
G01X20203Y17085D01*
G01X20174Y17055D01*
G01X20145Y17041D01*
G01X20130Y17041D01*
G01X20445Y17492D02*
G01X20445Y17405D01*
G01X20672Y17303D02*
G01X20657Y17332D01*
G01X20613Y17346D01*
G01X20570Y17346D01*
G01X20526Y17332D01*
G01X20512Y17303D01*
G01X20526Y17274D01*
G01X20555Y17259D01*
G01X20628Y17245D01*
G01X20657Y17230D01*
G01X20672Y17201D01*
G01X20672Y17186D01*
G01X20657Y17157D01*
G01X20613Y17143D01*
G01X20570Y17143D01*
G01X20526Y17157D01*
G01X20512Y17186D01*
G01X20992Y17448D02*
G01X21006Y17434D01*
G01X21021Y17448D01*
G01X21006Y17463D01*
G01X20992Y17448D01*
G01X21006Y17346D02*
G01X21006Y17143D01*
G01X21291Y17448D02*
G01X21291Y17143D01*
G01X21291Y17303D02*
G01X21262Y17332D01*
G01X21233Y17346D01*
G01X21189Y17346D01*
G01X21160Y17332D01*
G01X21131Y17303D01*
G01X21117Y17259D01*
G01X21117Y17230D01*
G01X21131Y17186D01*
G01X21160Y17157D01*
G01X21189Y17143D01*
G01X21233Y17143D01*
G01X21262Y17157D01*
G01X21291Y17186D01*
G01X21387Y17259D02*
G01X21562Y17259D01*
G01X21562Y17288D01*
G01X21547Y17317D01*
G01X21533Y17332D01*
G01X21504Y17346D01*
G01X21460Y17346D01*
G01X21431Y17332D01*
G01X21402Y17303D01*
G01X21387Y17259D01*
G01X21387Y17230D01*
G01X21402Y17186D01*
G01X21431Y17157D01*
G01X21460Y17143D01*
G01X21504Y17143D01*
G01X21533Y17157D01*
G01X21562Y17186D01*
G01X21832Y17346D02*
G01X21832Y17143D01*
G01X21832Y17303D02*
G01X21803Y17332D01*
G01X21774Y17346D01*
G01X21730Y17346D01*
G01X21701Y17332D01*
G01X21672Y17303D01*
G01X21658Y17259D01*
G01X21658Y17230D01*
G01X21672Y17186D01*
G01X21701Y17157D01*
G01X21730Y17143D01*
G01X21774Y17143D01*
G01X21803Y17157D01*
G01X21832Y17186D01*
G01X21928Y17506D02*
G01X21957Y17477D01*
G01X21986Y17434D01*
G01X22016Y17375D01*
G01X22030Y17303D01*
G01X22030Y17245D01*
G01X22016Y17172D01*
G01X21986Y17114D01*
G01X21957Y17070D01*
G01X21928Y17041D01*
G01X18370Y18039D02*
G01X18370Y17792D01*
G01X18384Y17748D01*
G01X18413Y17734D01*
G01X18442Y17734D01*
G01X18326Y17938D02*
G01X18428Y17938D01*
G01X18538Y17850D02*
G01X18713Y17850D01*
G01X18713Y17879D01*
G01X18698Y17908D01*
G01X18684Y17923D01*
G01X18655Y17938D01*
G01X18611Y17938D01*
G01X18582Y17923D01*
G01X18553Y17894D01*
G01X18538Y17850D01*
G01X18538Y17821D01*
G01X18553Y17778D01*
G01X18582Y17748D01*
G01X18611Y17734D01*
G01X18655Y17734D01*
G01X18684Y17748D01*
G01X18713Y17778D01*
G01X18809Y17938D02*
G01X18809Y17734D01*
G01X18809Y17879D02*
G01X18852Y17923D01*
G01X18882Y17938D01*
G01X18925Y17938D01*
G01X18954Y17923D01*
G01X18969Y17879D01*
G01X18969Y17734D01*
G01X18969Y17879D02*
G01X19012Y17923D01*
G01X19042Y17938D01*
G01X19085Y17938D01*
G01X19114Y17923D01*
G01X19129Y17879D01*
G01X19129Y17734D01*
G01X19225Y17938D02*
G01X19225Y17632D01*
G01X19225Y17894D02*
G01X19254Y17923D01*
G01X19283Y17938D01*
G01X19327Y17938D01*
G01X19356Y17923D01*
G01X19385Y17894D01*
G01X19399Y17850D01*
G01X19399Y17821D01*
G01X19385Y17778D01*
G01X19356Y17748D01*
G01X19327Y17734D01*
G01X19283Y17734D01*
G01X19254Y17748D01*
G01X19225Y17778D01*
G01X19879Y17894D02*
G01X19865Y17923D01*
G01X19821Y17938D01*
G01X19778Y17938D01*
G01X19734Y17923D01*
G01X19719Y17894D01*
G01X19734Y17865D01*
G01X19763Y17850D01*
G01X19836Y17836D01*
G01X19865Y17821D01*
G01X19879Y17792D01*
G01X19879Y17778D01*
G01X19865Y17748D01*
G01X19821Y17734D01*
G01X19778Y17734D01*
G01X19734Y17748D01*
G01X19719Y17778D01*
G01X19975Y17850D02*
G01X20150Y17850D01*
G01X20150Y17879D01*
G01X20135Y17908D01*
G01X20121Y17923D01*
G01X20092Y17938D01*
G01X20048Y17938D01*
G01X20019Y17923D01*
G01X19990Y17894D01*
G01X19975Y17850D01*
G01X19975Y17821D01*
G01X19990Y17778D01*
G01X20019Y17748D01*
G01X20048Y17734D01*
G01X20092Y17734D01*
G01X20121Y17748D01*
G01X20150Y17778D01*
G01X20246Y17938D02*
G01X20246Y17734D01*
G01X20246Y17879D02*
G01X20290Y17923D01*
G01X20319Y17938D01*
G01X20362Y17938D01*
G01X20391Y17923D01*
G01X20406Y17879D01*
G01X20406Y17734D01*
G01X20662Y17894D02*
G01X20647Y17923D01*
G01X20604Y17938D01*
G01X20560Y17938D01*
G01X20516Y17923D01*
G01X20502Y17894D01*
G01X20516Y17865D01*
G01X20546Y17850D01*
G01X20618Y17836D01*
G01X20647Y17821D01*
G01X20662Y17792D01*
G01X20662Y17778D01*
G01X20647Y17748D01*
G01X20604Y17734D01*
G01X20560Y17734D01*
G01X20516Y17748D01*
G01X20502Y17778D01*
G01X20831Y17938D02*
G01X20802Y17923D01*
G01X20772Y17894D01*
G01X20758Y17850D01*
G01X20758Y17821D01*
G01X20772Y17778D01*
G01X20802Y17748D01*
G01X20831Y17734D01*
G01X20874Y17734D01*
G01X20903Y17748D01*
G01X20932Y17778D01*
G01X20947Y17821D01*
G01X20947Y17850D01*
G01X20932Y17894D01*
G01X20903Y17923D01*
G01X20874Y17938D01*
G01X20831Y17938D01*
G01X21043Y17938D02*
G01X21043Y17734D01*
G01X21043Y17850D02*
G01X21058Y17894D01*
G01X21087Y17923D01*
G01X21116Y17938D01*
G01X21159Y17938D01*
G01X18398Y18527D02*
G01X18369Y18513D01*
G01X18340Y18484D01*
G01X18325Y18440D01*
G01X18325Y18411D01*
G01X18340Y18367D01*
G01X18369Y18338D01*
G01X18398Y18324D01*
G01X18442Y18324D01*
G01X18471Y18338D01*
G01X18500Y18367D01*
G01X18514Y18411D01*
G01X18514Y18440D01*
G01X18500Y18484D01*
G01X18471Y18513D01*
G01X18442Y18527D01*
G01X18398Y18527D01*
G01X18610Y18527D02*
G01X18698Y18324D01*
G01X18785Y18527D02*
G01X18698Y18324D01*
G01X18881Y18440D02*
G01X19055Y18440D01*
G01X19055Y18469D01*
G01X19041Y18498D01*
G01X19026Y18513D01*
G01X18997Y18527D01*
G01X18954Y18527D01*
G01X18925Y18513D01*
G01X18895Y18484D01*
G01X18881Y18440D01*
G01X18881Y18411D01*
G01X18895Y18367D01*
G01X18925Y18338D01*
G01X18954Y18324D01*
G01X18997Y18324D01*
G01X19026Y18338D01*
G01X19055Y18367D01*
G01X19151Y18527D02*
G01X19151Y18324D01*
G01X19151Y18440D02*
G01X19166Y18484D01*
G01X19195Y18513D01*
G01X19224Y18527D01*
G01X19268Y18527D01*
G01X19364Y18629D02*
G01X19364Y18324D01*
G01X19474Y18527D02*
G01X19562Y18324D01*
G01X19649Y18527D02*
G01X19562Y18324D01*
G01X19533Y18266D01*
G01X19503Y18236D01*
G01X19474Y18222D01*
G01X19460Y18222D01*
G01X20129Y18484D02*
G01X20114Y18513D01*
G01X20071Y18527D01*
G01X20027Y18527D01*
G01X19983Y18513D01*
G01X19969Y18484D01*
G01X19983Y18455D01*
G01X20013Y18440D01*
G01X20085Y18426D01*
G01X20114Y18411D01*
G01X20129Y18382D01*
G01X20129Y18367D01*
G01X20114Y18338D01*
G01X20071Y18324D01*
G01X20027Y18324D01*
G01X19983Y18338D01*
G01X19969Y18367D01*
G01X20225Y18629D02*
G01X20239Y18615D01*
G01X20254Y18629D01*
G01X20239Y18644D01*
G01X20225Y18629D01*
G01X20239Y18527D02*
G01X20239Y18324D01*
G01X20350Y18527D02*
G01X20350Y18324D01*
G01X20350Y18469D02*
G01X20394Y18513D01*
G01X20423Y18527D01*
G01X20466Y18527D01*
G01X20495Y18513D01*
G01X20510Y18469D01*
G01X20510Y18324D01*
G01X20510Y18469D02*
G01X20554Y18513D01*
G01X20583Y18527D01*
G01X20626Y18527D01*
G01X20655Y18513D01*
G01X20670Y18469D01*
G01X20670Y18324D01*
G01X20766Y18527D02*
G01X20766Y18222D01*
G01X20766Y18484D02*
G01X20795Y18513D01*
G01X20824Y18527D01*
G01X20868Y18527D01*
G01X20897Y18513D01*
G01X20926Y18484D01*
G01X20941Y18440D01*
G01X20941Y18411D01*
G01X20926Y18367D01*
G01X20897Y18338D01*
G01X20868Y18324D01*
G01X20824Y18324D01*
G01X20795Y18338D01*
G01X20766Y18367D01*
G01X21037Y18629D02*
G01X21037Y18324D01*
G01X21133Y18440D02*
G01X21307Y18440D01*
G01X21307Y18469D01*
G01X21293Y18498D01*
G01X21278Y18513D01*
G01X21249Y18527D01*
G01X21205Y18527D01*
G01X21176Y18513D01*
G01X21147Y18484D01*
G01X21133Y18440D01*
G01X21133Y18411D01*
G01X21147Y18367D01*
G01X21176Y18338D01*
G01X21205Y18324D01*
G01X21249Y18324D01*
G01X21278Y18338D01*
G01X21307Y18367D01*
G01X27483Y19869D02*
G01X27454Y19840D01*
G01X27425Y19796D01*
G01X27396Y19738D01*
G01X27381Y19665D01*
G01X27381Y19607D01*
G01X27396Y19534D01*
G01X27425Y19476D01*
G01X27454Y19432D01*
G01X27483Y19403D01*
G01X27579Y19709D02*
G01X27579Y19505D01*
G01X27579Y19650D02*
G01X27623Y19694D01*
G01X27652Y19709D01*
G01X27695Y19709D01*
G01X27724Y19694D01*
G01X27739Y19650D01*
G01X27739Y19505D01*
G01X27908Y19709D02*
G01X27879Y19694D01*
G01X27849Y19665D01*
G01X27835Y19621D01*
G01X27835Y19592D01*
G01X27849Y19549D01*
G01X27879Y19520D01*
G01X27908Y19505D01*
G01X27951Y19505D01*
G01X27980Y19520D01*
G01X28009Y19549D01*
G01X28024Y19592D01*
G01X28024Y19621D01*
G01X28009Y19665D01*
G01X27980Y19694D01*
G01X27951Y19709D01*
G01X27908Y19709D01*
G01X28164Y19810D02*
G01X28164Y19563D01*
G01X28178Y19520D01*
G01X28207Y19505D01*
G01X28236Y19505D01*
G01X28120Y19709D02*
G01X28222Y19709D01*
G01X28556Y19810D02*
G01X28556Y19505D01*
G01X28556Y19810D02*
G01X28760Y19505D01*
G01X28760Y19810D02*
G01X28760Y19505D01*
G01X28856Y19810D02*
G01X28856Y19505D01*
G01X28856Y19810D02*
G01X29060Y19505D01*
G01X29060Y19810D02*
G01X29060Y19505D01*
G01X29156Y19810D02*
G01X29156Y19505D01*
G01X29156Y19810D02*
G01X29359Y19505D01*
G01X29359Y19810D02*
G01X29359Y19505D01*
G01X29455Y19810D02*
G01X29455Y19505D01*
G01X29580Y19854D02*
G01X29580Y19767D01*
G01X29807Y19665D02*
G01X29793Y19694D01*
G01X29749Y19709D01*
G01X29705Y19709D01*
G01X29662Y19694D01*
G01X29647Y19665D01*
G01X29662Y19636D01*
G01X29691Y19621D01*
G01X29764Y19607D01*
G01X29793Y19592D01*
G01X29807Y19563D01*
G01X29807Y19549D01*
G01X29793Y19520D01*
G01X29749Y19505D01*
G01X29705Y19505D01*
G01X29662Y19520D01*
G01X29647Y19549D01*
G01X30127Y19810D02*
G01X30142Y19796D01*
G01X30156Y19810D01*
G01X30142Y19825D01*
G01X30127Y19810D01*
G01X30142Y19709D02*
G01X30142Y19505D01*
G01X30427Y19810D02*
G01X30427Y19505D01*
G01X30427Y19665D02*
G01X30398Y19694D01*
G01X30369Y19709D01*
G01X30325Y19709D01*
G01X30296Y19694D01*
G01X30267Y19665D01*
G01X30252Y19621D01*
G01X30252Y19592D01*
G01X30267Y19549D01*
G01X30296Y19520D01*
G01X30325Y19505D01*
G01X30369Y19505D01*
G01X30398Y19520D01*
G01X30427Y19549D01*
G01X30523Y19621D02*
G01X30697Y19621D01*
G01X30697Y19650D01*
G01X30683Y19680D01*
G01X30668Y19694D01*
G01X30639Y19709D01*
G01X30596Y19709D01*
G01X30567Y19694D01*
G01X30537Y19665D01*
G01X30523Y19621D01*
G01X30523Y19592D01*
G01X30537Y19549D01*
G01X30567Y19520D01*
G01X30596Y19505D01*
G01X30639Y19505D01*
G01X30668Y19520D01*
G01X30697Y19549D01*
G01X30968Y19709D02*
G01X30968Y19505D01*
G01X30968Y19665D02*
G01X30939Y19694D01*
G01X30910Y19709D01*
G01X30866Y19709D01*
G01X30837Y19694D01*
G01X30808Y19665D01*
G01X30793Y19621D01*
G01X30793Y19592D01*
G01X30808Y19549D01*
G01X30837Y19520D01*
G01X30866Y19505D01*
G01X30910Y19505D01*
G01X30939Y19520D01*
G01X30968Y19549D01*
G01X31064Y19869D02*
G01X31093Y19840D01*
G01X31122Y19796D01*
G01X31151Y19738D01*
G01X31166Y19665D01*
G01X31166Y19607D01*
G01X31151Y19534D01*
G01X31122Y19476D01*
G01X31093Y19432D01*
G01X31064Y19403D01*
G01X27245Y20255D02*
G01X27231Y20285D01*
G01X27187Y20299D01*
G01X27144Y20299D01*
G01X27100Y20285D01*
G01X27085Y20255D01*
G01X27100Y20226D01*
G01X27129Y20212D01*
G01X27202Y20197D01*
G01X27231Y20183D01*
G01X27245Y20154D01*
G01X27245Y20139D01*
G01X27231Y20110D01*
G01X27187Y20095D01*
G01X27144Y20095D01*
G01X27100Y20110D01*
G01X27085Y20139D01*
G01X27385Y20401D02*
G01X27385Y20154D01*
G01X27400Y20110D01*
G01X27429Y20095D01*
G01X27458Y20095D01*
G01X27341Y20299D02*
G01X27443Y20299D01*
G01X27554Y20212D02*
G01X27728Y20212D01*
G01X27728Y20241D01*
G01X27714Y20270D01*
G01X27699Y20285D01*
G01X27670Y20299D01*
G01X27627Y20299D01*
G01X27597Y20285D01*
G01X27568Y20255D01*
G01X27554Y20212D01*
G01X27554Y20183D01*
G01X27568Y20139D01*
G01X27597Y20110D01*
G01X27627Y20095D01*
G01X27670Y20095D01*
G01X27699Y20110D01*
G01X27728Y20139D01*
G01X27824Y20299D02*
G01X27824Y19994D01*
G01X27824Y20255D02*
G01X27853Y20285D01*
G01X27883Y20299D01*
G01X27926Y20299D01*
G01X27955Y20285D01*
G01X27984Y20255D01*
G01X27999Y20212D01*
G01X27999Y20183D01*
G01X27984Y20139D01*
G01X27955Y20110D01*
G01X27926Y20095D01*
G01X27883Y20095D01*
G01X27853Y20110D01*
G01X27824Y20139D01*
G01X28493Y20401D02*
G01X28493Y20095D01*
G01X28493Y20255D02*
G01X28464Y20285D01*
G01X28435Y20299D01*
G01X28392Y20299D01*
G01X28363Y20285D01*
G01X28333Y20255D01*
G01X28319Y20212D01*
G01X28319Y20183D01*
G01X28333Y20139D01*
G01X28363Y20110D01*
G01X28392Y20095D01*
G01X28435Y20095D01*
G01X28464Y20110D01*
G01X28493Y20139D01*
G01X28662Y20299D02*
G01X28633Y20285D01*
G01X28604Y20255D01*
G01X28589Y20212D01*
G01X28589Y20183D01*
G01X28604Y20139D01*
G01X28633Y20110D01*
G01X28662Y20095D01*
G01X28706Y20095D01*
G01X28735Y20110D01*
G01X28764Y20139D01*
G01X28779Y20183D01*
G01X28779Y20212D01*
G01X28764Y20255D01*
G01X28735Y20285D01*
G01X28706Y20299D01*
G01X28662Y20299D01*
G01X28875Y20299D02*
G01X28933Y20095D01*
G01X28991Y20299D02*
G01X28933Y20095D01*
G01X28991Y20299D02*
G01X29049Y20095D01*
G01X29107Y20299D02*
G01X29049Y20095D01*
G01X29203Y20299D02*
G01X29203Y20095D01*
G01X29203Y20241D02*
G01X29247Y20285D01*
G01X29276Y20299D01*
G01X29320Y20299D01*
G01X29349Y20285D01*
G01X29363Y20241D01*
G01X29363Y20095D01*
G01X29843Y20255D02*
G01X29829Y20285D01*
G01X29785Y20299D01*
G01X29741Y20299D01*
G01X29698Y20285D01*
G01X29683Y20255D01*
G01X29698Y20226D01*
G01X29727Y20212D01*
G01X29800Y20197D01*
G01X29829Y20183D01*
G01X29843Y20154D01*
G01X29843Y20139D01*
G01X29829Y20110D01*
G01X29785Y20095D01*
G01X29741Y20095D01*
G01X29698Y20110D01*
G01X29683Y20139D01*
G01X29954Y20299D02*
G01X30041Y20095D01*
G01X30128Y20299D02*
G01X30041Y20095D01*
G01X30012Y20037D01*
G01X29983Y20008D01*
G01X29954Y19994D01*
G01X29939Y19994D01*
G01X30384Y20255D02*
G01X30370Y20285D01*
G01X30326Y20299D01*
G01X30283Y20299D01*
G01X30239Y20285D01*
G01X30224Y20255D01*
G01X30239Y20226D01*
G01X30268Y20212D01*
G01X30341Y20197D01*
G01X30370Y20183D01*
G01X30384Y20154D01*
G01X30384Y20139D01*
G01X30370Y20110D01*
G01X30326Y20095D01*
G01X30283Y20095D01*
G01X30239Y20110D01*
G01X30224Y20139D01*
G01X30524Y20401D02*
G01X30524Y20154D01*
G01X30539Y20110D01*
G01X30568Y20095D01*
G01X30597Y20095D01*
G01X30480Y20299D02*
G01X30582Y20299D01*
G01X30693Y20212D02*
G01X30867Y20212D01*
G01X30867Y20241D01*
G01X30853Y20270D01*
G01X30838Y20285D01*
G01X30809Y20299D01*
G01X30765Y20299D01*
G01X30736Y20285D01*
G01X30707Y20255D01*
G01X30693Y20212D01*
G01X30693Y20183D01*
G01X30707Y20139D01*
G01X30736Y20110D01*
G01X30765Y20095D01*
G01X30809Y20095D01*
G01X30838Y20110D01*
G01X30867Y20139D01*
G01X30963Y20299D02*
G01X30963Y20095D01*
G01X30963Y20241D02*
G01X31007Y20285D01*
G01X31036Y20299D01*
G01X31080Y20299D01*
G01X31109Y20285D01*
G01X31123Y20241D01*
G01X31123Y20095D01*
G01X31123Y20241D02*
G01X31167Y20285D01*
G01X31196Y20299D01*
G01X31240Y20299D01*
G01X31269Y20285D01*
G01X31283Y20241D01*
G01X31283Y20095D01*
G01X27650Y20889D02*
G01X27621Y20875D01*
G01X27592Y20846D01*
G01X27577Y20802D01*
G01X27577Y20773D01*
G01X27592Y20729D01*
G01X27621Y20700D01*
G01X27650Y20686D01*
G01X27694Y20686D01*
G01X27723Y20700D01*
G01X27752Y20729D01*
G01X27767Y20773D01*
G01X27767Y20802D01*
G01X27752Y20846D01*
G01X27723Y20875D01*
G01X27694Y20889D01*
G01X27650Y20889D01*
G01X27863Y20889D02*
G01X27950Y20686D01*
G01X28037Y20889D02*
G01X27950Y20686D01*
G01X28133Y20802D02*
G01X28308Y20802D01*
G01X28308Y20831D01*
G01X28293Y20860D01*
G01X28279Y20875D01*
G01X28249Y20889D01*
G01X28206Y20889D01*
G01X28177Y20875D01*
G01X28148Y20846D01*
G01X28133Y20802D01*
G01X28133Y20773D01*
G01X28148Y20729D01*
G01X28177Y20700D01*
G01X28206Y20686D01*
G01X28249Y20686D01*
G01X28279Y20700D01*
G01X28308Y20729D01*
G01X28404Y20889D02*
G01X28404Y20686D01*
G01X28404Y20802D02*
G01X28418Y20846D01*
G01X28447Y20875D01*
G01X28476Y20889D01*
G01X28520Y20889D01*
G01X28616Y20991D02*
G01X28616Y20686D01*
G01X28727Y20889D02*
G01X28814Y20686D01*
G01X28901Y20889D02*
G01X28814Y20686D01*
G01X28785Y20628D01*
G01X28756Y20599D01*
G01X28727Y20584D01*
G01X28712Y20584D01*
G01X29396Y20846D02*
G01X29367Y20875D01*
G01X29337Y20889D01*
G01X29294Y20889D01*
G01X29265Y20875D01*
G01X29236Y20846D01*
G01X29221Y20802D01*
G01X29221Y20773D01*
G01X29236Y20729D01*
G01X29265Y20700D01*
G01X29294Y20686D01*
G01X29337Y20686D01*
G01X29367Y20700D01*
G01X29396Y20729D01*
G01X29564Y20889D02*
G01X29535Y20875D01*
G01X29506Y20846D01*
G01X29492Y20802D01*
G01X29492Y20773D01*
G01X29506Y20729D01*
G01X29535Y20700D01*
G01X29564Y20686D01*
G01X29608Y20686D01*
G01X29637Y20700D01*
G01X29666Y20729D01*
G01X29681Y20773D01*
G01X29681Y20802D01*
G01X29666Y20846D01*
G01X29637Y20875D01*
G01X29608Y20889D01*
G01X29564Y20889D01*
G01X29777Y20889D02*
G01X29777Y20686D01*
G01X29777Y20831D02*
G01X29820Y20875D01*
G01X29849Y20889D01*
G01X29893Y20889D01*
G01X29922Y20875D01*
G01X29937Y20831D01*
G01X29937Y20686D01*
G01X29937Y20831D02*
G01X29980Y20875D01*
G01X30009Y20889D01*
G01X30053Y20889D01*
G01X30082Y20875D01*
G01X30097Y20831D01*
G01X30097Y20686D01*
G01X30193Y20889D02*
G01X30193Y20584D01*
G01X30193Y20846D02*
G01X30222Y20875D01*
G01X30251Y20889D01*
G01X30295Y20889D01*
G01X30324Y20875D01*
G01X30353Y20846D01*
G01X30367Y20802D01*
G01X30367Y20773D01*
G01X30353Y20729D01*
G01X30324Y20700D01*
G01X30295Y20686D01*
G01X30251Y20686D01*
G01X30222Y20700D01*
G01X30193Y20729D01*
G01X30463Y20991D02*
G01X30463Y20686D01*
G01X30559Y20802D02*
G01X30734Y20802D01*
G01X30734Y20831D01*
G01X30719Y20860D01*
G01X30705Y20875D01*
G01X30676Y20889D01*
G01X30632Y20889D01*
G01X30603Y20875D01*
G01X30574Y20846D01*
G01X30559Y20802D01*
G01X30559Y20773D01*
G01X30574Y20729D01*
G01X30603Y20700D01*
G01X30632Y20686D01*
G01X30676Y20686D01*
G01X30705Y20700D01*
G01X30734Y20729D01*
G01X30830Y20889D02*
G01X30990Y20686D01*
G01X30990Y20889D02*
G01X30830Y20686D01*
G54D58*
G01X7682Y8089D03*
G01X7679Y8442D03*
G01X7681Y8830D03*
G01X7683Y9207D03*
G01X10058Y8070D03*
G01X10058Y8464D03*
G01X10058Y8858D03*
G01X10058Y9251D03*
G01X10058Y13976D03*
G01X10058Y14370D03*
G01X10058Y14763D03*
G01X10058Y15157D03*
G01X7674Y13970D03*
G01X7668Y14325D03*
G01X7668Y14721D03*
G01X7666Y15129D03*
G01X9861Y19488D03*
G01X10255Y19488D03*
G01X10648Y19488D03*
G01X11042Y19488D03*
G01X11042Y21850D03*
G01X10648Y21850D03*
G01X10255Y21850D03*
G01X9861Y21850D03*
G54D59*
G01X1181Y22488D03*
G01X1181Y1229D03*
G01X30333Y1181D03*
G01X30333Y22440D03*
G54D60*
G01X984Y17764D03*
G01X984Y11859D03*
G01X984Y5953D03*
G01X16160Y22047D03*
G01X19310Y22047D03*
G01X984Y19260D03*
G01X984Y16229D03*
G01X984Y13434D03*
G01X984Y10284D03*
G01X984Y4378D03*
G01X984Y7528D03*
G54D58*
G01X9664Y19094D03*
G01X10058Y19094D03*
G01X10452Y19094D03*
G01X10845Y19094D03*
G01X11239Y19094D03*
G01X11239Y17913D03*
G01X10845Y17913D03*
G01X10452Y17913D03*
G01X10058Y17913D03*
G01X9664Y17913D03*
G01X9664Y13188D03*
G01X10058Y13188D03*
G01X10452Y13188D03*
G01X10845Y13188D03*
G01X11239Y13188D03*
G01X11239Y12007D03*
G01X10845Y12007D03*
G01X10452Y12007D03*
G01X10058Y12007D03*
G01X9664Y12007D03*
G01X9664Y7283D03*
G01X10058Y7283D03*
G01X10452Y7283D03*
G01X10845Y7283D03*
G01X11239Y7283D03*
G01X11239Y6102D03*
G01X10845Y6102D03*
G01X10452Y6102D03*
G01X10058Y6102D03*
G01X9664Y6102D03*
G01X11830Y21850D03*
G01X12223Y21850D03*
G01X12617Y21850D03*
G01X13011Y21850D03*
G01X13011Y19488D03*
G01X12617Y19488D03*
G01X12223Y19488D03*
G01X11830Y19488D03*
G01X13798Y21850D03*
G01X14192Y21850D03*
G01X14585Y21850D03*
G01X14979Y21850D03*
G01X14979Y19488D03*
G01X14585Y19488D03*
G01X14192Y19488D03*
G01X13798Y19488D03*
G01X11082Y3785D03*
G01X11475Y3785D03*
G01X11397Y14691D03*
G01X11397Y14258D03*
G01X11357Y8785D03*
G01X11357Y8392D03*
G01X7283Y21229D03*
G01X7283Y20874D03*
G01X7283Y20481D03*
G01X7283Y20126D03*
G01X7266Y15129D03*
G01X7268Y14723D03*
G01X7268Y14330D03*
G01X7268Y13975D03*
G01X7256Y9212D03*
G01X7256Y8838D03*
G01X7256Y8444D03*
G01X7256Y8090D03*
G01X20865Y23276D03*
G01X21653Y23276D03*
G01X22440Y23276D03*
G01X23228Y23276D03*
G01X24015Y23276D03*
G01X24802Y23276D03*
G01X25590Y23276D03*
G01X26377Y23276D03*
G01X27165Y23276D03*
G01X27952Y23276D03*
G01X28739Y23276D03*
G01X31102Y20914D03*
G01X31102Y20126D03*
G01X31102Y19339D03*
G01X31102Y18552D03*
G01X31102Y17764D03*
G01X31102Y16977D03*
G01X31102Y16189D03*
G01X31102Y15402D03*
G01X31102Y14615D03*
G01X9842Y2804D03*
G01X9842Y2016D03*
G01X9842Y1229D03*
G01X9842Y441D03*
G01X10629Y441D03*
G01X11417Y441D03*
G01X12204Y441D03*
G01X12991Y441D03*
G01X13779Y441D03*
G01X14566Y441D03*
G01X15354Y441D03*
G01X16141Y441D03*
G01X16928Y441D03*
G01X17716Y441D03*
G01X18503Y441D03*
G01X19291Y441D03*
G01X20078Y441D03*
G01X20865Y441D03*
G01X21653Y441D03*
G01X22440Y441D03*
G01X23228Y441D03*
G01X24015Y441D03*
G36*
G01X18920Y13622D02*
G01X18920Y15473D01*
G01X20575Y15473D01*
G01X20575Y13622D01*
G01X18920Y13622D01*
G37*
G36*
G01X18901Y11125D02*
G01X18901Y12977D01*
G01X20556Y12977D01*
G01X20556Y11125D01*
G01X18901Y11125D01*
G37*
G36*
G01X1869Y16110D02*
G01X1869Y16662D01*
G01X2697Y16662D01*
G01X2697Y16110D01*
G01X1869Y16110D01*
G37*
G36*
G01X1869Y17370D02*
G01X1869Y17922D01*
G01X2697Y17922D01*
G01X2697Y17370D01*
G01X1869Y17370D01*
G37*
G36*
G01X1908Y10165D02*
G01X1908Y10718D01*
G01X2736Y10718D01*
G01X2736Y10165D01*
G01X1908Y10165D01*
G37*
G36*
G01X1908Y11425D02*
G01X1908Y11977D01*
G01X2736Y11977D01*
G01X2736Y11425D01*
G01X1908Y11425D01*
G37*
G36*
G01X1869Y4260D02*
G01X1869Y4812D01*
G01X2697Y4812D01*
G01X2697Y4260D01*
G01X1869Y4260D01*
G37*
G36*
G01X1869Y5520D02*
G01X1869Y6072D01*
G01X2697Y6072D01*
G01X2697Y5520D01*
G01X1869Y5520D01*
G37*
G36*
G01X5377Y17035D02*
G01X5377Y18493D01*
G01X6382Y18493D01*
G01X6382Y17035D01*
G01X5377Y17035D01*
G37*
G36*
G01X2987Y17035D02*
G01X2987Y18493D01*
G01X3992Y18493D01*
G01X3992Y17035D01*
G01X2987Y17035D01*
G37*
G36*
G01X5377Y11130D02*
G01X5377Y12588D01*
G01X6382Y12588D01*
G01X6382Y11130D01*
G01X5377Y11130D01*
G37*
G36*
G01X2987Y11130D02*
G01X2987Y12588D01*
G01X3992Y12588D01*
G01X3992Y11130D01*
G01X2987Y11130D01*
G37*
G36*
G01X5377Y5224D02*
G01X5377Y6682D01*
G01X6382Y6682D01*
G01X6382Y5224D01*
G01X5377Y5224D01*
G37*
G36*
G01X2987Y5224D02*
G01X2987Y6682D01*
G01X3992Y6682D01*
G01X3992Y5224D01*
G01X2987Y5224D01*
G37*
G36*
G01X6389Y20039D02*
G01X6389Y20670D01*
G01X7021Y20670D01*
G01X7021Y20039D01*
G01X6389Y20039D01*
G37*
G36*
G01X6389Y20764D02*
G01X6389Y21395D01*
G01X7021Y21395D01*
G01X7021Y20764D01*
G01X6389Y20764D01*
G37*
G36*
G01X4100Y20008D02*
G01X4100Y21426D01*
G01X6110Y21426D01*
G01X6110Y20008D01*
G01X4100Y20008D01*
G37*
G36*
G01X6369Y13863D02*
G01X6369Y14494D01*
G01X7001Y14494D01*
G01X7001Y13863D01*
G01X6369Y13863D01*
G37*
G36*
G01X6369Y14587D02*
G01X6369Y15218D01*
G01X7001Y15218D01*
G01X7001Y14587D01*
G01X6369Y14587D01*
G37*
G36*
G01X4080Y13831D02*
G01X4080Y15250D01*
G01X6090Y15250D01*
G01X6090Y13831D01*
G01X4080Y13831D01*
G37*
G36*
G01X6339Y8009D02*
G01X6339Y8640D01*
G01X6971Y8640D01*
G01X6971Y8009D01*
G01X6339Y8009D01*
G37*
G36*
G01X6339Y8733D02*
G01X6339Y9365D01*
G01X6971Y9365D01*
G01X6971Y8733D01*
G01X6339Y8733D01*
G37*
G36*
G01X4050Y7978D02*
G01X4050Y9396D01*
G01X6060Y9396D01*
G01X6060Y7978D01*
G01X4050Y7978D01*
G37*
G36*
G01X29440Y7380D02*
G01X29440Y8089D01*
G01X30150Y8089D01*
G01X30150Y7380D01*
G01X29440Y7380D01*
G37*
G54D67*
G01X29795Y8735D03*
G01X30795Y7735D03*
G01X30795Y8735D03*
G36*
G01X23286Y13419D02*
G01X23286Y14286D01*
G01X24153Y14286D01*
G01X24153Y13419D01*
G01X23286Y13419D01*
G37*
G54D69*
G01X23720Y12853D03*
G36*
G01X30321Y3037D02*
G01X30321Y3904D01*
G01X31188Y3904D01*
G01X31188Y3037D01*
G01X30321Y3037D01*
G37*
G01X29755Y3471D03*
G36*
G01X29440Y12704D02*
G01X29440Y13413D01*
G01X30150Y13413D01*
G01X30150Y12704D01*
G01X29440Y12704D01*
G37*
G54D67*
G01X30795Y13059D03*
G01X29795Y12059D03*
G01X30795Y12059D03*
G36*
G01X30440Y9539D02*
G01X30440Y10248D01*
G01X31150Y10248D01*
G01X31150Y9539D01*
G01X30440Y9539D01*
G37*
G01X29795Y9894D03*
G01X30795Y10894D03*
G01X29795Y10894D03*
G36*
G01X30440Y6214D02*
G01X30440Y6923D01*
G01X31150Y6923D01*
G01X31150Y6214D01*
G01X30440Y6214D01*
G37*
G01X30795Y5569D03*
G01X29795Y6569D03*
G01X29795Y5569D03*
G54D69*
G01X27631Y12349D03*
G01X27631Y14349D03*
G36*
G01X21774Y10446D02*
G01X21439Y10781D01*
G01X21802Y11144D01*
G01X22137Y10809D01*
G01X21774Y10446D01*
G37*
G36*
G01X21273Y10947D02*
G01X20938Y11282D01*
G01X21300Y11645D01*
G01X21635Y11310D01*
G01X21273Y10947D01*
G37*
G36*
G01X22361Y15077D02*
G01X22361Y15787D01*
G01X22795Y15787D01*
G01X22795Y15077D01*
G01X22361Y15077D01*
G37*
G36*
G01X25729Y12829D02*
G01X25729Y13303D01*
G01X26242Y13303D01*
G01X26242Y12829D01*
G01X25729Y12829D01*
G37*
G36*
G01X25729Y12120D02*
G01X25729Y12594D01*
G01X26242Y12594D01*
G01X26242Y12120D01*
G01X25729Y12120D01*
G37*
G36*
G01X25708Y2814D02*
G01X25708Y3170D01*
G01X25906Y3170D01*
G01X25906Y2814D01*
G01X25708Y2814D01*
G37*
G36*
G01X25905Y2814D02*
G01X25905Y3170D01*
G01X26103Y3170D01*
G01X26103Y2814D01*
G01X25905Y2814D01*
G37*
G36*
G01X26102Y2814D02*
G01X26102Y3170D01*
G01X26300Y3170D01*
G01X26300Y2814D01*
G01X26102Y2814D01*
G37*
G36*
G01X26299Y2814D02*
G01X26299Y3170D01*
G01X26497Y3170D01*
G01X26497Y2814D01*
G01X26299Y2814D01*
G37*
G36*
G01X26496Y2814D02*
G01X26496Y3170D01*
G01X26694Y3170D01*
G01X26694Y2814D01*
G01X26496Y2814D01*
G37*
G36*
G01X26691Y2814D02*
G01X26691Y3170D01*
G01X26890Y3170D01*
G01X26890Y2814D01*
G01X26691Y2814D01*
G37*
G36*
G01X27087Y2814D02*
G01X27087Y3170D01*
G01X27285Y3170D01*
G01X27285Y2814D01*
G01X27087Y2814D01*
G37*
G36*
G01X27282Y2814D02*
G01X27282Y3170D01*
G01X27480Y3170D01*
G01X27480Y2814D01*
G01X27282Y2814D01*
G37*
G36*
G01X27479Y2814D02*
G01X27479Y3170D01*
G01X27677Y3170D01*
G01X27677Y2814D01*
G01X27479Y2814D01*
G37*
G36*
G01X27676Y2814D02*
G01X27676Y3170D01*
G01X27874Y3170D01*
G01X27874Y2814D01*
G01X27676Y2814D01*
G37*
G36*
G01X27872Y2814D02*
G01X27872Y3170D01*
G01X28071Y3170D01*
G01X28071Y2814D01*
G01X27872Y2814D01*
G37*
G36*
G01X28069Y2814D02*
G01X28069Y3170D01*
G01X28267Y3170D01*
G01X28267Y2814D01*
G01X28069Y2814D01*
G37*
G36*
G01X25530Y2303D02*
G01X25530Y2658D01*
G01X26004Y2658D01*
G01X26004Y2303D01*
G01X25530Y2303D01*
G37*
G36*
G01X26002Y2302D02*
G01X26002Y2658D01*
G01X26201Y2658D01*
G01X26201Y2302D01*
G01X26002Y2302D01*
G37*
G36*
G01X26199Y2302D02*
G01X26199Y2658D01*
G01X26397Y2658D01*
G01X26397Y2302D01*
G01X26199Y2302D01*
G37*
G36*
G01X26396Y2302D02*
G01X26396Y2658D01*
G01X26594Y2658D01*
G01X26594Y2302D01*
G01X26396Y2302D01*
G37*
G36*
G01X26593Y2302D02*
G01X26593Y2658D01*
G01X26791Y2658D01*
G01X26791Y2302D01*
G01X26593Y2302D01*
G37*
G36*
G01X26790Y2302D02*
G01X26790Y2658D01*
G01X26988Y2658D01*
G01X26988Y2302D01*
G01X26790Y2302D01*
G37*
G36*
G01X26987Y2302D02*
G01X26987Y2658D01*
G01X27185Y2658D01*
G01X27185Y2302D01*
G01X26987Y2302D01*
G37*
G36*
G01X27184Y2302D02*
G01X27184Y2658D01*
G01X27382Y2658D01*
G01X27382Y2302D01*
G01X27184Y2302D01*
G37*
G36*
G01X27380Y2302D02*
G01X27380Y2658D01*
G01X27578Y2658D01*
G01X27578Y2302D01*
G01X27380Y2302D01*
G37*
G36*
G01X27577Y2302D02*
G01X27577Y2658D01*
G01X27775Y2658D01*
G01X27775Y2302D01*
G01X27577Y2302D01*
G37*
G36*
G01X27774Y2302D02*
G01X27774Y2658D01*
G01X27972Y2658D01*
G01X27972Y2302D01*
G01X27774Y2302D01*
G37*
G36*
G01X27971Y2302D02*
G01X27971Y2658D01*
G01X28445Y2658D01*
G01X28445Y2302D01*
G01X27971Y2302D01*
G37*
G36*
G01X17361Y15156D02*
G01X17361Y15630D01*
G01X17874Y15630D01*
G01X17874Y15156D01*
G01X17361Y15156D01*
G37*
G36*
G01X17361Y15786D02*
G01X17361Y16260D01*
G01X17874Y16260D01*
G01X17874Y15786D01*
G01X17361Y15786D01*
G37*
G36*
G01X17361Y9211D02*
G01X17361Y9685D01*
G01X17874Y9685D01*
G01X17874Y9211D01*
G01X17361Y9211D01*
G37*
G36*
G01X17361Y9841D02*
G01X17361Y10315D01*
G01X17874Y10315D01*
G01X17874Y9841D01*
G01X17361Y9841D01*
G37*
G36*
G01X17361Y3345D02*
G01X17361Y3819D01*
G01X17874Y3819D01*
G01X17874Y3345D01*
G01X17361Y3345D01*
G37*
G36*
G01X17361Y3975D02*
G01X17361Y4449D01*
G01X17874Y4449D01*
G01X17874Y3975D01*
G01X17361Y3975D01*
G37*
G36*
G01X17361Y8424D02*
G01X17361Y8898D01*
G01X17874Y8898D01*
G01X17874Y8424D01*
G01X17361Y8424D01*
G37*
G36*
G01X17361Y7794D02*
G01X17361Y8268D01*
G01X17874Y8268D01*
G01X17874Y7794D01*
G01X17361Y7794D01*
G37*
G36*
G01X17361Y2558D02*
G01X17361Y3032D01*
G01X17874Y3032D01*
G01X17874Y2558D01*
G01X17361Y2558D01*
G37*
G36*
G01X17361Y1928D02*
G01X17361Y2402D01*
G01X17874Y2402D01*
G01X17874Y1928D01*
G01X17361Y1928D01*
G37*
G36*
G01X11978Y14340D02*
G01X11978Y14814D01*
G01X12491Y14814D01*
G01X12491Y14340D01*
G01X11978Y14340D01*
G37*
G36*
G01X11978Y15049D02*
G01X11978Y15523D01*
G01X12491Y15523D01*
G01X12491Y15049D01*
G01X11978Y15049D01*
G37*
G36*
G01X11967Y8463D02*
G01X11967Y8937D01*
G01X12480Y8937D01*
G01X12480Y8463D01*
G01X11967Y8463D01*
G37*
G36*
G01X11967Y9172D02*
G01X11967Y9646D01*
G01X12480Y9646D01*
G01X12480Y9172D01*
G01X11967Y9172D01*
G37*
G36*
G01X11888Y2597D02*
G01X11888Y3071D01*
G01X12401Y3071D01*
G01X12401Y2597D01*
G01X11888Y2597D01*
G37*
G36*
G01X11888Y3306D02*
G01X11888Y3780D01*
G01X12401Y3780D01*
G01X12401Y3306D01*
G01X11888Y3306D01*
G37*
G36*
G01X12794Y8463D02*
G01X12794Y8937D01*
G01X13307Y8937D01*
G01X13307Y8463D01*
G01X12794Y8463D01*
G37*
G36*
G01X12794Y9172D02*
G01X12794Y9646D01*
G01X13307Y9646D01*
G01X13307Y9172D01*
G01X12794Y9172D01*
G37*
G36*
G01X12715Y2597D02*
G01X12715Y3071D01*
G01X13228Y3071D01*
G01X13228Y2597D01*
G01X12715Y2597D01*
G37*
G36*
G01X12715Y3306D02*
G01X12715Y3780D01*
G01X13228Y3780D01*
G01X13228Y3306D01*
G01X12715Y3306D01*
G37*
G36*
G01X21081Y21239D02*
G01X21081Y21752D01*
G01X21555Y21752D01*
G01X21555Y21239D01*
G01X21081Y21239D01*
G37*
G36*
G01X21790Y21239D02*
G01X21790Y21752D01*
G01X22263Y21752D01*
G01X22263Y21239D01*
G01X21790Y21239D01*
G37*
G36*
G01X27833Y21259D02*
G01X27833Y21732D01*
G01X28346Y21732D01*
G01X28346Y21259D01*
G01X27833Y21259D01*
G37*
G54D72*
G01X28089Y22204D03*
G36*
G01X22341Y17223D02*
G01X22341Y17736D01*
G01X22815Y17736D01*
G01X22815Y17223D01*
G01X22341Y17223D01*
G37*
G36*
G01X23050Y17223D02*
G01X23050Y17736D01*
G01X23523Y17736D01*
G01X23523Y17223D01*
G01X23050Y17223D01*
G37*
G36*
G01X24743Y21239D02*
G01X24743Y21752D01*
G01X25216Y21752D01*
G01X25216Y21239D01*
G01X24743Y21239D01*
G37*
G36*
G01X24113Y21239D02*
G01X24113Y21752D01*
G01X24586Y21752D01*
G01X24586Y21239D01*
G01X24113Y21239D01*
G37*
G36*
G01X26199Y21239D02*
G01X26199Y21752D01*
G01X26673Y21752D01*
G01X26673Y21239D01*
G01X26199Y21239D01*
G37*
G36*
G01X25569Y21239D02*
G01X25569Y21752D01*
G01X26043Y21752D01*
G01X26043Y21239D01*
G01X25569Y21239D01*
G37*
G36*
G01X27754Y14960D02*
G01X27754Y15906D01*
G01X29212Y15906D01*
G01X29212Y14960D01*
G01X27754Y14960D01*
G37*
G36*
G01X27321Y17400D02*
G01X27321Y18346D01*
G01X27834Y18346D01*
G01X27834Y17400D01*
G01X27321Y17400D01*
G37*
G36*
G01X28227Y17400D02*
G01X28227Y18346D01*
G01X28740Y18346D01*
G01X28740Y17400D01*
G01X28227Y17400D01*
G37*
G36*
G01X29132Y17400D02*
G01X29132Y18346D01*
G01X29645Y18346D01*
G01X29645Y17400D01*
G01X29132Y17400D01*
G37*
G36*
G01X30136Y14034D02*
G01X30136Y14547D01*
G01X30610Y14547D01*
G01X30610Y14034D01*
G01X30136Y14034D01*
G37*
G36*
G01X29427Y14034D02*
G01X29427Y14547D01*
G01X29901Y14547D01*
G01X29901Y14034D01*
G01X29427Y14034D01*
G37*
G36*
G01X30156Y15353D02*
G01X30156Y15827D01*
G01X30669Y15827D01*
G01X30669Y15353D01*
G01X30156Y15353D01*
G37*
G36*
G01X30156Y15983D02*
G01X30156Y16457D01*
G01X30669Y16457D01*
G01X30669Y15983D01*
G01X30156Y15983D01*
G37*
G36*
G01X30156Y17400D02*
G01X30156Y17874D01*
G01X30669Y17874D01*
G01X30669Y17400D01*
G01X30156Y17400D01*
G37*
G36*
G01X30156Y16771D02*
G01X30156Y17244D01*
G01X30669Y17244D01*
G01X30669Y16771D01*
G01X30156Y16771D01*
G37*
G36*
G01X13975Y21022D02*
G01X13975Y21575D01*
G01X14803Y21575D01*
G01X14803Y21022D01*
G01X13975Y21022D01*
G37*
G36*
G01X13975Y19763D02*
G01X13975Y20315D01*
G01X14803Y20315D01*
G01X14803Y19763D01*
G01X13975Y19763D01*
G37*
G36*
G01X12006Y21022D02*
G01X12006Y21575D01*
G01X12834Y21575D01*
G01X12834Y21022D01*
G01X12006Y21022D01*
G37*
G36*
G01X12006Y19763D02*
G01X12006Y20315D01*
G01X12834Y20315D01*
G01X12834Y19763D01*
G01X12006Y19763D01*
G37*
G36*
G01X7971Y14152D02*
G01X7971Y14980D01*
G01X8523Y14980D01*
G01X8523Y14152D01*
G01X7971Y14152D01*
G37*
G36*
G01X9231Y14152D02*
G01X9231Y14980D01*
G01X9783Y14980D01*
G01X9783Y14152D01*
G01X9231Y14152D01*
G37*
G36*
G01X7971Y8247D02*
G01X7971Y9075D01*
G01X8523Y9075D01*
G01X8523Y8247D01*
G01X7971Y8247D01*
G37*
G36*
G01X9231Y8247D02*
G01X9231Y9075D01*
G01X9783Y9075D01*
G01X9783Y8247D01*
G01X9231Y8247D01*
G37*
G36*
G01X10038Y21022D02*
G01X10038Y21575D01*
G01X10866Y21575D01*
G01X10866Y21022D01*
G01X10038Y21022D01*
G37*
G36*
G01X10038Y19763D02*
G01X10038Y20315D01*
G01X10866Y20315D01*
G01X10866Y19763D01*
G01X10038Y19763D01*
G37*
G36*
G01X23000Y4514D02*
G01X22637Y4877D01*
G01X22972Y5212D01*
G01X23335Y4849D01*
G01X23000Y4514D01*
G37*
G36*
G01X22499Y4013D02*
G01X22136Y4376D01*
G01X22471Y4711D01*
G01X22834Y4348D01*
G01X22499Y4013D01*
G37*
G36*
G01X20019Y7438D02*
G01X19684Y7773D01*
G01X20047Y8136D01*
G01X20382Y7801D01*
G01X20019Y7438D01*
G37*
G36*
G01X19518Y7939D02*
G01X19183Y8274D01*
G01X19546Y8637D01*
G01X19881Y8302D01*
G01X19518Y7939D01*
G37*
G36*
G01X22971Y10391D02*
G01X22608Y10754D01*
G01X22943Y11088D01*
G01X23306Y10726D01*
G01X22971Y10391D01*
G37*
G36*
G01X23472Y10892D02*
G01X23109Y11255D01*
G01X23444Y11590D01*
G01X23807Y11227D01*
G01X23472Y10892D01*
G37*
G36*
G01X25935Y7467D02*
G01X25600Y7802D01*
G01X25963Y8164D01*
G01X26298Y7829D01*
G01X25935Y7467D01*
G37*
G36*
G01X26437Y6965D02*
G01X26102Y7300D01*
G01X26464Y7663D01*
G01X26799Y7328D01*
G01X26437Y6965D01*
G37*
G36*
G01X17361Y14408D02*
G01X17361Y14882D01*
G01X17874Y14882D01*
G01X17874Y14408D01*
G01X17361Y14408D01*
G37*
G36*
G01X17361Y13778D02*
G01X17361Y14252D01*
G01X17874Y14252D01*
G01X17874Y13778D01*
G01X17361Y13778D01*
G37*
G36*
G01X26258Y4454D02*
G01X26258Y4928D01*
G01X26771Y4928D01*
G01X26771Y4454D01*
G01X26258Y4454D01*
G37*
G36*
G01X26258Y5084D02*
G01X26258Y5558D01*
G01X26771Y5558D01*
G01X26771Y5084D01*
G01X26258Y5084D01*
G37*
G36*
G01X27203Y4454D02*
G01X27203Y4928D01*
G01X27716Y4928D01*
G01X27716Y4454D01*
G01X27203Y4454D01*
G37*
G36*
G01X27203Y5084D02*
G01X27203Y5558D01*
G01X27716Y5558D01*
G01X27716Y5084D01*
G01X27203Y5084D01*
G37*
G36*
G01X24487Y13391D02*
G01X24487Y13865D01*
G01X25000Y13865D01*
G01X25000Y13391D01*
G01X24487Y13391D01*
G37*
G36*
G01X24487Y12761D02*
G01X24487Y13235D01*
G01X25000Y13235D01*
G01X25000Y12761D01*
G01X24487Y12761D01*
G37*
G36*
G01X30333Y4198D02*
G01X30333Y4711D01*
G01X30807Y4711D01*
G01X30807Y4198D01*
G01X30333Y4198D01*
G37*
G36*
G01X29703Y4198D02*
G01X29703Y4711D01*
G01X30177Y4711D01*
G01X30177Y4198D01*
G01X29703Y4198D01*
G37*
G36*
G01X12715Y16465D02*
G01X12715Y17038D01*
G01X13070Y17038D01*
G01X13070Y16465D01*
G01X12715Y16465D01*
G37*
G36*
G01X12341Y17449D02*
G01X12341Y18022D01*
G01X12697Y18022D01*
G01X12697Y17449D01*
G01X12341Y17449D01*
G37*
G36*
G01X13089Y17449D02*
G01X13089Y18022D01*
G01X13445Y18022D01*
G01X13445Y17449D01*
G01X13089Y17449D01*
G37*
G36*
G01X12754Y10521D02*
G01X12754Y11093D01*
G01X13110Y11093D01*
G01X13110Y10521D01*
G01X12754Y10521D01*
G37*
G36*
G01X12380Y11505D02*
G01X12380Y12077D01*
G01X12736Y12077D01*
G01X12736Y11505D01*
G01X12380Y11505D01*
G37*
G36*
G01X13128Y11505D02*
G01X13128Y12077D01*
G01X13484Y12077D01*
G01X13484Y11505D01*
G01X13128Y11505D01*
G37*
G36*
G01X12754Y4497D02*
G01X12754Y5069D01*
G01X13110Y5069D01*
G01X13110Y4497D01*
G01X12754Y4497D01*
G37*
G36*
G01X12380Y5481D02*
G01X12380Y6053D01*
G01X12736Y6053D01*
G01X12736Y5481D01*
G01X12380Y5481D01*
G37*
G36*
G01X13128Y5481D02*
G01X13128Y6053D01*
G01X13484Y6053D01*
G01X13484Y5481D01*
G01X13128Y5481D01*
G37*
G36*
G01X25908Y15487D02*
G01X25908Y16165D01*
G01X26649Y16165D01*
G01X26649Y15487D01*
G01X25908Y15487D01*
G37*
G36*
G01X25908Y17062D02*
G01X25908Y17740D01*
G01X26649Y17740D01*
G01X26649Y17062D01*
G01X25908Y17062D01*
G37*
G36*
G01X25983Y18759D02*
G01X25983Y20217D01*
G01X26988Y20217D01*
G01X26988Y18759D01*
G01X25983Y18759D01*
G37*
G36*
G01X23601Y18759D02*
G01X23601Y20217D01*
G01X24606Y20217D01*
G01X24606Y18759D01*
G01X23601Y18759D01*
G37*
G36*
G01X17361Y18109D02*
G01X17361Y18583D01*
G01X17874Y18583D01*
G01X17874Y18109D01*
G01X17361Y18109D01*
G37*
G36*
G01X17361Y17479D02*
G01X17361Y17953D01*
G01X17874Y17953D01*
G01X17874Y17479D01*
G01X17361Y17479D01*
G37*
G36*
G01X15235Y17479D02*
G01X15235Y17953D01*
G01X15748Y17953D01*
G01X15748Y17479D01*
G01X15235Y17479D01*
G37*
G36*
G01X15235Y18109D02*
G01X15235Y18583D01*
G01X15748Y18583D01*
G01X15748Y18109D01*
G01X15235Y18109D01*
G37*
G36*
G01X15235Y11613D02*
G01X15235Y12087D01*
G01X15748Y12087D01*
G01X15748Y11613D01*
G01X15235Y11613D01*
G37*
G36*
G01X15235Y12243D02*
G01X15235Y12717D01*
G01X15748Y12717D01*
G01X15748Y12243D01*
G01X15235Y12243D01*
G37*
G36*
G01X17361Y12243D02*
G01X17361Y12717D01*
G01X17874Y12717D01*
G01X17874Y12243D01*
G01X17361Y12243D01*
G37*
G36*
G01X17361Y11613D02*
G01X17361Y12087D01*
G01X17874Y12087D01*
G01X17874Y11613D01*
G01X17361Y11613D01*
G37*
G36*
G01X15235Y5668D02*
G01X15235Y6142D01*
G01X15748Y6142D01*
G01X15748Y5668D01*
G01X15235Y5668D01*
G37*
G36*
G01X15235Y6298D02*
G01X15235Y6772D01*
G01X15748Y6772D01*
G01X15748Y6298D01*
G01X15235Y6298D01*
G37*
G36*
G01X17361Y6298D02*
G01X17361Y6772D01*
G01X17874Y6772D01*
G01X17874Y6298D01*
G01X17361Y6298D01*
G37*
G36*
G01X17361Y5668D02*
G01X17361Y6142D01*
G01X17874Y6142D01*
G01X17874Y5668D01*
G01X17361Y5668D01*
G37*
G36*
G01X21750Y18956D02*
G01X21750Y20020D01*
G01X23090Y20020D01*
G01X23090Y18956D01*
G01X21750Y18956D01*
G37*
G36*
G01X15924Y16515D02*
G01X15924Y17028D01*
G01X16397Y17028D01*
G01X16397Y16515D01*
G01X15924Y16515D01*
G37*
G36*
G01X15215Y16515D02*
G01X15215Y17028D01*
G01X15689Y17028D01*
G01X15689Y16515D01*
G01X15215Y16515D01*
G37*
G36*
G01X15963Y10648D02*
G01X15963Y11162D01*
G01X16437Y11162D01*
G01X16437Y10648D01*
G01X15963Y10648D01*
G37*
G36*
G01X15254Y10648D02*
G01X15254Y11162D01*
G01X15728Y11162D01*
G01X15728Y10648D01*
G01X15254Y10648D01*
G37*
G36*
G01X15963Y4743D02*
G01X15963Y5256D01*
G01X16437Y5256D01*
G01X16437Y4743D01*
G01X15963Y4743D01*
G37*
G36*
G01X15254Y4743D02*
G01X15254Y5256D01*
G01X15728Y5256D01*
G01X15728Y4743D01*
G01X15254Y4743D01*
G37*
G36*
G01X12183Y18267D02*
G01X12183Y18740D01*
G01X12657Y18740D01*
G01X12657Y18267D01*
G01X12183Y18267D01*
G37*
G36*
G01X13128Y18267D02*
G01X13128Y18740D01*
G01X13602Y18740D01*
G01X13602Y18267D01*
G01X13128Y18267D01*
G37*
G36*
G01X12223Y12322D02*
G01X12223Y12795D01*
G01X12696Y12795D01*
G01X12696Y12322D01*
G01X12223Y12322D01*
G37*
G36*
G01X13168Y12322D02*
G01X13168Y12795D01*
G01X13641Y12795D01*
G01X13641Y12322D01*
G01X13168Y12322D01*
G37*
G36*
G01X12223Y6259D02*
G01X12223Y6732D01*
G01X12696Y6732D01*
G01X12696Y6259D01*
G01X12223Y6259D01*
G37*
G36*
G01X13168Y6259D02*
G01X13168Y6732D01*
G01X13641Y6732D01*
G01X13641Y6259D01*
G01X13168Y6259D01*
G37*
G36*
G01X28050Y18562D02*
G01X28050Y19075D01*
G01X28523Y19075D01*
G01X28523Y18562D01*
G01X28050Y18562D01*
G37*
G36*
G01X27341Y18562D02*
G01X27341Y19075D01*
G01X27815Y19075D01*
G01X27815Y18562D01*
G01X27341Y18562D01*
G37*
G36*
G01X25609Y3608D02*
G01X25609Y4121D01*
G01X26082Y4121D01*
G01X26082Y3608D01*
G01X25609Y3608D01*
G37*
G36*
G01X26317Y3608D02*
G01X26317Y4121D01*
G01X26791Y4121D01*
G01X26791Y3608D01*
G01X26317Y3608D01*
G37*
G36*
G01X27892Y3608D02*
G01X27892Y4121D01*
G01X28366Y4121D01*
G01X28366Y3608D01*
G01X27892Y3608D01*
G37*
G36*
G01X27183Y3608D02*
G01X27183Y4121D01*
G01X27657Y4121D01*
G01X27657Y3608D01*
G01X27183Y3608D01*
G37*
G36*
G01X23286Y21239D02*
G01X23286Y21752D01*
G01X23759Y21752D01*
G01X23759Y21239D01*
G01X23286Y21239D01*
G37*
G36*
G01X22577Y21239D02*
G01X22577Y21752D01*
G01X23051Y21752D01*
G01X23051Y21239D01*
G01X22577Y21239D01*
G37*
G36*
G01X27006Y21259D02*
G01X27006Y21732D01*
G01X27519Y21732D01*
G01X27519Y21259D01*
G01X27006Y21259D01*
G37*
G36*
G01X27006Y21967D02*
G01X27006Y22441D01*
G01X27519Y22441D01*
G01X27519Y21967D01*
G01X27006Y21967D01*
G37*
G36*
G01X27420Y10351D02*
G01X27057Y10714D01*
G01X27392Y11049D01*
G01X27755Y10686D01*
G01X27420Y10351D01*
G37*
G36*
G01X27921Y10852D02*
G01X27558Y11215D01*
G01X27893Y11550D01*
G01X28256Y11187D01*
G01X27921Y10852D01*
G37*
G36*
G01X28512Y10262D02*
G01X28149Y10625D01*
G01X28484Y10960D01*
G01X28847Y10597D01*
G01X28512Y10262D01*
G37*
G36*
G01X28010Y9761D02*
G01X27648Y10124D01*
G01X27983Y10459D01*
G01X28345Y10096D01*
G01X28010Y9761D01*
G37*
G36*
G01X22341Y16396D02*
G01X22341Y16910D01*
G01X22815Y16910D01*
G01X22815Y16396D01*
G01X22341Y16396D01*
G37*
G36*
G01X23050Y16396D02*
G01X23050Y16910D01*
G01X23523Y16910D01*
G01X23523Y16396D01*
G01X23050Y16396D01*
G37*
G36*
G01X12804Y14340D02*
G01X12804Y14814D01*
G01X13318Y14814D01*
G01X13318Y14340D01*
G01X12804Y14340D01*
G37*
G36*
G01X12804Y15049D02*
G01X12804Y15523D01*
G01X13318Y15523D01*
G01X13318Y15049D01*
G01X12804Y15049D01*
G37*
G36*
G01X16534Y2597D02*
G01X16534Y3071D01*
G01X17047Y3071D01*
G01X17047Y2597D01*
G01X16534Y2597D01*
G37*
G36*
G01X16534Y1889D02*
G01X16534Y2362D01*
G01X17047Y2362D01*
G01X17047Y1889D01*
G01X16534Y1889D01*
G37*
G36*
G01X16573Y8463D02*
G01X16573Y8937D01*
G01X17086Y8937D01*
G01X17086Y8463D01*
G01X16573Y8463D01*
G37*
G36*
G01X16573Y7755D02*
G01X16573Y8228D01*
G01X17086Y8228D01*
G01X17086Y7755D01*
G01X16573Y7755D01*
G37*
G36*
G01X16573Y14448D02*
G01X16573Y14921D01*
G01X17086Y14921D01*
G01X17086Y14448D01*
G01X16573Y14448D01*
G37*
G36*
G01X16573Y13739D02*
G01X16573Y14213D01*
G01X17086Y14213D01*
G01X17086Y13739D01*
G01X16573Y13739D01*
G37*
G36*
G01X16376Y18237D02*
G01X16376Y18809D01*
G01X16732Y18809D01*
G01X16732Y18237D01*
G01X16376Y18237D01*
G37*
G36*
G01X16750Y17253D02*
G01X16750Y17825D01*
G01X17106Y17825D01*
G01X17106Y17253D01*
G01X16750Y17253D01*
G37*
G36*
G01X16002Y17253D02*
G01X16002Y17825D01*
G01X16358Y17825D01*
G01X16358Y17253D01*
G01X16002Y17253D01*
G37*
G36*
G01X16376Y12371D02*
G01X16376Y12943D01*
G01X16732Y12943D01*
G01X16732Y12371D01*
G01X16376Y12371D01*
G37*
G36*
G01X16750Y11387D02*
G01X16750Y11959D01*
G01X17106Y11959D01*
G01X17106Y11387D01*
G01X16750Y11387D01*
G37*
G36*
G01X16002Y11387D02*
G01X16002Y11959D01*
G01X16358Y11959D01*
G01X16358Y11387D01*
G01X16002Y11387D01*
G37*
G36*
G01X16376Y6426D02*
G01X16376Y6998D01*
G01X16732Y6998D01*
G01X16732Y6426D01*
G01X16376Y6426D01*
G37*
G36*
G01X16750Y5442D02*
G01X16750Y6014D01*
G01X17106Y6014D01*
G01X17106Y5442D01*
G01X16750Y5442D01*
G37*
G36*
G01X16002Y5442D02*
G01X16002Y6014D01*
G01X16358Y6014D01*
G01X16358Y5442D01*
G01X16002Y5442D01*
G37*
G36*
G01X11573Y17597D02*
G01X11573Y18071D01*
G01X12086Y18071D01*
G01X12086Y17597D01*
G01X11573Y17597D01*
G37*
G36*
G01X11573Y16967D02*
G01X11573Y17441D01*
G01X12086Y17441D01*
G01X12086Y16967D01*
G01X11573Y16967D01*
G37*
G36*
G01X11573Y11692D02*
G01X11573Y12165D01*
G01X12086Y12165D01*
G01X12086Y11692D01*
G01X11573Y11692D01*
G37*
G36*
G01X11573Y11062D02*
G01X11573Y11536D01*
G01X12086Y11536D01*
G01X12086Y11062D01*
G01X11573Y11062D01*
G37*
G36*
G01X11573Y5786D02*
G01X11573Y6260D01*
G01X12086Y6260D01*
G01X12086Y5786D01*
G01X11573Y5786D01*
G37*
G36*
G01X11573Y5156D02*
G01X11573Y5630D01*
G01X12086Y5630D01*
G01X12086Y5156D01*
G01X11573Y5156D01*
G37*
G54D82*
G01X14467Y17125D03*
G01X14467Y18125D03*
G36*
G01X9898Y16382D02*
G01X9898Y17092D01*
G01X11159Y17092D01*
G01X11159Y16382D01*
G01X9898Y16382D01*
G37*
G36*
G01X9898Y18182D02*
G01X9898Y18892D01*
G01X11159Y18892D01*
G01X11159Y18182D01*
G01X9898Y18182D01*
G37*
G36*
G01X6517Y16377D02*
G01X6517Y18898D01*
G01X8879Y18898D01*
G01X8879Y16377D01*
G01X6517Y16377D01*
G37*
G36*
G01X9937Y10516D02*
G01X9937Y11226D01*
G01X11198Y11226D01*
G01X11198Y10516D01*
G01X9937Y10516D01*
G37*
G36*
G01X9937Y12316D02*
G01X9937Y13026D01*
G01X11198Y13026D01*
G01X11198Y12316D01*
G01X9937Y12316D01*
G37*
G36*
G01X6556Y10511D02*
G01X6556Y13032D01*
G01X8919Y13032D01*
G01X8919Y10511D01*
G01X6556Y10511D01*
G37*
G36*
G01X9937Y4571D02*
G01X9937Y5281D01*
G01X11198Y5281D01*
G01X11198Y4571D01*
G01X9937Y4571D01*
G37*
G36*
G01X9937Y6371D02*
G01X9937Y7081D01*
G01X11198Y7081D01*
G01X11198Y6371D01*
G01X9937Y6371D01*
G37*
G36*
G01X6556Y4566D02*
G01X6556Y7087D01*
G01X8919Y7087D01*
G01X8919Y4566D01*
G01X6556Y4566D01*
G37*
G01X14507Y11259D03*
G01X14507Y12259D03*
G01X14507Y5315D03*
G01X14507Y6315D03*
G36*
G01X26896Y8712D02*
G01X26422Y9186D01*
G01X26896Y9661D01*
G01X27370Y9186D01*
G01X26896Y8712D01*
G37*
G54D86*
G01X25538Y10544D03*
G36*
G01X25734Y14238D02*
G01X25734Y14712D01*
G01X26247Y14712D01*
G01X26247Y14238D01*
G01X25734Y14238D01*
G37*
G36*
G01X25734Y13529D02*
G01X25734Y14003D01*
G01X26247Y14003D01*
G01X26247Y13529D01*
G01X25734Y13529D01*
G37*
M00*
M02*
