;Layer: Drill PTH
;EasyEDA v6.3.39, 2020-04-30T23:39:46+05:30
;1361d28c2fbe473eb46aea13557a18e3,781d2bfaae87481f995808756cab4c07,10
;Gerber Generator version 0.2
M48
INCH,LZ,00.0000
;Holesize 1 = 0.012 INCH
T01C0.012
;Holesize 2 = 0.028 INCH
T02C0.028
;Holesize 3 = 0.032 INCH
T03C0.032
;Holesize 4 = 0.035 INCH
T04C0.035
;Holesize 5 = 0.039 INCH
T05C0.039
;Holesize 6 = 0.043 INCH
T06C0.043
;Holesize 7 = 0.047 INCH
T07C0.047
;Holesize 8 = 0.079 INCH
T08C0.079
;Holesize 9 = 0.094 INCH
T09C0.094
;Holesize 10 = 0.118 INCH
T10C0.118
%
G05
G90
T01
X+007682Y+008089
X+007679Y+008442
X+007681Y+008830
X+007683Y+009207
X+010058Y+008070
X+010058Y+008464
X+010058Y+008858
X+010058Y+009251
X+010058Y+013976
X+010058Y+014370
X+010058Y+014763
X+010058Y+015157
X+007674Y+013970
X+007668Y+014325
X+007668Y+014721
X+007666Y+015129
X+009861Y+019488
X+010255Y+019488
X+010648Y+019488
X+011042Y+019488
X+011042Y+021850
X+010648Y+021850
X+010255Y+021850
X+009861Y+021850
X+009664Y+019094
X+010058Y+019094
X+010452Y+019094
X+010845Y+019094
X+011239Y+019094
X+011239Y+017913
X+010845Y+017913
X+010452Y+017913
X+010058Y+017913
X+009664Y+017913
X+009664Y+013188
X+010058Y+013188
X+010452Y+013188
X+010845Y+013188
X+011239Y+013188
X+011239Y+012007
X+010845Y+012007
X+010452Y+012007
X+010058Y+012007
X+009664Y+012007
X+009664Y+007283
X+010058Y+007283
X+010452Y+007283
X+010845Y+007283
X+011239Y+007283
X+011239Y+006102
X+010845Y+006102
X+010452Y+006102
X+010058Y+006102
X+009664Y+006102
X+011830Y+021850
X+012223Y+021850
X+012617Y+021850
X+013011Y+021850
X+013011Y+019488
X+012617Y+019488
X+012223Y+019488
X+011830Y+019488
X+013798Y+021850
X+014192Y+021850
X+014585Y+021850
X+014979Y+021850
X+014979Y+019488
X+014585Y+019488
X+014192Y+019488
X+013798Y+019488
X+011082Y+003785
X+011475Y+003785
X+011397Y+014691
X+011397Y+014258
X+011357Y+008785
X+011357Y+008392
X+007283Y+021229
X+007283Y+020874
X+007283Y+020481
X+007283Y+020126
X+007266Y+015129
X+007268Y+014723
X+007268Y+014330
X+007268Y+013975
X+007256Y+009212
X+007256Y+008838
X+007256Y+008444
X+007256Y+008090
X+020865Y+023276
X+021653Y+023276
X+022440Y+023276
X+023228Y+023276
X+024015Y+023276
X+024802Y+023276
X+025590Y+023276
X+026377Y+023276
X+027165Y+023276
X+027952Y+023276
X+028739Y+023276
X+031102Y+020914
X+031102Y+020126
X+031102Y+019339
X+031102Y+018552
X+031102Y+017764
X+031102Y+016977
X+031102Y+016189
X+031102Y+015402
X+031102Y+014615
X+009842Y+002804
X+009842Y+002016
X+009842Y+001229
X+009842Y+000441
X+010629Y+000441
X+011417Y+000441
X+012204Y+000441
X+012991Y+000441
X+013779Y+000441
X+014566Y+000441
X+015354Y+000441
X+016141Y+000441
X+016928Y+000441
X+017716Y+000441
X+018503Y+000441
X+019291Y+000441
X+020078Y+000441
X+020865Y+000441
X+021653Y+000441
X+022440Y+000441
X+023228Y+000441
X+024015Y+000441
X+027853Y+008352
X+025806Y+009140
X+001712Y+021957
X+000649Y+021957
X+001712Y+023020
X+000649Y+023020
X+001180Y+023237
X+001928Y+022489
X+001180Y+021741
X+000432Y+022489
X+001712Y+001760
X+001712Y+000697
X+000649Y+001760
X+000649Y+000697
X+000432Y+001229
X+001180Y+001977
X+001928Y+001229
X+001180Y+000481
X+029802Y+001712
X+030865Y+001712
X+029802Y+000649
X+030865Y+000649
X+030334Y+000432
X+029586Y+001180
X+030334Y+001928
X+031082Y+001180
X+029802Y+021909
X+029802Y+022972
X+030865Y+021909
X+030865Y+022972
X+031082Y+022441
X+030334Y+021693
X+029586Y+022441
X+030334Y+023189
X+018286Y+001850
X+017656Y+017165
X+017617Y+011259
X+017578Y+005354
X+016031Y+010179
X+022100Y+008895
X+022497Y+009345
X+022499Y+008943
X+022853Y+009337
X+023606Y+009076
X+023837Y+008795
X+022499Y+006266
X+022656Y+005951
X+026492Y+005833
X+027460Y+005833
X+026790Y+002093
X+027184Y+002093
X+026549Y+003352
X+027420Y+003352
X+023956Y+004770
X+020097Y+006738
X+025657Y+006505
X+025964Y+006738
X+021751Y+005085
X+022184Y+006974
X+022184Y+006581
X+025727Y+015400
X+023719Y+014612
X+018838Y+007880
X+024152Y+012014
X+026935Y+007687
X+024604Y+007448
X+028483Y+007093
X+028483Y+009258
X+026787Y+013985
X+023327Y+008905
X+012145Y+003543
X+024555Y+008284
X+023022Y+008658
X+022986Y+006946
X+022127Y+007802
X+023817Y+007801
X+025731Y+011840
X+024847Y+014101
X+028394Y+012276
X+025889Y+013142
T02
X+023578Y+015432
X+023078Y+015432
X+022578Y+015432
T03
X+028688Y+002634G85X+028688Y+003028
X+025286Y+002634G85X+025286Y+003028
X+025286Y+000465G85X+025286Y+000976
X+028688Y+000465G85X+028688Y+000976
T04
X+026896Y+009186
X+025538Y+010544
T05
X+029795Y+007735
X+029795Y+008735
X+030795Y+007735
X+030795Y+008735
X+029795Y+013059
X+030795Y+013059
X+029795Y+012059
X+030795Y+012059
X+030795Y+009894
X+029795Y+009894
X+030795Y+010894
X+029795Y+010894
X+030795Y+006569
X+030795Y+005569
X+029795Y+006569
X+029795Y+005569
T06
X+014467Y+017125
X+014467Y+018125
X+014507Y+011259
X+014507Y+012259
X+014507Y+005314
X+014507Y+006314
T07
X+023720Y+013853
X+023720Y+012853
X+030755Y+003471
X+029755Y+003471
X+027631Y+012349
X+027631Y+014349
T08
X+000983Y+017764
X+000983Y+011859
X+000983Y+005953
X+016160Y+022047
X+019310Y+022047
X+000983Y+019260
X+000983Y+016229
X+000983Y+013433
X+000983Y+010284
X+000983Y+004378
X+000983Y+007528
T09
X+019748Y+014548
X+019728Y+012051
T10
X+001180Y+022489
X+001180Y+001229
X+030334Y+001180
X+030334Y+022441
M30
