G04 Layer: BottomSolderMaskLayer*
G04 EasyEDA v6.3.39, 2020-04-30T23:39:46+05:30*
G04 1361d28c2fbe473eb46aea13557a18e3,781d2bfaae87481f995808756cab4c07,10*
G04 Gerber Generator version 0.2*
G04 Scale: 100 percent, Rotated: No, Reflected: No *
G04 Dimensions in inches *
G04 leading zeros omitted , absolute positions ,2 integer and 4 decimal *
%FSLAX24Y24*%
%MOIN*%
G90*
G70D02*

%ADD54C,0.043433*%
%ADD55C,0.055244*%
%ADD58C,0.032000*%
%ADD59C,0.185165*%
%ADD60C,0.126110*%
%ADD67C,0.070992*%
%ADD69C,0.086740*%
%ADD82C,0.068000*%
%ADD86C,0.067055*%

%LPD*%

%LPD*%
G36*
G01X23243Y21102D02*
G01X23282Y21156D01*
G01X23203Y21140D01*
G01X23172Y21134D01*
G01X23142Y21127D01*
G01X23112Y21121D01*
G01X23083Y21114D01*
G01X23027Y21100D01*
G01X23000Y21093D01*
G01X22974Y21085D01*
G01X22948Y21078D01*
G01X22922Y21070D01*
G01X22850Y21046D01*
G01X22827Y21037D01*
G01X22805Y21029D01*
G01X22783Y21020D01*
G01X22762Y21011D01*
G01X22741Y21001D01*
G01X22720Y20992D01*
G01X22700Y20982D01*
G01X22643Y20952D01*
G01X22607Y20930D01*
G01X22573Y20908D01*
G01X22556Y20896D01*
G01X22524Y20872D01*
G01X22508Y20859D01*
G01X22463Y20820D01*
G01X22417Y20774D01*
G01X22400Y20756D01*
G01X22384Y20737D01*
G01X22368Y20719D01*
G01X22338Y20681D01*
G01X22324Y20662D01*
G01X22311Y20643D01*
G01X22298Y20623D01*
G01X22286Y20604D01*
G01X22274Y20584D01*
G01X22263Y20564D01*
G01X22252Y20543D01*
G01X22242Y20522D01*
G01X22224Y20480D01*
G01X22216Y20459D01*
G01X22208Y20437D01*
G01X22201Y20414D01*
G01X22194Y20392D01*
G01X22188Y20368D01*
G01X22182Y20345D01*
G01X22172Y20297D01*
G01X22168Y20272D01*
G01X22165Y20247D01*
G01X22159Y20195D01*
G01X22157Y20169D01*
G01X22155Y20141D01*
G01X22154Y20114D01*
G01X22153Y20086D01*
G01X22153Y20028D01*
G01X22154Y19998D01*
G01X22155Y19967D01*
G01X22156Y19935D01*
G01X22158Y19904D01*
G01X22160Y19877D01*
G01X22162Y19851D01*
G01X22165Y19827D01*
G01X22168Y19804D01*
G01X22171Y19783D01*
G01X22176Y19762D01*
G01X22180Y19742D01*
G01X22185Y19723D01*
G01X22192Y19703D01*
G01X22198Y19684D01*
G01X22206Y19664D01*
G01X22215Y19643D01*
G01X22224Y19621D01*
G01X22235Y19598D01*
G01X22242Y19581D01*
G01X22250Y19565D01*
G01X22277Y19517D01*
G01X22287Y19500D01*
G01X22307Y19468D01*
G01X22340Y19420D01*
G01X22352Y19405D01*
G01X22364Y19389D01*
G01X22403Y19341D01*
G01X22417Y19325D01*
G01X22431Y19310D01*
G01X22476Y19262D01*
G01X22492Y19247D01*
G01X22508Y19231D01*
G01X22525Y19215D01*
G01X22542Y19200D01*
G01X22559Y19184D01*
G01X22577Y19168D01*
G01X22595Y19153D01*
G01X22633Y19121D01*
G01X22653Y19106D01*
G01X22672Y19090D01*
G01X22714Y19058D01*
G01X22735Y19043D01*
G01X22801Y18995D01*
G01X22824Y18980D01*
G01X22896Y18932D01*
G01X22946Y18900D01*
G01X23024Y18852D01*
G01X23051Y18836D01*
G01X23135Y18788D01*
G01X23164Y18772D01*
G01X23194Y18755D01*
G01X23223Y18739D01*
G01X23254Y18723D01*
G01X23285Y18706D01*
G01X23582Y18549D01*
G01X23431Y18712D01*
G01X23412Y18733D01*
G01X23358Y18793D01*
G01X23324Y18833D01*
G01X23276Y18893D01*
G01X23231Y18953D01*
G01X23217Y18973D01*
G01X23203Y18992D01*
G01X23189Y19012D01*
G01X23163Y19052D01*
G01X23151Y19071D01*
G01X23115Y19131D01*
G01X23093Y19171D01*
G01X23053Y19251D01*
G01X23044Y19271D01*
G01X23035Y19292D01*
G01X23027Y19312D01*
G01X23019Y19333D01*
G01X23011Y19353D01*
G01X23003Y19374D01*
G01X22982Y19437D01*
G01X22964Y19500D01*
G01X22958Y19522D01*
G01X22948Y19566D01*
G01X22944Y19588D01*
G01X22939Y19610D01*
G01X22935Y19632D01*
G01X22932Y19654D01*
G01X22928Y19677D01*
G01X22919Y19746D01*
G01X22917Y19770D01*
G01X22915Y19793D01*
G01X22911Y19841D01*
G01X22910Y19866D01*
G01X22909Y19890D01*
G01X22908Y19915D01*
G01X22908Y19940D01*
G01X22907Y19965D01*
G01X22907Y20019D01*
G01X22908Y20047D01*
G01X22908Y20074D01*
G01X22909Y20101D01*
G01X22911Y20128D01*
G01X22912Y20155D01*
G01X22918Y20233D01*
G01X22921Y20258D01*
G01X22923Y20283D01*
G01X22927Y20308D01*
G01X22930Y20333D01*
G01X22934Y20358D01*
G01X22946Y20430D01*
G01X22956Y20476D01*
G01X22962Y20500D01*
G01X22967Y20523D01*
G01X22973Y20546D01*
G01X22980Y20568D01*
G01X22986Y20591D01*
G01X22993Y20613D01*
G01X23001Y20635D01*
G01X23008Y20657D01*
G01X23024Y20701D01*
G01X23033Y20723D01*
G01X23042Y20744D01*
G01X23051Y20766D01*
G01X23060Y20787D01*
G01X23070Y20808D01*
G01X23080Y20830D01*
G01X23124Y20914D01*
G01X23148Y20956D01*
G01X23161Y20976D01*
G01X23200Y21039D01*
G01X23214Y21060D01*
G01X23229Y21081D01*
G01X23243Y21102D01*
G37*

%LPD*%
G36*
G01X26104Y21038D02*
G01X26181Y21145D01*
G01X26027Y21115D01*
G01X26000Y21109D01*
G01X25973Y21104D01*
G01X25946Y21097D01*
G01X25921Y21091D01*
G01X25895Y21084D01*
G01X25870Y21078D01*
G01X25845Y21070D01*
G01X25820Y21063D01*
G01X25772Y21047D01*
G01X25749Y21039D01*
G01X25703Y21021D01*
G01X25659Y21003D01*
G01X25596Y20973D01*
G01X25575Y20962D01*
G01X25555Y20951D01*
G01X25536Y20940D01*
G01X25516Y20929D01*
G01X25498Y20917D01*
G01X25479Y20905D01*
G01X25443Y20881D01*
G01X25392Y20842D01*
G01X25344Y20800D01*
G01X25329Y20786D01*
G01X25314Y20771D01*
G01X25272Y20726D01*
G01X25246Y20694D01*
G01X25234Y20678D01*
G01X25222Y20661D01*
G01X25210Y20645D01*
G01X25199Y20628D01*
G01X25188Y20610D01*
G01X25177Y20593D01*
G01X25157Y20557D01*
G01X25148Y20538D01*
G01X25139Y20520D01*
G01X25130Y20501D01*
G01X25122Y20481D01*
G01X25114Y20462D01*
G01X25106Y20442D01*
G01X25092Y20402D01*
G01X25086Y20382D01*
G01X25074Y20340D01*
G01X25069Y20318D01*
G01X25064Y20297D01*
G01X25052Y20231D01*
G01X25043Y20162D01*
G01X25041Y20139D01*
G01X25039Y20115D01*
G01X25037Y20067D01*
G01X25036Y20042D01*
G01X25036Y19998D01*
G01X25037Y19979D01*
G01X25038Y19959D01*
G01X25040Y19921D01*
G01X25042Y19902D01*
G01X25044Y19884D01*
G01X25046Y19865D01*
G01X25049Y19846D01*
G01X25055Y19810D01*
G01X25063Y19774D01*
G01X25068Y19756D01*
G01X25072Y19738D01*
G01X25077Y19720D01*
G01X25083Y19702D01*
G01X25088Y19685D01*
G01X25095Y19667D01*
G01X25101Y19650D01*
G01X25108Y19633D01*
G01X25115Y19615D01*
G01X25147Y19547D01*
G01X25156Y19531D01*
G01X25176Y19497D01*
G01X25186Y19481D01*
G01X25196Y19464D01*
G01X25207Y19448D01*
G01X25219Y19431D01*
G01X25230Y19415D01*
G01X25242Y19398D01*
G01X25281Y19350D01*
G01X25295Y19333D01*
G01X25323Y19301D01*
G01X25338Y19285D01*
G01X25354Y19269D01*
G01X25369Y19253D01*
G01X25386Y19237D01*
G01X25402Y19221D01*
G01X25419Y19205D01*
G01X25437Y19189D01*
G01X25454Y19173D01*
G01X25530Y19109D01*
G01X25550Y19093D01*
G01X25613Y19045D01*
G01X25657Y19013D01*
G01X25703Y18981D01*
G01X25751Y18949D01*
G01X25776Y18933D01*
G01X25801Y18916D01*
G01X25826Y18900D01*
G01X25852Y18884D01*
G01X25879Y18867D01*
G01X25933Y18835D01*
G01X25961Y18818D01*
G01X25989Y18802D01*
G01X26018Y18785D01*
G01X26078Y18751D01*
G01X26108Y18735D01*
G01X26170Y18701D01*
G01X26202Y18684D01*
G01X26235Y18667D01*
G01X26483Y18536D01*
G01X26326Y18703D01*
G01X26307Y18724D01*
G01X26288Y18744D01*
G01X26270Y18765D01*
G01X26252Y18785D01*
G01X26235Y18806D01*
G01X26201Y18846D01*
G01X26185Y18866D01*
G01X26169Y18887D01*
G01X26153Y18907D01*
G01X26138Y18927D01*
G01X26123Y18948D01*
G01X26095Y18988D01*
G01X26081Y19009D01*
G01X26067Y19029D01*
G01X26054Y19050D01*
G01X26041Y19070D01*
G01X26005Y19133D01*
G01X25994Y19154D01*
G01X25982Y19175D01*
G01X25971Y19196D01*
G01X25961Y19217D01*
G01X25950Y19239D01*
G01X25940Y19260D01*
G01X25930Y19282D01*
G01X25920Y19307D01*
G01X25909Y19331D01*
G01X25882Y19400D01*
G01X25874Y19422D01*
G01X25853Y19488D01*
G01X25847Y19510D01*
G01X25842Y19531D01*
G01X25837Y19554D01*
G01X25832Y19576D01*
G01X25824Y19622D01*
G01X25818Y19670D01*
G01X25815Y19695D01*
G01X25813Y19721D01*
G01X25809Y19775D01*
G01X25808Y19804D01*
G01X25807Y19834D01*
G01X25806Y19865D01*
G01X25806Y20035D01*
G01X25807Y20066D01*
G01X25808Y20096D01*
G01X25810Y20154D01*
G01X25814Y20210D01*
G01X25818Y20264D01*
G01X25821Y20291D01*
G01X25827Y20343D01*
G01X25831Y20368D01*
G01X25834Y20393D01*
G01X25838Y20418D01*
G01X25853Y20490D01*
G01X25858Y20513D01*
G01X25870Y20559D01*
G01X25876Y20581D01*
G01X25883Y20603D01*
G01X25889Y20626D01*
G01X25897Y20647D01*
G01X25904Y20669D01*
G01X25912Y20690D01*
G01X25921Y20712D01*
G01X25929Y20733D01*
G01X25938Y20754D01*
G01X25948Y20774D01*
G01X25957Y20795D01*
G01X25968Y20816D01*
G01X25978Y20836D01*
G01X25989Y20856D01*
G01X26000Y20877D01*
G01X26036Y20937D01*
G01X26049Y20957D01*
G01X26062Y20978D01*
G01X26104Y21038D01*
G37*

%LPD*%
G36*
G01X24590Y21039D02*
G01X24672Y21153D01*
G01X24585Y21139D01*
G01X24531Y21129D01*
G01X24504Y21123D01*
G01X24477Y21118D01*
G01X24451Y21111D01*
G01X24424Y21105D01*
G01X24398Y21098D01*
G01X24373Y21091D01*
G01X24347Y21083D01*
G01X24322Y21075D01*
G01X24298Y21067D01*
G01X24273Y21058D01*
G01X24201Y21031D01*
G01X24155Y21011D01*
G01X24133Y21000D01*
G01X24110Y20989D01*
G01X24089Y20978D01*
G01X24067Y20967D01*
G01X24046Y20955D01*
G01X23986Y20919D01*
G01X23966Y20906D01*
G01X23948Y20893D01*
G01X23929Y20880D01*
G01X23911Y20867D01*
G01X23860Y20825D01*
G01X23844Y20810D01*
G01X23829Y20796D01*
G01X23799Y20766D01*
G01X23782Y20747D01*
G01X23765Y20727D01*
G01X23748Y20708D01*
G01X23718Y20668D01*
G01X23690Y20628D01*
G01X23677Y20607D01*
G01X23653Y20565D01*
G01X23631Y20521D01*
G01X23621Y20499D01*
G01X23603Y20453D01*
G01X23594Y20429D01*
G01X23586Y20404D01*
G01X23579Y20380D01*
G01X23565Y20328D01*
G01X23559Y20302D01*
G01X23544Y20218D01*
G01X23538Y20174D01*
G01X23536Y20153D01*
G01X23534Y20131D01*
G01X23532Y20110D01*
G01X23529Y20047D01*
G01X23529Y20006D01*
G01X23530Y19986D01*
G01X23531Y19965D01*
G01X23532Y19945D01*
G01X23538Y19885D01*
G01X23544Y19845D01*
G01X23548Y19826D01*
G01X23552Y19806D01*
G01X23557Y19787D01*
G01X23561Y19768D01*
G01X23567Y19749D01*
G01X23572Y19730D01*
G01X23584Y19692D01*
G01X23598Y19654D01*
G01X23606Y19636D01*
G01X23614Y19617D01*
G01X23622Y19599D01*
G01X23640Y19563D01*
G01X23650Y19544D01*
G01X23660Y19526D01*
G01X23670Y19509D01*
G01X23692Y19473D01*
G01X23704Y19455D01*
G01X23716Y19438D01*
G01X23728Y19420D01*
G01X23741Y19402D01*
G01X23754Y19385D01*
G01X23768Y19368D01*
G01X23782Y19350D01*
G01X23796Y19333D01*
G01X23811Y19316D01*
G01X23827Y19299D01*
G01X23842Y19282D01*
G01X23859Y19265D01*
G01X23875Y19248D01*
G01X23892Y19231D01*
G01X23910Y19215D01*
G01X23927Y19198D01*
G01X23946Y19181D01*
G01X23964Y19165D01*
G01X23984Y19148D01*
G01X24003Y19131D01*
G01X24043Y19099D01*
G01X24064Y19082D01*
G01X24086Y19066D01*
G01X24107Y19050D01*
G01X24129Y19033D01*
G01X24175Y19001D01*
G01X24199Y18985D01*
G01X24222Y18969D01*
G01X24247Y18953D01*
G01X24272Y18936D01*
G01X24297Y18920D01*
G01X24349Y18888D01*
G01X24375Y18873D01*
G01X24402Y18857D01*
G01X24486Y18809D01*
G01X24544Y18777D01*
G01X24566Y18766D01*
G01X24588Y18754D01*
G01X24611Y18741D01*
G01X24634Y18729D01*
G01X24657Y18716D01*
G01X24681Y18704D01*
G01X24704Y18691D01*
G01X24727Y18679D01*
G01X24749Y18667D01*
G01X24770Y18655D01*
G01X24791Y18644D01*
G01X24811Y18633D01*
G01X24829Y18623D01*
G01X24846Y18614D01*
G01X24862Y18605D01*
G01X24876Y18597D01*
G01X25002Y18528D01*
G01X24858Y18673D01*
G01X24839Y18692D01*
G01X24803Y18730D01*
G01X24785Y18750D01*
G01X24768Y18769D01*
G01X24750Y18788D01*
G01X24734Y18808D01*
G01X24717Y18827D01*
G01X24701Y18847D01*
G01X24685Y18866D01*
G01X24670Y18886D01*
G01X24654Y18906D01*
G01X24639Y18926D01*
G01X24583Y19006D01*
G01X24570Y19027D01*
G01X24556Y19047D01*
G01X24544Y19067D01*
G01X24531Y19088D01*
G01X24519Y19108D01*
G01X24507Y19129D01*
G01X24463Y19213D01*
G01X24433Y19276D01*
G01X24424Y19297D01*
G01X24415Y19319D01*
G01X24406Y19340D01*
G01X24398Y19362D01*
G01X24390Y19383D01*
G01X24382Y19405D01*
G01X24375Y19427D01*
G01X24367Y19449D01*
G01X24361Y19471D01*
G01X24354Y19493D01*
G01X24336Y19559D01*
G01X24331Y19582D01*
G01X24326Y19604D01*
G01X24321Y19627D01*
G01X24317Y19649D01*
G01X24313Y19672D01*
G01X24305Y19720D01*
G01X24302Y19743D01*
G01X24296Y19791D01*
G01X24294Y19816D01*
G01X24290Y19864D01*
G01X24289Y19888D01*
G01X24288Y19913D01*
G01X24287Y19937D01*
G01X24287Y19962D01*
G01X24286Y19986D01*
G01X24286Y20011D01*
G01X24288Y20060D01*
G01X24289Y20085D01*
G01X24290Y20109D01*
G01X24292Y20134D01*
G01X24293Y20158D01*
G01X24296Y20183D01*
G01X24298Y20208D01*
G01X24304Y20256D01*
G01X24307Y20281D01*
G01X24323Y20377D01*
G01X24338Y20449D01*
G01X24344Y20473D01*
G01X24350Y20496D01*
G01X24356Y20520D01*
G01X24362Y20543D01*
G01X24383Y20612D01*
G01X24390Y20634D01*
G01X24398Y20657D01*
G01X24422Y20723D01*
G01X24431Y20744D01*
G01X24440Y20766D01*
G01X24458Y20808D01*
G01X24468Y20829D01*
G01X24488Y20869D01*
G01X24499Y20889D01*
G01X24509Y20909D01*
G01X24520Y20928D01*
G01X24531Y20948D01*
G01X24543Y20966D01*
G01X24554Y20985D01*
G01X24590Y21039D01*
G37*

%LPD*%
G36*
G01X29696Y18314D02*
G01X21705Y18314D01*
G01X21705Y17828D01*
G01X25695Y17822D01*
G01X26056Y17822D01*
G01X26114Y17821D01*
G01X27011Y17821D01*
G01X27059Y17820D01*
G01X28049Y17820D01*
G01X28084Y17821D01*
G01X28555Y17821D01*
G01X28583Y17822D01*
G01X28816Y17822D01*
G01X28839Y17823D01*
G01X28974Y17823D01*
G01X28995Y17824D01*
G01X29113Y17824D01*
G01X29132Y17825D01*
G01X29202Y17825D01*
G01X29219Y17826D01*
G01X29267Y17826D01*
G01X29297Y17827D01*
G01X29354Y17827D01*
G01X29368Y17828D01*
G01X29406Y17828D01*
G01X29418Y17829D01*
G01X29453Y17829D01*
G01X29464Y17830D01*
G01X29495Y17830D01*
G01X29505Y17831D01*
G01X29523Y17831D01*
G01X29532Y17832D01*
G01X29550Y17832D01*
G01X29558Y17833D01*
G01X29581Y17833D01*
G01X29588Y17834D01*
G01X29601Y17834D01*
G01X29608Y17835D01*
G01X29620Y17835D01*
G01X29625Y17836D01*
G01X29631Y17836D01*
G01X29636Y17837D01*
G01X29646Y17837D01*
G01X29654Y17838D01*
G01X29658Y17838D01*
G01X29662Y17839D01*
G01X29666Y17839D01*
G01X29669Y17840D01*
G01X29675Y17840D01*
G01X29678Y17841D01*
G01X29681Y17841D01*
G01X29683Y17842D01*
G01X29687Y17842D01*
G01X29691Y17843D01*
G01X29692Y17844D01*
G01X29695Y17845D01*
G01X29696Y17845D01*
G01X29696Y17846D01*
G01X29697Y17846D01*
G01X29698Y17847D01*
G01X29699Y17853D01*
G01X29701Y17863D01*
G01X29702Y17876D01*
G01X29703Y17892D01*
G01X29703Y17911D01*
G01X29704Y17933D01*
G01X29704Y17956D01*
G01X29705Y17982D01*
G01X29704Y18009D01*
G01X29704Y18066D01*
G01X29703Y18096D01*
G01X29696Y18314D01*
G37*

%LPD*%
G36*
G01X25323Y17527D02*
G01X25025Y17686D01*
G01X25185Y17513D01*
G01X25239Y17453D01*
G01X25256Y17432D01*
G01X25273Y17412D01*
G01X25305Y17372D01*
G01X25321Y17351D01*
G01X25351Y17311D01*
G01X25379Y17269D01*
G01X25393Y17249D01*
G01X25419Y17207D01*
G01X25431Y17186D01*
G01X25444Y17165D01*
G01X25455Y17144D01*
G01X25467Y17122D01*
G01X25489Y17080D01*
G01X25519Y17014D01*
G01X25537Y16970D01*
G01X25545Y16948D01*
G01X25554Y16925D01*
G01X25561Y16903D01*
G01X25569Y16880D01*
G01X25590Y16811D01*
G01X25596Y16787D01*
G01X25602Y16764D01*
G01X25617Y16692D01*
G01X25622Y16667D01*
G01X25626Y16643D01*
G01X25630Y16618D01*
G01X25636Y16568D01*
G01X25639Y16542D01*
G01X25642Y16517D01*
G01X25648Y16439D01*
G01X25651Y16355D01*
G01X25651Y16274D01*
G01X25649Y16220D01*
G01X25647Y16168D01*
G01X25645Y16142D01*
G01X25642Y16116D01*
G01X25640Y16091D01*
G01X25637Y16066D01*
G01X25634Y16040D01*
G01X25630Y16015D01*
G01X25626Y15991D01*
G01X25622Y15966D01*
G01X25612Y15918D01*
G01X25607Y15893D01*
G01X25601Y15870D01*
G01X25589Y15822D01*
G01X25568Y15753D01*
G01X25552Y15707D01*
G01X25544Y15685D01*
G01X25535Y15662D01*
G01X25526Y15640D01*
G01X25486Y15552D01*
G01X25475Y15531D01*
G01X25464Y15509D01*
G01X25428Y15446D01*
G01X25389Y15383D01*
G01X25366Y15348D01*
G01X25345Y15315D01*
G01X25325Y15284D01*
G01X25308Y15257D01*
G01X25293Y15233D01*
G01X25281Y15214D01*
G01X25273Y15201D01*
G01X25269Y15194D01*
G01X25268Y15188D01*
G01X25272Y15183D01*
G01X25280Y15180D01*
G01X25293Y15178D01*
G01X25309Y15179D01*
G01X25330Y15180D01*
G01X25354Y15184D01*
G01X25382Y15188D01*
G01X25413Y15195D01*
G01X25448Y15202D01*
G01X25485Y15212D01*
G01X25526Y15222D01*
G01X25604Y15246D01*
G01X25656Y15264D01*
G01X25706Y15284D01*
G01X25756Y15306D01*
G01X25780Y15317D01*
G01X25828Y15341D01*
G01X25897Y15380D01*
G01X25963Y15422D01*
G01X25984Y15437D01*
G01X26004Y15451D01*
G01X26025Y15467D01*
G01X26045Y15482D01*
G01X26083Y15514D01*
G01X26101Y15531D01*
G01X26119Y15547D01*
G01X26137Y15564D01*
G01X26154Y15581D01*
G01X26170Y15599D01*
G01X26186Y15616D01*
G01X26216Y15652D01*
G01X26230Y15670D01*
G01X26244Y15689D01*
G01X26257Y15707D01*
G01X26269Y15726D01*
G01X26280Y15744D01*
G01X26290Y15762D01*
G01X26301Y15781D01*
G01X26310Y15800D01*
G01X26320Y15820D01*
G01X26328Y15840D01*
G01X26337Y15861D01*
G01X26345Y15882D01*
G01X26359Y15924D01*
G01X26366Y15946D01*
G01X26378Y15990D01*
G01X26383Y16013D01*
G01X26387Y16036D01*
G01X26392Y16059D01*
G01X26395Y16082D01*
G01X26399Y16105D01*
G01X26402Y16129D01*
G01X26404Y16152D01*
G01X26406Y16176D01*
G01X26409Y16248D01*
G01X26409Y16272D01*
G01X26407Y16320D01*
G01X26403Y16368D01*
G01X26401Y16391D01*
G01X26398Y16415D01*
G01X26394Y16439D01*
G01X26390Y16462D01*
G01X26386Y16486D01*
G01X26380Y16509D01*
G01X26375Y16532D01*
G01X26370Y16551D01*
G01X26365Y16569D01*
G01X26341Y16641D01*
G01X26334Y16659D01*
G01X26327Y16676D01*
G01X26295Y16744D01*
G01X26286Y16761D01*
G01X26276Y16777D01*
G01X26267Y16794D01*
G01X26257Y16810D01*
G01X26246Y16827D01*
G01X26224Y16859D01*
G01X26200Y16891D01*
G01X26161Y16939D01*
G01X26147Y16954D01*
G01X26133Y16970D01*
G01X26118Y16986D01*
G01X26087Y17017D01*
G01X26070Y17033D01*
G01X26054Y17048D01*
G01X26036Y17064D01*
G01X26019Y17080D01*
G01X26000Y17095D01*
G01X25962Y17127D01*
G01X25942Y17142D01*
G01X25922Y17158D01*
G01X25901Y17174D01*
G01X25835Y17222D01*
G01X25811Y17238D01*
G01X25788Y17254D01*
G01X25738Y17286D01*
G01X25713Y17303D01*
G01X25687Y17319D01*
G01X25660Y17336D01*
G01X25632Y17352D01*
G01X25576Y17386D01*
G01X25516Y17420D01*
G01X25486Y17438D01*
G01X25454Y17455D01*
G01X25390Y17491D01*
G01X25357Y17509D01*
G01X25323Y17527D01*
G37*

%LPD*%
G36*
G01X28219Y17515D02*
G01X27933Y17662D01*
G01X28096Y17485D01*
G01X28113Y17466D01*
G01X28131Y17447D01*
G01X28147Y17427D01*
G01X28164Y17408D01*
G01X28180Y17388D01*
G01X28195Y17369D01*
G01X28211Y17349D01*
G01X28226Y17329D01*
G01X28240Y17310D01*
G01X28254Y17290D01*
G01X28268Y17269D01*
G01X28282Y17249D01*
G01X28308Y17209D01*
G01X28332Y17167D01*
G01X28344Y17147D01*
G01X28377Y17084D01*
G01X28387Y17062D01*
G01X28397Y17041D01*
G01X28406Y17019D01*
G01X28416Y16997D01*
G01X28424Y16975D01*
G01X28433Y16953D01*
G01X28449Y16909D01*
G01X28457Y16886D01*
G01X28471Y16840D01*
G01X28489Y16771D01*
G01X28495Y16747D01*
G01X28505Y16699D01*
G01X28509Y16675D01*
G01X28514Y16650D01*
G01X28517Y16625D01*
G01X28521Y16601D01*
G01X28524Y16575D01*
G01X28527Y16550D01*
G01X28530Y16524D01*
G01X28532Y16499D01*
G01X28534Y16473D01*
G01X28536Y16446D01*
G01X28537Y16420D01*
G01X28540Y16339D01*
G01X28540Y16283D01*
G01X28539Y16254D01*
G01X28537Y16198D01*
G01X28536Y16171D01*
G01X28530Y16090D01*
G01X28521Y16012D01*
G01X28517Y15987D01*
G01X28513Y15961D01*
G01X28509Y15936D01*
G01X28504Y15911D01*
G01X28499Y15887D01*
G01X28494Y15862D01*
G01X28482Y15814D01*
G01X28476Y15791D01*
G01X28469Y15767D01*
G01X28455Y15721D01*
G01X28439Y15675D01*
G01X28431Y15653D01*
G01X28422Y15630D01*
G01X28404Y15586D01*
G01X28394Y15565D01*
G01X28374Y15521D01*
G01X28352Y15479D01*
G01X28316Y15416D01*
G01X28303Y15396D01*
G01X28291Y15375D01*
G01X28235Y15295D01*
G01X28220Y15275D01*
G01X28203Y15252D01*
G01X28188Y15231D01*
G01X28175Y15214D01*
G01X28166Y15199D01*
G01X28159Y15187D01*
G01X28155Y15177D01*
G01X28155Y15170D01*
G01X28158Y15165D01*
G01X28165Y15162D01*
G01X28175Y15161D01*
G01X28189Y15161D01*
G01X28207Y15164D01*
G01X28229Y15168D01*
G01X28256Y15173D01*
G01X28287Y15180D01*
G01X28322Y15188D01*
G01X28374Y15200D01*
G01X28399Y15207D01*
G01X28425Y15214D01*
G01X28450Y15221D01*
G01X28474Y15228D01*
G01X28522Y15244D01*
G01X28546Y15253D01*
G01X28569Y15261D01*
G01X28592Y15271D01*
G01X28615Y15280D01*
G01X28637Y15290D01*
G01X28660Y15299D01*
G01X28681Y15310D01*
G01X28703Y15320D01*
G01X28745Y15342D01*
G01X28765Y15354D01*
G01X28785Y15365D01*
G01X28805Y15377D01*
G01X28825Y15390D01*
G01X28844Y15402D01*
G01X28863Y15415D01*
G01X28881Y15428D01*
G01X28899Y15442D01*
G01X28917Y15455D01*
G01X28935Y15469D01*
G01X28952Y15484D01*
G01X28969Y15498D01*
G01X29001Y15528D01*
G01X29048Y15575D01*
G01X29062Y15591D01*
G01X29077Y15608D01*
G01X29091Y15625D01*
G01X29104Y15642D01*
G01X29118Y15659D01*
G01X29133Y15680D01*
G01X29161Y15720D01*
G01X29174Y15740D01*
G01X29186Y15760D01*
G01X29197Y15779D01*
G01X29208Y15799D01*
G01X29218Y15818D01*
G01X29227Y15838D01*
G01X29236Y15857D01*
G01X29244Y15877D01*
G01X29251Y15897D01*
G01X29258Y15918D01*
G01X29264Y15938D01*
G01X29269Y15960D01*
G01X29274Y15981D01*
G01X29278Y16003D01*
G01X29282Y16026D01*
G01X29285Y16049D01*
G01X29288Y16073D01*
G01X29290Y16098D01*
G01X29291Y16123D01*
G01X29293Y16177D01*
G01X29293Y16265D01*
G01X29292Y16297D01*
G01X29290Y16333D01*
G01X29288Y16367D01*
G01X29287Y16397D01*
G01X29285Y16425D01*
G01X29282Y16451D01*
G01X29276Y16497D01*
G01X29272Y16518D01*
G01X29262Y16558D01*
G01X29256Y16578D01*
G01X29240Y16618D01*
G01X29231Y16640D01*
G01X29221Y16663D01*
G01X29210Y16688D01*
G01X29202Y16705D01*
G01X29194Y16721D01*
G01X29176Y16755D01*
G01X29166Y16771D01*
G01X29156Y16788D01*
G01X29136Y16820D01*
G01X29125Y16836D01*
G01X29113Y16852D01*
G01X29102Y16868D01*
G01X29090Y16884D01*
G01X29051Y16932D01*
G01X29037Y16947D01*
G01X29023Y16963D01*
G01X29008Y16978D01*
G01X28978Y17010D01*
G01X28962Y17025D01*
G01X28945Y17040D01*
G01X28929Y17056D01*
G01X28911Y17071D01*
G01X28894Y17087D01*
G01X28875Y17102D01*
G01X28857Y17118D01*
G01X28837Y17133D01*
G01X28818Y17148D01*
G01X28798Y17164D01*
G01X28777Y17179D01*
G01X28756Y17195D01*
G01X28734Y17210D01*
G01X28712Y17226D01*
G01X28689Y17241D01*
G01X28666Y17257D01*
G01X28642Y17272D01*
G01X28618Y17288D01*
G01X28593Y17304D01*
G01X28568Y17319D01*
G01X28542Y17335D01*
G01X28461Y17383D01*
G01X28432Y17399D01*
G01X28404Y17415D01*
G01X28374Y17432D01*
G01X28344Y17448D01*
G01X28314Y17465D01*
G01X28283Y17481D01*
G01X28219Y17515D01*
G37*

%LPD*%
G36*
G01X26719Y17520D02*
G01X26445Y17661D01*
G01X26560Y17536D01*
G01X26578Y17517D01*
G01X26595Y17497D01*
G01X26629Y17459D01*
G01X26645Y17439D01*
G01X26661Y17420D01*
G01X26676Y17401D01*
G01X26691Y17381D01*
G01X26721Y17343D01*
G01X26735Y17323D01*
G01X26748Y17304D01*
G01X26762Y17284D01*
G01X26775Y17265D01*
G01X26787Y17245D01*
G01X26800Y17225D01*
G01X26823Y17186D01*
G01X26835Y17166D01*
G01X26846Y17146D01*
G01X26856Y17126D01*
G01X26866Y17105D01*
G01X26886Y17065D01*
G01X26904Y17023D01*
G01X26913Y17003D01*
G01X26937Y16940D01*
G01X26944Y16918D01*
G01X26952Y16897D01*
G01X26958Y16875D01*
G01X26965Y16854D01*
G01X26977Y16810D01*
G01X26982Y16787D01*
G01X26988Y16765D01*
G01X26993Y16742D01*
G01X26997Y16719D01*
G01X27002Y16696D01*
G01X27006Y16673D01*
G01X27009Y16649D01*
G01X27013Y16626D01*
G01X27019Y16578D01*
G01X27022Y16553D01*
G01X27024Y16529D01*
G01X27030Y16454D01*
G01X27033Y16376D01*
G01X27033Y16349D01*
G01X27034Y16323D01*
G01X27034Y16294D01*
G01X27033Y16266D01*
G01X27033Y16238D01*
G01X27032Y16210D01*
G01X27030Y16182D01*
G01X27029Y16155D01*
G01X27027Y16128D01*
G01X27024Y16101D01*
G01X27022Y16075D01*
G01X27019Y16049D01*
G01X27015Y16023D01*
G01X27012Y15997D01*
G01X27008Y15971D01*
G01X27003Y15946D01*
G01X26999Y15921D01*
G01X26994Y15896D01*
G01X26988Y15872D01*
G01X26983Y15847D01*
G01X26977Y15823D01*
G01X26963Y15775D01*
G01X26956Y15752D01*
G01X26949Y15728D01*
G01X26933Y15682D01*
G01X26924Y15659D01*
G01X26916Y15637D01*
G01X26906Y15614D01*
G01X26897Y15592D01*
G01X26877Y15548D01*
G01X26855Y15504D01*
G01X26843Y15483D01*
G01X26832Y15461D01*
G01X26820Y15440D01*
G01X26781Y15377D01*
G01X26767Y15357D01*
G01X26753Y15336D01*
G01X26739Y15316D01*
G01X26724Y15295D01*
G01X26691Y15251D01*
G01X26674Y15228D01*
G01X26659Y15208D01*
G01X26646Y15190D01*
G01X26635Y15176D01*
G01X26628Y15165D01*
G01X26623Y15158D01*
G01X26622Y15157D01*
G01X26629Y15159D01*
G01X26643Y15162D01*
G01X26662Y15165D01*
G01X26685Y15169D01*
G01X26739Y15179D01*
G01X26765Y15185D01*
G01X26792Y15191D01*
G01X26818Y15197D01*
G01X26896Y15218D01*
G01X26921Y15226D01*
G01X26947Y15234D01*
G01X26972Y15242D01*
G01X26997Y15251D01*
G01X27045Y15269D01*
G01X27117Y15299D01*
G01X27140Y15309D01*
G01X27163Y15320D01*
G01X27185Y15331D01*
G01X27208Y15343D01*
G01X27230Y15354D01*
G01X27251Y15366D01*
G01X27273Y15379D01*
G01X27294Y15391D01*
G01X27314Y15404D01*
G01X27335Y15417D01*
G01X27355Y15430D01*
G01X27374Y15443D01*
G01X27412Y15471D01*
G01X27430Y15485D01*
G01X27448Y15500D01*
G01X27466Y15514D01*
G01X27500Y15544D01*
G01X27516Y15559D01*
G01X27532Y15575D01*
G01X27547Y15591D01*
G01X27562Y15606D01*
G01X27577Y15622D01*
G01X27591Y15639D01*
G01X27617Y15671D01*
G01X27653Y15722D01*
G01X27664Y15739D01*
G01X27674Y15756D01*
G01X27684Y15774D01*
G01X27693Y15791D01*
G01X27702Y15809D01*
G01X27722Y15853D01*
G01X27730Y15876D01*
G01X27739Y15899D01*
G01X27747Y15923D01*
G01X27754Y15947D01*
G01X27760Y15971D01*
G01X27767Y15996D01*
G01X27772Y16022D01*
G01X27777Y16047D01*
G01X27782Y16073D01*
G01X27785Y16099D01*
G01X27789Y16125D01*
G01X27791Y16152D01*
G01X27794Y16178D01*
G01X27795Y16204D01*
G01X27796Y16231D01*
G01X27796Y16284D01*
G01X27795Y16310D01*
G01X27791Y16362D01*
G01X27785Y16414D01*
G01X27782Y16433D01*
G01X27778Y16452D01*
G01X27775Y16472D01*
G01X27771Y16490D01*
G01X27767Y16509D01*
G01X27762Y16528D01*
G01X27752Y16564D01*
G01X27746Y16582D01*
G01X27741Y16600D01*
G01X27735Y16618D01*
G01X27728Y16635D01*
G01X27721Y16653D01*
G01X27707Y16687D01*
G01X27691Y16721D01*
G01X27664Y16772D01*
G01X27655Y16788D01*
G01X27645Y16804D01*
G01X27634Y16821D01*
G01X27624Y16837D01*
G01X27612Y16853D01*
G01X27601Y16869D01*
G01X27577Y16901D01*
G01X27564Y16917D01*
G01X27551Y16932D01*
G01X27538Y16948D01*
G01X27524Y16964D01*
G01X27510Y16979D01*
G01X27495Y16995D01*
G01X27464Y17026D01*
G01X27432Y17056D01*
G01X27415Y17072D01*
G01X27398Y17087D01*
G01X27362Y17117D01*
G01X27343Y17133D01*
G01X27305Y17163D01*
G01X27285Y17178D01*
G01X27243Y17208D01*
G01X27222Y17224D01*
G01X27200Y17239D01*
G01X27177Y17254D01*
G01X27155Y17269D01*
G01X27131Y17285D01*
G01X27083Y17315D01*
G01X27058Y17331D01*
G01X27033Y17346D01*
G01X27007Y17361D01*
G01X26981Y17377D01*
G01X26954Y17393D01*
G01X26926Y17408D01*
G01X26870Y17440D01*
G01X26841Y17455D01*
G01X26751Y17503D01*
G01X26719Y17520D01*
G37*

%LPD*%
G36*
G01X19065Y10129D02*
G01X18980Y10129D01*
G01X18899Y10126D01*
G01X18847Y10122D01*
G01X18822Y10120D01*
G01X18797Y10117D01*
G01X18772Y10113D01*
G01X18748Y10110D01*
G01X18724Y10106D01*
G01X18700Y10101D01*
G01X18677Y10097D01*
G01X18654Y10092D01*
G01X18631Y10086D01*
G01X18587Y10074D01*
G01X18565Y10067D01*
G01X18544Y10060D01*
G01X18481Y10036D01*
G01X18461Y10027D01*
G01X18440Y10018D01*
G01X18420Y10008D01*
G01X18401Y9998D01*
G01X18381Y9987D01*
G01X18362Y9977D01*
G01X18305Y9941D01*
G01X18286Y9928D01*
G01X18268Y9915D01*
G01X18249Y9902D01*
G01X18231Y9888D01*
G01X18177Y9843D01*
G01X18160Y9827D01*
G01X18142Y9811D01*
G01X18112Y9781D01*
G01X18097Y9767D01*
G01X18083Y9751D01*
G01X18069Y9736D01*
G01X18056Y9720D01*
G01X18042Y9704D01*
G01X18029Y9688D01*
G01X18017Y9671D01*
G01X18004Y9654D01*
G01X17992Y9637D01*
G01X17968Y9601D01*
G01X17957Y9583D01*
G01X17945Y9564D01*
G01X17934Y9545D01*
G01X17924Y9525D01*
G01X17913Y9505D01*
G01X17903Y9485D01*
G01X17892Y9464D01*
G01X17883Y9443D01*
G01X17863Y9399D01*
G01X17845Y9353D01*
G01X17827Y9305D01*
G01X17819Y9281D01*
G01X17810Y9255D01*
G01X17802Y9230D01*
G01X17794Y9203D01*
G01X17786Y9177D01*
G01X17770Y9121D01*
G01X17763Y9093D01*
G01X17755Y9063D01*
G01X17748Y9034D01*
G01X17734Y8972D01*
G01X17727Y8940D01*
G01X17708Y8851D01*
G01X17773Y8895D01*
G01X17795Y8909D01*
G01X17837Y8937D01*
G01X17880Y8963D01*
G01X17922Y8989D01*
G01X17944Y9001D01*
G01X17965Y9013D01*
G01X17986Y9024D01*
G01X18008Y9036D01*
G01X18029Y9047D01*
G01X18050Y9057D01*
G01X18072Y9068D01*
G01X18094Y9078D01*
G01X18115Y9088D01*
G01X18137Y9098D01*
G01X18181Y9116D01*
G01X18202Y9125D01*
G01X18225Y9133D01*
G01X18247Y9142D01*
G01X18291Y9158D01*
G01X18314Y9165D01*
G01X18336Y9172D01*
G01X18382Y9186D01*
G01X18405Y9192D01*
G01X18428Y9199D01*
G01X18451Y9205D01*
G01X18474Y9210D01*
G01X18498Y9216D01*
G01X18522Y9221D01*
G01X18545Y9226D01*
G01X18570Y9231D01*
G01X18618Y9239D01*
G01X18668Y9247D01*
G01X18693Y9250D01*
G01X18718Y9254D01*
G01X18743Y9257D01*
G01X18769Y9260D01*
G01X18795Y9262D01*
G01X18847Y9267D01*
G01X18874Y9268D01*
G01X18928Y9272D01*
G01X18955Y9273D01*
G01X19011Y9275D01*
G01X19039Y9275D01*
G01X19067Y9276D01*
G01X19123Y9276D01*
G01X19149Y9275D01*
G01X19176Y9275D01*
G01X19254Y9272D01*
G01X19279Y9271D01*
G01X19379Y9263D01*
G01X19404Y9260D01*
G01X19476Y9251D01*
G01X19500Y9247D01*
G01X19523Y9244D01*
G01X19547Y9240D01*
G01X19570Y9235D01*
G01X19593Y9231D01*
G01X19662Y9216D01*
G01X19685Y9210D01*
G01X19729Y9198D01*
G01X19752Y9192D01*
G01X19774Y9185D01*
G01X19796Y9179D01*
G01X19818Y9171D01*
G01X19839Y9164D01*
G01X19883Y9148D01*
G01X19904Y9140D01*
G01X19926Y9132D01*
G01X19968Y9114D01*
G01X19990Y9104D01*
G01X20011Y9095D01*
G01X20053Y9075D01*
G01X20137Y9031D01*
G01X20158Y9019D01*
G01X20178Y9007D01*
G01X20199Y8995D01*
G01X20220Y8982D01*
G01X20241Y8970D01*
G01X20262Y8956D01*
G01X20282Y8943D01*
G01X20324Y8915D01*
G01X20345Y8900D01*
G01X20366Y8886D01*
G01X20387Y8871D01*
G01X20407Y8855D01*
G01X20470Y8807D01*
G01X20491Y8790D01*
G01X20534Y8756D01*
G01X20597Y8702D01*
G01X20619Y8683D01*
G01X20814Y8512D01*
G01X20626Y8848D01*
G01X20609Y8879D01*
G01X20575Y8939D01*
G01X20524Y9026D01*
G01X20507Y9054D01*
G01X20490Y9081D01*
G01X20474Y9109D01*
G01X20457Y9135D01*
G01X20440Y9162D01*
G01X20423Y9188D01*
G01X20407Y9214D01*
G01X20390Y9239D01*
G01X20374Y9264D01*
G01X20357Y9288D01*
G01X20340Y9313D01*
G01X20324Y9336D01*
G01X20307Y9360D01*
G01X20291Y9383D01*
G01X20275Y9405D01*
G01X20258Y9427D01*
G01X20242Y9449D01*
G01X20225Y9471D01*
G01X20209Y9492D01*
G01X20192Y9512D01*
G01X20176Y9533D01*
G01X20160Y9553D01*
G01X20143Y9572D01*
G01X20111Y9610D01*
G01X20094Y9629D01*
G01X20062Y9665D01*
G01X20045Y9682D01*
G01X20013Y9716D01*
G01X19996Y9732D01*
G01X19964Y9764D01*
G01X19947Y9779D01*
G01X19931Y9794D01*
G01X19914Y9808D01*
G01X19898Y9822D01*
G01X19881Y9836D01*
G01X19865Y9850D01*
G01X19849Y9863D01*
G01X19832Y9876D01*
G01X19816Y9888D01*
G01X19799Y9901D01*
G01X19782Y9913D01*
G01X19766Y9924D01*
G01X19749Y9935D01*
G01X19733Y9946D01*
G01X19716Y9957D01*
G01X19682Y9977D01*
G01X19666Y9986D01*
G01X19615Y10013D01*
G01X19564Y10037D01*
G01X19542Y10047D01*
G01X19521Y10055D01*
G01X19501Y10064D01*
G01X19481Y10071D01*
G01X19462Y10078D01*
G01X19443Y10084D01*
G01X19425Y10090D01*
G01X19406Y10095D01*
G01X19388Y10100D01*
G01X19369Y10104D01*
G01X19349Y10107D01*
G01X19329Y10111D01*
G01X19308Y10114D01*
G01X19286Y10116D01*
G01X19263Y10119D01*
G01X19239Y10121D01*
G01X19213Y10123D01*
G01X19185Y10124D01*
G01X19155Y10126D01*
G01X19124Y10127D01*
G01X19094Y10128D01*
G01X19065Y10129D01*
G37*

%LPD*%
G36*
G01X19067Y8572D02*
G01X19046Y8572D01*
G01X19024Y8571D01*
G01X19003Y8571D01*
G01X18959Y8569D01*
G01X18871Y8561D01*
G01X18848Y8558D01*
G01X18826Y8555D01*
G01X18768Y8545D01*
G01X18740Y8540D01*
G01X18712Y8534D01*
G01X18685Y8528D01*
G01X18659Y8522D01*
G01X18633Y8515D01*
G01X18583Y8501D01*
G01X18558Y8493D01*
G01X18534Y8484D01*
G01X18511Y8475D01*
G01X18487Y8466D01*
G01X18464Y8456D01*
G01X18442Y8446D01*
G01X18398Y8424D01*
G01X18376Y8412D01*
G01X18355Y8400D01*
G01X18313Y8374D01*
G01X18293Y8360D01*
G01X18272Y8346D01*
G01X18232Y8316D01*
G01X18212Y8300D01*
G01X18193Y8283D01*
G01X18173Y8266D01*
G01X18141Y8236D01*
G01X18125Y8220D01*
G01X18110Y8204D01*
G01X18094Y8188D01*
G01X18079Y8171D01*
G01X18064Y8153D01*
G01X18050Y8135D01*
G01X18035Y8117D01*
G01X18007Y8079D01*
G01X17994Y8059D01*
G01X17980Y8039D01*
G01X17967Y8019D01*
G01X17954Y7998D01*
G01X17942Y7977D01*
G01X17929Y7955D01*
G01X17917Y7933D01*
G01X17906Y7911D01*
G01X17894Y7888D01*
G01X17883Y7866D01*
G01X17872Y7842D01*
G01X17861Y7819D01*
G01X17841Y7771D01*
G01X17831Y7746D01*
G01X17804Y7671D01*
G01X17795Y7645D01*
G01X17787Y7620D01*
G01X17779Y7593D01*
G01X17765Y7541D01*
G01X17751Y7487D01*
G01X17745Y7459D01*
G01X17739Y7432D01*
G01X17734Y7404D01*
G01X17729Y7377D01*
G01X17712Y7279D01*
G01X17848Y7370D01*
G01X17866Y7383D01*
G01X17904Y7407D01*
G01X17924Y7418D01*
G01X17943Y7430D01*
G01X17983Y7452D01*
G01X18025Y7474D01*
G01X18088Y7504D01*
G01X18132Y7524D01*
G01X18154Y7533D01*
G01X18199Y7551D01*
G01X18221Y7560D01*
G01X18267Y7576D01*
G01X18291Y7584D01*
G01X18338Y7600D01*
G01X18434Y7628D01*
G01X18458Y7634D01*
G01X18483Y7640D01*
G01X18507Y7646D01*
G01X18532Y7652D01*
G01X18657Y7677D01*
G01X18683Y7681D01*
G01X18708Y7685D01*
G01X18734Y7689D01*
G01X18759Y7692D01*
G01X18811Y7698D01*
G01X18836Y7701D01*
G01X18862Y7704D01*
G01X18914Y7708D01*
G01X18939Y7710D01*
G01X19017Y7713D01*
G01X19069Y7714D01*
G01X19146Y7714D01*
G01X19172Y7713D01*
G01X19197Y7713D01*
G01X19223Y7711D01*
G01X19249Y7710D01*
G01X19274Y7708D01*
G01X19300Y7706D01*
G01X19325Y7704D01*
G01X19350Y7701D01*
G01X19376Y7699D01*
G01X19401Y7696D01*
G01X19426Y7692D01*
G01X19451Y7689D01*
G01X19476Y7685D01*
G01X19522Y7677D01*
G01X19614Y7657D01*
G01X19636Y7652D01*
G01X19682Y7640D01*
G01X19704Y7634D01*
G01X19727Y7627D01*
G01X19793Y7606D01*
G01X19816Y7599D01*
G01X19882Y7575D01*
G01X19904Y7566D01*
G01X19925Y7557D01*
G01X19969Y7539D01*
G01X19991Y7529D01*
G01X20012Y7519D01*
G01X20034Y7509D01*
G01X20055Y7499D01*
G01X20076Y7488D01*
G01X20098Y7477D01*
G01X20140Y7455D01*
G01X20224Y7407D01*
G01X20244Y7394D01*
G01X20286Y7368D01*
G01X20306Y7354D01*
G01X20327Y7341D01*
G01X20347Y7327D01*
G01X20368Y7312D01*
G01X20388Y7298D01*
G01X20448Y7253D01*
G01X20468Y7237D01*
G01X20488Y7222D01*
G01X20508Y7206D01*
G01X20528Y7189D01*
G01X20548Y7173D01*
G01X20568Y7156D01*
G01X20587Y7139D01*
G01X20607Y7121D01*
G01X20626Y7104D01*
G01X20646Y7086D01*
G01X20665Y7068D01*
G01X20838Y6905D01*
G01X20756Y7047D01*
G01X20746Y7063D01*
G01X20736Y7081D01*
G01X20725Y7100D01*
G01X20713Y7121D01*
G01X20700Y7143D01*
G01X20687Y7167D01*
G01X20673Y7191D01*
G01X20659Y7216D01*
G01X20629Y7268D01*
G01X20614Y7295D01*
G01X20569Y7373D01*
G01X20541Y7423D01*
G01X20525Y7452D01*
G01X20508Y7480D01*
G01X20476Y7536D01*
G01X20459Y7563D01*
G01X20443Y7590D01*
G01X20426Y7617D01*
G01X20410Y7643D01*
G01X20393Y7669D01*
G01X20377Y7694D01*
G01X20360Y7719D01*
G01X20343Y7743D01*
G01X20327Y7768D01*
G01X20310Y7792D01*
G01X20293Y7815D01*
G01X20277Y7838D01*
G01X20260Y7861D01*
G01X20209Y7927D01*
G01X20193Y7948D01*
G01X20176Y7969D01*
G01X20159Y7989D01*
G01X20142Y8010D01*
G01X20125Y8029D01*
G01X20108Y8049D01*
G01X20090Y8068D01*
G01X20073Y8086D01*
G01X20056Y8105D01*
G01X20039Y8123D01*
G01X20021Y8140D01*
G01X19987Y8174D01*
G01X19969Y8191D01*
G01X19952Y8207D01*
G01X19934Y8223D01*
G01X19916Y8238D01*
G01X19899Y8253D01*
G01X19881Y8268D01*
G01X19827Y8310D01*
G01X19791Y8336D01*
G01X19737Y8372D01*
G01X19718Y8384D01*
G01X19682Y8406D01*
G01X19644Y8426D01*
G01X19626Y8436D01*
G01X19550Y8472D01*
G01X19531Y8480D01*
G01X19512Y8487D01*
G01X19493Y8495D01*
G01X19473Y8502D01*
G01X19454Y8508D01*
G01X19435Y8515D01*
G01X19415Y8521D01*
G01X19395Y8526D01*
G01X19375Y8532D01*
G01X19356Y8537D01*
G01X19336Y8541D01*
G01X19316Y8546D01*
G01X19295Y8550D01*
G01X19275Y8553D01*
G01X19255Y8557D01*
G01X19234Y8560D01*
G01X19214Y8562D01*
G01X19193Y8565D01*
G01X19173Y8567D01*
G01X19152Y8568D01*
G01X19131Y8570D01*
G01X19110Y8571D01*
G01X19089Y8571D01*
G01X19067Y8572D01*
G37*

%LPD*%
G36*
G01X22047Y6697D02*
G01X21841Y6879D01*
G01X22030Y6542D01*
G01X22066Y6478D01*
G01X22102Y6416D01*
G01X22119Y6386D01*
G01X22136Y6357D01*
G01X22154Y6328D01*
G01X22205Y6244D01*
G01X22222Y6217D01*
G01X22238Y6191D01*
G01X22255Y6165D01*
G01X22271Y6140D01*
G01X22288Y6115D01*
G01X22304Y6090D01*
G01X22320Y6066D01*
G01X22336Y6043D01*
G01X22353Y6020D01*
G01X22369Y5997D01*
G01X22384Y5975D01*
G01X22400Y5953D01*
G01X22432Y5911D01*
G01X22448Y5891D01*
G01X22463Y5871D01*
G01X22495Y5833D01*
G01X22510Y5814D01*
G01X22526Y5796D01*
G01X22541Y5778D01*
G01X22557Y5761D01*
G01X22572Y5744D01*
G01X22588Y5727D01*
G01X22603Y5711D01*
G01X22634Y5680D01*
G01X22650Y5665D01*
G01X22665Y5650D01*
G01X22697Y5622D01*
G01X22712Y5609D01*
G01X22728Y5595D01*
G01X22744Y5583D01*
G01X22759Y5570D01*
G01X22791Y5546D01*
G01X22855Y5502D01*
G01X22871Y5492D01*
G01X22887Y5483D01*
G01X22903Y5473D01*
G01X22920Y5464D01*
G01X22936Y5455D01*
G01X22953Y5446D01*
G01X22969Y5438D01*
G01X23003Y5422D01*
G01X23054Y5401D01*
G01X23072Y5394D01*
G01X23089Y5388D01*
G01X23107Y5382D01*
G01X23124Y5376D01*
G01X23142Y5370D01*
G01X23178Y5360D01*
G01X23197Y5355D01*
G01X23215Y5351D01*
G01X23240Y5345D01*
G01X23315Y5330D01*
G01X23340Y5327D01*
G01X23366Y5323D01*
G01X23391Y5320D01*
G01X23417Y5318D01*
G01X23442Y5316D01*
G01X23468Y5314D01*
G01X23520Y5312D01*
G01X23545Y5312D01*
G01X23571Y5313D01*
G01X23597Y5313D01*
G01X23622Y5314D01*
G01X23648Y5316D01*
G01X23673Y5318D01*
G01X23698Y5321D01*
G01X23723Y5323D01*
G01X23749Y5327D01*
G01X23773Y5331D01*
G01X23823Y5339D01*
G01X23847Y5345D01*
G01X23871Y5350D01*
G01X23895Y5356D01*
G01X23918Y5362D01*
G01X23942Y5369D01*
G01X23965Y5376D01*
G01X23987Y5384D01*
G01X24010Y5392D01*
G01X24032Y5400D01*
G01X24054Y5409D01*
G01X24075Y5418D01*
G01X24096Y5428D01*
G01X24136Y5448D01*
G01X24156Y5459D01*
G01X24175Y5471D01*
G01X24193Y5482D01*
G01X24212Y5494D01*
G01X24230Y5506D01*
G01X24247Y5519D01*
G01X24283Y5545D01*
G01X24300Y5559D01*
G01X24351Y5604D01*
G01X24368Y5620D01*
G01X24417Y5669D01*
G01X24433Y5687D01*
G01X24448Y5704D01*
G01X24464Y5722D01*
G01X24479Y5741D01*
G01X24494Y5759D01*
G01X24509Y5778D01*
G01X24523Y5798D01*
G01X24537Y5817D01*
G01X24565Y5857D01*
G01X24579Y5878D01*
G01X24605Y5920D01*
G01X24617Y5941D01*
G01X24630Y5963D01*
G01X24642Y5985D01*
G01X24665Y6029D01*
G01X24676Y6052D01*
G01X24687Y6074D01*
G01X24707Y6120D01*
G01X24717Y6144D01*
G01X24726Y6167D01*
G01X24744Y6215D01*
G01X24768Y6287D01*
G01X24775Y6312D01*
G01X24788Y6358D01*
G01X24799Y6400D01*
G01X24808Y6439D01*
G01X24816Y6474D01*
G01X24821Y6506D01*
G01X24825Y6533D01*
G01X24827Y6557D01*
G01X24827Y6575D01*
G01X24826Y6589D01*
G01X24822Y6599D01*
G01X24816Y6603D01*
G01X24809Y6602D01*
G01X24804Y6600D01*
G01X24796Y6595D01*
G01X24785Y6589D01*
G01X24770Y6580D01*
G01X24753Y6570D01*
G01X24734Y6559D01*
G01X24713Y6546D01*
G01X24689Y6532D01*
G01X24665Y6516D01*
G01X24639Y6500D01*
G01X24611Y6484D01*
G01X24584Y6466D01*
G01X24563Y6453D01*
G01X24500Y6417D01*
G01X24478Y6405D01*
G01X24457Y6394D01*
G01X24435Y6383D01*
G01X24414Y6372D01*
G01X24392Y6362D01*
G01X24370Y6351D01*
G01X24348Y6341D01*
G01X24326Y6332D01*
G01X24304Y6322D01*
G01X24282Y6313D01*
G01X24259Y6305D01*
G01X24237Y6296D01*
G01X24191Y6280D01*
G01X24169Y6272D01*
G01X24145Y6265D01*
G01X24099Y6251D01*
G01X24052Y6238D01*
G01X24004Y6226D01*
G01X23932Y6211D01*
G01X23907Y6206D01*
G01X23858Y6198D01*
G01X23833Y6194D01*
G01X23808Y6191D01*
G01X23782Y6187D01*
G01X23757Y6184D01*
G01X23731Y6182D01*
G01X23706Y6179D01*
G01X23654Y6175D01*
G01X23627Y6174D01*
G01X23601Y6172D01*
G01X23547Y6170D01*
G01X23439Y6170D01*
G01X23411Y6171D01*
G01X23383Y6171D01*
G01X23355Y6172D01*
G01X23327Y6174D01*
G01X23300Y6175D01*
G01X23273Y6177D01*
G01X23247Y6179D01*
G01X23220Y6182D01*
G01X23194Y6184D01*
G01X23168Y6187D01*
G01X23143Y6190D01*
G01X23117Y6194D01*
G01X23092Y6197D01*
G01X23042Y6205D01*
G01X22992Y6215D01*
G01X22944Y6225D01*
G01X22919Y6231D01*
G01X22895Y6236D01*
G01X22872Y6243D01*
G01X22848Y6249D01*
G01X22824Y6256D01*
G01X22778Y6270D01*
G01X22755Y6278D01*
G01X22732Y6285D01*
G01X22709Y6294D01*
G01X22686Y6302D01*
G01X22663Y6311D01*
G01X22619Y6329D01*
G01X22596Y6339D01*
G01X22530Y6369D01*
G01X22508Y6380D01*
G01X22487Y6391D01*
G01X22465Y6403D01*
G01X22444Y6414D01*
G01X22422Y6426D01*
G01X22401Y6439D01*
G01X22379Y6451D01*
G01X22358Y6464D01*
G01X22337Y6478D01*
G01X22316Y6491D01*
G01X22274Y6519D01*
G01X22232Y6549D01*
G01X22212Y6564D01*
G01X22191Y6580D01*
G01X22170Y6595D01*
G01X22150Y6612D01*
G01X22129Y6628D01*
G01X22109Y6645D01*
G01X22088Y6662D01*
G01X22068Y6679D01*
G01X22047Y6697D01*
G37*

%LPD*%
G36*
G01X19084Y6866D02*
G01X19037Y6866D01*
G01X18959Y6863D01*
G01X18884Y6857D01*
G01X18859Y6854D01*
G01X18835Y6851D01*
G01X18810Y6848D01*
G01X18786Y6844D01*
G01X18763Y6840D01*
G01X18739Y6836D01*
G01X18693Y6826D01*
G01X18670Y6820D01*
G01X18604Y6802D01*
G01X18582Y6795D01*
G01X18561Y6787D01*
G01X18540Y6780D01*
G01X18498Y6764D01*
G01X18478Y6755D01*
G01X18457Y6746D01*
G01X18437Y6736D01*
G01X18418Y6727D01*
G01X18398Y6717D01*
G01X18360Y6696D01*
G01X18342Y6684D01*
G01X18324Y6673D01*
G01X18305Y6661D01*
G01X18288Y6649D01*
G01X18270Y6636D01*
G01X18253Y6624D01*
G01X18236Y6610D01*
G01X18219Y6597D01*
G01X18202Y6583D01*
G01X18186Y6569D01*
G01X18154Y6539D01*
G01X18139Y6524D01*
G01X18094Y6476D01*
G01X18079Y6459D01*
G01X18051Y6425D01*
G01X18038Y6407D01*
G01X18024Y6389D01*
G01X18011Y6371D01*
G01X17998Y6352D01*
G01X17986Y6333D01*
G01X17973Y6313D01*
G01X17961Y6294D01*
G01X17949Y6274D01*
G01X17905Y6190D01*
G01X17894Y6168D01*
G01X17884Y6146D01*
G01X17874Y6123D01*
G01X17865Y6100D01*
G01X17855Y6077D01*
G01X17846Y6054D01*
G01X17837Y6030D01*
G01X17829Y6006D01*
G01X17820Y5981D01*
G01X17804Y5931D01*
G01X17776Y5827D01*
G01X17769Y5800D01*
G01X17763Y5772D01*
G01X17757Y5745D01*
G01X17721Y5570D01*
G01X17849Y5657D01*
G01X17869Y5671D01*
G01X17890Y5685D01*
G01X17910Y5698D01*
G01X17930Y5710D01*
G01X17950Y5723D01*
G01X17971Y5735D01*
G01X18011Y5759D01*
G01X18032Y5770D01*
G01X18052Y5781D01*
G01X18073Y5791D01*
G01X18093Y5802D01*
G01X18114Y5812D01*
G01X18135Y5821D01*
G01X18155Y5831D01*
G01X18197Y5849D01*
G01X18218Y5857D01*
G01X18240Y5865D01*
G01X18261Y5873D01*
G01X18283Y5881D01*
G01X18304Y5888D01*
G01X18326Y5896D01*
G01X18348Y5902D01*
G01X18370Y5909D01*
G01X18416Y5921D01*
G01X18438Y5927D01*
G01X18462Y5933D01*
G01X18485Y5938D01*
G01X18509Y5943D01*
G01X18532Y5948D01*
G01X18557Y5952D01*
G01X18581Y5957D01*
G01X18606Y5961D01*
G01X18631Y5964D01*
G01X18656Y5968D01*
G01X18734Y5977D01*
G01X18761Y5980D01*
G01X18815Y5984D01*
G01X18871Y5988D01*
G01X18900Y5990D01*
G01X18928Y5991D01*
G01X19018Y5994D01*
G01X19049Y5994D01*
G01X19080Y5995D01*
G01X19211Y5995D01*
G01X19241Y5994D01*
G01X19270Y5993D01*
G01X19299Y5993D01*
G01X19326Y5992D01*
G01X19353Y5990D01*
G01X19379Y5989D01*
G01X19404Y5987D01*
G01X19428Y5986D01*
G01X19452Y5984D01*
G01X19475Y5981D01*
G01X19498Y5979D01*
G01X19542Y5973D01*
G01X19563Y5970D01*
G01X19626Y5958D01*
G01X19686Y5943D01*
G01X19707Y5938D01*
G01X19747Y5926D01*
G01X19767Y5919D01*
G01X19830Y5898D01*
G01X19851Y5890D01*
G01X19917Y5863D01*
G01X19940Y5854D01*
G01X19986Y5834D01*
G01X20008Y5824D01*
G01X20052Y5803D01*
G01X20096Y5781D01*
G01X20162Y5745D01*
G01X20183Y5733D01*
G01X20205Y5721D01*
G01X20226Y5708D01*
G01X20269Y5682D01*
G01X20332Y5640D01*
G01X20354Y5625D01*
G01X20396Y5595D01*
G01X20417Y5579D01*
G01X20438Y5564D01*
G01X20459Y5547D01*
G01X20480Y5531D01*
G01X20502Y5514D01*
G01X20523Y5497D01*
G01X20565Y5461D01*
G01X20587Y5443D01*
G01X20608Y5425D01*
G01X20630Y5406D01*
G01X20828Y5228D01*
G01X20673Y5509D01*
G01X20655Y5541D01*
G01X20638Y5573D01*
G01X20620Y5604D01*
G01X20603Y5634D01*
G01X20585Y5665D01*
G01X20568Y5694D01*
G01X20550Y5724D01*
G01X20533Y5753D01*
G01X20482Y5837D01*
G01X20465Y5864D01*
G01X20447Y5891D01*
G01X20431Y5917D01*
G01X20397Y5969D01*
G01X20363Y6019D01*
G01X20346Y6043D01*
G01X20330Y6067D01*
G01X20313Y6091D01*
G01X20279Y6137D01*
G01X20263Y6159D01*
G01X20246Y6181D01*
G01X20230Y6203D01*
G01X20196Y6245D01*
G01X20180Y6266D01*
G01X20163Y6286D01*
G01X20147Y6306D01*
G01X20130Y6325D01*
G01X20114Y6344D01*
G01X20097Y6362D01*
G01X20081Y6381D01*
G01X20064Y6399D01*
G01X20048Y6416D01*
G01X20031Y6433D01*
G01X20015Y6450D01*
G01X19981Y6482D01*
G01X19965Y6498D01*
G01X19948Y6513D01*
G01X19932Y6528D01*
G01X19915Y6543D01*
G01X19881Y6571D01*
G01X19865Y6585D01*
G01X19831Y6611D01*
G01X19763Y6659D01*
G01X19729Y6681D01*
G01X19661Y6721D01*
G01X19643Y6730D01*
G01X19626Y6739D01*
G01X19608Y6748D01*
G01X19591Y6756D01*
G01X19573Y6764D01*
G01X19555Y6771D01*
G01X19538Y6779D01*
G01X19520Y6786D01*
G01X19502Y6792D01*
G01X19484Y6799D01*
G01X19448Y6811D01*
G01X19430Y6816D01*
G01X19411Y6821D01*
G01X19393Y6826D01*
G01X19374Y6831D01*
G01X19356Y6835D01*
G01X19318Y6843D01*
G01X19242Y6855D01*
G01X19223Y6857D01*
G01X19203Y6859D01*
G01X19184Y6861D01*
G01X19164Y6862D01*
G01X19144Y6864D01*
G01X19124Y6864D01*
G01X19084Y6866D01*
G37*

%LPD*%
G36*
G01X22020Y5141D02*
G01X21871Y5272D01*
G01X22039Y4961D01*
G01X22056Y4929D01*
G01X22074Y4898D01*
G01X22091Y4867D01*
G01X22108Y4837D01*
G01X22124Y4807D01*
G01X22141Y4778D01*
G01X22158Y4750D01*
G01X22175Y4721D01*
G01X22191Y4694D01*
G01X22208Y4666D01*
G01X22225Y4640D01*
G01X22241Y4613D01*
G01X22257Y4588D01*
G01X22274Y4562D01*
G01X22290Y4537D01*
G01X22307Y4513D01*
G01X22339Y4465D01*
G01X22355Y4442D01*
G01X22372Y4419D01*
G01X22404Y4375D01*
G01X22436Y4333D01*
G01X22453Y4312D01*
G01X22469Y4292D01*
G01X22485Y4273D01*
G01X22501Y4253D01*
G01X22517Y4235D01*
G01X22534Y4216D01*
G01X22566Y4180D01*
G01X22582Y4163D01*
G01X22631Y4114D01*
G01X22648Y4098D01*
G01X22664Y4083D01*
G01X22681Y4068D01*
G01X22697Y4053D01*
G01X22714Y4039D01*
G01X22731Y4026D01*
G01X22747Y4012D01*
G01X22781Y3986D01*
G01X22832Y3950D01*
G01X22866Y3928D01*
G01X22884Y3918D01*
G01X22901Y3907D01*
G01X22919Y3897D01*
G01X22936Y3888D01*
G01X22990Y3861D01*
G01X23044Y3837D01*
G01X23063Y3830D01*
G01X23081Y3823D01*
G01X23100Y3816D01*
G01X23176Y3792D01*
G01X23195Y3787D01*
G01X23215Y3782D01*
G01X23234Y3777D01*
G01X23294Y3765D01*
G01X23315Y3761D01*
G01X23335Y3758D01*
G01X23356Y3755D01*
G01X23382Y3751D01*
G01X23408Y3748D01*
G01X23462Y3744D01*
G01X23488Y3743D01*
G01X23515Y3742D01*
G01X23569Y3742D01*
G01X23623Y3744D01*
G01X23677Y3748D01*
G01X23731Y3754D01*
G01X23758Y3758D01*
G01X23810Y3766D01*
G01X23836Y3772D01*
G01X23862Y3777D01*
G01X23887Y3783D01*
G01X23937Y3797D01*
G01X23961Y3804D01*
G01X24009Y3820D01*
G01X24032Y3829D01*
G01X24054Y3838D01*
G01X24076Y3848D01*
G01X24094Y3857D01*
G01X24113Y3866D01*
G01X24131Y3875D01*
G01X24149Y3885D01*
G01X24166Y3896D01*
G01X24184Y3906D01*
G01X24202Y3918D01*
G01X24253Y3954D01*
G01X24270Y3967D01*
G01X24304Y3995D01*
G01X24320Y4009D01*
G01X24337Y4024D01*
G01X24369Y4054D01*
G01X24384Y4070D01*
G01X24400Y4086D01*
G01X24416Y4103D01*
G01X24461Y4154D01*
G01X24475Y4172D01*
G01X24490Y4191D01*
G01X24504Y4209D01*
G01X24518Y4228D01*
G01X24532Y4248D01*
G01X24546Y4267D01*
G01X24572Y4307D01*
G01X24598Y4349D01*
G01X24622Y4391D01*
G01X24658Y4457D01*
G01X24669Y4479D01*
G01X24680Y4502D01*
G01X24690Y4525D01*
G01X24701Y4548D01*
G01X24711Y4572D01*
G01X24721Y4595D01*
G01X24731Y4619D01*
G01X24749Y4667D01*
G01X24758Y4692D01*
G01X24766Y4717D01*
G01X24774Y4741D01*
G01X24782Y4767D01*
G01X24789Y4792D01*
G01X24797Y4817D01*
G01X24804Y4843D01*
G01X24810Y4869D01*
G01X24816Y4894D01*
G01X24822Y4921D01*
G01X24828Y4947D01*
G01X24833Y4973D01*
G01X24838Y5000D01*
G01X24843Y5025D01*
G01X24847Y5047D01*
G01X24851Y5063D01*
G01X24853Y5070D01*
G01X24851Y5070D01*
G01X24843Y5065D01*
G01X24831Y5056D01*
G01X24814Y5044D01*
G01X24793Y5029D01*
G01X24768Y5012D01*
G01X24741Y4993D01*
G01X24712Y4972D01*
G01X24692Y4958D01*
G01X24672Y4943D01*
G01X24651Y4930D01*
G01X24630Y4916D01*
G01X24610Y4903D01*
G01X24568Y4877D01*
G01X24547Y4865D01*
G01X24525Y4853D01*
G01X24483Y4829D01*
G01X24439Y4807D01*
G01X24418Y4797D01*
G01X24396Y4786D01*
G01X24374Y4776D01*
G01X24351Y4767D01*
G01X24329Y4757D01*
G01X24306Y4748D01*
G01X24284Y4739D01*
G01X24192Y4707D01*
G01X24168Y4699D01*
G01X24145Y4692D01*
G01X24121Y4686D01*
G01X24097Y4679D01*
G01X24049Y4667D01*
G01X24024Y4661D01*
G01X24000Y4656D01*
G01X23925Y4641D01*
G01X23899Y4637D01*
G01X23874Y4633D01*
G01X23848Y4629D01*
G01X23796Y4622D01*
G01X23769Y4619D01*
G01X23743Y4617D01*
G01X23716Y4614D01*
G01X23662Y4610D01*
G01X23634Y4609D01*
G01X23606Y4607D01*
G01X23579Y4606D01*
G01X23550Y4606D01*
G01X23522Y4605D01*
G01X23437Y4605D01*
G01X23409Y4606D01*
G01X23382Y4606D01*
G01X23328Y4608D01*
G01X23301Y4610D01*
G01X23275Y4611D01*
G01X23223Y4615D01*
G01X23172Y4620D01*
G01X23146Y4623D01*
G01X23121Y4626D01*
G01X23097Y4629D01*
G01X23047Y4637D01*
G01X22975Y4649D01*
G01X22952Y4654D01*
G01X22928Y4659D01*
G01X22905Y4665D01*
G01X22882Y4670D01*
G01X22858Y4676D01*
G01X22836Y4682D01*
G01X22813Y4688D01*
G01X22790Y4695D01*
G01X22746Y4709D01*
G01X22723Y4716D01*
G01X22701Y4724D01*
G01X22680Y4732D01*
G01X22658Y4740D01*
G01X22636Y4749D01*
G01X22615Y4758D01*
G01X22593Y4767D01*
G01X22572Y4776D01*
G01X22551Y4786D01*
G01X22529Y4796D01*
G01X22508Y4806D01*
G01X22488Y4816D01*
G01X22425Y4849D01*
G01X22404Y4861D01*
G01X22384Y4873D01*
G01X22363Y4885D01*
G01X22323Y4911D01*
G01X22302Y4924D01*
G01X22282Y4937D01*
G01X22262Y4951D01*
G01X22241Y4965D01*
G01X22221Y4980D01*
G01X22201Y4994D01*
G01X22181Y5009D01*
G01X22161Y5025D01*
G01X22140Y5040D01*
G01X22120Y5056D01*
G01X22100Y5073D01*
G01X22080Y5089D01*
G01X22040Y5123D01*
G01X22020Y5141D01*
G37*

%LPD*%
G36*
G01X22080Y3402D02*
G01X21870Y3587D01*
G01X22045Y3264D01*
G01X22062Y3232D01*
G01X22080Y3201D01*
G01X22097Y3170D01*
G01X22131Y3110D01*
G01X22148Y3081D01*
G01X22164Y3052D01*
G01X22198Y2996D01*
G01X22214Y2969D01*
G01X22231Y2942D01*
G01X22247Y2916D01*
G01X22264Y2890D01*
G01X22312Y2815D01*
G01X22329Y2791D01*
G01X22377Y2722D01*
G01X22393Y2700D01*
G01X22409Y2679D01*
G01X22425Y2657D01*
G01X22441Y2636D01*
G01X22473Y2596D01*
G01X22489Y2577D01*
G01X22505Y2557D01*
G01X22520Y2539D01*
G01X22536Y2520D01*
G01X22552Y2502D01*
G01X22600Y2451D01*
G01X22648Y2403D01*
G01X22680Y2373D01*
G01X22728Y2331D01*
G01X22744Y2318D01*
G01X22761Y2305D01*
G01X22777Y2292D01*
G01X22793Y2280D01*
G01X22826Y2256D01*
G01X22843Y2245D01*
G01X22859Y2234D01*
G01X22876Y2223D01*
G01X22927Y2193D01*
G01X22995Y2157D01*
G01X23012Y2149D01*
G01X23030Y2141D01*
G01X23054Y2131D01*
G01X23076Y2122D01*
G01X23097Y2113D01*
G01X23117Y2105D01*
G01X23137Y2098D01*
G01X23156Y2091D01*
G01X23175Y2086D01*
G01X23194Y2080D01*
G01X23232Y2072D01*
G01X23252Y2068D01*
G01X23273Y2065D01*
G01X23295Y2062D01*
G01X23318Y2059D01*
G01X23343Y2057D01*
G01X23369Y2055D01*
G01X23397Y2053D01*
G01X23428Y2052D01*
G01X23460Y2050D01*
G01X23495Y2049D01*
G01X23528Y2048D01*
G01X23560Y2047D01*
G01X23621Y2047D01*
G01X23650Y2048D01*
G01X23678Y2048D01*
G01X23706Y2050D01*
G01X23732Y2051D01*
G01X23758Y2053D01*
G01X23808Y2059D01*
G01X23832Y2062D01*
G01X23878Y2070D01*
G01X23900Y2075D01*
G01X23944Y2087D01*
G01X23965Y2093D01*
G01X23986Y2100D01*
G01X24007Y2108D01*
G01X24027Y2116D01*
G01X24048Y2124D01*
G01X24068Y2134D01*
G01X24089Y2144D01*
G01X24109Y2154D01*
G01X24129Y2165D01*
G01X24150Y2177D01*
G01X24170Y2190D01*
G01X24212Y2216D01*
G01X24233Y2231D01*
G01X24255Y2246D01*
G01X24274Y2260D01*
G01X24310Y2288D01*
G01X24364Y2333D01*
G01X24398Y2365D01*
G01X24414Y2381D01*
G01X24430Y2398D01*
G01X24447Y2415D01*
G01X24462Y2432D01*
G01X24478Y2450D01*
G01X24493Y2467D01*
G01X24508Y2486D01*
G01X24523Y2504D01*
G01X24551Y2542D01*
G01X24579Y2582D01*
G01X24605Y2622D01*
G01X24617Y2643D01*
G01X24630Y2664D01*
G01X24642Y2685D01*
G01X24654Y2707D01*
G01X24665Y2729D01*
G01X24677Y2751D01*
G01X24688Y2774D01*
G01X24698Y2796D01*
G01X24709Y2820D01*
G01X24719Y2843D01*
G01X24728Y2867D01*
G01X24738Y2891D01*
G01X24747Y2915D01*
G01X24756Y2940D01*
G01X24765Y2964D01*
G01X24773Y2990D01*
G01X24781Y3015D01*
G01X24789Y3041D01*
G01X24803Y3093D01*
G01X24810Y3120D01*
G01X24816Y3146D01*
G01X24826Y3187D01*
G01X24834Y3221D01*
G01X24840Y3251D01*
G01X24845Y3277D01*
G01X24848Y3297D01*
G01X24848Y3313D01*
G01X24847Y3325D01*
G01X24843Y3332D01*
G01X24837Y3336D01*
G01X24828Y3335D01*
G01X24817Y3331D01*
G01X24802Y3324D01*
G01X24785Y3313D01*
G01X24764Y3299D01*
G01X24740Y3282D01*
G01X24712Y3262D01*
G01X24652Y3220D01*
G01X24632Y3207D01*
G01X24611Y3194D01*
G01X24570Y3169D01*
G01X24550Y3157D01*
G01X24508Y3133D01*
G01X24487Y3122D01*
G01X24465Y3111D01*
G01X24444Y3100D01*
G01X24423Y3090D01*
G01X24379Y3070D01*
G01X24358Y3061D01*
G01X24336Y3051D01*
G01X24313Y3042D01*
G01X24291Y3034D01*
G01X24269Y3025D01*
G01X24223Y3009D01*
G01X24154Y2988D01*
G01X24130Y2981D01*
G01X24107Y2975D01*
G01X24083Y2968D01*
G01X24059Y2962D01*
G01X24011Y2952D01*
G01X23986Y2946D01*
G01X23961Y2942D01*
G01X23936Y2937D01*
G01X23886Y2929D01*
G01X23860Y2925D01*
G01X23834Y2922D01*
G01X23808Y2918D01*
G01X23782Y2915D01*
G01X23756Y2913D01*
G01X23729Y2910D01*
G01X23675Y2906D01*
G01X23648Y2905D01*
G01X23620Y2903D01*
G01X23564Y2901D01*
G01X23536Y2901D01*
G01X23507Y2900D01*
G01X23452Y2900D01*
G01X23425Y2901D01*
G01X23399Y2901D01*
G01X23321Y2904D01*
G01X23270Y2907D01*
G01X23245Y2909D01*
G01X23220Y2912D01*
G01X23196Y2914D01*
G01X23147Y2920D01*
G01X23122Y2923D01*
G01X23098Y2926D01*
G01X23075Y2930D01*
G01X23027Y2938D01*
G01X23004Y2942D01*
G01X22981Y2947D01*
G01X22958Y2951D01*
G01X22935Y2957D01*
G01X22889Y2967D01*
G01X22867Y2973D01*
G01X22822Y2986D01*
G01X22800Y2992D01*
G01X22778Y2999D01*
G01X22757Y3006D01*
G01X22735Y3013D01*
G01X22713Y3021D01*
G01X22650Y3045D01*
G01X22566Y3081D01*
G01X22546Y3091D01*
G01X22505Y3111D01*
G01X22485Y3121D01*
G01X22425Y3154D01*
G01X22405Y3166D01*
G01X22385Y3177D01*
G01X22366Y3189D01*
G01X22346Y3202D01*
G01X22327Y3214D01*
G01X22307Y3227D01*
G01X22288Y3240D01*
G01X22269Y3254D01*
G01X22249Y3267D01*
G01X22211Y3295D01*
G01X22192Y3310D01*
G01X22174Y3325D01*
G01X22117Y3370D01*
G01X22080Y3402D01*
G37*

%LPD*%
G36*
G01X21672Y10637D02*
G01X21093Y10637D01*
G01X21093Y1591D01*
G01X21353Y1584D01*
G01X21423Y1582D01*
G01X21547Y1582D01*
G01X21573Y1583D01*
G01X21595Y1584D01*
G01X21615Y1585D01*
G01X21630Y1586D01*
G01X21642Y1588D01*
G01X21649Y1589D01*
G01X21652Y1592D01*
G01X21652Y1593D01*
G01X21653Y1594D01*
G01X21653Y1595D01*
G01X21654Y1597D01*
G01X21654Y1600D01*
G01X21655Y1602D01*
G01X21655Y1604D01*
G01X21656Y1606D01*
G01X21656Y1609D01*
G01X21657Y1611D01*
G01X21657Y1617D01*
G01X21658Y1620D01*
G01X21658Y1623D01*
G01X21659Y1627D01*
G01X21659Y1630D01*
G01X21660Y1634D01*
G01X21660Y1642D01*
G01X21661Y1646D01*
G01X21661Y1651D01*
G01X21662Y1661D01*
G01X21662Y1666D01*
G01X21663Y1677D01*
G01X21663Y1682D01*
G01X21664Y1688D01*
G01X21664Y1701D01*
G01X21665Y1707D01*
G01X21665Y1721D01*
G01X21666Y1728D01*
G01X21666Y1744D01*
G01X21667Y1760D01*
G01X21667Y1768D01*
G01X21668Y1777D01*
G01X21668Y1804D01*
G01X21669Y1813D01*
G01X21669Y1833D01*
G01X21670Y1843D01*
G01X21670Y1876D01*
G01X21671Y1887D01*
G01X21671Y1922D01*
G01X21672Y1935D01*
G01X21672Y1973D01*
G01X21673Y1986D01*
G01X21673Y2028D01*
G01X21674Y2043D01*
G01X21674Y2103D01*
G01X21675Y2119D01*
G01X21675Y2186D01*
G01X21676Y2203D01*
G01X21676Y2295D01*
G01X21677Y2314D01*
G01X21677Y2415D01*
G01X21678Y2436D01*
G01X21678Y2594D01*
G01X21679Y2618D01*
G01X21679Y2821D01*
G01X21680Y2848D01*
G01X21680Y3233D01*
G01X21681Y3266D01*
G01X21681Y4903D01*
G01X21680Y4953D01*
G01X21680Y5706D01*
G01X21679Y5764D01*
G01X21679Y6120D01*
G01X21672Y10637D01*
G37*

%LPD*%
G54D54*
G01X23578Y15570D02*
G01X23578Y15294D01*
G01X23078Y15570D02*
G01X23078Y15294D01*
G54D55*
G01X28688Y3027D02*
G01X28688Y2634D01*
G01X25286Y3027D02*
G01X25286Y2634D01*
G01X25286Y976D02*
G01X25286Y464D01*
G01X28688Y976D02*
G01X28688Y464D01*
G54D58*
G01X7682Y8089D03*
G01X7679Y8442D03*
G01X7681Y8830D03*
G01X7683Y9207D03*
G01X10058Y8070D03*
G01X10058Y8464D03*
G01X10058Y8858D03*
G01X10058Y9251D03*
G01X10058Y13976D03*
G01X10058Y14370D03*
G01X10058Y14763D03*
G01X10058Y15157D03*
G01X7674Y13970D03*
G01X7668Y14325D03*
G01X7668Y14721D03*
G01X7666Y15129D03*
G01X9861Y19488D03*
G01X10255Y19488D03*
G01X10648Y19488D03*
G01X11042Y19488D03*
G01X11042Y21850D03*
G01X10648Y21850D03*
G01X10255Y21850D03*
G01X9861Y21850D03*
G54D59*
G01X1181Y22488D03*
G01X1181Y1229D03*
G01X30333Y1181D03*
G01X30333Y22440D03*
G54D60*
G01X984Y17764D03*
G01X984Y11859D03*
G01X984Y5953D03*
G01X16160Y22047D03*
G01X19310Y22047D03*
G01X984Y19260D03*
G01X984Y16229D03*
G01X984Y13434D03*
G01X984Y10284D03*
G01X984Y4378D03*
G01X984Y7528D03*
G54D58*
G01X9664Y19094D03*
G01X10058Y19094D03*
G01X10452Y19094D03*
G01X10845Y19094D03*
G01X11239Y19094D03*
G01X11239Y17913D03*
G01X10845Y17913D03*
G01X10452Y17913D03*
G01X10058Y17913D03*
G01X9664Y17913D03*
G01X9664Y13188D03*
G01X10058Y13188D03*
G01X10452Y13188D03*
G01X10845Y13188D03*
G01X11239Y13188D03*
G01X11239Y12007D03*
G01X10845Y12007D03*
G01X10452Y12007D03*
G01X10058Y12007D03*
G01X9664Y12007D03*
G01X9664Y7283D03*
G01X10058Y7283D03*
G01X10452Y7283D03*
G01X10845Y7283D03*
G01X11239Y7283D03*
G01X11239Y6102D03*
G01X10845Y6102D03*
G01X10452Y6102D03*
G01X10058Y6102D03*
G01X9664Y6102D03*
G01X11830Y21850D03*
G01X12223Y21850D03*
G01X12617Y21850D03*
G01X13011Y21850D03*
G01X13011Y19488D03*
G01X12617Y19488D03*
G01X12223Y19488D03*
G01X11830Y19488D03*
G01X13798Y21850D03*
G01X14192Y21850D03*
G01X14585Y21850D03*
G01X14979Y21850D03*
G01X14979Y19488D03*
G01X14585Y19488D03*
G01X14192Y19488D03*
G01X13798Y19488D03*
G01X11082Y3785D03*
G01X11475Y3785D03*
G01X11397Y14691D03*
G01X11397Y14258D03*
G01X11357Y8785D03*
G01X11357Y8392D03*
G01X7283Y21229D03*
G01X7283Y20874D03*
G01X7283Y20481D03*
G01X7283Y20126D03*
G01X7266Y15129D03*
G01X7268Y14723D03*
G01X7268Y14330D03*
G01X7268Y13975D03*
G01X7256Y9212D03*
G01X7256Y8838D03*
G01X7256Y8444D03*
G01X7256Y8090D03*
G01X20865Y23276D03*
G01X21653Y23276D03*
G01X22440Y23276D03*
G01X23228Y23276D03*
G01X24015Y23276D03*
G01X24802Y23276D03*
G01X25590Y23276D03*
G01X26377Y23276D03*
G01X27165Y23276D03*
G01X27952Y23276D03*
G01X28739Y23276D03*
G01X31102Y20914D03*
G01X31102Y20126D03*
G01X31102Y19339D03*
G01X31102Y18552D03*
G01X31102Y17764D03*
G01X31102Y16977D03*
G01X31102Y16189D03*
G01X31102Y15402D03*
G01X31102Y14615D03*
G01X9842Y2804D03*
G01X9842Y2016D03*
G01X9842Y1229D03*
G01X9842Y441D03*
G01X10629Y441D03*
G01X11417Y441D03*
G01X12204Y441D03*
G01X12991Y441D03*
G01X13779Y441D03*
G01X14566Y441D03*
G01X15354Y441D03*
G01X16141Y441D03*
G01X16928Y441D03*
G01X17716Y441D03*
G01X18503Y441D03*
G01X19291Y441D03*
G01X20078Y441D03*
G01X20865Y441D03*
G01X21653Y441D03*
G01X22440Y441D03*
G01X23228Y441D03*
G01X24015Y441D03*
G36*
G01X18920Y13622D02*
G01X18920Y15473D01*
G01X20575Y15473D01*
G01X20575Y13622D01*
G01X18920Y13622D01*
G37*
G36*
G01X18901Y11125D02*
G01X18901Y12977D01*
G01X20556Y12977D01*
G01X20556Y11125D01*
G01X18901Y11125D01*
G37*
G36*
G01X29440Y7380D02*
G01X29440Y8089D01*
G01X30150Y8089D01*
G01X30150Y7380D01*
G01X29440Y7380D01*
G37*
G54D67*
G01X29795Y8735D03*
G01X30795Y7735D03*
G01X30795Y8735D03*
G36*
G01X23286Y13419D02*
G01X23286Y14286D01*
G01X24153Y14286D01*
G01X24153Y13419D01*
G01X23286Y13419D01*
G37*
G54D69*
G01X23720Y12853D03*
G36*
G01X30321Y3037D02*
G01X30321Y3904D01*
G01X31188Y3904D01*
G01X31188Y3037D01*
G01X30321Y3037D01*
G37*
G01X29755Y3471D03*
G36*
G01X29440Y12704D02*
G01X29440Y13413D01*
G01X30150Y13413D01*
G01X30150Y12704D01*
G01X29440Y12704D01*
G37*
G54D67*
G01X30795Y13059D03*
G01X29795Y12059D03*
G01X30795Y12059D03*
G36*
G01X30440Y9539D02*
G01X30440Y10248D01*
G01X31150Y10248D01*
G01X31150Y9539D01*
G01X30440Y9539D01*
G37*
G01X29795Y9894D03*
G01X30795Y10894D03*
G01X29795Y10894D03*
G36*
G01X30440Y6214D02*
G01X30440Y6923D01*
G01X31150Y6923D01*
G01X31150Y6214D01*
G01X30440Y6214D01*
G37*
G01X30795Y5569D03*
G01X29795Y6569D03*
G01X29795Y5569D03*
G54D69*
G01X27631Y12349D03*
G01X27631Y14349D03*
G36*
G01X22361Y15077D02*
G01X22361Y15787D01*
G01X22795Y15787D01*
G01X22795Y15077D01*
G01X22361Y15077D01*
G37*
G36*
G01X25972Y11640D02*
G01X25972Y12153D01*
G01X26445Y12153D01*
G01X26445Y11640D01*
G01X25972Y11640D01*
G37*
G36*
G01X26602Y11640D02*
G01X26602Y12153D01*
G01X27075Y12153D01*
G01X27075Y11640D01*
G01X26602Y11640D01*
G37*
G54D82*
G01X14467Y17125D03*
G01X14467Y18125D03*
G01X14507Y11259D03*
G01X14507Y12259D03*
G01X14507Y5315D03*
G01X14507Y6315D03*
G36*
G01X26896Y8712D02*
G01X26422Y9186D01*
G01X26896Y9661D01*
G01X27370Y9186D01*
G01X26896Y8712D01*
G37*
G54D86*
G01X25538Y10544D03*

%LPD*%
G36*
G01X6711Y5118D02*
G01X6711Y5314D01*
G01X6515Y5118D01*
G01X6711Y5118D01*
G37*

%LPD*%
G36*
G01X8483Y3740D02*
G01X8483Y16929D01*
G01X6711Y16732D01*
G01X6711Y3740D01*
G01X6908Y3543D01*
G01X8286Y3543D01*
G01X8483Y3740D01*
G37*

%LPD*%
G36*
G01X6711Y11023D02*
G01X6711Y11220D01*
G01X6515Y11023D01*
G01X6711Y11023D01*
G37*

%LPD*%
G36*
G01X6711Y16929D02*
G01X6711Y17125D01*
G01X6515Y16929D01*
G01X6711Y16929D01*
G37*

%LPD*%
G36*
G01X16554Y23031D02*
G01X6908Y23031D01*
G01X6908Y22834D01*
G01X6711Y22834D01*
G01X6711Y16929D01*
G01X8483Y16929D01*
G01X8483Y20866D01*
G01X8680Y21062D01*
G01X16554Y21062D01*
G01X17145Y21456D01*
G01X17145Y22637D01*
G01X16554Y23031D01*
G37*

%LPD*%
G36*
G01X6908Y22834D02*
G01X6908Y23031D01*
G01X6711Y22834D01*
G01X6908Y22834D01*
G37*

%LPD*%
G36*
G01X19900Y22834D02*
G01X18719Y22834D01*
G01X18326Y22440D01*
G01X18326Y20472D01*
G01X18129Y20275D01*
G01X9467Y20275D01*
G01X9271Y20078D01*
G01X9270Y6692D01*
G01X9270Y3740D01*
G01X9467Y3543D01*
G01X11436Y3543D01*
G01X11633Y3740D01*
G01X11633Y18110D01*
G01X11830Y18307D01*
G01X20097Y18307D01*
G01X20294Y18503D01*
G01X20294Y22440D01*
G01X19900Y22834D01*
G37*

%LPD*%
G36*
G01X6711Y16938D02*
G01X6711Y16968D01*
G01X6692Y16937D01*
G01X6712Y16937D01*
G01X6711Y16771D01*
G01X6711Y3779D01*
G01X6908Y3582D01*
G01X8286Y3582D01*
G01X8483Y3779D01*
G01X8484Y16937D01*
G01X6711Y16938D01*
G37*

%LPD*%
G36*
G01X19900Y22834D02*
G01X18719Y22834D01*
G01X18326Y22440D01*
G01X18326Y20472D01*
G01X18129Y20275D01*
G01X9467Y20275D01*
G01X9271Y20078D01*
G01X9270Y6692D01*
G01X9270Y3740D01*
G01X9467Y3543D01*
G01X11436Y3543D01*
G01X11633Y3740D01*
G01X11633Y18110D01*
G01X11830Y18307D01*
G01X20097Y18307D01*
G01X20294Y18503D01*
G01X20294Y22440D01*
G01X19900Y22834D01*
G37*
M00*
M02*
